<?xml version="1.0" encoding="utf-8" standalone="no"?>
<!DOCTYPE svg PUBLIC "-//W3C//DTD SVG 1.1//EN"
  "http://www.w3.org/Graphics/SVG/1.1/DTD/svg11.dtd">
<!-- Created with matplotlib (https://matplotlib.org/) -->
<svg height="351.033625pt" version="1.1" viewBox="0 0 711.38875 351.033625" width="711.38875pt" xmlns="http://www.w3.org/2000/svg" xmlns:xlink="http://www.w3.org/1999/xlink">
 <defs>
  <style type="text/css">
*{stroke-linecap:butt;stroke-linejoin:round;}
  </style>
 </defs>
 <g id="figure_1">
  <g id="patch_1">
   <path d="M 0 351.033625 
L 711.38875 351.033625 
L 711.38875 0 
L 0 0 
z
" style="fill:#ffffff;"/>
  </g>
  <g id="axes_1">
   <g id="patch_2">
    <path d="M 42.53875 311.54175 
L 704.18875 311.54175 
L 704.18875 24.14175 
L 42.53875 24.14175 
z
" style="fill:#e5e5e5;"/>
   </g>
   <g id="matplotlib.axis_1">
    <g id="xtick_1">
     <g id="line2d_1">
      <defs>
       <path d="M 0 0 
L 0 3.5 
" id="m7bd60dc313" style="stroke:#555555;stroke-width:0.8;"/>
      </defs>
      <g>
       <use style="fill:#555555;stroke:#555555;stroke-width:0.8;" x="72.61375" xlink:href="#m7bd60dc313" y="311.54175"/>
      </g>
     </g>
     <g id="text_1">
      <!-- 1 -->
      <defs>
       <path d="M 12.40625 8.296875 
L 28.515625 8.296875 
L 28.515625 63.921875 
L 10.984375 60.40625 
L 10.984375 69.390625 
L 28.421875 72.90625 
L 38.28125 72.90625 
L 38.28125 8.296875 
L 54.390625 8.296875 
L 54.390625 0 
L 12.40625 0 
z
" id="DejaVuSans-49"/>
      </defs>
      <g style="fill:#555555;" transform="translate(69.4325 326.140187)scale(0.1 -0.1)">
       <use xlink:href="#DejaVuSans-49"/>
      </g>
     </g>
    </g>
    <g id="xtick_2">
     <g id="line2d_2">
      <g>
       <use style="fill:#555555;stroke:#555555;stroke-width:0.8;" x="132.76375" xlink:href="#m7bd60dc313" y="311.54175"/>
      </g>
     </g>
     <g id="text_2">
      <!-- 2 -->
      <defs>
       <path d="M 19.1875 8.296875 
L 53.609375 8.296875 
L 53.609375 0 
L 7.328125 0 
L 7.328125 8.296875 
Q 12.9375 14.109375 22.625 23.890625 
Q 32.328125 33.6875 34.8125 36.53125 
Q 39.546875 41.84375 41.421875 45.53125 
Q 43.3125 49.21875 43.3125 52.78125 
Q 43.3125 58.59375 39.234375 62.25 
Q 35.15625 65.921875 28.609375 65.921875 
Q 23.96875 65.921875 18.8125 64.3125 
Q 13.671875 62.703125 7.8125 59.421875 
L 7.8125 69.390625 
Q 13.765625 71.78125 18.9375 73 
Q 24.125 74.21875 28.421875 74.21875 
Q 39.75 74.21875 46.484375 68.546875 
Q 53.21875 62.890625 53.21875 53.421875 
Q 53.21875 48.921875 51.53125 44.890625 
Q 49.859375 40.875 45.40625 35.40625 
Q 44.1875 33.984375 37.640625 27.21875 
Q 31.109375 20.453125 19.1875 8.296875 
z
" id="DejaVuSans-50"/>
      </defs>
      <g style="fill:#555555;" transform="translate(129.5825 326.140187)scale(0.1 -0.1)">
       <use xlink:href="#DejaVuSans-50"/>
      </g>
     </g>
    </g>
    <g id="xtick_3">
     <g id="line2d_3">
      <g>
       <use style="fill:#555555;stroke:#555555;stroke-width:0.8;" x="192.91375" xlink:href="#m7bd60dc313" y="311.54175"/>
      </g>
     </g>
     <g id="text_3">
      <!-- 3 -->
      <defs>
       <path d="M 40.578125 39.3125 
Q 47.65625 37.796875 51.625 33 
Q 55.609375 28.21875 55.609375 21.1875 
Q 55.609375 10.40625 48.1875 4.484375 
Q 40.765625 -1.421875 27.09375 -1.421875 
Q 22.515625 -1.421875 17.65625 -0.515625 
Q 12.796875 0.390625 7.625 2.203125 
L 7.625 11.71875 
Q 11.71875 9.328125 16.59375 8.109375 
Q 21.484375 6.890625 26.8125 6.890625 
Q 36.078125 6.890625 40.9375 10.546875 
Q 45.796875 14.203125 45.796875 21.1875 
Q 45.796875 27.640625 41.28125 31.265625 
Q 36.765625 34.90625 28.71875 34.90625 
L 20.21875 34.90625 
L 20.21875 43.015625 
L 29.109375 43.015625 
Q 36.375 43.015625 40.234375 45.921875 
Q 44.09375 48.828125 44.09375 54.296875 
Q 44.09375 59.90625 40.109375 62.90625 
Q 36.140625 65.921875 28.71875 65.921875 
Q 24.65625 65.921875 20.015625 65.03125 
Q 15.375 64.15625 9.8125 62.3125 
L 9.8125 71.09375 
Q 15.4375 72.65625 20.34375 73.4375 
Q 25.25 74.21875 29.59375 74.21875 
Q 40.828125 74.21875 47.359375 69.109375 
Q 53.90625 64.015625 53.90625 55.328125 
Q 53.90625 49.265625 50.4375 45.09375 
Q 46.96875 40.921875 40.578125 39.3125 
z
" id="DejaVuSans-51"/>
      </defs>
      <g style="fill:#555555;" transform="translate(189.7325 326.140187)scale(0.1 -0.1)">
       <use xlink:href="#DejaVuSans-51"/>
      </g>
     </g>
    </g>
    <g id="xtick_4">
     <g id="line2d_4">
      <g>
       <use style="fill:#555555;stroke:#555555;stroke-width:0.8;" x="253.06375" xlink:href="#m7bd60dc313" y="311.54175"/>
      </g>
     </g>
     <g id="text_4">
      <!-- 4 -->
      <defs>
       <path d="M 37.796875 64.3125 
L 12.890625 25.390625 
L 37.796875 25.390625 
z
M 35.203125 72.90625 
L 47.609375 72.90625 
L 47.609375 25.390625 
L 58.015625 25.390625 
L 58.015625 17.1875 
L 47.609375 17.1875 
L 47.609375 0 
L 37.796875 0 
L 37.796875 17.1875 
L 4.890625 17.1875 
L 4.890625 26.703125 
z
" id="DejaVuSans-52"/>
      </defs>
      <g style="fill:#555555;" transform="translate(249.8825 326.140187)scale(0.1 -0.1)">
       <use xlink:href="#DejaVuSans-52"/>
      </g>
     </g>
    </g>
    <g id="xtick_5">
     <g id="line2d_5">
      <g>
       <use style="fill:#555555;stroke:#555555;stroke-width:0.8;" x="313.21375" xlink:href="#m7bd60dc313" y="311.54175"/>
      </g>
     </g>
     <g id="text_5">
      <!-- 5 -->
      <defs>
       <path d="M 10.796875 72.90625 
L 49.515625 72.90625 
L 49.515625 64.59375 
L 19.828125 64.59375 
L 19.828125 46.734375 
Q 21.96875 47.46875 24.109375 47.828125 
Q 26.265625 48.1875 28.421875 48.1875 
Q 40.625 48.1875 47.75 41.5 
Q 54.890625 34.8125 54.890625 23.390625 
Q 54.890625 11.625 47.5625 5.09375 
Q 40.234375 -1.421875 26.90625 -1.421875 
Q 22.3125 -1.421875 17.546875 -0.640625 
Q 12.796875 0.140625 7.71875 1.703125 
L 7.71875 11.625 
Q 12.109375 9.234375 16.796875 8.0625 
Q 21.484375 6.890625 26.703125 6.890625 
Q 35.15625 6.890625 40.078125 11.328125 
Q 45.015625 15.765625 45.015625 23.390625 
Q 45.015625 31 40.078125 35.4375 
Q 35.15625 39.890625 26.703125 39.890625 
Q 22.75 39.890625 18.8125 39.015625 
Q 14.890625 38.140625 10.796875 36.28125 
z
" id="DejaVuSans-53"/>
      </defs>
      <g style="fill:#555555;" transform="translate(310.0325 326.140187)scale(0.1 -0.1)">
       <use xlink:href="#DejaVuSans-53"/>
      </g>
     </g>
    </g>
    <g id="xtick_6">
     <g id="line2d_6">
      <g>
       <use style="fill:#555555;stroke:#555555;stroke-width:0.8;" x="373.36375" xlink:href="#m7bd60dc313" y="311.54175"/>
      </g>
     </g>
     <g id="text_6">
      <!-- 6 -->
      <defs>
       <path d="M 33.015625 40.375 
Q 26.375 40.375 22.484375 35.828125 
Q 18.609375 31.296875 18.609375 23.390625 
Q 18.609375 15.53125 22.484375 10.953125 
Q 26.375 6.390625 33.015625 6.390625 
Q 39.65625 6.390625 43.53125 10.953125 
Q 47.40625 15.53125 47.40625 23.390625 
Q 47.40625 31.296875 43.53125 35.828125 
Q 39.65625 40.375 33.015625 40.375 
z
M 52.59375 71.296875 
L 52.59375 62.3125 
Q 48.875 64.0625 45.09375 64.984375 
Q 41.3125 65.921875 37.59375 65.921875 
Q 27.828125 65.921875 22.671875 59.328125 
Q 17.53125 52.734375 16.796875 39.40625 
Q 19.671875 43.65625 24.015625 45.921875 
Q 28.375 48.1875 33.59375 48.1875 
Q 44.578125 48.1875 50.953125 41.515625 
Q 57.328125 34.859375 57.328125 23.390625 
Q 57.328125 12.15625 50.6875 5.359375 
Q 44.046875 -1.421875 33.015625 -1.421875 
Q 20.359375 -1.421875 13.671875 8.265625 
Q 6.984375 17.96875 6.984375 36.375 
Q 6.984375 53.65625 15.1875 63.9375 
Q 23.390625 74.21875 37.203125 74.21875 
Q 40.921875 74.21875 44.703125 73.484375 
Q 48.484375 72.75 52.59375 71.296875 
z
" id="DejaVuSans-54"/>
      </defs>
      <g style="fill:#555555;" transform="translate(370.1825 326.140187)scale(0.1 -0.1)">
       <use xlink:href="#DejaVuSans-54"/>
      </g>
     </g>
    </g>
    <g id="xtick_7">
     <g id="line2d_7">
      <g>
       <use style="fill:#555555;stroke:#555555;stroke-width:0.8;" x="433.51375" xlink:href="#m7bd60dc313" y="311.54175"/>
      </g>
     </g>
     <g id="text_7">
      <!-- 7 -->
      <defs>
       <path d="M 8.203125 72.90625 
L 55.078125 72.90625 
L 55.078125 68.703125 
L 28.609375 0 
L 18.3125 0 
L 43.21875 64.59375 
L 8.203125 64.59375 
z
" id="DejaVuSans-55"/>
      </defs>
      <g style="fill:#555555;" transform="translate(430.3325 326.140187)scale(0.1 -0.1)">
       <use xlink:href="#DejaVuSans-55"/>
      </g>
     </g>
    </g>
    <g id="xtick_8">
     <g id="line2d_8">
      <g>
       <use style="fill:#555555;stroke:#555555;stroke-width:0.8;" x="493.66375" xlink:href="#m7bd60dc313" y="311.54175"/>
      </g>
     </g>
     <g id="text_8">
      <!-- 8 -->
      <defs>
       <path d="M 31.78125 34.625 
Q 24.75 34.625 20.71875 30.859375 
Q 16.703125 27.09375 16.703125 20.515625 
Q 16.703125 13.921875 20.71875 10.15625 
Q 24.75 6.390625 31.78125 6.390625 
Q 38.8125 6.390625 42.859375 10.171875 
Q 46.921875 13.96875 46.921875 20.515625 
Q 46.921875 27.09375 42.890625 30.859375 
Q 38.875 34.625 31.78125 34.625 
z
M 21.921875 38.8125 
Q 15.578125 40.375 12.03125 44.71875 
Q 8.5 49.078125 8.5 55.328125 
Q 8.5 64.0625 14.71875 69.140625 
Q 20.953125 74.21875 31.78125 74.21875 
Q 42.671875 74.21875 48.875 69.140625 
Q 55.078125 64.0625 55.078125 55.328125 
Q 55.078125 49.078125 51.53125 44.71875 
Q 48 40.375 41.703125 38.8125 
Q 48.828125 37.15625 52.796875 32.3125 
Q 56.78125 27.484375 56.78125 20.515625 
Q 56.78125 9.90625 50.3125 4.234375 
Q 43.84375 -1.421875 31.78125 -1.421875 
Q 19.734375 -1.421875 13.25 4.234375 
Q 6.78125 9.90625 6.78125 20.515625 
Q 6.78125 27.484375 10.78125 32.3125 
Q 14.796875 37.15625 21.921875 38.8125 
z
M 18.3125 54.390625 
Q 18.3125 48.734375 21.84375 45.5625 
Q 25.390625 42.390625 31.78125 42.390625 
Q 38.140625 42.390625 41.71875 45.5625 
Q 45.3125 48.734375 45.3125 54.390625 
Q 45.3125 60.0625 41.71875 63.234375 
Q 38.140625 66.40625 31.78125 66.40625 
Q 25.390625 66.40625 21.84375 63.234375 
Q 18.3125 60.0625 18.3125 54.390625 
z
" id="DejaVuSans-56"/>
      </defs>
      <g style="fill:#555555;" transform="translate(490.4825 326.140187)scale(0.1 -0.1)">
       <use xlink:href="#DejaVuSans-56"/>
      </g>
     </g>
    </g>
    <g id="xtick_9">
     <g id="line2d_9">
      <g>
       <use style="fill:#555555;stroke:#555555;stroke-width:0.8;" x="553.81375" xlink:href="#m7bd60dc313" y="311.54175"/>
      </g>
     </g>
     <g id="text_9">
      <!-- 9 -->
      <defs>
       <path d="M 10.984375 1.515625 
L 10.984375 10.5 
Q 14.703125 8.734375 18.5 7.8125 
Q 22.3125 6.890625 25.984375 6.890625 
Q 35.75 6.890625 40.890625 13.453125 
Q 46.046875 20.015625 46.78125 33.40625 
Q 43.953125 29.203125 39.59375 26.953125 
Q 35.25 24.703125 29.984375 24.703125 
Q 19.046875 24.703125 12.671875 31.3125 
Q 6.296875 37.9375 6.296875 49.421875 
Q 6.296875 60.640625 12.9375 67.421875 
Q 19.578125 74.21875 30.609375 74.21875 
Q 43.265625 74.21875 49.921875 64.515625 
Q 56.59375 54.828125 56.59375 36.375 
Q 56.59375 19.140625 48.40625 8.859375 
Q 40.234375 -1.421875 26.421875 -1.421875 
Q 22.703125 -1.421875 18.890625 -0.6875 
Q 15.09375 0.046875 10.984375 1.515625 
z
M 30.609375 32.421875 
Q 37.25 32.421875 41.125 36.953125 
Q 45.015625 41.5 45.015625 49.421875 
Q 45.015625 57.28125 41.125 61.84375 
Q 37.25 66.40625 30.609375 66.40625 
Q 23.96875 66.40625 20.09375 61.84375 
Q 16.21875 57.28125 16.21875 49.421875 
Q 16.21875 41.5 20.09375 36.953125 
Q 23.96875 32.421875 30.609375 32.421875 
z
" id="DejaVuSans-57"/>
      </defs>
      <g style="fill:#555555;" transform="translate(550.6325 326.140187)scale(0.1 -0.1)">
       <use xlink:href="#DejaVuSans-57"/>
      </g>
     </g>
    </g>
    <g id="xtick_10">
     <g id="line2d_10">
      <g>
       <use style="fill:#555555;stroke:#555555;stroke-width:0.8;" x="613.96375" xlink:href="#m7bd60dc313" y="311.54175"/>
      </g>
     </g>
     <g id="text_10">
      <!-- 10 -->
      <defs>
       <path d="M 31.78125 66.40625 
Q 24.171875 66.40625 20.328125 58.90625 
Q 16.5 51.421875 16.5 36.375 
Q 16.5 21.390625 20.328125 13.890625 
Q 24.171875 6.390625 31.78125 6.390625 
Q 39.453125 6.390625 43.28125 13.890625 
Q 47.125 21.390625 47.125 36.375 
Q 47.125 51.421875 43.28125 58.90625 
Q 39.453125 66.40625 31.78125 66.40625 
z
M 31.78125 74.21875 
Q 44.046875 74.21875 50.515625 64.515625 
Q 56.984375 54.828125 56.984375 36.375 
Q 56.984375 17.96875 50.515625 8.265625 
Q 44.046875 -1.421875 31.78125 -1.421875 
Q 19.53125 -1.421875 13.0625 8.265625 
Q 6.59375 17.96875 6.59375 36.375 
Q 6.59375 54.828125 13.0625 64.515625 
Q 19.53125 74.21875 31.78125 74.21875 
z
" id="DejaVuSans-48"/>
      </defs>
      <g style="fill:#555555;" transform="translate(607.60125 326.140187)scale(0.1 -0.1)">
       <use xlink:href="#DejaVuSans-49"/>
       <use x="63.623047" xlink:href="#DejaVuSans-48"/>
      </g>
     </g>
    </g>
    <g id="xtick_11">
     <g id="line2d_11">
      <g>
       <use style="fill:#555555;stroke:#555555;stroke-width:0.8;" x="674.11375" xlink:href="#m7bd60dc313" y="311.54175"/>
      </g>
     </g>
     <g id="text_11">
      <!-- 11 -->
      <g style="fill:#555555;" transform="translate(667.75125 326.140187)scale(0.1 -0.1)">
       <use xlink:href="#DejaVuSans-49"/>
       <use x="63.623047" xlink:href="#DejaVuSans-49"/>
      </g>
     </g>
    </g>
    <g id="text_12">
     <!-- Season -->
     <defs>
      <path d="M 53.515625 70.515625 
L 53.515625 60.890625 
Q 47.90625 63.578125 42.921875 64.890625 
Q 37.9375 66.21875 33.296875 66.21875 
Q 25.25 66.21875 20.875 63.09375 
Q 16.5 59.96875 16.5 54.203125 
Q 16.5 49.359375 19.40625 46.890625 
Q 22.3125 44.4375 30.421875 42.921875 
L 36.375 41.703125 
Q 47.40625 39.59375 52.65625 34.296875 
Q 57.90625 29 57.90625 20.125 
Q 57.90625 9.515625 50.796875 4.046875 
Q 43.703125 -1.421875 29.984375 -1.421875 
Q 24.8125 -1.421875 18.96875 -0.25 
Q 13.140625 0.921875 6.890625 3.21875 
L 6.890625 13.375 
Q 12.890625 10.015625 18.65625 8.296875 
Q 24.421875 6.59375 29.984375 6.59375 
Q 38.421875 6.59375 43.015625 9.90625 
Q 47.609375 13.234375 47.609375 19.390625 
Q 47.609375 24.75 44.3125 27.78125 
Q 41.015625 30.8125 33.5 32.328125 
L 27.484375 33.5 
Q 16.453125 35.6875 11.515625 40.375 
Q 6.59375 45.0625 6.59375 53.421875 
Q 6.59375 63.09375 13.40625 68.65625 
Q 20.21875 74.21875 32.171875 74.21875 
Q 37.3125 74.21875 42.625 73.28125 
Q 47.953125 72.359375 53.515625 70.515625 
z
" id="DejaVuSans-83"/>
      <path d="M 56.203125 29.59375 
L 56.203125 25.203125 
L 14.890625 25.203125 
Q 15.484375 15.921875 20.484375 11.0625 
Q 25.484375 6.203125 34.421875 6.203125 
Q 39.59375 6.203125 44.453125 7.46875 
Q 49.3125 8.734375 54.109375 11.28125 
L 54.109375 2.78125 
Q 49.265625 0.734375 44.1875 -0.34375 
Q 39.109375 -1.421875 33.890625 -1.421875 
Q 20.796875 -1.421875 13.15625 6.1875 
Q 5.515625 13.8125 5.515625 26.8125 
Q 5.515625 40.234375 12.765625 48.109375 
Q 20.015625 56 32.328125 56 
Q 43.359375 56 49.78125 48.890625 
Q 56.203125 41.796875 56.203125 29.59375 
z
M 47.21875 32.234375 
Q 47.125 39.59375 43.09375 43.984375 
Q 39.0625 48.390625 32.421875 48.390625 
Q 24.90625 48.390625 20.390625 44.140625 
Q 15.875 39.890625 15.1875 32.171875 
z
" id="DejaVuSans-101"/>
      <path d="M 34.28125 27.484375 
Q 23.390625 27.484375 19.1875 25 
Q 14.984375 22.515625 14.984375 16.5 
Q 14.984375 11.71875 18.140625 8.90625 
Q 21.296875 6.109375 26.703125 6.109375 
Q 34.1875 6.109375 38.703125 11.40625 
Q 43.21875 16.703125 43.21875 25.484375 
L 43.21875 27.484375 
z
M 52.203125 31.203125 
L 52.203125 0 
L 43.21875 0 
L 43.21875 8.296875 
Q 40.140625 3.328125 35.546875 0.953125 
Q 30.953125 -1.421875 24.3125 -1.421875 
Q 15.921875 -1.421875 10.953125 3.296875 
Q 6 8.015625 6 15.921875 
Q 6 25.140625 12.171875 29.828125 
Q 18.359375 34.515625 30.609375 34.515625 
L 43.21875 34.515625 
L 43.21875 35.40625 
Q 43.21875 41.609375 39.140625 45 
Q 35.0625 48.390625 27.6875 48.390625 
Q 23 48.390625 18.546875 47.265625 
Q 14.109375 46.140625 10.015625 43.890625 
L 10.015625 52.203125 
Q 14.9375 54.109375 19.578125 55.046875 
Q 24.21875 56 28.609375 56 
Q 40.484375 56 46.34375 49.84375 
Q 52.203125 43.703125 52.203125 31.203125 
z
" id="DejaVuSans-97"/>
      <path d="M 44.28125 53.078125 
L 44.28125 44.578125 
Q 40.484375 46.53125 36.375 47.5 
Q 32.28125 48.484375 27.875 48.484375 
Q 21.1875 48.484375 17.84375 46.4375 
Q 14.5 44.390625 14.5 40.28125 
Q 14.5 37.15625 16.890625 35.375 
Q 19.28125 33.59375 26.515625 31.984375 
L 29.59375 31.296875 
Q 39.15625 29.25 43.1875 25.515625 
Q 47.21875 21.78125 47.21875 15.09375 
Q 47.21875 7.46875 41.1875 3.015625 
Q 35.15625 -1.421875 24.609375 -1.421875 
Q 20.21875 -1.421875 15.453125 -0.5625 
Q 10.6875 0.296875 5.421875 2 
L 5.421875 11.28125 
Q 10.40625 8.6875 15.234375 7.390625 
Q 20.0625 6.109375 24.8125 6.109375 
Q 31.15625 6.109375 34.5625 8.28125 
Q 37.984375 10.453125 37.984375 14.40625 
Q 37.984375 18.0625 35.515625 20.015625 
Q 33.0625 21.96875 24.703125 23.78125 
L 21.578125 24.515625 
Q 13.234375 26.265625 9.515625 29.90625 
Q 5.8125 33.546875 5.8125 39.890625 
Q 5.8125 47.609375 11.28125 51.796875 
Q 16.75 56 26.8125 56 
Q 31.78125 56 36.171875 55.265625 
Q 40.578125 54.546875 44.28125 53.078125 
z
" id="DejaVuSans-115"/>
      <path d="M 30.609375 48.390625 
Q 23.390625 48.390625 19.1875 42.75 
Q 14.984375 37.109375 14.984375 27.296875 
Q 14.984375 17.484375 19.15625 11.84375 
Q 23.34375 6.203125 30.609375 6.203125 
Q 37.796875 6.203125 41.984375 11.859375 
Q 46.1875 17.53125 46.1875 27.296875 
Q 46.1875 37.015625 41.984375 42.703125 
Q 37.796875 48.390625 30.609375 48.390625 
z
M 30.609375 56 
Q 42.328125 56 49.015625 48.375 
Q 55.71875 40.765625 55.71875 27.296875 
Q 55.71875 13.875 49.015625 6.21875 
Q 42.328125 -1.421875 30.609375 -1.421875 
Q 18.84375 -1.421875 12.171875 6.21875 
Q 5.515625 13.875 5.515625 27.296875 
Q 5.515625 40.765625 12.171875 48.375 
Q 18.84375 56 30.609375 56 
z
" id="DejaVuSans-111"/>
      <path d="M 54.890625 33.015625 
L 54.890625 0 
L 45.90625 0 
L 45.90625 32.71875 
Q 45.90625 40.484375 42.875 44.328125 
Q 39.84375 48.1875 33.796875 48.1875 
Q 26.515625 48.1875 22.3125 43.546875 
Q 18.109375 38.921875 18.109375 30.90625 
L 18.109375 0 
L 9.078125 0 
L 9.078125 54.6875 
L 18.109375 54.6875 
L 18.109375 46.1875 
Q 21.34375 51.125 25.703125 53.5625 
Q 30.078125 56 35.796875 56 
Q 45.21875 56 50.046875 50.171875 
Q 54.890625 44.34375 54.890625 33.015625 
z
" id="DejaVuSans-110"/>
     </defs>
     <g style="fill:#555555;" transform="translate(351.586562 341.338)scale(0.12 -0.12)">
      <use xlink:href="#DejaVuSans-83"/>
      <use x="63.476562" xlink:href="#DejaVuSans-101"/>
      <use x="125" xlink:href="#DejaVuSans-97"/>
      <use x="186.279297" xlink:href="#DejaVuSans-115"/>
      <use x="238.378906" xlink:href="#DejaVuSans-111"/>
      <use x="299.560547" xlink:href="#DejaVuSans-110"/>
     </g>
    </g>
   </g>
   <g id="matplotlib.axis_2">
    <g id="ytick_1">
     <g id="line2d_12">
      <path clip-path="url(#paf191f766f)" d="M 42.53875 287.491771 
L 704.18875 287.491771 
" style="fill:none;stroke:#ffffff;stroke-linecap:square;stroke-width:0.8;"/>
     </g>
     <g id="line2d_13">
      <defs>
       <path d="M 0 0 
L -3.5 0 
" id="mec0c5c9574" style="stroke:#555555;stroke-width:0.8;"/>
      </defs>
      <g>
       <use style="fill:#555555;stroke:#555555;stroke-width:0.8;" x="42.53875" xlink:href="#mec0c5c9574" y="287.491771"/>
      </g>
     </g>
     <g id="text_13">
      <!-- 0 -->
      <g style="fill:#555555;" transform="translate(29.17625 291.29099)scale(0.1 -0.1)">
       <use xlink:href="#DejaVuSans-48"/>
      </g>
     </g>
    </g>
    <g id="ytick_2">
     <g id="line2d_14">
      <path clip-path="url(#paf191f766f)" d="M 42.53875 243.982673 
L 704.18875 243.982673 
" style="fill:none;stroke:#ffffff;stroke-linecap:square;stroke-width:0.8;"/>
     </g>
     <g id="line2d_15">
      <g>
       <use style="fill:#555555;stroke:#555555;stroke-width:0.8;" x="42.53875" xlink:href="#mec0c5c9574" y="243.982673"/>
      </g>
     </g>
     <g id="text_14">
      <!-- 2 -->
      <g style="fill:#555555;" transform="translate(29.17625 247.781891)scale(0.1 -0.1)">
       <use xlink:href="#DejaVuSans-50"/>
      </g>
     </g>
    </g>
    <g id="ytick_3">
     <g id="line2d_16">
      <path clip-path="url(#paf191f766f)" d="M 42.53875 200.473574 
L 704.18875 200.473574 
" style="fill:none;stroke:#ffffff;stroke-linecap:square;stroke-width:0.8;"/>
     </g>
     <g id="line2d_17">
      <g>
       <use style="fill:#555555;stroke:#555555;stroke-width:0.8;" x="42.53875" xlink:href="#mec0c5c9574" y="200.473574"/>
      </g>
     </g>
     <g id="text_15">
      <!-- 4 -->
      <g style="fill:#555555;" transform="translate(29.17625 204.272793)scale(0.1 -0.1)">
       <use xlink:href="#DejaVuSans-52"/>
      </g>
     </g>
    </g>
    <g id="ytick_4">
     <g id="line2d_18">
      <path clip-path="url(#paf191f766f)" d="M 42.53875 156.964475 
L 704.18875 156.964475 
" style="fill:none;stroke:#ffffff;stroke-linecap:square;stroke-width:0.8;"/>
     </g>
     <g id="line2d_19">
      <g>
       <use style="fill:#555555;stroke:#555555;stroke-width:0.8;" x="42.53875" xlink:href="#mec0c5c9574" y="156.964475"/>
      </g>
     </g>
     <g id="text_16">
      <!-- 6 -->
      <g style="fill:#555555;" transform="translate(29.17625 160.763694)scale(0.1 -0.1)">
       <use xlink:href="#DejaVuSans-54"/>
      </g>
     </g>
    </g>
    <g id="ytick_5">
     <g id="line2d_20">
      <path clip-path="url(#paf191f766f)" d="M 42.53875 113.455377 
L 704.18875 113.455377 
" style="fill:none;stroke:#ffffff;stroke-linecap:square;stroke-width:0.8;"/>
     </g>
     <g id="line2d_21">
      <g>
       <use style="fill:#555555;stroke:#555555;stroke-width:0.8;" x="42.53875" xlink:href="#mec0c5c9574" y="113.455377"/>
      </g>
     </g>
     <g id="text_17">
      <!-- 8 -->
      <g style="fill:#555555;" transform="translate(29.17625 117.254595)scale(0.1 -0.1)">
       <use xlink:href="#DejaVuSans-56"/>
      </g>
     </g>
    </g>
    <g id="ytick_6">
     <g id="line2d_22">
      <path clip-path="url(#paf191f766f)" d="M 42.53875 69.946278 
L 704.18875 69.946278 
" style="fill:none;stroke:#ffffff;stroke-linecap:square;stroke-width:0.8;"/>
     </g>
     <g id="line2d_23">
      <g>
       <use style="fill:#555555;stroke:#555555;stroke-width:0.8;" x="42.53875" xlink:href="#mec0c5c9574" y="69.946278"/>
      </g>
     </g>
     <g id="text_18">
      <!-- 10 -->
      <g style="fill:#555555;" transform="translate(22.81375 73.745497)scale(0.1 -0.1)">
       <use xlink:href="#DejaVuSans-49"/>
       <use x="63.623047" xlink:href="#DejaVuSans-48"/>
      </g>
     </g>
    </g>
    <g id="ytick_7">
     <g id="line2d_24">
      <path clip-path="url(#paf191f766f)" d="M 42.53875 26.437179 
L 704.18875 26.437179 
" style="fill:none;stroke:#ffffff;stroke-linecap:square;stroke-width:0.8;"/>
     </g>
     <g id="line2d_25">
      <g>
       <use style="fill:#555555;stroke:#555555;stroke-width:0.8;" x="42.53875" xlink:href="#mec0c5c9574" y="26.437179"/>
      </g>
     </g>
     <g id="text_19">
      <!-- 12 -->
      <g style="fill:#555555;" transform="translate(22.81375 30.236398)scale(0.1 -0.1)">
       <use xlink:href="#DejaVuSans-49"/>
       <use x="63.623047" xlink:href="#DejaVuSans-50"/>
      </g>
     </g>
    </g>
    <g id="text_20">
     <!-- Rating -->
     <defs>
      <path d="M 44.390625 34.1875 
Q 47.5625 33.109375 50.5625 29.59375 
Q 53.5625 26.078125 56.59375 19.921875 
L 66.609375 0 
L 56 0 
L 46.6875 18.703125 
Q 43.0625 26.03125 39.671875 28.421875 
Q 36.28125 30.8125 30.421875 30.8125 
L 19.671875 30.8125 
L 19.671875 0 
L 9.8125 0 
L 9.8125 72.90625 
L 32.078125 72.90625 
Q 44.578125 72.90625 50.734375 67.671875 
Q 56.890625 62.453125 56.890625 51.90625 
Q 56.890625 45.015625 53.6875 40.46875 
Q 50.484375 35.9375 44.390625 34.1875 
z
M 19.671875 64.796875 
L 19.671875 38.921875 
L 32.078125 38.921875 
Q 39.203125 38.921875 42.84375 42.21875 
Q 46.484375 45.515625 46.484375 51.90625 
Q 46.484375 58.296875 42.84375 61.546875 
Q 39.203125 64.796875 32.078125 64.796875 
z
" id="DejaVuSans-82"/>
      <path d="M 18.3125 70.21875 
L 18.3125 54.6875 
L 36.8125 54.6875 
L 36.8125 47.703125 
L 18.3125 47.703125 
L 18.3125 18.015625 
Q 18.3125 11.328125 20.140625 9.421875 
Q 21.96875 7.515625 27.59375 7.515625 
L 36.8125 7.515625 
L 36.8125 0 
L 27.59375 0 
Q 17.1875 0 13.234375 3.875 
Q 9.28125 7.765625 9.28125 18.015625 
L 9.28125 47.703125 
L 2.6875 47.703125 
L 2.6875 54.6875 
L 9.28125 54.6875 
L 9.28125 70.21875 
z
" id="DejaVuSans-116"/>
      <path d="M 9.421875 54.6875 
L 18.40625 54.6875 
L 18.40625 0 
L 9.421875 0 
z
M 9.421875 75.984375 
L 18.40625 75.984375 
L 18.40625 64.59375 
L 9.421875 64.59375 
z
" id="DejaVuSans-105"/>
      <path d="M 45.40625 27.984375 
Q 45.40625 37.75 41.375 43.109375 
Q 37.359375 48.484375 30.078125 48.484375 
Q 22.859375 48.484375 18.828125 43.109375 
Q 14.796875 37.75 14.796875 27.984375 
Q 14.796875 18.265625 18.828125 12.890625 
Q 22.859375 7.515625 30.078125 7.515625 
Q 37.359375 7.515625 41.375 12.890625 
Q 45.40625 18.265625 45.40625 27.984375 
z
M 54.390625 6.78125 
Q 54.390625 -7.171875 48.1875 -13.984375 
Q 42 -20.796875 29.203125 -20.796875 
Q 24.46875 -20.796875 20.265625 -20.09375 
Q 16.0625 -19.390625 12.109375 -17.921875 
L 12.109375 -9.1875 
Q 16.0625 -11.328125 19.921875 -12.34375 
Q 23.78125 -13.375 27.78125 -13.375 
Q 36.625 -13.375 41.015625 -8.765625 
Q 45.40625 -4.15625 45.40625 5.171875 
L 45.40625 9.625 
Q 42.625 4.78125 38.28125 2.390625 
Q 33.9375 0 27.875 0 
Q 17.828125 0 11.671875 7.65625 
Q 5.515625 15.328125 5.515625 27.984375 
Q 5.515625 40.671875 11.671875 48.328125 
Q 17.828125 56 27.875 56 
Q 33.9375 56 38.28125 53.609375 
Q 42.625 51.21875 45.40625 46.390625 
L 45.40625 54.6875 
L 54.390625 54.6875 
z
" id="DejaVuSans-103"/>
     </defs>
     <g style="fill:#555555;" transform="translate(16.318125 187.316437)rotate(-90)scale(0.12 -0.12)">
      <use xlink:href="#DejaVuSans-82"/>
      <use x="69.451172" xlink:href="#DejaVuSans-97"/>
      <use x="130.730469" xlink:href="#DejaVuSans-116"/>
      <use x="169.939453" xlink:href="#DejaVuSans-105"/>
      <use x="197.722656" xlink:href="#DejaVuSans-110"/>
      <use x="261.101562" xlink:href="#DejaVuSans-103"/>
     </g>
    </g>
   </g>
   <g id="PolyCollection_1">
    <defs>
     <path d="M 72.669039 -63.593542 
L 72.558461 -63.593542 
L 72.529484 -66.00967 
L 72.491474 -68.425798 
L 72.444771 -70.841926 
L 72.391261 -73.258054 
L 72.334462 -75.674182 
L 72.279167 -78.09031 
L 72.230638 -80.506438 
L 72.193486 -82.922566 
L 72.170586 -85.338694 
L 72.162363 -87.754822 
L 72.166742 -90.17095 
L 72.179794 -92.587078 
L 72.196877 -95.003205 
L 72.213851 -97.419333 
L 72.227941 -99.835461 
L 72.237969 -102.251589 
L 72.243957 -104.667717 
L 72.24636 -107.083845 
L 72.24534 -109.499973 
L 72.240405 -111.916101 
L 72.230576 -114.332229 
L 72.214907 -116.748357 
L 72.193042 -119.164485 
L 72.165418 -121.580613 
L 72.132956 -123.996741 
L 72.096305 -126.412869 
L 72.055044 -128.828997 
L 72.007283 -131.245124 
L 71.950018 -133.661252 
L 71.880182 -136.07738 
L 71.795971 -138.493508 
L 71.697734 -140.909636 
L 71.587817 -143.325764 
L 71.46917 -145.741892 
L 71.343164 -148.15802 
L 71.207614 -150.574148 
L 71.05615 -152.990276 
L 70.879623 -155.406404 
L 70.669313 -157.822532 
L 70.420674 -160.23866 
L 70.135726 -162.654788 
L 69.822475 -165.070916 
L 69.490887 -167.487043 
L 69.146709 -169.903171 
L 68.785881 -172.319299 
L 68.392653 -174.735427 
L 67.943391 -177.151555 
L 67.41551 -179.567683 
L 66.798192 -181.983811 
L 66.099829 -184.399939 
L 65.347622 -186.816067 
L 64.577806 -189.232195 
L 63.819395 -191.648323 
L 63.07832 -194.064451 
L 62.330108 -196.480579 
L 61.526696 -198.896707 
L 60.617062 -201.312834 
L 59.574525 -203.728962 
L 58.418953 -206.14509 
L 57.222512 -208.561218 
L 56.093484 -210.977346 
L 55.142113 -213.393474 
L 54.441246 -215.809602 
L 53.998385 -218.22573 
L 53.752379 -220.641858 
L 53.598046 -223.057986 
L 53.429853 -225.474114 
L 53.186799 -227.890242 
L 52.879251 -230.30637 
L 52.585747 -232.722498 
L 52.4206 -235.138626 
L 52.485874 -237.554753 
L 52.828078 -239.970881 
L 53.417676 -242.387009 
L 54.159258 -244.803137 
L 54.926701 -247.219265 
L 55.607129 -249.635393 
L 56.134531 -252.051521 
L 56.499757 -254.467649 
L 56.735111 -256.883777 
L 56.883607 -259.299905 
L 56.969545 -261.716033 
L 56.985619 -264.132161 
L 56.903158 -266.548289 
L 56.70054 -268.964417 
L 56.395626 -271.380545 
L 56.065625 -273.796672 
L 55.842961 -276.2128 
L 55.886185 -278.628928 
L 56.335798 -281.045056 
L 57.271323 -283.461184 
L 58.685301 -285.877312 
L 60.482885 -288.29344 
L 62.505776 -290.709568 
L 64.5708 -293.125696 
L 66.509757 -295.541824 
L 68.198928 -297.957952 
L 69.572251 -300.37408 
L 70.618523 -302.790208 
L 74.608977 -302.790208 
L 74.608977 -302.790208 
L 75.655249 -300.37408 
L 77.028572 -297.957952 
L 78.717743 -295.541824 
L 80.6567 -293.125696 
L 82.721724 -290.709568 
L 84.744615 -288.29344 
L 86.542199 -285.877312 
L 87.956177 -283.461184 
L 88.891702 -281.045056 
L 89.341315 -278.628928 
L 89.384539 -276.2128 
L 89.161875 -273.796672 
L 88.831874 -271.380545 
L 88.52696 -268.964417 
L 88.324342 -266.548289 
L 88.241881 -264.132161 
L 88.257955 -261.716033 
L 88.343893 -259.299905 
L 88.492389 -256.883777 
L 88.727743 -254.467649 
L 89.092969 -252.051521 
L 89.620371 -249.635393 
L 90.300799 -247.219265 
L 91.068242 -244.803137 
L 91.809824 -242.387009 
L 92.399422 -239.970881 
L 92.741626 -237.554753 
L 92.8069 -235.138626 
L 92.641753 -232.722498 
L 92.348249 -230.30637 
L 92.040701 -227.890242 
L 91.797647 -225.474114 
L 91.629454 -223.057986 
L 91.475121 -220.641858 
L 91.229115 -218.22573 
L 90.786254 -215.809602 
L 90.085387 -213.393474 
L 89.134016 -210.977346 
L 88.004988 -208.561218 
L 86.808547 -206.14509 
L 85.652975 -203.728962 
L 84.610438 -201.312834 
L 83.700804 -198.896707 
L 82.897392 -196.480579 
L 82.14918 -194.064451 
L 81.408105 -191.648323 
L 80.649694 -189.232195 
L 79.879878 -186.816067 
L 79.127671 -184.399939 
L 78.429308 -181.983811 
L 77.81199 -179.567683 
L 77.284109 -177.151555 
L 76.834847 -174.735427 
L 76.441619 -172.319299 
L 76.080791 -169.903171 
L 75.736613 -167.487043 
L 75.405025 -165.070916 
L 75.091774 -162.654788 
L 74.806826 -160.23866 
L 74.558187 -157.822532 
L 74.347877 -155.406404 
L 74.17135 -152.990276 
L 74.019886 -150.574148 
L 73.884336 -148.15802 
L 73.75833 -145.741892 
L 73.639683 -143.325764 
L 73.529766 -140.909636 
L 73.431529 -138.493508 
L 73.347318 -136.07738 
L 73.277482 -133.661252 
L 73.220217 -131.245124 
L 73.172456 -128.828997 
L 73.131195 -126.412869 
L 73.094544 -123.996741 
L 73.062082 -121.580613 
L 73.034458 -119.164485 
L 73.012593 -116.748357 
L 72.996924 -114.332229 
L 72.987095 -111.916101 
L 72.98216 -109.499973 
L 72.98114 -107.083845 
L 72.983543 -104.667717 
L 72.989531 -102.251589 
L 72.999559 -99.835461 
L 73.013649 -97.419333 
L 73.030623 -95.003205 
L 73.047706 -92.587078 
L 73.060758 -90.17095 
L 73.065137 -87.754822 
L 73.056914 -85.338694 
L 73.034014 -82.922566 
L 72.996862 -80.506438 
L 72.948333 -78.09031 
L 72.893038 -75.674182 
L 72.836239 -73.258054 
L 72.782729 -70.841926 
L 72.736026 -68.425798 
L 72.698016 -66.00967 
L 72.669039 -63.593542 
z
" id="mda9f6fe5ab" style="stroke:#474747;stroke-width:1.5;"/>
    </defs>
    <g clip-path="url(#paf191f766f)">
     <use style="fill:#ea96a3;stroke:#474747;stroke-width:1.5;" x="0" xlink:href="#mda9f6fe5ab" y="351.033625"/>
    </g>
   </g>
   <g id="PolyCollection_2">
    <defs>
     <path d="M 132.837114 -63.530997 
L 132.690386 -63.530997 
L 132.652078 -65.948389 
L 132.601901 -68.36578 
L 132.540364 -70.783172 
L 132.470059 -73.200563 
L 132.395795 -75.617955 
L 132.324165 -78.035346 
L 132.2625 -80.452738 
L 132.217397 -82.870129 
L 132.193235 -85.287521 
L 132.19113 -87.704912 
L 132.208699 -90.122304 
L 132.240745 -92.539695 
L 132.280609 -94.957086 
L 132.321746 -97.374478 
L 132.358982 -99.791869 
L 132.389112 -102.209261 
L 132.410749 -104.626652 
L 132.423685 -107.044044 
L 132.428139 -109.461435 
L 132.424285 -111.878827 
L 132.412208 -114.296218 
L 132.392215 -116.71361 
L 132.365189 -119.131001 
L 132.332666 -121.548393 
L 132.296445 -123.965784 
L 132.257842 -126.383176 
L 132.216911 -128.800567 
L 132.172079 -131.217958 
L 132.120502 -133.63535 
L 132.059105 -136.052741 
L 131.985913 -138.470133 
L 131.901 -140.887524 
L 131.806484 -143.304916 
L 131.705347 -145.722307 
L 131.599466 -148.139699 
L 131.487743 -150.55709 
L 131.365347 -152.974482 
L 131.224741 -155.391873 
L 131.058337 -157.809265 
L 130.861731 -160.226656 
L 130.63591 -162.644048 
L 130.38701 -165.061439 
L 130.123183 -167.47883 
L 129.849565 -169.896222 
L 129.56357 -172.313613 
L 129.253097 -174.731005 
L 128.899264 -177.148396 
L 128.483305 -179.565788 
L 127.994948 -181.983179 
L 127.438241 -184.400571 
L 126.831223 -186.817962 
L 126.198236 -189.235354 
L 125.55729 -191.652745 
L 124.908023 -194.070137 
L 124.226735 -196.487528 
L 123.472816 -198.90492 
L 122.606029 -201.322311 
L 121.608507 -203.739702 
L 120.501767 -206.157094 
L 119.349507 -208.574485 
L 118.2422 -210.991877 
L 117.267419 -213.409268 
L 116.477223 -215.82666 
L 115.866918 -218.244051 
L 115.376069 -220.661443 
L 114.913728 -223.078834 
L 114.398958 -225.496226 
L 113.800025 -227.913617 
L 113.154863 -230.331009 
L 112.562635 -232.7484 
L 112.148408 -235.165792 
L 112.014886 -237.583183 
L 112.201192 -240.000574 
L 112.665921 -242.417966 
L 113.301256 -244.835357 
L 113.971431 -247.252749 
L 114.558554 -249.67014 
L 114.996273 -252.087532 
L 115.278138 -254.504923 
L 115.439623 -256.922315 
L 115.524926 -259.339706 
L 115.556267 -261.757098 
L 115.521548 -264.174489 
L 115.386876 -266.591881 
L 115.128091 -269.009272 
L 114.765849 -271.426664 
L 114.386384 -273.844055 
L 114.135938 -276.261446 
L 114.188173 -278.678838 
L 114.695609 -281.096229 
L 115.7429 -283.513621 
L 117.318934 -285.931012 
L 119.316988 -288.348404 
L 121.561366 -290.765795 
L 123.849821 -293.183187 
L 125.997164 -295.600578 
L 127.867443 -298.01797 
L 129.38821 -300.435361 
L 130.547344 -302.852753 
L 134.980156 -302.852753 
L 134.980156 -302.852753 
L 136.13929 -300.435361 
L 137.660057 -298.01797 
L 139.530336 -295.600578 
L 141.677679 -293.183187 
L 143.966134 -290.765795 
L 146.210512 -288.348404 
L 148.208566 -285.931012 
L 149.7846 -283.513621 
L 150.831891 -281.096229 
L 151.339327 -278.678838 
L 151.391562 -276.261446 
L 151.141116 -273.844055 
L 150.761651 -271.426664 
L 150.399409 -269.009272 
L 150.140624 -266.591881 
L 150.005952 -264.174489 
L 149.971233 -261.757098 
L 150.002574 -259.339706 
L 150.087877 -256.922315 
L 150.249362 -254.504923 
L 150.531227 -252.087532 
L 150.968946 -249.67014 
L 151.556069 -247.252749 
L 152.226244 -244.835357 
L 152.861579 -242.417966 
L 153.326308 -240.000574 
L 153.512614 -237.583183 
L 153.379092 -235.165792 
L 152.964865 -232.7484 
L 152.372637 -230.331009 
L 151.727475 -227.913617 
L 151.128542 -225.496226 
L 150.613772 -223.078834 
L 150.151431 -220.661443 
L 149.660582 -218.244051 
L 149.050277 -215.82666 
L 148.260081 -213.409268 
L 147.2853 -210.991877 
L 146.177993 -208.574485 
L 145.025733 -206.157094 
L 143.918993 -203.739702 
L 142.921471 -201.322311 
L 142.054684 -198.90492 
L 141.300765 -196.487528 
L 140.619477 -194.070137 
L 139.97021 -191.652745 
L 139.329264 -189.235354 
L 138.696277 -186.817962 
L 138.089259 -184.400571 
L 137.532552 -181.983179 
L 137.044195 -179.565788 
L 136.628236 -177.148396 
L 136.274403 -174.731005 
L 135.96393 -172.313613 
L 135.677935 -169.896222 
L 135.404317 -167.47883 
L 135.14049 -165.061439 
L 134.89159 -162.644048 
L 134.665769 -160.226656 
L 134.469163 -157.809265 
L 134.302759 -155.391873 
L 134.162153 -152.974482 
L 134.039757 -150.55709 
L 133.928034 -148.139699 
L 133.822153 -145.722307 
L 133.721016 -143.304916 
L 133.6265 -140.887524 
L 133.541587 -138.470133 
L 133.468395 -136.052741 
L 133.406998 -133.63535 
L 133.355421 -131.217958 
L 133.310589 -128.800567 
L 133.269658 -126.383176 
L 133.231055 -123.965784 
L 133.194834 -121.548393 
L 133.162311 -119.131001 
L 133.135285 -116.71361 
L 133.115292 -114.296218 
L 133.103215 -111.878827 
L 133.099361 -109.461435 
L 133.103815 -107.044044 
L 133.116751 -104.626652 
L 133.138388 -102.209261 
L 133.168518 -99.791869 
L 133.205754 -97.374478 
L 133.246891 -94.957086 
L 133.286755 -92.539695 
L 133.318801 -90.122304 
L 133.33637 -87.704912 
L 133.334265 -85.287521 
L 133.310103 -82.870129 
L 133.265 -80.452738 
L 133.203335 -78.035346 
L 133.131705 -75.617955 
L 133.057441 -73.200563 
L 132.987136 -70.783172 
L 132.925599 -68.36578 
L 132.875422 -65.948389 
L 132.837114 -63.530997 
z
" id="m595165446a" style="stroke:#474747;stroke-width:1.5;"/>
    </defs>
    <g clip-path="url(#paf191f766f)">
     <use style="fill:#dc924e;stroke:#474747;stroke-width:1.5;" x="0" xlink:href="#m595165446a" y="351.033625"/>
    </g>
   </g>
   <g id="PolyCollection_3">
    <defs>
     <path d="M 192.98145 -63.459022 
L 192.84605 -63.459022 
L 192.810786 -65.877867 
L 192.764589 -68.296713 
L 192.707879 -70.715558 
L 192.64294 -73.134404 
L 192.574042 -75.553249 
L 192.507036 -77.972095 
L 192.448399 -80.390941 
L 192.403915 -82.809786 
L 192.377347 -85.228632 
L 192.369536 -87.647477 
L 192.37826 -90.066323 
L 192.398915 -92.485168 
L 192.425823 -94.904014 
L 192.453674 -97.322859 
L 192.478633 -99.741705 
L 192.498766 -102.16055 
L 192.513727 -104.579396 
L 192.523984 -106.998241 
L 192.529987 -109.417087 
L 192.531671 -111.835932 
L 192.528476 -114.254778 
L 192.519777 -116.673623 
L 192.50543 -119.092469 
L 192.48604 -121.511314 
L 192.462776 -123.93016 
L 192.436736 -126.349005 
L 192.4082 -128.767851 
L 192.376164 -131.186696 
L 192.338469 -133.605542 
L 192.292557 -136.024387 
L 192.236523 -138.443233 
L 192.169922 -140.862078 
L 192.093812 -143.280924 
L 192.009868 -145.699769 
L 191.918843 -148.118615 
L 191.819136 -150.537461 
L 191.706296 -152.956306 
L 191.574032 -155.375152 
L 191.416547 -157.793997 
L 191.231317 -160.212843 
L 191.020913 -162.631688 
L 190.792668 -165.050534 
L 190.555802 -167.469379 
L 190.316872 -169.888225 
L 190.075467 -172.30707 
L 189.82237 -174.725916 
L 189.541609 -177.144761 
L 189.216129 -179.563607 
L 188.834864 -181.982452 
L 188.397845 -184.401298 
L 187.916308 -186.820143 
L 187.406785 -189.238989 
L 186.881109 -191.657834 
L 186.336886 -194.07668 
L 185.753696 -196.495525 
L 185.098529 -198.914371 
L 184.339908 -201.333216 
L 183.465632 -203.752062 
L 182.496132 -206.170907 
L 181.485998 -208.589753 
L 180.51055 -211.008598 
L 179.640963 -213.427444 
L 178.917487 -215.846289 
L 178.332618 -218.265135 
L 177.833064 -220.683981 
L 177.341759 -223.102826 
L 176.792058 -225.521672 
L 176.159947 -227.940517 
L 175.479708 -230.359363 
L 174.834888 -232.778208 
L 174.327011 -235.197054 
L 174.034558 -237.615899 
L 173.979667 -240.034745 
L 174.117049 -242.45359 
L 174.350072 -244.872436 
L 174.566844 -247.291281 
L 174.680226 -249.710127 
L 174.654098 -252.128972 
L 174.504803 -254.547818 
L 174.278566 -256.966663 
L 174.017168 -259.385509 
L 173.729988 -261.804354 
L 173.387665 -264.2232 
L 172.942387 -266.642045 
L 172.366742 -269.060891 
L 171.693291 -271.479736 
L 171.035193 -273.898582 
L 170.57541 -276.317427 
L 170.525047 -278.736273 
L 171.06452 -281.155118 
L 172.288615 -283.573964 
L 174.174974 -285.992809 
L 176.58627 -288.411655 
L 179.303612 -290.830501 
L 182.078149 -293.249346 
L 184.683465 -295.668192 
L 186.953884 -298.087037 
L 188.801164 -300.505883 
L 190.210297 -302.924728 
L 195.617203 -302.924728 
L 195.617203 -302.924728 
L 197.026336 -300.505883 
L 198.873616 -298.087037 
L 201.144035 -295.668192 
L 203.749351 -293.249346 
L 206.523888 -290.830501 
L 209.24123 -288.411655 
L 211.652526 -285.992809 
L 213.538885 -283.573964 
L 214.76298 -281.155118 
L 215.302453 -278.736273 
L 215.25209 -276.317427 
L 214.792307 -273.898582 
L 214.134209 -271.479736 
L 213.460758 -269.060891 
L 212.885113 -266.642045 
L 212.439835 -264.2232 
L 212.097512 -261.804354 
L 211.810332 -259.385509 
L 211.548934 -256.966663 
L 211.322697 -254.547818 
L 211.173402 -252.128972 
L 211.147274 -249.710127 
L 211.260656 -247.291281 
L 211.477428 -244.872436 
L 211.710451 -242.45359 
L 211.847833 -240.034745 
L 211.792942 -237.615899 
L 211.500489 -235.197054 
L 210.992612 -232.778208 
L 210.347792 -230.359363 
L 209.667553 -227.940517 
L 209.035442 -225.521672 
L 208.485741 -223.102826 
L 207.994436 -220.683981 
L 207.494882 -218.265135 
L 206.910013 -215.846289 
L 206.186537 -213.427444 
L 205.31695 -211.008598 
L 204.341502 -208.589753 
L 203.331368 -206.170907 
L 202.361868 -203.752062 
L 201.487592 -201.333216 
L 200.728971 -198.914371 
L 200.073804 -196.495525 
L 199.490614 -194.07668 
L 198.946391 -191.657834 
L 198.420715 -189.238989 
L 197.911192 -186.820143 
L 197.429655 -184.401298 
L 196.992636 -181.982452 
L 196.611371 -179.563607 
L 196.285891 -177.144761 
L 196.00513 -174.725916 
L 195.752033 -172.30707 
L 195.510628 -169.888225 
L 195.271698 -167.469379 
L 195.034832 -165.050534 
L 194.806587 -162.631688 
L 194.596183 -160.212843 
L 194.410953 -157.793997 
L 194.253468 -155.375152 
L 194.121204 -152.956306 
L 194.008364 -150.537461 
L 193.908657 -148.118615 
L 193.817632 -145.699769 
L 193.733688 -143.280924 
L 193.657578 -140.862078 
L 193.590977 -138.443233 
L 193.534943 -136.024387 
L 193.489031 -133.605542 
L 193.451336 -131.186696 
L 193.4193 -128.767851 
L 193.390764 -126.349005 
L 193.364724 -123.93016 
L 193.34146 -121.511314 
L 193.32207 -119.092469 
L 193.307723 -116.673623 
L 193.299024 -114.254778 
L 193.295829 -111.835932 
L 193.297513 -109.417087 
L 193.303516 -106.998241 
L 193.313773 -104.579396 
L 193.328734 -102.16055 
L 193.348867 -99.741705 
L 193.373826 -97.322859 
L 193.401677 -94.904014 
L 193.428585 -92.485168 
L 193.44924 -90.066323 
L 193.457964 -87.647477 
L 193.450153 -85.228632 
L 193.423585 -82.809786 
L 193.379101 -80.390941 
L 193.320464 -77.972095 
L 193.253458 -75.553249 
L 193.18456 -73.134404 
L 193.119621 -70.715558 
L 193.062911 -68.296713 
L 193.016714 -65.877867 
L 192.98145 -63.459022 
z
" id="me61cc9cd39" style="stroke:#474747;stroke-width:1.5;"/>
    </defs>
    <g clip-path="url(#paf191f766f)">
     <use style="fill:#b39d48;stroke:#474747;stroke-width:1.5;" x="0" xlink:href="#me61cc9cd39" y="351.033625"/>
    </g>
   </g>
   <g id="PolyCollection_4">
    <defs>
     <path d="M 253.141063 -63.220907 
L 252.986437 -63.220907 
L 252.946589 -65.644563 
L 252.894504 -68.068219 
L 252.830648 -70.491875 
L 252.757566 -72.915531 
L 252.680026 -75.339187 
L 252.604613 -77.762843 
L 252.538718 -80.186499 
L 252.489097 -82.610155 
L 252.460392 -85.033811 
L 252.454054 -87.457467 
L 252.468043 -89.881122 
L 252.497422 -92.304778 
L 252.535647 -94.728434 
L 252.576115 -97.15209 
L 252.613447 -99.575746 
L 252.644158 -101.999402 
L 252.666582 -104.423058 
L 252.680305 -106.846714 
L 252.685435 -109.27037 
L 252.682122 -111.694026 
L 252.67049 -114.117682 
L 252.650921 -116.541337 
L 252.624414 -118.964993 
L 252.59269 -121.388649 
L 252.557848 -123.812305 
L 252.52165 -126.235961 
L 252.484718 -128.659617 
L 252.446081 -131.083273 
L 252.403366 -133.506929 
L 252.353659 -135.930585 
L 252.294689 -138.354241 
L 252.225768 -140.777897 
L 252.147955 -143.201552 
L 252.063213 -145.625208 
L 251.972861 -148.048864 
L 251.876023 -150.47252 
L 251.768945 -152.896176 
L 251.645747 -155.319832 
L 251.500488 -157.743488 
L 251.329747 -160.167144 
L 251.134386 -162.5908 
L 250.919382 -165.014456 
L 250.691357 -167.438112 
L 250.454585 -169.861767 
L 250.207273 -172.285423 
L 249.940121 -174.709079 
L 249.63844 -177.132735 
L 249.287496 -179.556391 
L 248.878978 -181.980047 
L 248.415448 -184.403703 
L 247.910013 -186.827359 
L 247.380389 -189.251015 
L 246.839287 -191.674671 
L 246.285426 -194.098327 
L 245.70009 -196.521983 
L 245.052368 -198.945638 
L 244.312426 -201.369294 
L 243.467961 -203.79295 
L 242.536391 -206.216606 
L 241.565987 -208.640262 
L 240.623305 -211.063918 
L 239.770402 -213.487574 
L 239.040799 -215.91123 
L 238.425034 -218.334886 
L 237.873663 -220.758542 
L 237.318381 -223.182198 
L 236.703621 -225.605853 
L 236.015367 -228.029509 
L 235.293946 -230.453165 
L 234.623777 -232.876821 
L 234.10293 -235.300477 
L 233.804612 -237.724133 
L 233.746814 -240.147789 
L 233.883333 -242.571445 
L 234.12017 -244.995101 
L 234.350117 -247.418757 
L 234.490287 -249.842413 
L 234.506232 -252.266068 
L 234.412765 -254.689724 
L 234.252656 -257.11338 
L 234.064905 -259.537036 
L 233.859295 -261.960692 
L 233.610958 -264.384348 
L 233.279082 -266.808004 
L 232.841957 -269.23166 
L 232.332022 -271.655316 
L 231.853285 -274.078972 
L 231.570403 -276.502628 
L 231.670501 -278.926283 
L 232.310463 -281.349939 
L 233.568567 -283.773595 
L 235.417634 -286.197251 
L 237.728317 -288.620907 
L 240.299878 -291.044563 
L 242.906655 -293.468219 
L 245.344716 -295.891875 
L 247.465717 -298.315531 
L 249.191426 -300.739187 
L 250.50969 -303.162843 
L 255.61781 -303.162843 
L 255.61781 -303.162843 
L 256.936074 -300.739187 
L 258.661783 -298.315531 
L 260.782784 -295.891875 
L 263.220845 -293.468219 
L 265.827622 -291.044563 
L 268.399183 -288.620907 
L 270.709866 -286.197251 
L 272.558933 -283.773595 
L 273.817037 -281.349939 
L 274.456999 -278.926283 
L 274.557097 -276.502628 
L 274.274215 -274.078972 
L 273.795478 -271.655316 
L 273.285543 -269.23166 
L 272.848418 -266.808004 
L 272.516542 -264.384348 
L 272.268205 -261.960692 
L 272.062595 -259.537036 
L 271.874844 -257.11338 
L 271.714735 -254.689724 
L 271.621268 -252.266068 
L 271.637213 -249.842413 
L 271.777383 -247.418757 
L 272.00733 -244.995101 
L 272.244167 -242.571445 
L 272.380686 -240.147789 
L 272.322888 -237.724133 
L 272.02457 -235.300477 
L 271.503723 -232.876821 
L 270.833554 -230.453165 
L 270.112133 -228.029509 
L 269.423879 -225.605853 
L 268.809119 -223.182198 
L 268.253837 -220.758542 
L 267.702466 -218.334886 
L 267.086701 -215.91123 
L 266.357098 -213.487574 
L 265.504195 -211.063918 
L 264.561513 -208.640262 
L 263.591109 -206.216606 
L 262.659539 -203.79295 
L 261.815074 -201.369294 
L 261.075132 -198.945638 
L 260.42741 -196.521983 
L 259.842074 -194.098327 
L 259.288213 -191.674671 
L 258.747111 -189.251015 
L 258.217487 -186.827359 
L 257.712052 -184.403703 
L 257.248522 -181.980047 
L 256.840004 -179.556391 
L 256.48906 -177.132735 
L 256.187379 -174.709079 
L 255.920227 -172.285423 
L 255.672915 -169.861767 
L 255.436143 -167.438112 
L 255.208118 -165.014456 
L 254.993114 -162.5908 
L 254.797753 -160.167144 
L 254.627012 -157.743488 
L 254.481753 -155.319832 
L 254.358555 -152.896176 
L 254.251477 -150.47252 
L 254.154639 -148.048864 
L 254.064287 -145.625208 
L 253.979545 -143.201552 
L 253.901732 -140.777897 
L 253.832811 -138.354241 
L 253.773841 -135.930585 
L 253.724134 -133.506929 
L 253.681419 -131.083273 
L 253.642782 -128.659617 
L 253.60585 -126.235961 
L 253.569652 -123.812305 
L 253.53481 -121.388649 
L 253.503086 -118.964993 
L 253.476579 -116.541337 
L 253.45701 -114.117682 
L 253.445378 -111.694026 
L 253.442065 -109.27037 
L 253.447195 -106.846714 
L 253.460918 -104.423058 
L 253.483342 -101.999402 
L 253.514053 -99.575746 
L 253.551385 -97.15209 
L 253.591853 -94.728434 
L 253.630078 -92.304778 
L 253.659457 -89.881122 
L 253.673446 -87.457467 
L 253.667108 -85.033811 
L 253.638403 -82.610155 
L 253.588782 -80.186499 
L 253.522887 -77.762843 
L 253.447474 -75.339187 
L 253.369934 -72.915531 
L 253.296852 -70.491875 
L 253.232996 -68.068219 
L 253.180911 -65.644563 
L 253.141063 -63.220907 
z
" id="m10ef10742b" style="stroke:#474747;stroke-width:1.5;"/>
    </defs>
    <g clip-path="url(#paf191f766f)">
     <use style="fill:#8ea546;stroke:#474747;stroke-width:1.5;" x="0" xlink:href="#m10ef10742b" y="351.033625"/>
    </g>
   </g>
   <g id="PolyCollection_5">
    <defs>
     <path d="M 313.284715 -63.985356 
L 313.142785 -63.985356 
L 313.10498 -66.393568 
L 313.055285 -68.801781 
L 312.994263 -71.209993 
L 312.924639 -73.618206 
L 312.851412 -76.026418 
L 312.781346 -78.434631 
L 312.721815 -80.842843 
L 312.679227 -83.251056 
L 312.657494 -85.659268 
L 312.657048 -88.067481 
L 312.674788 -90.475693 
L 312.705009 -92.883906 
L 312.740992 -95.292118 
L 312.776704 -97.700331 
L 312.808022 -100.108543 
L 312.833116 -102.516756 
L 312.851991 -104.924968 
L 312.865525 -107.333181 
L 312.874497 -109.741393 
L 312.879034 -112.149606 
L 312.878663 -114.557818 
L 312.872816 -116.966031 
L 312.861435 -119.374243 
L 312.845279 -121.782456 
L 312.825698 -124.190668 
L 312.803956 -126.598881 
L 312.780422 -129.007093 
L 312.754085 -131.415306 
L 312.722728 -133.823518 
L 312.683753 -136.231731 
L 312.635335 -138.639944 
L 312.577302 -141.048156 
L 312.511192 -143.456369 
L 312.43931 -145.864581 
L 312.363056 -148.272794 
L 312.281339 -150.681006 
L 312.189948 -153.089219 
L 312.082502 -155.497431 
L 311.952848 -157.905644 
L 311.798007 -160.313856 
L 311.620222 -162.722069 
L 311.426824 -165.130281 
L 311.22744 -167.538494 
L 311.029343 -169.946706 
L 310.832891 -172.354919 
L 310.62934 -174.763131 
L 310.40261 -177.171344 
L 310.134845 -179.579556 
L 309.813625 -181.987769 
L 309.437376 -184.395981 
L 309.015793 -186.804194 
L 308.564033 -189.212406 
L 308.092508 -191.620619 
L 307.596896 -194.028831 
L 307.053926 -196.437044 
L 306.426831 -198.845256 
L 305.680161 -201.253469 
L 304.798798 -203.661681 
L 303.80261 -206.069894 
L 302.748483 -208.478106 
L 301.715936 -210.886319 
L 300.779821 -213.294531 
L 299.980496 -215.702744 
L 299.304929 -218.110956 
L 298.689179 -220.519169 
L 298.044239 -222.927381 
L 297.296548 -225.335594 
L 296.426624 -227.743806 
L 295.488178 -230.152019 
L 294.597197 -232.560232 
L 293.893038 -234.968444 
L 293.486272 -237.376657 
L 293.414785 -239.784869 
L 293.626954 -242.193082 
L 293.999424 -244.601294 
L 294.381897 -247.009507 
L 294.649463 -249.417719 
L 294.739795 -251.825932 
L 294.659782 -254.234144 
L 294.460546 -256.642357 
L 294.194729 -259.050569 
L 293.878428 -261.458782 
L 293.478156 -263.866994 
L 292.931378 -266.275207 
L 292.192887 -268.683419 
L 291.285957 -271.091632 
L 290.333226 -273.499844 
L 289.549687 -275.908057 
L 289.195843 -278.316269 
L 289.506169 -280.724482 
L 290.618625 -283.132694 
L 292.530754 -285.540907 
L 295.097094 -287.949119 
L 298.066647 -290.357332 
L 301.145074 -292.765544 
L 304.059773 -295.173757 
L 306.608543 -297.581969 
L 308.681619 -299.990182 
L 310.257514 -302.398394 
L 316.169986 -302.398394 
L 316.169986 -302.398394 
L 317.745881 -299.990182 
L 319.818957 -297.581969 
L 322.367727 -295.173757 
L 325.282426 -292.765544 
L 328.360853 -290.357332 
L 331.330406 -287.949119 
L 333.896746 -285.540907 
L 335.808875 -283.132694 
L 336.921331 -280.724482 
L 337.231657 -278.316269 
L 336.877813 -275.908057 
L 336.094274 -273.499844 
L 335.141543 -271.091632 
L 334.234613 -268.683419 
L 333.496122 -266.275207 
L 332.949344 -263.866994 
L 332.549072 -261.458782 
L 332.232771 -259.050569 
L 331.966954 -256.642357 
L 331.767718 -254.234144 
L 331.687705 -251.825932 
L 331.778037 -249.417719 
L 332.045603 -247.009507 
L 332.428076 -244.601294 
L 332.800546 -242.193082 
L 333.012715 -239.784869 
L 332.941228 -237.376657 
L 332.534462 -234.968444 
L 331.830303 -232.560232 
L 330.939322 -230.152019 
L 330.000876 -227.743806 
L 329.130952 -225.335594 
L 328.383261 -222.927381 
L 327.738321 -220.519169 
L 327.122571 -218.110956 
L 326.447004 -215.702744 
L 325.647679 -213.294531 
L 324.711564 -210.886319 
L 323.679017 -208.478106 
L 322.62489 -206.069894 
L 321.628702 -203.661681 
L 320.747339 -201.253469 
L 320.000669 -198.845256 
L 319.373574 -196.437044 
L 318.830604 -194.028831 
L 318.334992 -191.620619 
L 317.863467 -189.212406 
L 317.411707 -186.804194 
L 316.990124 -184.395981 
L 316.613875 -181.987769 
L 316.292655 -179.579556 
L 316.02489 -177.171344 
L 315.79816 -174.763131 
L 315.594609 -172.354919 
L 315.398157 -169.946706 
L 315.20006 -167.538494 
L 315.000676 -165.130281 
L 314.807278 -162.722069 
L 314.629493 -160.313856 
L 314.474652 -157.905644 
L 314.344998 -155.497431 
L 314.237552 -153.089219 
L 314.146161 -150.681006 
L 314.064444 -148.272794 
L 313.98819 -145.864581 
L 313.916308 -143.456369 
L 313.850198 -141.048156 
L 313.792165 -138.639944 
L 313.743747 -136.231731 
L 313.704772 -133.823518 
L 313.673415 -131.415306 
L 313.647078 -129.007093 
L 313.623544 -126.598881 
L 313.601802 -124.190668 
L 313.582221 -121.782456 
L 313.566065 -119.374243 
L 313.554684 -116.966031 
L 313.548837 -114.557818 
L 313.548466 -112.149606 
L 313.553003 -109.741393 
L 313.561975 -107.333181 
L 313.575509 -104.924968 
L 313.594384 -102.516756 
L 313.619478 -100.108543 
L 313.650796 -97.700331 
L 313.686508 -95.292118 
L 313.722491 -92.883906 
L 313.752712 -90.475693 
L 313.770452 -88.067481 
L 313.770006 -85.659268 
L 313.748273 -83.251056 
L 313.705685 -80.842843 
L 313.646154 -78.434631 
L 313.576088 -76.026418 
L 313.502861 -73.618206 
L 313.433237 -71.209993 
L 313.372215 -68.801781 
L 313.32252 -66.393568 
L 313.284715 -63.985356 
z
" id="m01b65b9b58" style="stroke:#474747;stroke-width:1.5;"/>
    </defs>
    <g clip-path="url(#paf191f766f)">
     <use style="fill:#48b067;stroke:#474747;stroke-width:1.5;" x="0" xlink:href="#m01b65b9b58" y="351.033625"/>
    </g>
   </g>
   <g id="PolyCollection_6">
    <defs>
     <path d="M 373.449151 -63.633971 
L 373.278349 -63.633971 
L 373.233566 -66.049283 
L 373.174878 -68.464594 
L 373.10292 -70.879905 
L 373.020802 -73.295216 
L 372.934282 -75.710527 
L 372.851235 -78.125838 
L 372.780405 -80.54115 
L 372.729654 -82.956461 
L 372.704185 -85.371772 
L 372.705306 -87.787083 
L 372.730159 -90.202394 
L 372.772534 -92.617706 
L 372.824502 -95.033017 
L 372.878302 -97.448328 
L 372.927874 -99.863639 
L 372.969598 -102.27895 
L 373.002156 -104.694262 
L 373.02577 -107.109573 
L 373.041251 -109.524884 
L 373.049303 -111.940195 
L 373.050303 -114.355506 
L 373.044493 -116.770817 
L 373.032331 -119.186129 
L 373.014677 -121.60144 
L 372.992599 -124.016751 
L 372.966868 -126.432062 
L 372.937375 -128.847373 
L 372.902862 -131.262685 
L 372.861207 -133.677996 
L 372.810256 -136.093307 
L 372.748877 -138.508618 
L 372.677705 -140.923929 
L 372.599077 -143.33924 
L 372.516017 -145.754552 
L 372.430562 -148.169863 
L 372.342174 -150.585174 
L 372.247095 -153.000485 
L 372.139207 -155.415796 
L 372.012267 -157.831108 
L 371.862686 -160.246419 
L 371.691496 -162.66173 
L 371.504327 -165.077041 
L 371.308949 -167.492352 
L 371.111154 -169.907663 
L 370.910722 -172.322975 
L 370.699571 -174.738286 
L 370.463475 -177.153597 
L 370.187172 -179.568908 
L 369.860861 -181.984219 
L 369.485019 -184.399531 
L 369.070661 -186.814842 
L 368.634014 -189.230153 
L 368.187296 -191.645464 
L 367.729662 -194.060775 
L 367.243209 -196.476087 
L 366.697324 -198.891398 
L 366.06106 -201.306709 
L 365.319028 -203.72202 
L 364.483604 -206.137331 
L 363.596618 -208.552642 
L 362.717622 -210.967954 
L 361.90191 -213.383265 
L 361.177027 -215.798576 
L 360.528682 -218.213887 
L 359.904197 -220.629198 
L 359.234398 -223.04451 
L 358.466277 -225.459821 
L 357.592626 -227.875132 
L 356.664661 -230.290443 
L 355.779945 -232.705754 
L 355.048581 -235.121065 
L 354.550744 -237.536377 
L 354.303564 -239.951688 
L 354.252218 -242.366999 
L 354.289927 -244.78231 
L 354.298747 -247.197621 
L 354.193435 -249.612933 
L 353.949041 -252.028244 
L 353.60013 -254.443555 
L 353.212735 -256.858866 
L 352.843116 -259.274177 
L 352.504074 -261.689488 
L 352.156579 -264.1048 
L 351.73291 -266.520111 
L 351.18244 -268.935422 
L 350.519698 -271.350733 
L 349.851736 -273.766044 
L 349.369623 -276.181356 
L 349.30375 -278.596667 
L 349.857884 -281.011978 
L 351.145833 -283.427289 
L 353.153431 -285.8426 
L 355.738269 -288.257912 
L 358.665107 -290.673223 
L 361.662673 -293.088534 
L 364.4822 -295.503845 
L 366.940693 -297.919156 
L 368.940158 -300.334467 
L 370.46338 -302.749779 
L 376.26412 -302.749779 
L 376.26412 -302.749779 
L 377.787342 -300.334467 
L 379.786807 -297.919156 
L 382.2453 -295.503845 
L 385.064827 -293.088534 
L 388.062393 -290.673223 
L 390.989231 -288.257912 
L 393.574069 -285.8426 
L 395.581667 -283.427289 
L 396.869616 -281.011978 
L 397.42375 -278.596667 
L 397.357877 -276.181356 
L 396.875764 -273.766044 
L 396.207802 -271.350733 
L 395.54506 -268.935422 
L 394.99459 -266.520111 
L 394.570921 -264.1048 
L 394.223426 -261.689488 
L 393.884384 -259.274177 
L 393.514765 -256.858866 
L 393.12737 -254.443555 
L 392.778459 -252.028244 
L 392.534065 -249.612933 
L 392.428753 -247.197621 
L 392.437573 -244.78231 
L 392.475282 -242.366999 
L 392.423936 -239.951688 
L 392.176756 -237.536377 
L 391.678919 -235.121065 
L 390.947555 -232.705754 
L 390.062839 -230.290443 
L 389.134874 -227.875132 
L 388.261223 -225.459821 
L 387.493102 -223.04451 
L 386.823303 -220.629198 
L 386.198818 -218.213887 
L 385.550473 -215.798576 
L 384.82559 -213.383265 
L 384.009878 -210.967954 
L 383.130882 -208.552642 
L 382.243896 -206.137331 
L 381.408472 -203.72202 
L 380.66644 -201.306709 
L 380.030176 -198.891398 
L 379.484291 -196.476087 
L 378.997838 -194.060775 
L 378.540204 -191.645464 
L 378.093486 -189.230153 
L 377.656839 -186.814842 
L 377.242481 -184.399531 
L 376.866639 -181.984219 
L 376.540328 -179.568908 
L 376.264025 -177.153597 
L 376.027929 -174.738286 
L 375.816778 -172.322975 
L 375.616346 -169.907663 
L 375.418551 -167.492352 
L 375.223173 -165.077041 
L 375.036004 -162.66173 
L 374.864814 -160.246419 
L 374.715233 -157.831108 
L 374.588293 -155.415796 
L 374.480405 -153.000485 
L 374.385326 -150.585174 
L 374.296938 -148.169863 
L 374.211483 -145.754552 
L 374.128423 -143.33924 
L 374.049795 -140.923929 
L 373.978623 -138.508618 
L 373.917244 -136.093307 
L 373.866293 -133.677996 
L 373.824638 -131.262685 
L 373.790125 -128.847373 
L 373.760632 -126.432062 
L 373.734901 -124.016751 
L 373.712823 -121.60144 
L 373.695169 -119.186129 
L 373.683007 -116.770817 
L 373.677197 -114.355506 
L 373.678197 -111.940195 
L 373.686249 -109.524884 
L 373.70173 -107.109573 
L 373.725344 -104.694262 
L 373.757902 -102.27895 
L 373.799626 -99.863639 
L 373.849198 -97.448328 
L 373.902998 -95.033017 
L 373.954966 -92.617706 
L 373.997341 -90.202394 
L 374.022194 -87.787083 
L 374.023315 -85.371772 
L 373.997846 -82.956461 
L 373.947095 -80.54115 
L 373.876265 -78.125838 
L 373.793218 -75.710527 
L 373.706698 -73.295216 
L 373.62458 -70.879905 
L 373.552622 -68.464594 
L 373.493934 -66.049283 
L 373.449151 -63.633971 
z
" id="m46973494b1" style="stroke:#474747;stroke-width:1.5;"/>
    </defs>
    <g clip-path="url(#paf191f766f)">
     <use style="fill:#4aac98;stroke:#474747;stroke-width:1.5;" x="0" xlink:href="#m46973494b1" y="351.033625"/>
    </g>
   </g>
   <g id="PolyCollection_7">
    <defs>
     <path d="M 433.655812 -60.185924 
L 433.371688 -60.185924 
L 433.306528 -62.670892 
L 433.222944 -65.155861 
L 433.121039 -67.64083 
L 433.003278 -70.125799 
L 432.874782 -72.610767 
L 432.743129 -75.095736 
L 432.617555 -77.580705 
L 432.507658 -80.065673 
L 432.421822 -82.550642 
L 432.365742 -85.035611 
L 432.341417 -87.52058 
L 432.346895 -90.005548 
L 432.376812 -92.490517 
L 432.423565 -94.975486 
L 432.478761 -97.460454 
L 432.534555 -99.945423 
L 432.584581 -102.430392 
L 432.624333 -104.915361 
L 432.651109 -107.400329 
L 432.663692 -109.885298 
L 432.661997 -112.370267 
L 432.646807 -114.855235 
L 432.6196 -117.340204 
L 432.582358 -119.825173 
L 432.537286 -122.310142 
L 432.486377 -124.79511 
L 432.430957 -127.280079 
L 432.37135 -129.765048 
L 432.306858 -132.250016 
L 432.236072 -134.734985 
L 432.157429 -137.219954 
L 432.069732 -139.704923 
L 431.972403 -142.189891 
L 431.865295 -144.67486 
L 431.74815 -147.159829 
L 431.619984 -149.644797 
L 431.478747 -152.129766 
L 431.321505 -154.614735 
L 431.145139 -157.099704 
L 430.94723 -159.584672 
L 430.726657 -162.069641 
L 430.483495 -164.55461 
L 430.218131 -167.039578 
L 429.92995 -169.524547 
L 429.616254 -172.009516 
L 429.272104 -174.494485 
L 428.891366 -176.979453 
L 428.468686 -179.464422 
L 428.001482 -181.949391 
L 427.490907 -184.434359 
L 426.941043 -186.919328 
L 426.356456 -189.404297 
L 425.739155 -191.889265 
L 425.086572 -194.374234 
L 424.392002 -196.859203 
L 423.647917 -199.344172 
L 422.851182 -201.82914 
L 422.007957 -204.314109 
L 421.135785 -206.799078 
L 420.261299 -209.284046 
L 419.413786 -211.769015 
L 418.616953 -214.253984 
L 417.882387 -216.738953 
L 417.20796 -219.223921 
L 416.582477 -221.70889 
L 415.995153 -224.193859 
L 415.446057 -226.678827 
L 414.952841 -229.163796 
L 414.550195 -231.648765 
L 414.281412 -234.133734 
L 414.184714 -236.618702 
L 414.279361 -239.103671 
L 414.556782 -241.58864 
L 414.980009 -244.073608 
L 415.491379 -246.558577 
L 416.025308 -249.043546 
L 416.521332 -251.528515 
L 416.933177 -254.013483 
L 417.231978 -256.498452 
L 417.404715 -258.983421 
L 417.45095 -261.468389 
L 417.3812 -263.953358 
L 417.218611 -266.438327 
L 417.002995 -268.923296 
L 416.794107 -271.408264 
L 416.670407 -273.893233 
L 416.720956 -276.378202 
L 417.030815 -278.86317 
L 417.663318 -281.348139 
L 418.644361 -283.833108 
L 419.953692 -286.318077 
L 421.526146 -288.803045 
L 423.262643 -291.288014 
L 425.047854 -293.772983 
L 426.769748 -296.257951 
L 428.336207 -298.74292 
L 429.685374 -301.227889 
L 430.788597 -303.712858 
L 431.646899 -306.197826 
L 435.380601 -306.197826 
L 435.380601 -306.197826 
L 436.238903 -303.712858 
L 437.342126 -301.227889 
L 438.691293 -298.74292 
L 440.257752 -296.257951 
L 441.979646 -293.772983 
L 443.764857 -291.288014 
L 445.501354 -288.803045 
L 447.073808 -286.318077 
L 448.383139 -283.833108 
L 449.364182 -281.348139 
L 449.996685 -278.86317 
L 450.306544 -276.378202 
L 450.357093 -273.893233 
L 450.233393 -271.408264 
L 450.024505 -268.923296 
L 449.808889 -266.438327 
L 449.6463 -263.953358 
L 449.57655 -261.468389 
L 449.622785 -258.983421 
L 449.795522 -256.498452 
L 450.094323 -254.013483 
L 450.506168 -251.528515 
L 451.002192 -249.043546 
L 451.536121 -246.558577 
L 452.047491 -244.073608 
L 452.470718 -241.58864 
L 452.748139 -239.103671 
L 452.842786 -236.618702 
L 452.746088 -234.133734 
L 452.477305 -231.648765 
L 452.074659 -229.163796 
L 451.581443 -226.678827 
L 451.032347 -224.193859 
L 450.445023 -221.70889 
L 449.81954 -219.223921 
L 449.145113 -216.738953 
L 448.410547 -214.253984 
L 447.613714 -211.769015 
L 446.766201 -209.284046 
L 445.891715 -206.799078 
L 445.019543 -204.314109 
L 444.176318 -201.82914 
L 443.379583 -199.344172 
L 442.635498 -196.859203 
L 441.940928 -194.374234 
L 441.288345 -191.889265 
L 440.671044 -189.404297 
L 440.086457 -186.919328 
L 439.536593 -184.434359 
L 439.026018 -181.949391 
L 438.558814 -179.464422 
L 438.136134 -176.979453 
L 437.755396 -174.494485 
L 437.411246 -172.009516 
L 437.09755 -169.524547 
L 436.809369 -167.039578 
L 436.544005 -164.55461 
L 436.300843 -162.069641 
L 436.08027 -159.584672 
L 435.882361 -157.099704 
L 435.705995 -154.614735 
L 435.548753 -152.129766 
L 435.407516 -149.644797 
L 435.27935 -147.159829 
L 435.162205 -144.67486 
L 435.055097 -142.189891 
L 434.957768 -139.704923 
L 434.870071 -137.219954 
L 434.791428 -134.734985 
L 434.720642 -132.250016 
L 434.65615 -129.765048 
L 434.596543 -127.280079 
L 434.541123 -124.79511 
L 434.490214 -122.310142 
L 434.445142 -119.825173 
L 434.4079 -117.340204 
L 434.380693 -114.855235 
L 434.365503 -112.370267 
L 434.363808 -109.885298 
L 434.376391 -107.400329 
L 434.403167 -104.915361 
L 434.442919 -102.430392 
L 434.492945 -99.945423 
L 434.548739 -97.460454 
L 434.603935 -94.975486 
L 434.650688 -92.490517 
L 434.680605 -90.005548 
L 434.686083 -87.52058 
L 434.661758 -85.035611 
L 434.605678 -82.550642 
L 434.519842 -80.065673 
L 434.409945 -77.580705 
L 434.284371 -75.095736 
L 434.152718 -72.610767 
L 434.024222 -70.125799 
L 433.906461 -67.64083 
L 433.804556 -65.155861 
L 433.720972 -62.670892 
L 433.655812 -60.185924 
z
" id="m7887cb8e67" style="stroke:#474747;stroke-width:1.5;"/>
    </defs>
    <g clip-path="url(#paf191f766f)">
     <use style="fill:#4dabb0;stroke:#474747;stroke-width:1.5;" x="0" xlink:href="#m7887cb8e67" y="351.033625"/>
    </g>
   </g>
   <g id="PolyCollection_8">
    <defs>
     <path d="M 493.766925 -62.841483 
L 493.560575 -62.841483 
L 493.508259 -65.272804 
L 493.440092 -67.704125 
L 493.356656 -70.135446 
L 493.261167 -72.566767 
L 493.159699 -74.998088 
L 493.060727 -77.429409 
L 492.973917 -79.86073 
L 492.908364 -82.292051 
L 492.870705 -84.723372 
L 492.863656 -87.154693 
L 492.885441 -89.586014 
L 492.93031 -92.017335 
L 492.989972 -94.448656 
L 493.055486 -96.879977 
L 493.119003 -99.311299 
L 493.174879 -101.74262 
L 493.219954 -104.173941 
L 493.253123 -106.605262 
L 493.274559 -109.036583 
L 493.284981 -111.467904 
L 493.285241 -113.899225 
L 493.276265 -116.330546 
L 493.259174 -118.761867 
L 493.235326 -121.193188 
L 493.206105 -123.624509 
L 493.172465 -126.05583 
L 493.134436 -128.487151 
L 493.09089 -130.918472 
L 493.039796 -133.349793 
L 492.978944 -135.781114 
L 492.906851 -138.212435 
L 492.8234 -140.643757 
L 492.729766 -143.075078 
L 492.627536 -145.506399 
L 492.51729 -147.93772 
L 492.397337 -150.369041 
L 492.263352 -152.800362 
L 492.109354 -155.231683 
L 491.929872 -157.663004 
L 491.722425 -160.094325 
L 491.489085 -162.525646 
L 491.23606 -164.956967 
L 490.971023 -167.388288 
L 490.699036 -169.819609 
L 490.418814 -172.25093 
L 490.121308 -174.682251 
L 489.791769 -177.113572 
L 489.414918 -179.544893 
L 488.981137 -181.976214 
L 488.490657 -184.407536 
L 487.953185 -186.838857 
L 487.382281 -189.270178 
L 486.786505 -191.701499 
L 486.161474 -194.13282 
L 485.487465 -196.564141 
L 484.735266 -198.995462 
L 483.879332 -201.426783 
L 482.913298 -203.858104 
L 481.860666 -206.289425 
L 480.774394 -208.720746 
L 479.723339 -211.152067 
L 478.769501 -213.583388 
L 477.945063 -216.014709 
L 477.239693 -218.44603 
L 476.605282 -220.877351 
L 475.978104 -223.308672 
L 475.310396 -225.739993 
L 474.598177 -228.171315 
L 473.892592 -230.602636 
L 473.288353 -233.033957 
L 472.892492 -235.465278 
L 472.785389 -237.896599 
L 472.989771 -240.32792 
L 473.460302 -242.759241 
L 474.097672 -245.190562 
L 474.780726 -247.621883 
L 475.402825 -250.053204 
L 475.897578 -252.484525 
L 476.244803 -254.915846 
L 476.457062 -257.347167 
L 476.556118 -259.778488 
L 476.552794 -262.209809 
L 476.441309 -264.64113 
L 476.211407 -267.072451 
L 475.872264 -269.503773 
L 475.475671 -271.935094 
L 475.125422 -274.366415 
L 474.965399 -276.797736 
L 475.148045 -279.229057 
L 475.79349 -281.660378 
L 476.953803 -284.091699 
L 478.59501 -286.52302 
L 480.602645 -288.954341 
L 482.808068 -291.385662 
L 485.025987 -293.816983 
L 487.091215 -296.248304 
L 488.884823 -298.679625 
L 490.344962 -301.110946 
L 491.463166 -303.542267 
L 495.864334 -303.542267 
L 495.864334 -303.542267 
L 496.982538 -301.110946 
L 498.442677 -298.679625 
L 500.236285 -296.248304 
L 502.301513 -293.816983 
L 504.519432 -291.385662 
L 506.724855 -288.954341 
L 508.73249 -286.52302 
L 510.373697 -284.091699 
L 511.53401 -281.660378 
L 512.179455 -279.229057 
L 512.362101 -276.797736 
L 512.202078 -274.366415 
L 511.851829 -271.935094 
L 511.455236 -269.503773 
L 511.116093 -267.072451 
L 510.886191 -264.64113 
L 510.774706 -262.209809 
L 510.771382 -259.778488 
L 510.870438 -257.347167 
L 511.082697 -254.915846 
L 511.429922 -252.484525 
L 511.924675 -250.053204 
L 512.546774 -247.621883 
L 513.229828 -245.190562 
L 513.867198 -242.759241 
L 514.337729 -240.32792 
L 514.542111 -237.896599 
L 514.435008 -235.465278 
L 514.039147 -233.033957 
L 513.434908 -230.602636 
L 512.729323 -228.171315 
L 512.017104 -225.739993 
L 511.349396 -223.308672 
L 510.722218 -220.877351 
L 510.087807 -218.44603 
L 509.382437 -216.014709 
L 508.557999 -213.583388 
L 507.604161 -211.152067 
L 506.553106 -208.720746 
L 505.466834 -206.289425 
L 504.414202 -203.858104 
L 503.448168 -201.426783 
L 502.592234 -198.995462 
L 501.840035 -196.564141 
L 501.166026 -194.13282 
L 500.540995 -191.701499 
L 499.945219 -189.270178 
L 499.374315 -186.838857 
L 498.836843 -184.407536 
L 498.346363 -181.976214 
L 497.912582 -179.544893 
L 497.535731 -177.113572 
L 497.206192 -174.682251 
L 496.908686 -172.25093 
L 496.628464 -169.819609 
L 496.356477 -167.388288 
L 496.09144 -164.956967 
L 495.838415 -162.525646 
L 495.605075 -160.094325 
L 495.397628 -157.663004 
L 495.218146 -155.231683 
L 495.064148 -152.800362 
L 494.930163 -150.369041 
L 494.81021 -147.93772 
L 494.699964 -145.506399 
L 494.597734 -143.075078 
L 494.5041 -140.643757 
L 494.420649 -138.212435 
L 494.348556 -135.781114 
L 494.287704 -133.349793 
L 494.23661 -130.918472 
L 494.193064 -128.487151 
L 494.155035 -126.05583 
L 494.121395 -123.624509 
L 494.092174 -121.193188 
L 494.068326 -118.761867 
L 494.051235 -116.330546 
L 494.042259 -113.899225 
L 494.042519 -111.467904 
L 494.052941 -109.036583 
L 494.074377 -106.605262 
L 494.107546 -104.173941 
L 494.152621 -101.74262 
L 494.208497 -99.311299 
L 494.272014 -96.879977 
L 494.337528 -94.448656 
L 494.39719 -92.017335 
L 494.442059 -89.586014 
L 494.463844 -87.154693 
L 494.456795 -84.723372 
L 494.419136 -82.292051 
L 494.353583 -79.86073 
L 494.266773 -77.429409 
L 494.167801 -74.998088 
L 494.066333 -72.566767 
L 493.970844 -70.135446 
L 493.887408 -67.704125 
L 493.819241 -65.272804 
L 493.766925 -62.841483 
z
" id="m3c6bf17b7c" style="stroke:#474747;stroke-width:1.5;"/>
    </defs>
    <g clip-path="url(#paf191f766f)">
     <use style="fill:#54acd3;stroke:#474747;stroke-width:1.5;" x="0" xlink:href="#m3c6bf17b7c" y="351.033625"/>
    </g>
   </g>
   <g id="PolyCollection_9">
    <defs>
     <path d="M 553.968342 -60.04614 
L 553.659158 -60.04614 
L 553.588605 -62.533933 
L 553.498179 -65.021725 
L 553.387975 -67.509518 
L 553.260612 -69.997311 
L 553.121548 -72.485103 
L 552.978886 -74.972896 
L 552.842536 -77.460689 
L 552.722852 -79.948481 
L 552.628962 -82.436274 
L 552.56719 -84.924066 
L 552.539969 -87.411859 
L 552.545535 -89.899652 
L 552.578467 -92.387444 
L 552.630914 -94.875237 
L 552.694136 -97.36303 
L 552.759944 -99.850822 
L 552.821704 -102.338615 
L 552.874756 -104.826407 
L 552.91632 -107.3142 
L 552.945096 -109.801993 
L 552.960794 -112.289785 
L 552.963765 -114.777578 
L 552.95477 -117.265371 
L 552.934827 -119.753163 
L 552.905024 -122.240956 
L 552.866267 -124.728748 
L 552.818994 -127.216541 
L 552.762987 -129.704334 
L 552.697387 -132.192126 
L 552.62095 -134.679919 
L 552.53243 -137.167711 
L 552.430913 -139.655504 
L 552.31588 -142.143297 
L 552.186941 -144.631089 
L 552.043328 -147.118882 
L 551.883448 -149.606675 
L 551.704789 -152.094467 
L 551.50437 -154.58226 
L 551.279628 -157.070052 
L 551.029369 -159.557845 
L 550.754263 -162.045638 
L 550.456483 -164.53343 
L 550.138462 -167.021223 
L 549.801195 -169.509016 
L 549.442838 -171.996808 
L 549.058354 -174.484601 
L 548.640527 -176.972393 
L 548.182043 -179.460186 
L 547.677688 -181.947979 
L 547.125559 -184.435771 
L 546.526528 -186.923564 
L 545.882096 -189.411357 
L 545.191708 -191.899149 
L 544.451205 -194.386942 
L 543.653829 -196.874734 
L 542.794124 -199.362527 
L 541.8736 -201.85032 
L 540.905748 -204.338112 
L 539.917757 -206.825905 
L 538.947286 -209.313698 
L 538.034654 -211.80149 
L 537.213022 -214.289283 
L 536.500434 -216.777075 
L 535.897275 -219.264868 
L 535.390721 -221.752661 
L 534.964812 -224.240453 
L 534.612166 -226.728246 
L 534.342334 -229.216039 
L 534.182838 -231.703831 
L 534.171834 -234.191624 
L 534.344729 -236.679416 
L 534.719615 -239.167209 
L 535.28691 -241.655002 
L 536.00687 -244.142794 
L 536.815581 -246.630587 
L 537.63688 -249.118379 
L 538.39592 -251.606172 
L 539.030201 -254.093965 
L 539.495834 -256.581757 
L 539.769249 -259.06955 
L 539.846479 -261.557343 
L 539.742481 -264.045135 
L 539.491838 -266.532928 
L 539.150164 -269.02072 
L 538.793879 -271.508513 
L 538.515689 -273.996306 
L 538.414307 -276.484098 
L 538.579295 -278.971891 
L 539.074289 -281.459684 
L 539.923197 -283.947476 
L 541.103569 -286.435269 
L 542.549371 -288.923061 
L 544.162623 -291.410854 
L 545.830788 -293.898647 
L 547.445427 -296.386439 
L 548.917758 -298.874232 
L 550.188155 -301.362025 
L 551.228671 -303.849817 
L 552.039541 -306.33761 
L 555.587959 -306.33761 
L 555.587959 -306.33761 
L 556.398829 -303.849817 
L 557.439345 -301.362025 
L 558.709742 -298.874232 
L 560.182073 -296.386439 
L 561.796712 -293.898647 
L 563.464877 -291.410854 
L 565.078129 -288.923061 
L 566.523931 -286.435269 
L 567.704303 -283.947476 
L 568.553211 -281.459684 
L 569.048205 -278.971891 
L 569.213193 -276.484098 
L 569.111811 -273.996306 
L 568.833621 -271.508513 
L 568.477336 -269.02072 
L 568.135662 -266.532928 
L 567.885019 -264.045135 
L 567.781021 -261.557343 
L 567.858251 -259.06955 
L 568.131666 -256.581757 
L 568.597299 -254.093965 
L 569.23158 -251.606172 
L 569.99062 -249.118379 
L 570.811919 -246.630587 
L 571.62063 -244.142794 
L 572.34059 -241.655002 
L 572.907885 -239.167209 
L 573.282771 -236.679416 
L 573.455666 -234.191624 
L 573.444662 -231.703831 
L 573.285166 -229.216039 
L 573.015334 -226.728246 
L 572.662688 -224.240453 
L 572.236779 -221.752661 
L 571.730225 -219.264868 
L 571.127066 -216.777075 
L 570.414478 -214.289283 
L 569.592846 -211.80149 
L 568.680214 -209.313698 
L 567.709743 -206.825905 
L 566.721752 -204.338112 
L 565.7539 -201.85032 
L 564.833376 -199.362527 
L 563.973671 -196.874734 
L 563.176295 -194.386942 
L 562.435792 -191.899149 
L 561.745404 -189.411357 
L 561.100972 -186.923564 
L 560.501941 -184.435771 
L 559.949812 -181.947979 
L 559.445457 -179.460186 
L 558.986973 -176.972393 
L 558.569146 -174.484601 
L 558.184662 -171.996808 
L 557.826305 -169.509016 
L 557.489038 -167.021223 
L 557.171017 -164.53343 
L 556.873237 -162.045638 
L 556.598131 -159.557845 
L 556.347872 -157.070052 
L 556.12313 -154.58226 
L 555.922711 -152.094467 
L 555.744052 -149.606675 
L 555.584172 -147.118882 
L 555.440559 -144.631089 
L 555.31162 -142.143297 
L 555.196587 -139.655504 
L 555.09507 -137.167711 
L 555.00655 -134.679919 
L 554.930113 -132.192126 
L 554.864513 -129.704334 
L 554.808506 -127.216541 
L 554.761233 -124.728748 
L 554.722476 -122.240956 
L 554.692673 -119.753163 
L 554.67273 -117.265371 
L 554.663735 -114.777578 
L 554.666706 -112.289785 
L 554.682404 -109.801993 
L 554.71118 -107.3142 
L 554.752744 -104.826407 
L 554.805796 -102.338615 
L 554.867556 -99.850822 
L 554.933364 -97.36303 
L 554.996586 -94.875237 
L 555.049033 -92.387444 
L 555.081965 -89.899652 
L 555.087531 -87.411859 
L 555.06031 -84.924066 
L 554.998538 -82.436274 
L 554.904648 -79.948481 
L 554.784964 -77.460689 
L 554.648614 -74.972896 
L 554.505952 -72.485103 
L 554.366888 -69.997311 
L 554.239525 -67.509518 
L 554.129321 -65.021725 
L 554.038895 -62.533933 
L 553.968342 -60.04614 
z
" id="m292b49ac19" style="stroke:#474747;stroke-width:1.5;"/>
    </defs>
    <g clip-path="url(#paf191f766f)">
     <use style="fill:#a9aceb;stroke:#474747;stroke-width:1.5;" x="0" xlink:href="#m292b49ac19" y="351.033625"/>
    </g>
   </g>
   <g id="PolyCollection_10">
    <defs>
     <path d="M 614.296567 -52.555511 
L 613.630933 -52.555511 
L 613.50905 -55.19463 
L 613.35809 -57.833748 
L 613.1771 -60.472867 
L 612.967281 -63.111985 
L 612.732418 -65.751104 
L 612.47905 -68.390222 
L 612.216288 -71.029341 
L 611.955256 -73.668459 
L 611.708155 -76.307577 
L 611.487083 -78.946696 
L 611.302746 -81.585814 
L 611.163276 -84.224933 
L 611.073338 -86.864051 
L 611.033676 -89.50317 
L 611.041153 -92.142288 
L 611.089278 -94.781407 
L 611.169103 -97.420525 
L 611.270322 -100.059644 
L 611.382405 -102.698762 
L 611.495594 -105.337881 
L 611.601639 -107.976999 
L 611.694231 -110.616117 
L 611.769123 -113.255236 
L 611.823991 -115.894354 
L 611.858109 -118.533473 
L 611.871929 -121.172591 
L 611.866638 -123.81171 
L 611.843752 -126.450828 
L 611.8048 -129.089947 
L 611.751103 -131.729065 
L 611.683653 -134.368184 
L 611.603081 -137.007302 
L 611.509678 -139.64642 
L 611.403465 -142.285539 
L 611.28427 -144.924657 
L 611.151813 -147.563776 
L 611.005793 -150.202894 
L 610.845948 -152.842013 
L 610.672113 -155.481131 
L 610.484237 -158.12025 
L 610.282361 -160.759368 
L 610.066561 -163.398487 
L 609.836853 -166.037605 
L 609.593098 -168.676723 
L 609.334906 -171.315842 
L 609.061604 -173.95496 
L 608.772242 -176.594079 
L 608.465669 -179.233197 
L 608.140646 -181.872316 
L 607.795991 -184.511434 
L 607.430728 -187.150553 
L 607.044246 -189.789671 
L 606.636469 -192.42879 
L 606.208017 -195.067908 
L 605.76037 -197.707027 
L 605.295978 -200.346145 
L 604.818303 -202.985263 
L 604.331744 -205.624382 
L 603.841451 -208.2635 
L 603.35306 -210.902619 
L 602.872405 -213.541737 
L 602.405269 -216.180856 
L 601.957222 -218.819974 
L 601.533517 -221.459093 
L 601.138989 -224.098211 
L 600.777853 -226.73733 
L 600.453335 -229.376448 
L 600.167095 -232.015566 
L 599.918548 -234.654685 
L 599.704222 -237.293803 
L 599.517387 -239.932922 
L 599.348147 -242.57204 
L 599.184158 -245.211159 
L 599.011982 -247.850277 
L 598.819005 -250.489396 
L 598.595715 -253.128514 
L 598.338059 -255.767633 
L 598.049563 -258.406751 
L 597.742857 -261.045869 
L 597.440285 -263.684988 
L 597.173306 -266.324106 
L 596.980513 -268.963225 
L 596.904284 -271.602343 
L 596.986293 -274.241462 
L 597.262385 -276.88058 
L 597.757537 -279.519699 
L 598.481706 -282.158817 
L 599.427354 -284.797936 
L 600.569156 -287.437054 
L 601.866059 -290.076173 
L 603.265416 -292.715291 
L 604.708539 -295.354409 
L 606.136776 -297.993528 
L 607.497158 -300.632646 
L 608.746827 -303.271765 
L 609.85572 -305.910883 
L 610.807379 -308.550002 
L 611.598048 -311.18912 
L 612.234518 -313.828239 
L 615.692982 -313.828239 
L 615.692982 -313.828239 
L 616.329452 -311.18912 
L 617.120121 -308.550002 
L 618.07178 -305.910883 
L 619.180673 -303.271765 
L 620.430342 -300.632646 
L 621.790724 -297.993528 
L 623.218961 -295.354409 
L 624.662084 -292.715291 
L 626.061441 -290.076173 
L 627.358344 -287.437054 
L 628.500146 -284.797936 
L 629.445794 -282.158817 
L 630.169963 -279.519699 
L 630.665115 -276.88058 
L 630.941207 -274.241462 
L 631.023216 -271.602343 
L 630.946987 -268.963225 
L 630.754194 -266.324106 
L 630.487215 -263.684988 
L 630.184643 -261.045869 
L 629.877937 -258.406751 
L 629.589441 -255.767633 
L 629.331785 -253.128514 
L 629.108495 -250.489396 
L 628.915518 -247.850277 
L 628.743342 -245.211159 
L 628.579353 -242.57204 
L 628.410113 -239.932922 
L 628.223278 -237.293803 
L 628.008952 -234.654685 
L 627.760405 -232.015566 
L 627.474165 -229.376448 
L 627.149647 -226.73733 
L 626.788511 -224.098211 
L 626.393983 -221.459093 
L 625.970278 -218.819974 
L 625.522231 -216.180856 
L 625.055095 -213.541737 
L 624.57444 -210.902619 
L 624.086049 -208.2635 
L 623.595756 -205.624382 
L 623.109197 -202.985263 
L 622.631522 -200.346145 
L 622.16713 -197.707027 
L 621.719483 -195.067908 
L 621.291031 -192.42879 
L 620.883254 -189.789671 
L 620.496772 -187.150553 
L 620.131509 -184.511434 
L 619.786854 -181.872316 
L 619.461831 -179.233197 
L 619.155258 -176.594079 
L 618.865896 -173.95496 
L 618.592594 -171.315842 
L 618.334402 -168.676723 
L 618.090647 -166.037605 
L 617.860939 -163.398487 
L 617.645139 -160.759368 
L 617.443263 -158.12025 
L 617.255387 -155.481131 
L 617.081552 -152.842013 
L 616.921707 -150.202894 
L 616.775687 -147.563776 
L 616.64323 -144.924657 
L 616.524035 -142.285539 
L 616.417822 -139.64642 
L 616.324419 -137.007302 
L 616.243847 -134.368184 
L 616.176397 -131.729065 
L 616.1227 -129.089947 
L 616.083748 -126.450828 
L 616.060862 -123.81171 
L 616.055571 -121.172591 
L 616.069391 -118.533473 
L 616.103509 -115.894354 
L 616.158377 -113.255236 
L 616.233269 -110.616117 
L 616.325861 -107.976999 
L 616.431906 -105.337881 
L 616.545095 -102.698762 
L 616.657178 -100.059644 
L 616.758397 -97.420525 
L 616.838222 -94.781407 
L 616.886347 -92.142288 
L 616.893824 -89.50317 
L 616.854162 -86.864051 
L 616.764224 -84.224933 
L 616.624754 -81.585814 
L 616.440417 -78.946696 
L 616.219345 -76.307577 
L 615.972244 -73.668459 
L 615.711212 -71.029341 
L 615.44845 -68.390222 
L 615.195082 -65.751104 
L 614.960219 -63.111985 
L 614.7504 -60.472867 
L 614.56941 -57.833748 
L 614.41845 -55.19463 
L 614.296567 -52.555511 
z
" id="mb281c35bb2" style="stroke:#474747;stroke-width:1.5;"/>
    </defs>
    <g clip-path="url(#paf191f766f)">
     <use style="fill:#d795e8;stroke:#474747;stroke-width:1.5;" x="0" xlink:href="#mb281c35bb2" y="351.033625"/>
    </g>
   </g>
   <g id="PolyCollection_11">
    <defs>
     <path d="M 674.377735 -55.485659 
L 673.849765 -55.485659 
L 673.745341 -58.065583 
L 673.614484 -60.645506 
L 673.456608 -63.22543 
L 673.273499 -65.805353 
L 673.06974 -68.385277 
L 672.852786 -70.965201 
L 672.632577 -73.545124 
L 672.420697 -76.125048 
L 672.229127 -78.704971 
L 672.068804 -81.284895 
L 671.948216 -83.864818 
L 671.872307 -86.444742 
L 671.841895 -89.024665 
L 671.853706 -91.604589 
L 671.901008 -94.184512 
L 671.974669 -96.764436 
L 672.064447 -99.34436 
L 672.16024 -101.924283 
L 672.253122 -104.504207 
L 672.336027 -107.08413 
L 672.404064 -109.664054 
L 672.454487 -112.243977 
L 672.486432 -114.823901 
L 672.500475 -117.403824 
L 672.498141 -119.983748 
L 672.481401 -122.563672 
L 672.452225 -125.143595 
L 672.412239 -127.723519 
L 672.362498 -130.303442 
L 672.303397 -132.883366 
L 672.23469 -135.463289 
L 672.155606 -138.043213 
L 672.064995 -140.623136 
L 671.961479 -143.20306 
L 671.84359 -145.782984 
L 671.709883 -148.362907 
L 671.559056 -150.942831 
L 671.390062 -153.522754 
L 671.20221 -156.102678 
L 670.995219 -158.682601 
L 670.76917 -161.262525 
L 670.524352 -163.842448 
L 670.261003 -166.422372 
L 669.979029 -169.002295 
L 669.677777 -171.582219 
L 669.355959 -174.162143 
L 669.011743 -176.742066 
L 668.642984 -179.32199 
L 668.247497 -181.901913 
L 667.823295 -184.481837 
L 667.36873 -187.06176 
L 666.882587 -189.641684 
L 666.364221 -192.221607 
L 665.813834 -194.801531 
L 665.232928 -197.381455 
L 664.62483 -199.961378 
L 663.995113 -202.541302 
L 663.351651 -205.121225 
L 662.704191 -207.701149 
L 662.063463 -210.281072 
L 661.440083 -212.860996 
L 660.843607 -215.440919 
L 660.2821 -218.020843 
L 659.762359 -220.600766 
L 659.290641 -223.18069 
L 658.873488 -225.760614 
L 658.51811 -228.340537 
L 658.231924 -230.920461 
L 658.021147 -233.500384 
L 657.888744 -236.080308 
L 657.832332 -238.660231 
L 657.842769 -241.240155 
L 657.903963 -243.820078 
L 657.994126 -246.400002 
L 658.088295 -248.979926 
L 658.161667 -251.559849 
L 658.193182 -254.139773 
L 658.16886 -256.719696 
L 658.084567 -259.29962 
L 657.947984 -261.879543 
L 657.779582 -264.459467 
L 657.612337 -267.03939 
L 657.48987 -269.619314 
L 657.462753 -272.199238 
L 657.583018 -274.779161 
L 657.897362 -277.359085 
L 658.439986 -279.939008 
L 659.22642 -282.518932 
L 660.249637 -285.098855 
L 661.47946 -287.678779 
L 662.865563 -290.258702 
L 664.343594 -292.838626 
L 665.843263 -295.418549 
L 667.296845 -297.998473 
L 668.646575 -300.578397 
L 669.849776 -303.15832 
L 670.881171 -305.738244 
L 671.732445 -308.318167 
L 672.409658 -310.898091 
L 675.817842 -310.898091 
L 675.817842 -310.898091 
L 676.495055 -308.318167 
L 677.346329 -305.738244 
L 678.377724 -303.15832 
L 679.580925 -300.578397 
L 680.930655 -297.998473 
L 682.384237 -295.418549 
L 683.883906 -292.838626 
L 685.361937 -290.258702 
L 686.74804 -287.678779 
L 687.977863 -285.098855 
L 689.00108 -282.518932 
L 689.787514 -279.939008 
L 690.330138 -277.359085 
L 690.644482 -274.779161 
L 690.764747 -272.199238 
L 690.73763 -269.619314 
L 690.615163 -267.03939 
L 690.447918 -264.459467 
L 690.279516 -261.879543 
L 690.142933 -259.29962 
L 690.05864 -256.719696 
L 690.034318 -254.139773 
L 690.065833 -251.559849 
L 690.139205 -248.979926 
L 690.233374 -246.400002 
L 690.323537 -243.820078 
L 690.384731 -241.240155 
L 690.395168 -238.660231 
L 690.338756 -236.080308 
L 690.206353 -233.500384 
L 689.995576 -230.920461 
L 689.70939 -228.340537 
L 689.354012 -225.760614 
L 688.936859 -223.18069 
L 688.465141 -220.600766 
L 687.9454 -218.020843 
L 687.383893 -215.440919 
L 686.787417 -212.860996 
L 686.164037 -210.281072 
L 685.523309 -207.701149 
L 684.875849 -205.121225 
L 684.232387 -202.541302 
L 683.60267 -199.961378 
L 682.994572 -197.381455 
L 682.413666 -194.801531 
L 681.863279 -192.221607 
L 681.344913 -189.641684 
L 680.85877 -187.06176 
L 680.404205 -184.481837 
L 679.980003 -181.901913 
L 679.584516 -179.32199 
L 679.215757 -176.742066 
L 678.871541 -174.162143 
L 678.549723 -171.582219 
L 678.248471 -169.002295 
L 677.966497 -166.422372 
L 677.703148 -163.842448 
L 677.45833 -161.262525 
L 677.232281 -158.682601 
L 677.02529 -156.102678 
L 676.837438 -153.522754 
L 676.668444 -150.942831 
L 676.517617 -148.362907 
L 676.38391 -145.782984 
L 676.266021 -143.20306 
L 676.162505 -140.623136 
L 676.071894 -138.043213 
L 675.99281 -135.463289 
L 675.924103 -132.883366 
L 675.865002 -130.303442 
L 675.815261 -127.723519 
L 675.775275 -125.143595 
L 675.746099 -122.563672 
L 675.729359 -119.983748 
L 675.727025 -117.403824 
L 675.741068 -114.823901 
L 675.773013 -112.243977 
L 675.823436 -109.664054 
L 675.891473 -107.08413 
L 675.974378 -104.504207 
L 676.06726 -101.924283 
L 676.163053 -99.34436 
L 676.252831 -96.764436 
L 676.326492 -94.184512 
L 676.373794 -91.604589 
L 676.385605 -89.024665 
L 676.355193 -86.444742 
L 676.279284 -83.864818 
L 676.158696 -81.284895 
L 675.998373 -78.704971 
L 675.806803 -76.125048 
L 675.594923 -73.545124 
L 675.374714 -70.965201 
L 675.15776 -68.385277 
L 674.954001 -65.805353 
L 674.770892 -63.22543 
L 674.613016 -60.645506 
L 674.482159 -58.065583 
L 674.377735 -55.485659 
z
" id="mf32866ea86" style="stroke:#474747;stroke-width:1.5;"/>
    </defs>
    <g clip-path="url(#paf191f766f)">
     <use style="fill:#e88fc9;stroke:#474747;stroke-width:1.5;" x="0" xlink:href="#mf32866ea86" y="351.033625"/>
    </g>
   </g>
   <g id="line2d_26">
    <path clip-path="url(#paf191f766f)" d="M 72.61375 200.473574 
L 72.61375 69.946278 
" style="fill:none;stroke:#474747;stroke-linecap:square;stroke-width:1.5;"/>
   </g>
   <g id="line2d_27">
    <path clip-path="url(#paf191f766f)" d="M 72.61375 135.209926 
L 72.61375 91.700827 
" style="fill:none;stroke:#474747;stroke-linecap:square;stroke-width:4.5;"/>
   </g>
   <g id="line2d_28">
    <path clip-path="url(#paf191f766f)" d="M 132.76375 200.473574 
L 132.76375 69.946278 
" style="fill:none;stroke:#474747;stroke-linecap:square;stroke-width:1.5;"/>
   </g>
   <g id="line2d_29">
    <path clip-path="url(#paf191f766f)" d="M 132.76375 135.209926 
L 132.76375 91.700827 
" style="fill:none;stroke:#474747;stroke-linecap:square;stroke-width:4.5;"/>
   </g>
   <g id="line2d_30">
    <path clip-path="url(#paf191f766f)" d="M 192.91375 222.228123 
L 192.91375 69.946278 
" style="fill:none;stroke:#474747;stroke-linecap:square;stroke-width:1.5;"/>
   </g>
   <g id="line2d_31">
    <path clip-path="url(#paf191f766f)" d="M 192.91375 135.209926 
L 192.91375 69.946278 
" style="fill:none;stroke:#474747;stroke-linecap:square;stroke-width:4.5;"/>
   </g>
   <g id="line2d_32">
    <path clip-path="url(#paf191f766f)" d="M 253.06375 222.228123 
L 253.06375 69.946278 
" style="fill:none;stroke:#474747;stroke-linecap:square;stroke-width:1.5;"/>
   </g>
   <g id="line2d_33">
    <path clip-path="url(#paf191f766f)" d="M 253.06375 135.209926 
L 253.06375 69.946278 
" style="fill:none;stroke:#474747;stroke-linecap:square;stroke-width:4.5;"/>
   </g>
   <g id="line2d_34">
    <path clip-path="url(#paf191f766f)" d="M 313.21375 222.228123 
L 313.21375 69.946278 
" style="fill:none;stroke:#474747;stroke-linecap:square;stroke-width:1.5;"/>
   </g>
   <g id="line2d_35">
    <path clip-path="url(#paf191f766f)" d="M 313.21375 135.209926 
L 313.21375 69.946278 
" style="fill:none;stroke:#474747;stroke-linecap:square;stroke-width:4.5;"/>
   </g>
   <g id="line2d_36">
    <path clip-path="url(#paf191f766f)" d="M 373.36375 178.719025 
L 373.36375 69.946278 
" style="fill:none;stroke:#474747;stroke-linecap:square;stroke-width:1.5;"/>
   </g>
   <g id="line2d_37">
    <path clip-path="url(#paf191f766f)" d="M 373.36375 113.455377 
L 373.36375 69.946278 
" style="fill:none;stroke:#474747;stroke-linecap:square;stroke-width:4.5;"/>
   </g>
   <g id="line2d_38">
    <path clip-path="url(#paf191f766f)" d="M 433.51375 200.473574 
L 433.51375 69.946278 
" style="fill:none;stroke:#474747;stroke-linecap:square;stroke-width:1.5;"/>
   </g>
   <g id="line2d_39">
    <path clip-path="url(#paf191f766f)" d="M 433.51375 135.209926 
L 433.51375 91.700827 
" style="fill:none;stroke:#474747;stroke-linecap:square;stroke-width:4.5;"/>
   </g>
   <g id="line2d_40">
    <path clip-path="url(#paf191f766f)" d="M 493.66375 200.473574 
L 493.66375 69.946278 
" style="fill:none;stroke:#474747;stroke-linecap:square;stroke-width:1.5;"/>
   </g>
   <g id="line2d_41">
    <path clip-path="url(#paf191f766f)" d="M 493.66375 135.209926 
L 493.66375 91.700827 
" style="fill:none;stroke:#474747;stroke-linecap:square;stroke-width:4.5;"/>
   </g>
   <g id="line2d_42">
    <path clip-path="url(#paf191f766f)" d="M 553.81375 200.473574 
L 553.81375 69.946278 
" style="fill:none;stroke:#474747;stroke-linecap:square;stroke-width:1.5;"/>
   </g>
   <g id="line2d_43">
    <path clip-path="url(#paf191f766f)" d="M 553.81375 135.209926 
L 553.81375 91.700827 
" style="fill:none;stroke:#474747;stroke-linecap:square;stroke-width:4.5;"/>
   </g>
   <g id="line2d_44">
    <path clip-path="url(#paf191f766f)" d="M 613.96375 265.737222 
L 613.96375 69.946278 
" style="fill:none;stroke:#474747;stroke-linecap:square;stroke-width:1.5;"/>
   </g>
   <g id="line2d_45">
    <path clip-path="url(#paf191f766f)" d="M 613.96375 156.964475 
L 613.96375 69.946278 
" style="fill:none;stroke:#474747;stroke-linecap:square;stroke-width:4.5;"/>
   </g>
   <g id="line2d_46">
    <path clip-path="url(#paf191f766f)" d="M 674.11375 200.473574 
L 674.11375 69.946278 
" style="fill:none;stroke:#474747;stroke-linecap:square;stroke-width:1.5;"/>
   </g>
   <g id="line2d_47">
    <path clip-path="url(#paf191f766f)" d="M 674.11375 135.209926 
L 674.11375 91.700827 
" style="fill:none;stroke:#474747;stroke-linecap:square;stroke-width:4.5;"/>
   </g>
   <g id="patch_3">
    <path d="M 42.53875 311.54175 
L 42.53875 24.14175 
" style="fill:none;stroke:#ffffff;stroke-linecap:square;stroke-linejoin:miter;"/>
   </g>
   <g id="patch_4">
    <path d="M 704.18875 311.54175 
L 704.18875 24.14175 
" style="fill:none;stroke:#ffffff;stroke-linecap:square;stroke-linejoin:miter;"/>
   </g>
   <g id="patch_5">
    <path d="M 42.53875 311.54175 
L 704.18875 311.54175 
" style="fill:none;stroke:#ffffff;stroke-linecap:square;stroke-linejoin:miter;"/>
   </g>
   <g id="patch_6">
    <path d="M 42.53875 24.14175 
L 704.18875 24.14175 
" style="fill:none;stroke:#ffffff;stroke-linecap:square;stroke-linejoin:miter;"/>
   </g>
   <g id="PathCollection_1">
    <defs>
     <path d="M 0 1.5 
C 0.397805 1.5 0.77937 1.341951 1.06066 1.06066 
C 1.341951 0.77937 1.5 0.397805 1.5 0 
C 1.5 -0.397805 1.341951 -0.77937 1.06066 -1.06066 
C 0.77937 -1.341951 0.397805 -1.5 0 -1.5 
C -0.397805 -1.5 -0.77937 -1.341951 -1.06066 -1.06066 
C -1.341951 -0.77937 -1.5 -0.397805 -1.5 0 
C -1.5 0.397805 -1.341951 0.77937 -1.06066 1.06066 
C -0.77937 1.341951 -0.397805 1.5 0 1.5 
z
" id="m6318c1819d" style="stroke:#474747;stroke-width:0.5;"/>
    </defs>
    <g clip-path="url(#paf191f766f)">
     <use style="fill:#ffffff;stroke:#474747;stroke-width:0.5;" x="72.61375" xlink:href="#m6318c1819d" y="113.455377"/>
    </g>
   </g>
   <g id="PathCollection_2">
    <g clip-path="url(#paf191f766f)">
     <use style="fill:#ffffff;stroke:#474747;stroke-width:0.5;" x="132.76375" xlink:href="#m6318c1819d" y="113.455377"/>
    </g>
   </g>
   <g id="PathCollection_3">
    <g clip-path="url(#paf191f766f)">
     <use style="fill:#ffffff;stroke:#474747;stroke-width:0.5;" x="192.91375" xlink:href="#m6318c1819d" y="113.455377"/>
    </g>
   </g>
   <g id="PathCollection_4">
    <g clip-path="url(#paf191f766f)">
     <use style="fill:#ffffff;stroke:#474747;stroke-width:0.5;" x="253.06375" xlink:href="#m6318c1819d" y="113.455377"/>
    </g>
   </g>
   <g id="PathCollection_5">
    <g clip-path="url(#paf191f766f)">
     <use style="fill:#ffffff;stroke:#474747;stroke-width:0.5;" x="313.21375" xlink:href="#m6318c1819d" y="91.700827"/>
    </g>
   </g>
   <g id="PathCollection_6">
    <g clip-path="url(#paf191f766f)">
     <use style="fill:#ffffff;stroke:#474747;stroke-width:0.5;" x="373.36375" xlink:href="#m6318c1819d" y="91.700827"/>
    </g>
   </g>
   <g id="PathCollection_7">
    <g clip-path="url(#paf191f766f)">
     <use style="fill:#ffffff;stroke:#474747;stroke-width:0.5;" x="433.51375" xlink:href="#m6318c1819d" y="113.455377"/>
    </g>
   </g>
   <g id="PathCollection_8">
    <g clip-path="url(#paf191f766f)">
     <use style="fill:#ffffff;stroke:#474747;stroke-width:0.5;" x="493.66375" xlink:href="#m6318c1819d" y="113.455377"/>
    </g>
   </g>
   <g id="PathCollection_9">
    <g clip-path="url(#paf191f766f)">
     <use style="fill:#ffffff;stroke:#474747;stroke-width:0.5;" x="553.81375" xlink:href="#m6318c1819d" y="113.455377"/>
    </g>
   </g>
   <g id="PathCollection_10">
    <g clip-path="url(#paf191f766f)">
     <use style="fill:#ffffff;stroke:#474747;stroke-width:0.5;" x="613.96375" xlink:href="#m6318c1819d" y="113.455377"/>
    </g>
   </g>
   <g id="PathCollection_11">
    <g clip-path="url(#paf191f766f)">
     <use style="fill:#ffffff;stroke:#474747;stroke-width:0.5;" x="674.11375" xlink:href="#m6318c1819d" y="113.455377"/>
    </g>
   </g>
   <g id="text_21">
    <!-- Season distribution of ratings -->
    <defs>
     <path id="DejaVuSans-32"/>
     <path d="M 45.40625 46.390625 
L 45.40625 75.984375 
L 54.390625 75.984375 
L 54.390625 0 
L 45.40625 0 
L 45.40625 8.203125 
Q 42.578125 3.328125 38.25 0.953125 
Q 33.9375 -1.421875 27.875 -1.421875 
Q 17.96875 -1.421875 11.734375 6.484375 
Q 5.515625 14.40625 5.515625 27.296875 
Q 5.515625 40.1875 11.734375 48.09375 
Q 17.96875 56 27.875 56 
Q 33.9375 56 38.25 53.625 
Q 42.578125 51.265625 45.40625 46.390625 
z
M 14.796875 27.296875 
Q 14.796875 17.390625 18.875 11.75 
Q 22.953125 6.109375 30.078125 6.109375 
Q 37.203125 6.109375 41.296875 11.75 
Q 45.40625 17.390625 45.40625 27.296875 
Q 45.40625 37.203125 41.296875 42.84375 
Q 37.203125 48.484375 30.078125 48.484375 
Q 22.953125 48.484375 18.875 42.84375 
Q 14.796875 37.203125 14.796875 27.296875 
z
" id="DejaVuSans-100"/>
     <path d="M 41.109375 46.296875 
Q 39.59375 47.171875 37.8125 47.578125 
Q 36.03125 48 33.890625 48 
Q 26.265625 48 22.1875 43.046875 
Q 18.109375 38.09375 18.109375 28.8125 
L 18.109375 0 
L 9.078125 0 
L 9.078125 54.6875 
L 18.109375 54.6875 
L 18.109375 46.1875 
Q 20.953125 51.171875 25.484375 53.578125 
Q 30.03125 56 36.53125 56 
Q 37.453125 56 38.578125 55.875 
Q 39.703125 55.765625 41.0625 55.515625 
z
" id="DejaVuSans-114"/>
     <path d="M 48.6875 27.296875 
Q 48.6875 37.203125 44.609375 42.84375 
Q 40.53125 48.484375 33.40625 48.484375 
Q 26.265625 48.484375 22.1875 42.84375 
Q 18.109375 37.203125 18.109375 27.296875 
Q 18.109375 17.390625 22.1875 11.75 
Q 26.265625 6.109375 33.40625 6.109375 
Q 40.53125 6.109375 44.609375 11.75 
Q 48.6875 17.390625 48.6875 27.296875 
z
M 18.109375 46.390625 
Q 20.953125 51.265625 25.265625 53.625 
Q 29.59375 56 35.59375 56 
Q 45.5625 56 51.78125 48.09375 
Q 58.015625 40.1875 58.015625 27.296875 
Q 58.015625 14.40625 51.78125 6.484375 
Q 45.5625 -1.421875 35.59375 -1.421875 
Q 29.59375 -1.421875 25.265625 0.953125 
Q 20.953125 3.328125 18.109375 8.203125 
L 18.109375 0 
L 9.078125 0 
L 9.078125 75.984375 
L 18.109375 75.984375 
z
" id="DejaVuSans-98"/>
     <path d="M 8.5 21.578125 
L 8.5 54.6875 
L 17.484375 54.6875 
L 17.484375 21.921875 
Q 17.484375 14.15625 20.5 10.265625 
Q 23.53125 6.390625 29.59375 6.390625 
Q 36.859375 6.390625 41.078125 11.03125 
Q 45.3125 15.671875 45.3125 23.6875 
L 45.3125 54.6875 
L 54.296875 54.6875 
L 54.296875 0 
L 45.3125 0 
L 45.3125 8.40625 
Q 42.046875 3.421875 37.71875 1 
Q 33.40625 -1.421875 27.6875 -1.421875 
Q 18.265625 -1.421875 13.375 4.4375 
Q 8.5 10.296875 8.5 21.578125 
z
M 31.109375 56 
z
" id="DejaVuSans-117"/>
     <path d="M 37.109375 75.984375 
L 37.109375 68.5 
L 28.515625 68.5 
Q 23.6875 68.5 21.796875 66.546875 
Q 19.921875 64.59375 19.921875 59.515625 
L 19.921875 54.6875 
L 34.71875 54.6875 
L 34.71875 47.703125 
L 19.921875 47.703125 
L 19.921875 0 
L 10.890625 0 
L 10.890625 47.703125 
L 2.296875 47.703125 
L 2.296875 54.6875 
L 10.890625 54.6875 
L 10.890625 58.5 
Q 10.890625 67.625 15.140625 71.796875 
Q 19.390625 75.984375 28.609375 75.984375 
z
" id="DejaVuSans-102"/>
    </defs>
    <g transform="translate(267.31675 18.14175)scale(0.144 -0.144)">
     <use xlink:href="#DejaVuSans-83"/>
     <use x="63.476562" xlink:href="#DejaVuSans-101"/>
     <use x="125" xlink:href="#DejaVuSans-97"/>
     <use x="186.279297" xlink:href="#DejaVuSans-115"/>
     <use x="238.378906" xlink:href="#DejaVuSans-111"/>
     <use x="299.560547" xlink:href="#DejaVuSans-110"/>
     <use x="362.939453" xlink:href="#DejaVuSans-32"/>
     <use x="394.726562" xlink:href="#DejaVuSans-100"/>
     <use x="458.203125" xlink:href="#DejaVuSans-105"/>
     <use x="485.986328" xlink:href="#DejaVuSans-115"/>
     <use x="538.085938" xlink:href="#DejaVuSans-116"/>
     <use x="577.294922" xlink:href="#DejaVuSans-114"/>
     <use x="618.408203" xlink:href="#DejaVuSans-105"/>
     <use x="646.191406" xlink:href="#DejaVuSans-98"/>
     <use x="709.667969" xlink:href="#DejaVuSans-117"/>
     <use x="773.046875" xlink:href="#DejaVuSans-116"/>
     <use x="812.255859" xlink:href="#DejaVuSans-105"/>
     <use x="840.039062" xlink:href="#DejaVuSans-111"/>
     <use x="901.220703" xlink:href="#DejaVuSans-110"/>
     <use x="964.599609" xlink:href="#DejaVuSans-32"/>
     <use x="996.386719" xlink:href="#DejaVuSans-111"/>
     <use x="1057.568359" xlink:href="#DejaVuSans-102"/>
     <use x="1092.773438" xlink:href="#DejaVuSans-32"/>
     <use x="1124.560547" xlink:href="#DejaVuSans-114"/>
     <use x="1165.673828" xlink:href="#DejaVuSans-97"/>
     <use x="1226.953125" xlink:href="#DejaVuSans-116"/>
     <use x="1266.162109" xlink:href="#DejaVuSans-105"/>
     <use x="1293.945312" xlink:href="#DejaVuSans-110"/>
     <use x="1357.324219" xlink:href="#DejaVuSans-103"/>
     <use x="1420.800781" xlink:href="#DejaVuSans-115"/>
    </g>
   </g>
  </g>
 </g>
 <defs>
  <clipPath id="paf191f766f">
   <rect height="287.4" width="661.65" x="42.53875" y="24.14175"/>
  </clipPath>
 </defs>
</svg>
