<?xml version="1.0" encoding="utf-8" standalone="no"?>
<!DOCTYPE svg PUBLIC "-//W3C//DTD SVG 1.1//EN"
  "http://www.w3.org/Graphics/SVG/1.1/DTD/svg11.dtd">
<!-- Created with matplotlib (https://matplotlib.org/) -->
<svg height="207.033625pt" version="1.1" viewBox="0 0 846.01375 207.033625" width="846.01375pt" xmlns="http://www.w3.org/2000/svg" xmlns:xlink="http://www.w3.org/1999/xlink">
 <defs>
  <style type="text/css">
*{stroke-linecap:butt;stroke-linejoin:round;}
  </style>
 </defs>
 <g id="figure_1">
  <g id="patch_1">
   <path d="M 0 207.033625 
L 846.01375 207.033625 
L 846.01375 0 
L 0 0 
z
" style="fill:#ffffff;"/>
  </g>
  <g id="axes_1">
   <g id="patch_2">
    <path d="M 42.53875 167.54175 
L 838.81375 167.54175 
L 838.81375 24.14175 
L 42.53875 24.14175 
z
" style="fill:#e5e5e5;"/>
   </g>
   <g id="matplotlib.axis_1">
    <g id="xtick_1">
     <g id="line2d_1">
      <path clip-path="url(#p28d4a88fbb)" d="M 42.53875 167.54175 
L 42.53875 24.14175 
" style="fill:none;stroke:#ffffff;stroke-linecap:square;stroke-width:0.8;"/>
     </g>
     <g id="line2d_2">
      <defs>
       <path d="M 0 0 
L 0 3.5 
" id="mad782c9b07" style="stroke:#555555;stroke-width:0.8;"/>
      </defs>
      <g>
       <use style="fill:#555555;stroke:#555555;stroke-width:0.8;" x="42.53875" xlink:href="#mad782c9b07" y="167.54175"/>
      </g>
     </g>
     <g id="text_1">
      <!-- 1 -->
      <defs>
       <path d="M 12.40625 8.296875 
L 28.515625 8.296875 
L 28.515625 63.921875 
L 10.984375 60.40625 
L 10.984375 69.390625 
L 28.421875 72.90625 
L 38.28125 72.90625 
L 38.28125 8.296875 
L 54.390625 8.296875 
L 54.390625 0 
L 12.40625 0 
z
" id="DejaVuSans-49"/>
      </defs>
      <g style="fill:#555555;" transform="translate(39.3575 182.140187)scale(0.1 -0.1)">
       <use xlink:href="#DejaVuSans-49"/>
      </g>
     </g>
    </g>
    <g id="xtick_2">
     <g id="line2d_3">
      <path clip-path="url(#p28d4a88fbb)" d="M 122.499419 167.54175 
L 122.499419 24.14175 
" style="fill:none;stroke:#ffffff;stroke-linecap:square;stroke-width:0.8;"/>
     </g>
     <g id="line2d_4">
      <g>
       <use style="fill:#555555;stroke:#555555;stroke-width:0.8;" x="122.499419" xlink:href="#mad782c9b07" y="167.54175"/>
      </g>
     </g>
     <g id="text_2">
      <!-- 2 -->
      <defs>
       <path d="M 19.1875 8.296875 
L 53.609375 8.296875 
L 53.609375 0 
L 7.328125 0 
L 7.328125 8.296875 
Q 12.9375 14.109375 22.625 23.890625 
Q 32.328125 33.6875 34.8125 36.53125 
Q 39.546875 41.84375 41.421875 45.53125 
Q 43.3125 49.21875 43.3125 52.78125 
Q 43.3125 58.59375 39.234375 62.25 
Q 35.15625 65.921875 28.609375 65.921875 
Q 23.96875 65.921875 18.8125 64.3125 
Q 13.671875 62.703125 7.8125 59.421875 
L 7.8125 69.390625 
Q 13.765625 71.78125 18.9375 73 
Q 24.125 74.21875 28.421875 74.21875 
Q 39.75 74.21875 46.484375 68.546875 
Q 53.21875 62.890625 53.21875 53.421875 
Q 53.21875 48.921875 51.53125 44.890625 
Q 49.859375 40.875 45.40625 35.40625 
Q 44.1875 33.984375 37.640625 27.21875 
Q 31.109375 20.453125 19.1875 8.296875 
z
" id="DejaVuSans-50"/>
      </defs>
      <g style="fill:#555555;" transform="translate(119.318169 182.140187)scale(0.1 -0.1)">
       <use xlink:href="#DejaVuSans-50"/>
      </g>
     </g>
    </g>
    <g id="xtick_3">
     <g id="line2d_5">
      <path clip-path="url(#p28d4a88fbb)" d="M 205.791783 167.54175 
L 205.791783 24.14175 
" style="fill:none;stroke:#ffffff;stroke-linecap:square;stroke-width:0.8;"/>
     </g>
     <g id="line2d_6">
      <g>
       <use style="fill:#555555;stroke:#555555;stroke-width:0.8;" x="205.791783" xlink:href="#mad782c9b07" y="167.54175"/>
      </g>
     </g>
     <g id="text_3">
      <!-- 3 -->
      <defs>
       <path d="M 40.578125 39.3125 
Q 47.65625 37.796875 51.625 33 
Q 55.609375 28.21875 55.609375 21.1875 
Q 55.609375 10.40625 48.1875 4.484375 
Q 40.765625 -1.421875 27.09375 -1.421875 
Q 22.515625 -1.421875 17.65625 -0.515625 
Q 12.796875 0.390625 7.625 2.203125 
L 7.625 11.71875 
Q 11.71875 9.328125 16.59375 8.109375 
Q 21.484375 6.890625 26.8125 6.890625 
Q 36.078125 6.890625 40.9375 10.546875 
Q 45.796875 14.203125 45.796875 21.1875 
Q 45.796875 27.640625 41.28125 31.265625 
Q 36.765625 34.90625 28.71875 34.90625 
L 20.21875 34.90625 
L 20.21875 43.015625 
L 29.109375 43.015625 
Q 36.375 43.015625 40.234375 45.921875 
Q 44.09375 48.828125 44.09375 54.296875 
Q 44.09375 59.90625 40.109375 62.90625 
Q 36.140625 65.921875 28.71875 65.921875 
Q 24.65625 65.921875 20.015625 65.03125 
Q 15.375 64.15625 9.8125 62.3125 
L 9.8125 71.09375 
Q 15.4375 72.65625 20.34375 73.4375 
Q 25.25 74.21875 29.59375 74.21875 
Q 40.828125 74.21875 47.359375 69.109375 
Q 53.90625 64.015625 53.90625 55.328125 
Q 53.90625 49.265625 50.4375 45.09375 
Q 46.96875 40.921875 40.578125 39.3125 
z
" id="DejaVuSans-51"/>
      </defs>
      <g style="fill:#555555;" transform="translate(202.610533 182.140187)scale(0.1 -0.1)">
       <use xlink:href="#DejaVuSans-51"/>
      </g>
     </g>
    </g>
    <g id="xtick_4">
     <g id="line2d_7">
      <path clip-path="url(#p28d4a88fbb)" d="M 285.752453 167.54175 
L 285.752453 24.14175 
" style="fill:none;stroke:#ffffff;stroke-linecap:square;stroke-width:0.8;"/>
     </g>
     <g id="line2d_8">
      <g>
       <use style="fill:#555555;stroke:#555555;stroke-width:0.8;" x="285.752453" xlink:href="#mad782c9b07" y="167.54175"/>
      </g>
     </g>
     <g id="text_4">
      <!-- 4 -->
      <defs>
       <path d="M 37.796875 64.3125 
L 12.890625 25.390625 
L 37.796875 25.390625 
z
M 35.203125 72.90625 
L 47.609375 72.90625 
L 47.609375 25.390625 
L 58.015625 25.390625 
L 58.015625 17.1875 
L 47.609375 17.1875 
L 47.609375 0 
L 37.796875 0 
L 37.796875 17.1875 
L 4.890625 17.1875 
L 4.890625 26.703125 
z
" id="DejaVuSans-52"/>
      </defs>
      <g style="fill:#555555;" transform="translate(282.571203 182.140187)scale(0.1 -0.1)">
       <use xlink:href="#DejaVuSans-52"/>
      </g>
     </g>
    </g>
    <g id="xtick_5">
     <g id="line2d_9">
      <path clip-path="url(#p28d4a88fbb)" d="M 365.713122 167.54175 
L 365.713122 24.14175 
" style="fill:none;stroke:#ffffff;stroke-linecap:square;stroke-width:0.8;"/>
     </g>
     <g id="line2d_10">
      <g>
       <use style="fill:#555555;stroke:#555555;stroke-width:0.8;" x="365.713122" xlink:href="#mad782c9b07" y="167.54175"/>
      </g>
     </g>
     <g id="text_5">
      <!-- 5 -->
      <defs>
       <path d="M 10.796875 72.90625 
L 49.515625 72.90625 
L 49.515625 64.59375 
L 19.828125 64.59375 
L 19.828125 46.734375 
Q 21.96875 47.46875 24.109375 47.828125 
Q 26.265625 48.1875 28.421875 48.1875 
Q 40.625 48.1875 47.75 41.5 
Q 54.890625 34.8125 54.890625 23.390625 
Q 54.890625 11.625 47.5625 5.09375 
Q 40.234375 -1.421875 26.90625 -1.421875 
Q 22.3125 -1.421875 17.546875 -0.640625 
Q 12.796875 0.140625 7.71875 1.703125 
L 7.71875 11.625 
Q 12.109375 9.234375 16.796875 8.0625 
Q 21.484375 6.890625 26.703125 6.890625 
Q 35.15625 6.890625 40.078125 11.328125 
Q 45.015625 15.765625 45.015625 23.390625 
Q 45.015625 31 40.078125 35.4375 
Q 35.15625 39.890625 26.703125 39.890625 
Q 22.75 39.890625 18.8125 39.015625 
Q 14.890625 38.140625 10.796875 36.28125 
z
" id="DejaVuSans-53"/>
      </defs>
      <g style="fill:#555555;" transform="translate(362.531872 182.140187)scale(0.1 -0.1)">
       <use xlink:href="#DejaVuSans-53"/>
      </g>
     </g>
    </g>
    <g id="xtick_6">
     <g id="line2d_11">
      <path clip-path="url(#p28d4a88fbb)" d="M 432.347014 167.54175 
L 432.347014 24.14175 
" style="fill:none;stroke:#ffffff;stroke-linecap:square;stroke-width:0.8;"/>
     </g>
     <g id="line2d_12">
      <g>
       <use style="fill:#555555;stroke:#555555;stroke-width:0.8;" x="432.347014" xlink:href="#mad782c9b07" y="167.54175"/>
      </g>
     </g>
     <g id="text_6">
      <!-- 6 -->
      <defs>
       <path d="M 33.015625 40.375 
Q 26.375 40.375 22.484375 35.828125 
Q 18.609375 31.296875 18.609375 23.390625 
Q 18.609375 15.53125 22.484375 10.953125 
Q 26.375 6.390625 33.015625 6.390625 
Q 39.65625 6.390625 43.53125 10.953125 
Q 47.40625 15.53125 47.40625 23.390625 
Q 47.40625 31.296875 43.53125 35.828125 
Q 39.65625 40.375 33.015625 40.375 
z
M 52.59375 71.296875 
L 52.59375 62.3125 
Q 48.875 64.0625 45.09375 64.984375 
Q 41.3125 65.921875 37.59375 65.921875 
Q 27.828125 65.921875 22.671875 59.328125 
Q 17.53125 52.734375 16.796875 39.40625 
Q 19.671875 43.65625 24.015625 45.921875 
Q 28.375 48.1875 33.59375 48.1875 
Q 44.578125 48.1875 50.953125 41.515625 
Q 57.328125 34.859375 57.328125 23.390625 
Q 57.328125 12.15625 50.6875 5.359375 
Q 44.046875 -1.421875 33.015625 -1.421875 
Q 20.359375 -1.421875 13.671875 8.265625 
Q 6.984375 17.96875 6.984375 36.375 
Q 6.984375 53.65625 15.1875 63.9375 
Q 23.390625 74.21875 37.203125 74.21875 
Q 40.921875 74.21875 44.703125 73.484375 
Q 48.484375 72.75 52.59375 71.296875 
z
" id="DejaVuSans-54"/>
      </defs>
      <g style="fill:#555555;" transform="translate(429.165764 182.140187)scale(0.1 -0.1)">
       <use xlink:href="#DejaVuSans-54"/>
      </g>
     </g>
    </g>
    <g id="xtick_7">
     <g id="line2d_13">
      <path clip-path="url(#p28d4a88fbb)" d="M 505.644294 167.54175 
L 505.644294 24.14175 
" style="fill:none;stroke:#ffffff;stroke-linecap:square;stroke-width:0.8;"/>
     </g>
     <g id="line2d_14">
      <g>
       <use style="fill:#555555;stroke:#555555;stroke-width:0.8;" x="505.644294" xlink:href="#mad782c9b07" y="167.54175"/>
      </g>
     </g>
     <g id="text_7">
      <!-- 7 -->
      <defs>
       <path d="M 8.203125 72.90625 
L 55.078125 72.90625 
L 55.078125 68.703125 
L 28.609375 0 
L 18.3125 0 
L 43.21875 64.59375 
L 8.203125 64.59375 
z
" id="DejaVuSans-55"/>
      </defs>
      <g style="fill:#555555;" transform="translate(502.463044 182.140187)scale(0.1 -0.1)">
       <use xlink:href="#DejaVuSans-55"/>
      </g>
     </g>
    </g>
    <g id="xtick_8">
     <g id="line2d_15">
      <path clip-path="url(#p28d4a88fbb)" d="M 578.941574 167.54175 
L 578.941574 24.14175 
" style="fill:none;stroke:#ffffff;stroke-linecap:square;stroke-width:0.8;"/>
     </g>
     <g id="line2d_16">
      <g>
       <use style="fill:#555555;stroke:#555555;stroke-width:0.8;" x="578.941574" xlink:href="#mad782c9b07" y="167.54175"/>
      </g>
     </g>
     <g id="text_8">
      <!-- 8 -->
      <defs>
       <path d="M 31.78125 34.625 
Q 24.75 34.625 20.71875 30.859375 
Q 16.703125 27.09375 16.703125 20.515625 
Q 16.703125 13.921875 20.71875 10.15625 
Q 24.75 6.390625 31.78125 6.390625 
Q 38.8125 6.390625 42.859375 10.171875 
Q 46.921875 13.96875 46.921875 20.515625 
Q 46.921875 27.09375 42.890625 30.859375 
Q 38.875 34.625 31.78125 34.625 
z
M 21.921875 38.8125 
Q 15.578125 40.375 12.03125 44.71875 
Q 8.5 49.078125 8.5 55.328125 
Q 8.5 64.0625 14.71875 69.140625 
Q 20.953125 74.21875 31.78125 74.21875 
Q 42.671875 74.21875 48.875 69.140625 
Q 55.078125 64.0625 55.078125 55.328125 
Q 55.078125 49.078125 51.53125 44.71875 
Q 48 40.375 41.703125 38.8125 
Q 48.828125 37.15625 52.796875 32.3125 
Q 56.78125 27.484375 56.78125 20.515625 
Q 56.78125 9.90625 50.3125 4.234375 
Q 43.84375 -1.421875 31.78125 -1.421875 
Q 19.734375 -1.421875 13.25 4.234375 
Q 6.78125 9.90625 6.78125 20.515625 
Q 6.78125 27.484375 10.78125 32.3125 
Q 14.796875 37.15625 21.921875 38.8125 
z
M 18.3125 54.390625 
Q 18.3125 48.734375 21.84375 45.5625 
Q 25.390625 42.390625 31.78125 42.390625 
Q 38.140625 42.390625 41.71875 45.5625 
Q 45.3125 48.734375 45.3125 54.390625 
Q 45.3125 60.0625 41.71875 63.234375 
Q 38.140625 66.40625 31.78125 66.40625 
Q 25.390625 66.40625 21.84375 63.234375 
Q 18.3125 60.0625 18.3125 54.390625 
z
" id="DejaVuSans-56"/>
      </defs>
      <g style="fill:#555555;" transform="translate(575.760324 182.140187)scale(0.1 -0.1)">
       <use xlink:href="#DejaVuSans-56"/>
      </g>
     </g>
    </g>
    <g id="xtick_9">
     <g id="line2d_17">
      <path clip-path="url(#p28d4a88fbb)" d="M 648.90716 167.54175 
L 648.90716 24.14175 
" style="fill:none;stroke:#ffffff;stroke-linecap:square;stroke-width:0.8;"/>
     </g>
     <g id="line2d_18">
      <g>
       <use style="fill:#555555;stroke:#555555;stroke-width:0.8;" x="648.90716" xlink:href="#mad782c9b07" y="167.54175"/>
      </g>
     </g>
     <g id="text_9">
      <!-- 9 -->
      <defs>
       <path d="M 10.984375 1.515625 
L 10.984375 10.5 
Q 14.703125 8.734375 18.5 7.8125 
Q 22.3125 6.890625 25.984375 6.890625 
Q 35.75 6.890625 40.890625 13.453125 
Q 46.046875 20.015625 46.78125 33.40625 
Q 43.953125 29.203125 39.59375 26.953125 
Q 35.25 24.703125 29.984375 24.703125 
Q 19.046875 24.703125 12.671875 31.3125 
Q 6.296875 37.9375 6.296875 49.421875 
Q 6.296875 60.640625 12.9375 67.421875 
Q 19.578125 74.21875 30.609375 74.21875 
Q 43.265625 74.21875 49.921875 64.515625 
Q 56.59375 54.828125 56.59375 36.375 
Q 56.59375 19.140625 48.40625 8.859375 
Q 40.234375 -1.421875 26.421875 -1.421875 
Q 22.703125 -1.421875 18.890625 -0.6875 
Q 15.09375 0.046875 10.984375 1.515625 
z
M 30.609375 32.421875 
Q 37.25 32.421875 41.125 36.953125 
Q 45.015625 41.5 45.015625 49.421875 
Q 45.015625 57.28125 41.125 61.84375 
Q 37.25 66.40625 30.609375 66.40625 
Q 23.96875 66.40625 20.09375 61.84375 
Q 16.21875 57.28125 16.21875 49.421875 
Q 16.21875 41.5 20.09375 36.953125 
Q 23.96875 32.421875 30.609375 32.421875 
z
" id="DejaVuSans-57"/>
      </defs>
      <g style="fill:#555555;" transform="translate(645.72591 182.140187)scale(0.1 -0.1)">
       <use xlink:href="#DejaVuSans-57"/>
      </g>
     </g>
    </g>
    <g id="xtick_10">
     <g id="line2d_19">
      <path clip-path="url(#p28d4a88fbb)" d="M 715.541051 167.54175 
L 715.541051 24.14175 
" style="fill:none;stroke:#ffffff;stroke-linecap:square;stroke-width:0.8;"/>
     </g>
     <g id="line2d_20">
      <g>
       <use style="fill:#555555;stroke:#555555;stroke-width:0.8;" x="715.541051" xlink:href="#mad782c9b07" y="167.54175"/>
      </g>
     </g>
     <g id="text_10">
      <!-- 10 -->
      <defs>
       <path d="M 31.78125 66.40625 
Q 24.171875 66.40625 20.328125 58.90625 
Q 16.5 51.421875 16.5 36.375 
Q 16.5 21.390625 20.328125 13.890625 
Q 24.171875 6.390625 31.78125 6.390625 
Q 39.453125 6.390625 43.28125 13.890625 
Q 47.125 21.390625 47.125 36.375 
Q 47.125 51.421875 43.28125 58.90625 
Q 39.453125 66.40625 31.78125 66.40625 
z
M 31.78125 74.21875 
Q 44.046875 74.21875 50.515625 64.515625 
Q 56.984375 54.828125 56.984375 36.375 
Q 56.984375 17.96875 50.515625 8.265625 
Q 44.046875 -1.421875 31.78125 -1.421875 
Q 19.53125 -1.421875 13.0625 8.265625 
Q 6.59375 17.96875 6.59375 36.375 
Q 6.59375 54.828125 13.0625 64.515625 
Q 19.53125 74.21875 31.78125 74.21875 
z
" id="DejaVuSans-48"/>
      </defs>
      <g style="fill:#555555;" transform="translate(709.178551 182.140187)scale(0.1 -0.1)">
       <use xlink:href="#DejaVuSans-49"/>
       <use x="63.623047" xlink:href="#DejaVuSans-48"/>
      </g>
     </g>
    </g>
    <g id="xtick_11">
     <g id="line2d_21">
      <path clip-path="url(#p28d4a88fbb)" d="M 735.531219 167.54175 
L 735.531219 24.14175 
" style="fill:none;stroke:#ffffff;stroke-linecap:square;stroke-width:0.8;"/>
     </g>
     <g id="line2d_22">
      <g>
       <use style="fill:#555555;stroke:#555555;stroke-width:0.8;" x="735.531219" xlink:href="#mad782c9b07" y="167.54175"/>
      </g>
     </g>
     <g id="text_11">
      <!-- 11 -->
      <g style="fill:#555555;" transform="translate(729.168719 182.140187)scale(0.1 -0.1)">
       <use xlink:href="#DejaVuSans-49"/>
       <use x="63.623047" xlink:href="#DejaVuSans-49"/>
      </g>
     </g>
    </g>
    <g id="xtick_12">
     <g id="line2d_23">
      <path clip-path="url(#p28d4a88fbb)" d="M 765.51647 167.54175 
L 765.51647 24.14175 
" style="fill:none;stroke:#ffffff;stroke-linecap:square;stroke-width:0.8;"/>
     </g>
     <g id="line2d_24">
      <g>
       <use style="fill:#555555;stroke:#555555;stroke-width:0.8;" x="765.51647" xlink:href="#mad782c9b07" y="167.54175"/>
      </g>
     </g>
     <g id="text_12">
      <!-- 12? -->
      <defs>
       <path d="M 19.09375 12.40625 
L 29 12.40625 
L 29 0 
L 19.09375 0 
z
M 28.71875 19.578125 
L 19.390625 19.578125 
L 19.390625 27.09375 
Q 19.390625 32.03125 20.75 35.203125 
Q 22.125 38.375 26.515625 42.578125 
L 30.90625 46.921875 
Q 33.6875 49.515625 34.9375 51.8125 
Q 36.1875 54.109375 36.1875 56.5 
Q 36.1875 60.84375 32.984375 63.53125 
Q 29.78125 66.21875 24.515625 66.21875 
Q 20.65625 66.21875 16.28125 64.5 
Q 11.921875 62.796875 7.171875 59.515625 
L 7.171875 68.703125 
Q 11.765625 71.484375 16.46875 72.84375 
Q 21.1875 74.21875 26.21875 74.21875 
Q 35.203125 74.21875 40.640625 69.484375 
Q 46.09375 64.75 46.09375 56.984375 
Q 46.09375 53.265625 44.328125 49.921875 
Q 42.578125 46.578125 38.1875 42.390625 
L 33.890625 38.1875 
Q 31.59375 35.890625 30.640625 34.59375 
Q 29.6875 33.296875 29.296875 32.078125 
Q 29 31.0625 28.859375 29.59375 
Q 28.71875 28.125 28.71875 25.59375 
z
" id="DejaVuSans-63"/>
      </defs>
      <g style="fill:#555555;" transform="translate(756.500063 182.140187)scale(0.1 -0.1)">
       <use xlink:href="#DejaVuSans-49"/>
       <use x="63.623047" xlink:href="#DejaVuSans-50"/>
       <use x="127.246094" xlink:href="#DejaVuSans-63"/>
      </g>
     </g>
    </g>
    <g id="text_13">
     <!-- Season -->
     <defs>
      <path d="M 53.515625 70.515625 
L 53.515625 60.890625 
Q 47.90625 63.578125 42.921875 64.890625 
Q 37.9375 66.21875 33.296875 66.21875 
Q 25.25 66.21875 20.875 63.09375 
Q 16.5 59.96875 16.5 54.203125 
Q 16.5 49.359375 19.40625 46.890625 
Q 22.3125 44.4375 30.421875 42.921875 
L 36.375 41.703125 
Q 47.40625 39.59375 52.65625 34.296875 
Q 57.90625 29 57.90625 20.125 
Q 57.90625 9.515625 50.796875 4.046875 
Q 43.703125 -1.421875 29.984375 -1.421875 
Q 24.8125 -1.421875 18.96875 -0.25 
Q 13.140625 0.921875 6.890625 3.21875 
L 6.890625 13.375 
Q 12.890625 10.015625 18.65625 8.296875 
Q 24.421875 6.59375 29.984375 6.59375 
Q 38.421875 6.59375 43.015625 9.90625 
Q 47.609375 13.234375 47.609375 19.390625 
Q 47.609375 24.75 44.3125 27.78125 
Q 41.015625 30.8125 33.5 32.328125 
L 27.484375 33.5 
Q 16.453125 35.6875 11.515625 40.375 
Q 6.59375 45.0625 6.59375 53.421875 
Q 6.59375 63.09375 13.40625 68.65625 
Q 20.21875 74.21875 32.171875 74.21875 
Q 37.3125 74.21875 42.625 73.28125 
Q 47.953125 72.359375 53.515625 70.515625 
z
" id="DejaVuSans-83"/>
      <path d="M 56.203125 29.59375 
L 56.203125 25.203125 
L 14.890625 25.203125 
Q 15.484375 15.921875 20.484375 11.0625 
Q 25.484375 6.203125 34.421875 6.203125 
Q 39.59375 6.203125 44.453125 7.46875 
Q 49.3125 8.734375 54.109375 11.28125 
L 54.109375 2.78125 
Q 49.265625 0.734375 44.1875 -0.34375 
Q 39.109375 -1.421875 33.890625 -1.421875 
Q 20.796875 -1.421875 13.15625 6.1875 
Q 5.515625 13.8125 5.515625 26.8125 
Q 5.515625 40.234375 12.765625 48.109375 
Q 20.015625 56 32.328125 56 
Q 43.359375 56 49.78125 48.890625 
Q 56.203125 41.796875 56.203125 29.59375 
z
M 47.21875 32.234375 
Q 47.125 39.59375 43.09375 43.984375 
Q 39.0625 48.390625 32.421875 48.390625 
Q 24.90625 48.390625 20.390625 44.140625 
Q 15.875 39.890625 15.1875 32.171875 
z
" id="DejaVuSans-101"/>
      <path d="M 34.28125 27.484375 
Q 23.390625 27.484375 19.1875 25 
Q 14.984375 22.515625 14.984375 16.5 
Q 14.984375 11.71875 18.140625 8.90625 
Q 21.296875 6.109375 26.703125 6.109375 
Q 34.1875 6.109375 38.703125 11.40625 
Q 43.21875 16.703125 43.21875 25.484375 
L 43.21875 27.484375 
z
M 52.203125 31.203125 
L 52.203125 0 
L 43.21875 0 
L 43.21875 8.296875 
Q 40.140625 3.328125 35.546875 0.953125 
Q 30.953125 -1.421875 24.3125 -1.421875 
Q 15.921875 -1.421875 10.953125 3.296875 
Q 6 8.015625 6 15.921875 
Q 6 25.140625 12.171875 29.828125 
Q 18.359375 34.515625 30.609375 34.515625 
L 43.21875 34.515625 
L 43.21875 35.40625 
Q 43.21875 41.609375 39.140625 45 
Q 35.0625 48.390625 27.6875 48.390625 
Q 23 48.390625 18.546875 47.265625 
Q 14.109375 46.140625 10.015625 43.890625 
L 10.015625 52.203125 
Q 14.9375 54.109375 19.578125 55.046875 
Q 24.21875 56 28.609375 56 
Q 40.484375 56 46.34375 49.84375 
Q 52.203125 43.703125 52.203125 31.203125 
z
" id="DejaVuSans-97"/>
      <path d="M 44.28125 53.078125 
L 44.28125 44.578125 
Q 40.484375 46.53125 36.375 47.5 
Q 32.28125 48.484375 27.875 48.484375 
Q 21.1875 48.484375 17.84375 46.4375 
Q 14.5 44.390625 14.5 40.28125 
Q 14.5 37.15625 16.890625 35.375 
Q 19.28125 33.59375 26.515625 31.984375 
L 29.59375 31.296875 
Q 39.15625 29.25 43.1875 25.515625 
Q 47.21875 21.78125 47.21875 15.09375 
Q 47.21875 7.46875 41.1875 3.015625 
Q 35.15625 -1.421875 24.609375 -1.421875 
Q 20.21875 -1.421875 15.453125 -0.5625 
Q 10.6875 0.296875 5.421875 2 
L 5.421875 11.28125 
Q 10.40625 8.6875 15.234375 7.390625 
Q 20.0625 6.109375 24.8125 6.109375 
Q 31.15625 6.109375 34.5625 8.28125 
Q 37.984375 10.453125 37.984375 14.40625 
Q 37.984375 18.0625 35.515625 20.015625 
Q 33.0625 21.96875 24.703125 23.78125 
L 21.578125 24.515625 
Q 13.234375 26.265625 9.515625 29.90625 
Q 5.8125 33.546875 5.8125 39.890625 
Q 5.8125 47.609375 11.28125 51.796875 
Q 16.75 56 26.8125 56 
Q 31.78125 56 36.171875 55.265625 
Q 40.578125 54.546875 44.28125 53.078125 
z
" id="DejaVuSans-115"/>
      <path d="M 30.609375 48.390625 
Q 23.390625 48.390625 19.1875 42.75 
Q 14.984375 37.109375 14.984375 27.296875 
Q 14.984375 17.484375 19.15625 11.84375 
Q 23.34375 6.203125 30.609375 6.203125 
Q 37.796875 6.203125 41.984375 11.859375 
Q 46.1875 17.53125 46.1875 27.296875 
Q 46.1875 37.015625 41.984375 42.703125 
Q 37.796875 48.390625 30.609375 48.390625 
z
M 30.609375 56 
Q 42.328125 56 49.015625 48.375 
Q 55.71875 40.765625 55.71875 27.296875 
Q 55.71875 13.875 49.015625 6.21875 
Q 42.328125 -1.421875 30.609375 -1.421875 
Q 18.84375 -1.421875 12.171875 6.21875 
Q 5.515625 13.875 5.515625 27.296875 
Q 5.515625 40.765625 12.171875 48.375 
Q 18.84375 56 30.609375 56 
z
" id="DejaVuSans-111"/>
      <path d="M 54.890625 33.015625 
L 54.890625 0 
L 45.90625 0 
L 45.90625 32.71875 
Q 45.90625 40.484375 42.875 44.328125 
Q 39.84375 48.1875 33.796875 48.1875 
Q 26.515625 48.1875 22.3125 43.546875 
Q 18.109375 38.921875 18.109375 30.90625 
L 18.109375 0 
L 9.078125 0 
L 9.078125 54.6875 
L 18.109375 54.6875 
L 18.109375 46.1875 
Q 21.34375 51.125 25.703125 53.5625 
Q 30.078125 56 35.796875 56 
Q 45.21875 56 50.046875 50.171875 
Q 54.890625 44.34375 54.890625 33.015625 
z
" id="DejaVuSans-110"/>
     </defs>
     <g style="fill:#555555;" transform="translate(418.899062 197.338)scale(0.12 -0.12)">
      <use xlink:href="#DejaVuSans-83"/>
      <use x="63.476562" xlink:href="#DejaVuSans-101"/>
      <use x="125" xlink:href="#DejaVuSans-97"/>
      <use x="186.279297" xlink:href="#DejaVuSans-115"/>
      <use x="238.378906" xlink:href="#DejaVuSans-111"/>
      <use x="299.560547" xlink:href="#DejaVuSans-110"/>
     </g>
    </g>
   </g>
   <g id="matplotlib.axis_2">
    <g id="ytick_1">
     <g id="line2d_25">
      <path clip-path="url(#p28d4a88fbb)" d="M 42.53875 167.54175 
L 838.81375 167.54175 
" style="fill:none;stroke:#ffffff;stroke-linecap:square;stroke-width:0.8;"/>
     </g>
     <g id="line2d_26">
      <defs>
       <path d="M 0 0 
L -3.5 0 
" id="m4d30e4e500" style="stroke:#555555;stroke-width:0.8;"/>
      </defs>
      <g>
       <use style="fill:#555555;stroke:#555555;stroke-width:0.8;" x="42.53875" xlink:href="#m4d30e4e500" y="167.54175"/>
      </g>
     </g>
     <g id="text_14">
      <!-- 6 -->
      <g style="fill:#555555;" transform="translate(29.17625 171.340969)scale(0.1 -0.1)">
       <use xlink:href="#DejaVuSans-54"/>
      </g>
     </g>
    </g>
    <g id="ytick_2">
     <g id="line2d_27">
      <path clip-path="url(#p28d4a88fbb)" d="M 42.53875 131.69175 
L 838.81375 131.69175 
" style="fill:none;stroke:#ffffff;stroke-linecap:square;stroke-width:0.8;"/>
     </g>
     <g id="line2d_28">
      <g>
       <use style="fill:#555555;stroke:#555555;stroke-width:0.8;" x="42.53875" xlink:href="#m4d30e4e500" y="131.69175"/>
      </g>
     </g>
     <g id="text_15">
      <!-- 7 -->
      <g style="fill:#555555;" transform="translate(29.17625 135.490969)scale(0.1 -0.1)">
       <use xlink:href="#DejaVuSans-55"/>
      </g>
     </g>
    </g>
    <g id="ytick_3">
     <g id="line2d_29">
      <path clip-path="url(#p28d4a88fbb)" d="M 42.53875 95.84175 
L 838.81375 95.84175 
" style="fill:none;stroke:#ffffff;stroke-linecap:square;stroke-width:0.8;"/>
     </g>
     <g id="line2d_30">
      <g>
       <use style="fill:#555555;stroke:#555555;stroke-width:0.8;" x="42.53875" xlink:href="#m4d30e4e500" y="95.84175"/>
      </g>
     </g>
     <g id="text_16">
      <!-- 8 -->
      <g style="fill:#555555;" transform="translate(29.17625 99.640969)scale(0.1 -0.1)">
       <use xlink:href="#DejaVuSans-56"/>
      </g>
     </g>
    </g>
    <g id="ytick_4">
     <g id="line2d_31">
      <path clip-path="url(#p28d4a88fbb)" d="M 42.53875 59.99175 
L 838.81375 59.99175 
" style="fill:none;stroke:#ffffff;stroke-linecap:square;stroke-width:0.8;"/>
     </g>
     <g id="line2d_32">
      <g>
       <use style="fill:#555555;stroke:#555555;stroke-width:0.8;" x="42.53875" xlink:href="#m4d30e4e500" y="59.99175"/>
      </g>
     </g>
     <g id="text_17">
      <!-- 9 -->
      <g style="fill:#555555;" transform="translate(29.17625 63.790969)scale(0.1 -0.1)">
       <use xlink:href="#DejaVuSans-57"/>
      </g>
     </g>
    </g>
    <g id="ytick_5">
     <g id="line2d_33">
      <path clip-path="url(#p28d4a88fbb)" d="M 42.53875 24.14175 
L 838.81375 24.14175 
" style="fill:none;stroke:#ffffff;stroke-linecap:square;stroke-width:0.8;"/>
     </g>
     <g id="line2d_34">
      <g>
       <use style="fill:#555555;stroke:#555555;stroke-width:0.8;" x="42.53875" xlink:href="#m4d30e4e500" y="24.14175"/>
      </g>
     </g>
     <g id="text_18">
      <!-- 10 -->
      <g style="fill:#555555;" transform="translate(22.81375 27.940969)scale(0.1 -0.1)">
       <use xlink:href="#DejaVuSans-49"/>
       <use x="63.623047" xlink:href="#DejaVuSans-48"/>
      </g>
     </g>
    </g>
    <g id="text_19">
     <!-- Rating -->
     <defs>
      <path d="M 44.390625 34.1875 
Q 47.5625 33.109375 50.5625 29.59375 
Q 53.5625 26.078125 56.59375 19.921875 
L 66.609375 0 
L 56 0 
L 46.6875 18.703125 
Q 43.0625 26.03125 39.671875 28.421875 
Q 36.28125 30.8125 30.421875 30.8125 
L 19.671875 30.8125 
L 19.671875 0 
L 9.8125 0 
L 9.8125 72.90625 
L 32.078125 72.90625 
Q 44.578125 72.90625 50.734375 67.671875 
Q 56.890625 62.453125 56.890625 51.90625 
Q 56.890625 45.015625 53.6875 40.46875 
Q 50.484375 35.9375 44.390625 34.1875 
z
M 19.671875 64.796875 
L 19.671875 38.921875 
L 32.078125 38.921875 
Q 39.203125 38.921875 42.84375 42.21875 
Q 46.484375 45.515625 46.484375 51.90625 
Q 46.484375 58.296875 42.84375 61.546875 
Q 39.203125 64.796875 32.078125 64.796875 
z
" id="DejaVuSans-82"/>
      <path d="M 18.3125 70.21875 
L 18.3125 54.6875 
L 36.8125 54.6875 
L 36.8125 47.703125 
L 18.3125 47.703125 
L 18.3125 18.015625 
Q 18.3125 11.328125 20.140625 9.421875 
Q 21.96875 7.515625 27.59375 7.515625 
L 36.8125 7.515625 
L 36.8125 0 
L 27.59375 0 
Q 17.1875 0 13.234375 3.875 
Q 9.28125 7.765625 9.28125 18.015625 
L 9.28125 47.703125 
L 2.6875 47.703125 
L 2.6875 54.6875 
L 9.28125 54.6875 
L 9.28125 70.21875 
z
" id="DejaVuSans-116"/>
      <path d="M 9.421875 54.6875 
L 18.40625 54.6875 
L 18.40625 0 
L 9.421875 0 
z
M 9.421875 75.984375 
L 18.40625 75.984375 
L 18.40625 64.59375 
L 9.421875 64.59375 
z
" id="DejaVuSans-105"/>
      <path d="M 45.40625 27.984375 
Q 45.40625 37.75 41.375 43.109375 
Q 37.359375 48.484375 30.078125 48.484375 
Q 22.859375 48.484375 18.828125 43.109375 
Q 14.796875 37.75 14.796875 27.984375 
Q 14.796875 18.265625 18.828125 12.890625 
Q 22.859375 7.515625 30.078125 7.515625 
Q 37.359375 7.515625 41.375 12.890625 
Q 45.40625 18.265625 45.40625 27.984375 
z
M 54.390625 6.78125 
Q 54.390625 -7.171875 48.1875 -13.984375 
Q 42 -20.796875 29.203125 -20.796875 
Q 24.46875 -20.796875 20.265625 -20.09375 
Q 16.0625 -19.390625 12.109375 -17.921875 
L 12.109375 -9.1875 
Q 16.0625 -11.328125 19.921875 -12.34375 
Q 23.78125 -13.375 27.78125 -13.375 
Q 36.625 -13.375 41.015625 -8.765625 
Q 45.40625 -4.15625 45.40625 5.171875 
L 45.40625 9.625 
Q 42.625 4.78125 38.28125 2.390625 
Q 33.9375 0 27.875 0 
Q 17.828125 0 11.671875 7.65625 
Q 5.515625 15.328125 5.515625 27.984375 
Q 5.515625 40.671875 11.671875 48.328125 
Q 17.828125 56 27.875 56 
Q 33.9375 56 38.28125 53.609375 
Q 42.625 51.21875 45.40625 46.390625 
L 45.40625 54.6875 
L 54.390625 54.6875 
z
" id="DejaVuSans-103"/>
     </defs>
     <g style="fill:#555555;" transform="translate(16.318125 115.316437)rotate(-90)scale(0.12 -0.12)">
      <use xlink:href="#DejaVuSans-82"/>
      <use x="69.451172" xlink:href="#DejaVuSans-97"/>
      <use x="130.730469" xlink:href="#DejaVuSans-116"/>
      <use x="169.939453" xlink:href="#DejaVuSans-105"/>
      <use x="197.722656" xlink:href="#DejaVuSans-110"/>
      <use x="261.101562" xlink:href="#DejaVuSans-103"/>
     </g>
    </g>
   </g>
   <g id="PolyCollection_1">
    <defs>
     <path d="M 765.51647 -144.300733 
L 765.51647 -53.011114 
L 768.848164 -52.93323 
L 772.179859 -52.830787 
L 775.511553 -52.728416 
L 778.843248 -52.626117 
L 782.174942 -52.52389 
L 785.506637 -52.421736 
L 788.838332 -52.319652 
L 792.170026 -52.21764 
L 795.501721 -52.1157 
L 798.833415 -52.013829 
L 802.16511 -51.91203 
L 805.496804 -51.8103 
L 808.828499 -51.70864 
L 812.160194 -51.607051 
L 815.491888 -51.50553 
L 818.823583 -51.404079 
L 822.155277 -51.302697 
L 825.486972 -51.201383 
L 828.818666 -51.100138 
L 832.150361 -50.998961 
L 835.482055 -50.897852 
L 838.81375 -50.79681 
L 838.81375 -145.132273 
L 838.81375 -145.132273 
L 835.482055 -145.120427 
L 832.150361 -145.108513 
L 828.818666 -145.096531 
L 825.486972 -145.084481 
L 822.155277 -145.072362 
L 818.823583 -145.060175 
L 815.491888 -145.047919 
L 812.160194 -145.035593 
L 808.828499 -145.023198 
L 805.496804 -145.010734 
L 802.16511 -144.998199 
L 798.833415 -144.985594 
L 795.501721 -144.972919 
L 792.170026 -144.960173 
L 788.838332 -144.947356 
L 785.506637 -144.934468 
L 782.174942 -144.921508 
L 778.843248 -144.908476 
L 775.511553 -144.895373 
L 772.179859 -144.882197 
L 768.848164 -144.868948 
L 765.51647 -144.300733 
z
" id="md8b7f53970" style="stroke:#808080;stroke-opacity:0.5;stroke-width:0.5;"/>
    </defs>
    <g clip-path="url(#p28d4a88fbb)">
     <use style="fill:#808080;fill-opacity:0.5;stroke:#808080;stroke-opacity:0.5;stroke-width:0.5;" x="0" xlink:href="#md8b7f53970" y="207.033625"/>
    </g>
   </g>
   <g id="line2d_35">
    <path clip-path="url(#p28d4a88fbb)" d="M 42.53875 84.217359 
L 45.870445 84.765242 
L 49.202139 79.648618 
L 52.533834 87.950388 
L 55.865528 96.733102 
L 59.197223 99.785299 
L 62.528917 106.823804 
L 65.860612 96.241734 
L 69.192306 111.152275 
L 72.524001 103.974711 
L 75.855696 102.152236 
L 79.18739 105.240797 
L 82.519085 99.015153 
L 85.850779 103.300999 
L 89.182474 105.779728 
L 92.514168 105.558422 
L 95.845863 100.800686 
L 99.177558 105.871356 
L 102.509252 107.349886 
L 105.840947 101.688477 
L 109.172641 100.955321 
L 112.504336 105.158452 
L 115.83603 105.469551 
L 119.167725 98.592013 
L 122.499419 100.312161 
L 125.831114 98.810705 
L 129.162809 101.123612 
L 132.494503 100.32911 
L 135.826198 96.660957 
L 139.157892 95.444647 
L 142.489587 104.077059 
L 145.821281 97.109158 
L 149.152976 101.627362 
L 152.484671 100.12678 
L 155.816365 103.053762 
L 159.14806 102.275917 
L 162.479754 100.098939 
L 165.811449 99.289815 
L 169.143143 103.136949 
L 172.474838 97.035832 
L 175.806532 95.804573 
L 179.138227 104.66936 
L 182.469922 101.65558 
L 185.801616 97.587531 
L 189.133311 100.988038 
L 192.465005 98.866142 
L 195.7967 99.285476 
L 199.128394 98.75869 
L 202.460089 93.866521 
L 205.791783 94.162014 
L 209.123478 91.305969 
L 212.455173 94.346962 
L 215.786867 89.049123 
L 219.118562 95.86134 
L 222.450256 95.007203 
L 225.781951 96.878091 
L 229.113645 95.641696 
L 232.44534 92.831249 
L 235.777035 91.370558 
L 239.108729 96.480737 
L 242.440424 91.071112 
L 245.772118 94.271218 
L 249.103813 95.205138 
L 252.435507 92.02385 
L 255.767202 90.797598 
L 259.098896 90.036329 
L 262.430591 100.415425 
L 265.762286 98.1797 
L 269.09398 92.42802 
L 272.425675 95.911087 
L 275.757369 94.108287 
L 282.420758 91.643518 
L 285.752453 91.37596 
L 289.084147 89.280651 
L 292.415842 96.780425 
L 295.747537 92.1477 
L 299.079231 98.143449 
L 302.410926 97.142248 
L 305.74262 91.501827 
L 312.406009 92.010017 
L 315.737704 89.64348 
L 319.069399 96.965137 
L 322.401093 91.598903 
L 325.732788 94.591037 
L 329.064482 91.340813 
L 332.396177 96.754148 
L 335.727871 96.467991 
L 339.059566 92.900102 
L 342.39126 92.333232 
L 345.722955 94.515866 
L 349.05465 89.759441 
L 352.386344 91.551786 
L 355.718039 92.223519 
L 359.049733 92.022528 
L 362.381428 89.436231 
L 365.713122 88.564608 
L 369.044817 86.438631 
L 372.376512 87.284173 
L 375.708206 87.260085 
L 379.039901 86.295888 
L 382.371595 88.673398 
L 385.70329 89.530649 
L 389.034984 89.452174 
L 392.366679 93.17671 
L 395.698373 91.992403 
L 399.030068 91.505305 
L 402.361763 86.551498 
L 405.693457 88.826541 
L 409.025152 87.843224 
L 412.356846 91.301963 
L 415.688541 90.533393 
L 419.020235 92.295725 
L 422.35193 90.133984 
L 425.683624 88.371213 
L 429.015319 86.74893 
L 432.347014 88.20444 
L 435.678708 86.71555 
L 439.010403 85.807715 
L 442.342097 83.792375 
L 445.673792 83.150472 
L 452.337181 86.118443 
L 455.668876 88.049372 
L 462.332265 85.843339 
L 465.663959 84.41075 
L 468.995654 83.112843 
L 472.327348 87.811963 
L 475.659043 83.154064 
L 478.990737 83.533789 
L 482.322432 92.341158 
L 485.654127 90.298655 
L 488.985821 89.550374 
L 492.317516 87.37956 
L 495.64921 88.86858 
L 498.980905 86.457062 
L 502.312599 87.217214 
L 505.644294 88.538604 
L 508.975988 88.704245 
L 512.307683 88.621539 
L 515.639378 89.077572 
L 518.971072 91.203528 
L 522.302767 88.886861 
L 525.634461 90.811624 
L 528.966156 89.354491 
L 532.29785 95.61021 
L 535.629545 91.519827 
L 538.96124 91.405981 
L 542.292934 90.53717 
L 545.624629 99.196429 
L 548.956323 96.062313 
L 552.288018 94.245134 
L 555.619712 96.196719 
L 558.951407 99.23729 
L 562.283101 97.556107 
L 565.614796 99.126061 
L 568.946491 105.732147 
L 572.278185 97.86405 
L 575.60988 96.466245 
L 578.941574 96.797907 
L 582.273269 95.972996 
L 585.604963 98.032769 
L 588.936658 96.174224 
L 592.268353 97.404342 
L 595.600047 95.207223 
L 598.931742 96.938323 
L 602.263436 100.426591 
L 605.595131 101.624441 
L 608.926825 102.530772 
L 612.25852 100.057787 
L 615.590214 101.621296 
L 622.253604 97.942584 
L 625.585298 98.524381 
L 628.916993 97.536221 
L 632.248687 100.418182 
L 635.580382 98.148392 
L 638.912076 98.129116 
L 645.575465 93.864914 
L 648.90716 98.336801 
L 652.238855 98.341249 
L 655.570549 99.606033 
L 658.902244 97.815903 
L 662.233938 102.220173 
L 665.565633 100.526464 
L 668.897327 100.635448 
L 672.229022 102.676891 
L 675.560717 102.514201 
L 678.892411 103.983786 
L 682.224106 103.086624 
L 685.5558 105.535649 
L 688.887495 105.147672 
L 692.219189 105.415074 
L 695.550884 106.57958 
L 702.214273 103.293041 
L 705.545968 104.485019 
L 708.877662 102.279871 
L 712.209357 101.614073 
L 715.541051 101.975705 
L 718.872746 101.473276 
L 722.20444 102.483716 
L 725.536135 104.398237 
L 728.867829 109.746572 
L 732.199524 108.406503 
L 735.531219 111.778136 
L 738.862913 109.379532 
L 742.194608 107.516889 
L 745.526302 107.595985 
L 748.857997 106.037718 
L 752.189691 107.863926 
L 755.521386 106.552972 
L 758.853081 104.903236 
L 762.184775 109.947014 
L 765.51647 108.377702 
L 768.848164 108.132536 
L 838.81375 109.069083 
L 838.81375 109.069083 
" style="fill:none;stroke:#e24a33;stroke-linecap:square;stroke-width:1.5;"/>
   </g>
   <g id="line2d_36">
    <path clip-path="url(#p28d4a88fbb)" d="M 42.53875 85.15063 
L 45.870445 71.709541 
L 49.202139 103.753641 
L 52.533834 125.218833 
L 55.865528 118.358248 
L 59.197223 138.068747 
L 62.528917 65.511789 
L 65.860612 161.719062 
L 69.192306 93.958666 
L 72.524001 86.392066 
L 75.855696 113.843526 
L 79.18739 70.180207 
L 82.519085 111.685881 
L 85.850779 125.368873 
L 89.182474 114.076692 
L 92.514168 75.644567 
L 95.845863 122.466882 
L 99.177558 126.92408 
L 102.509252 75.658688 
L 105.840947 79.860097 
L 109.172641 121.263837 
L 112.504336 117.712641 
L 115.83603 58.622541 
L 119.167725 86.881798 
L 122.499419 81.957972 
L 125.831114 106.853047 
L 129.162809 98.811122 
L 132.494503 69.452572 
L 135.826198 69.672806 
L 139.157892 149.755786 
L 142.489587 77.373568 
L 145.821281 118.597114 
L 149.152976 101.005144 
L 152.484671 123.300823 
L 155.816365 109.294374 
L 159.14806 87.558908 
L 162.479754 84.803806 
L 165.811449 121.978203 
L 169.143143 65.259114 
L 172.474838 65.058811 
L 175.806532 150.654034 
L 182.469922 70.841699 
L 185.801616 107.914294 
L 189.133311 88.865923 
L 192.465005 95.069524 
L 195.7967 92.361283 
L 199.128394 53.673882 
L 202.460089 70.180226 
L 205.791783 56.414073 
L 209.123478 94.703148 
L 212.455173 51.683011 
L 215.786867 121.133363 
L 219.118562 106.74674 
L 222.450256 116.519425 
L 225.781951 98.509487 
L 229.113645 72.694218 
L 232.44534 67.05874 
L 235.777035 118.966009 
L 239.108729 66.673232 
L 242.440424 100.364881 
L 245.772118 107.061088 
L 249.103813 75.53633 
L 252.435507 70.067896 
L 255.767202 71.419145 
L 259.098896 165.493179 
L 262.430591 124.709057 
L 265.762286 63.57269 
L 269.09398 101.33981 
L 272.425675 85.551811 
L 275.757369 77.503145 
L 279.089064 72.557729 
L 282.420758 77.327665 
L 285.752453 65.191672 
L 289.084147 136.727255 
L 292.415842 84.867514 
L 295.747537 135.200372 
L 299.079231 114.158066 
L 302.410926 58.68005 
L 305.74262 71.272138 
L 309.074315 81.726405 
L 312.406009 65.999421 
L 315.737704 135.708678 
L 319.069399 78.101675 
L 322.401093 105.462586 
L 325.732788 74.934712 
L 329.064482 125.059713 
L 332.396177 113.39701 
L 335.727871 75.746334 
L 339.059566 75.837054 
L 342.39126 100.443613 
L 345.722955 58.908513 
L 349.05465 83.915872 
L 352.386344 93.447858 
L 355.718039 91.255081 
L 359.049733 69.392227 
L 362.381428 68.716011 
L 365.713122 58.420484 
L 369.044817 75.79757 
L 372.376512 80.579366 
L 375.708206 74.934781 
L 379.039901 98.770426 
L 382.371595 102.676185 
L 385.70329 96.562871 
L 389.034984 124.377345 
L 392.366679 102.981098 
L 395.698373 93.178223 
L 399.030068 50.250928 
L 402.361763 81.50481 
L 405.693457 77.295512 
L 409.025152 109.847194 
L 412.356846 97.152592 
L 415.688541 108.315255 
L 419.020235 84.025615 
L 422.35193 70.206509 
L 425.683624 62.908313 
L 429.015319 83.921293 
L 432.347014 73.709477 
L 435.678708 70.375888 
L 439.010403 59.113306 
L 442.342097 62.657551 
L 445.673792 82.905311 
L 449.005486 96.701567 
L 452.337181 108.905733 
L 455.668876 91.71685 
L 459.00057 79.278608 
L 462.332265 69.02119 
L 465.663959 63.45783 
L 468.995654 110.097617 
L 472.327348 63.898784 
L 475.659043 72.1928 
L 478.990737 150.742884 
L 482.322432 113.539638 
L 485.654127 95.855678 
L 488.985821 74.163015 
L 492.317516 90.636177 
L 495.64921 70.136683 
L 498.980905 81.671919 
L 502.312599 95.173841 
L 505.644294 94.136927 
L 508.975988 90.860549 
L 512.307683 93.315565 
L 515.639378 109.244427 
L 518.971072 83.00712 
L 522.302767 99.941226 
L 525.634461 84.578532 
L 528.966156 137.877774 
L 532.29785 88.864011 
L 535.629545 86.30487 
L 538.96124 80.738564 
L 542.292934 156.67294 
L 545.624629 110.617764 
L 548.956323 87.019676 
L 552.288018 105.037154 
L 555.619712 127.549718 
L 558.951407 102.81561 
L 562.283101 112.415321 
L 565.614796 162.737452 
L 568.946491 75.979892 
L 572.278185 68.625611 
L 575.60988 82.034538 
L 578.941574 81.190319 
L 582.273269 103.891572 
L 585.604963 86.625594 
L 588.936658 99.55101 
L 592.268353 80.540519 
L 595.600047 99.644582 
L 598.931742 128.387603 
L 602.263436 128.216389 
L 605.595131 124.860576 
L 608.926825 94.790593 
L 612.25852 108.343895 
L 615.590214 90.838569 
L 618.921909 77.542742 
L 622.253604 89.623617 
L 625.585298 85.067782 
L 628.916993 113.592122 
L 632.248687 90.247323 
L 635.580382 91.75443 
L 638.912076 76.242489 
L 642.243771 65.075693 
L 645.575465 113.197702 
L 648.90716 109.134913 
L 652.238855 114.798331 
L 655.570549 93.69075 
L 658.902244 130.987997 
L 662.233938 106.741126 
L 665.565633 103.670593 
L 668.897327 119.200536 
L 672.229022 111.630498 
L 675.560717 119.627259 
L 678.892411 105.938614 
L 682.224106 124.386467 
L 685.5558 114.174136 
L 688.887495 111.99253 
L 692.219189 118.753865 
L 695.550884 100.026575 
L 698.882578 87.065357 
L 702.214273 102.631992 
L 705.545968 85.228182 
L 708.877662 85.228182 
L 712.209357 94.452948 
L 715.541051 93.261428 
L 718.872746 104.557904 
L 722.20444 119.949624 
L 725.536135 158.958054 
L 728.867829 129.553232 
L 732.199524 147.729327 
L 735.531219 113.927392 
L 738.862913 94.615049 
L 742.194608 99.302544 
L 745.526302 89.416265 
L 748.857997 110.515153 
L 755.521386 87.271548 
L 758.853081 135.742597 
L 762.184775 114.168129 
L 762.184775 114.168129 
" style="fill:none;stroke:#348abd;stroke-linecap:square;stroke-width:1.5;"/>
   </g>
   <g id="patch_3">
    <path d="M 42.53875 167.54175 
L 42.53875 24.14175 
" style="fill:none;stroke:#ffffff;stroke-linecap:square;stroke-linejoin:miter;"/>
   </g>
   <g id="patch_4">
    <path d="M 838.81375 167.54175 
L 838.81375 24.14175 
" style="fill:none;stroke:#ffffff;stroke-linecap:square;stroke-linejoin:miter;"/>
   </g>
   <g id="patch_5">
    <path d="M 42.53875 167.54175 
L 838.81375 167.54175 
" style="fill:none;stroke:#ffffff;stroke-linecap:square;stroke-linejoin:miter;"/>
   </g>
   <g id="patch_6">
    <path d="M 42.53875 24.14175 
L 838.81375 24.14175 
" style="fill:none;stroke:#ffffff;stroke-linecap:square;stroke-linejoin:miter;"/>
   </g>
   <g id="text_20">
    <!-- Forecasted ratings -->
    <defs>
     <path d="M 9.8125 72.90625 
L 51.703125 72.90625 
L 51.703125 64.59375 
L 19.671875 64.59375 
L 19.671875 43.109375 
L 48.578125 43.109375 
L 48.578125 34.8125 
L 19.671875 34.8125 
L 19.671875 0 
L 9.8125 0 
z
" id="DejaVuSans-70"/>
     <path d="M 41.109375 46.296875 
Q 39.59375 47.171875 37.8125 47.578125 
Q 36.03125 48 33.890625 48 
Q 26.265625 48 22.1875 43.046875 
Q 18.109375 38.09375 18.109375 28.8125 
L 18.109375 0 
L 9.078125 0 
L 9.078125 54.6875 
L 18.109375 54.6875 
L 18.109375 46.1875 
Q 20.953125 51.171875 25.484375 53.578125 
Q 30.03125 56 36.53125 56 
Q 37.453125 56 38.578125 55.875 
Q 39.703125 55.765625 41.0625 55.515625 
z
" id="DejaVuSans-114"/>
     <path d="M 48.78125 52.59375 
L 48.78125 44.1875 
Q 44.96875 46.296875 41.140625 47.34375 
Q 37.3125 48.390625 33.40625 48.390625 
Q 24.65625 48.390625 19.8125 42.84375 
Q 14.984375 37.3125 14.984375 27.296875 
Q 14.984375 17.28125 19.8125 11.734375 
Q 24.65625 6.203125 33.40625 6.203125 
Q 37.3125 6.203125 41.140625 7.25 
Q 44.96875 8.296875 48.78125 10.40625 
L 48.78125 2.09375 
Q 45.015625 0.34375 40.984375 -0.53125 
Q 36.96875 -1.421875 32.421875 -1.421875 
Q 20.0625 -1.421875 12.78125 6.34375 
Q 5.515625 14.109375 5.515625 27.296875 
Q 5.515625 40.671875 12.859375 48.328125 
Q 20.21875 56 33.015625 56 
Q 37.15625 56 41.109375 55.140625 
Q 45.0625 54.296875 48.78125 52.59375 
z
" id="DejaVuSans-99"/>
     <path d="M 45.40625 46.390625 
L 45.40625 75.984375 
L 54.390625 75.984375 
L 54.390625 0 
L 45.40625 0 
L 45.40625 8.203125 
Q 42.578125 3.328125 38.25 0.953125 
Q 33.9375 -1.421875 27.875 -1.421875 
Q 17.96875 -1.421875 11.734375 6.484375 
Q 5.515625 14.40625 5.515625 27.296875 
Q 5.515625 40.1875 11.734375 48.09375 
Q 17.96875 56 27.875 56 
Q 33.9375 56 38.25 53.625 
Q 42.578125 51.265625 45.40625 46.390625 
z
M 14.796875 27.296875 
Q 14.796875 17.390625 18.875 11.75 
Q 22.953125 6.109375 30.078125 6.109375 
Q 37.203125 6.109375 41.296875 11.75 
Q 45.40625 17.390625 45.40625 27.296875 
Q 45.40625 37.203125 41.296875 42.84375 
Q 37.203125 48.484375 30.078125 48.484375 
Q 22.953125 48.484375 18.875 42.84375 
Q 14.796875 37.203125 14.796875 27.296875 
z
" id="DejaVuSans-100"/>
     <path id="DejaVuSans-32"/>
    </defs>
    <g transform="translate(373.431625 18.14175)scale(0.144 -0.144)">
     <use xlink:href="#DejaVuSans-70"/>
     <use x="57.472656" xlink:href="#DejaVuSans-111"/>
     <use x="118.654297" xlink:href="#DejaVuSans-114"/>
     <use x="159.736328" xlink:href="#DejaVuSans-101"/>
     <use x="221.259766" xlink:href="#DejaVuSans-99"/>
     <use x="276.240234" xlink:href="#DejaVuSans-97"/>
     <use x="337.519531" xlink:href="#DejaVuSans-115"/>
     <use x="389.619141" xlink:href="#DejaVuSans-116"/>
     <use x="428.828125" xlink:href="#DejaVuSans-101"/>
     <use x="490.351562" xlink:href="#DejaVuSans-100"/>
     <use x="553.828125" xlink:href="#DejaVuSans-32"/>
     <use x="585.615234" xlink:href="#DejaVuSans-114"/>
     <use x="626.728516" xlink:href="#DejaVuSans-97"/>
     <use x="688.007812" xlink:href="#DejaVuSans-116"/>
     <use x="727.216797" xlink:href="#DejaVuSans-105"/>
     <use x="755" xlink:href="#DejaVuSans-110"/>
     <use x="818.378906" xlink:href="#DejaVuSans-103"/>
     <use x="881.855469" xlink:href="#DejaVuSans-115"/>
    </g>
   </g>
   <g id="legend_1">
    <g id="patch_7">
     <path d="M 49.53875 46.819875 
L 368.005938 46.819875 
Q 370.005938 46.819875 370.005938 44.819875 
L 370.005938 31.14175 
Q 370.005938 29.14175 368.005938 29.14175 
L 49.53875 29.14175 
Q 47.53875 29.14175 47.53875 31.14175 
L 47.53875 44.819875 
Q 47.53875 46.819875 49.53875 46.819875 
z
" style="fill:#e5e5e5;opacity:0.8;stroke:#cccccc;stroke-linejoin:miter;stroke-width:0.5;"/>
    </g>
    <g id="line2d_37">
     <path d="M 51.53875 37.240187 
L 71.53875 37.240187 
" style="fill:none;stroke:#e24a33;stroke-linecap:square;stroke-width:1.5;"/>
    </g>
    <g id="line2d_38"/>
    <g id="text_21">
     <!-- forecast -->
     <defs>
      <path d="M 37.109375 75.984375 
L 37.109375 68.5 
L 28.515625 68.5 
Q 23.6875 68.5 21.796875 66.546875 
Q 19.921875 64.59375 19.921875 59.515625 
L 19.921875 54.6875 
L 34.71875 54.6875 
L 34.71875 47.703125 
L 19.921875 47.703125 
L 19.921875 0 
L 10.890625 0 
L 10.890625 47.703125 
L 2.296875 47.703125 
L 2.296875 54.6875 
L 10.890625 54.6875 
L 10.890625 58.5 
Q 10.890625 67.625 15.140625 71.796875 
Q 19.390625 75.984375 28.609375 75.984375 
z
" id="DejaVuSans-102"/>
     </defs>
     <g transform="translate(79.53875 40.740187)scale(0.1 -0.1)">
      <use xlink:href="#DejaVuSans-102"/>
      <use x="35.205078" xlink:href="#DejaVuSans-111"/>
      <use x="96.386719" xlink:href="#DejaVuSans-114"/>
      <use x="137.46875" xlink:href="#DejaVuSans-101"/>
      <use x="198.992188" xlink:href="#DejaVuSans-99"/>
      <use x="253.972656" xlink:href="#DejaVuSans-97"/>
      <use x="315.251953" xlink:href="#DejaVuSans-115"/>
      <use x="367.351562" xlink:href="#DejaVuSans-116"/>
     </g>
    </g>
    <g id="line2d_39">
     <path d="M 140.195 37.240187 
L 160.195 37.240187 
" style="fill:none;stroke:#348abd;stroke-linecap:square;stroke-width:1.5;"/>
    </g>
    <g id="line2d_40"/>
    <g id="text_22">
     <!-- mean -->
     <defs>
      <path d="M 52 44.1875 
Q 55.375 50.25 60.0625 53.125 
Q 64.75 56 71.09375 56 
Q 79.640625 56 84.28125 50.015625 
Q 88.921875 44.046875 88.921875 33.015625 
L 88.921875 0 
L 79.890625 0 
L 79.890625 32.71875 
Q 79.890625 40.578125 77.09375 44.375 
Q 74.3125 48.1875 68.609375 48.1875 
Q 61.625 48.1875 57.5625 43.546875 
Q 53.515625 38.921875 53.515625 30.90625 
L 53.515625 0 
L 44.484375 0 
L 44.484375 32.71875 
Q 44.484375 40.625 41.703125 44.40625 
Q 38.921875 48.1875 33.109375 48.1875 
Q 26.21875 48.1875 22.15625 43.53125 
Q 18.109375 38.875 18.109375 30.90625 
L 18.109375 0 
L 9.078125 0 
L 9.078125 54.6875 
L 18.109375 54.6875 
L 18.109375 46.1875 
Q 21.1875 51.21875 25.484375 53.609375 
Q 29.78125 56 35.6875 56 
Q 41.65625 56 45.828125 52.96875 
Q 50 49.953125 52 44.1875 
z
" id="DejaVuSans-109"/>
     </defs>
     <g transform="translate(168.195 40.740187)scale(0.1 -0.1)">
      <use xlink:href="#DejaVuSans-109"/>
      <use x="97.412109" xlink:href="#DejaVuSans-101"/>
      <use x="158.935547" xlink:href="#DejaVuSans-97"/>
      <use x="220.214844" xlink:href="#DejaVuSans-110"/>
     </g>
    </g>
    <g id="patch_8">
     <path d="M 216.554375 40.740187 
L 236.554375 40.740187 
L 236.554375 33.740187 
L 216.554375 33.740187 
z
" style="fill:#808080;opacity:0.5;stroke:#808080;stroke-linejoin:miter;stroke-width:0.5;"/>
    </g>
    <g id="text_23">
     <!-- 95% confidence interval -->
     <defs>
      <path d="M 72.703125 32.078125 
Q 68.453125 32.078125 66.03125 28.46875 
Q 63.625 24.859375 63.625 18.40625 
Q 63.625 12.0625 66.03125 8.421875 
Q 68.453125 4.78125 72.703125 4.78125 
Q 76.859375 4.78125 79.265625 8.421875 
Q 81.6875 12.0625 81.6875 18.40625 
Q 81.6875 24.8125 79.265625 28.4375 
Q 76.859375 32.078125 72.703125 32.078125 
z
M 72.703125 38.28125 
Q 80.421875 38.28125 84.953125 32.90625 
Q 89.5 27.546875 89.5 18.40625 
Q 89.5 9.28125 84.9375 3.921875 
Q 80.375 -1.421875 72.703125 -1.421875 
Q 64.890625 -1.421875 60.34375 3.921875 
Q 55.8125 9.28125 55.8125 18.40625 
Q 55.8125 27.59375 60.375 32.9375 
Q 64.9375 38.28125 72.703125 38.28125 
z
M 22.3125 68.015625 
Q 18.109375 68.015625 15.6875 64.375 
Q 13.28125 60.75 13.28125 54.390625 
Q 13.28125 47.953125 15.671875 44.328125 
Q 18.0625 40.71875 22.3125 40.71875 
Q 26.5625 40.71875 28.96875 44.328125 
Q 31.390625 47.953125 31.390625 54.390625 
Q 31.390625 60.6875 28.953125 64.34375 
Q 26.515625 68.015625 22.3125 68.015625 
z
M 66.40625 74.21875 
L 74.21875 74.21875 
L 28.609375 -1.421875 
L 20.796875 -1.421875 
z
M 22.3125 74.21875 
Q 30.03125 74.21875 34.609375 68.875 
Q 39.203125 63.53125 39.203125 54.390625 
Q 39.203125 45.171875 34.640625 39.84375 
Q 30.078125 34.515625 22.3125 34.515625 
Q 14.546875 34.515625 10.03125 39.859375 
Q 5.515625 45.21875 5.515625 54.390625 
Q 5.515625 63.484375 10.046875 68.84375 
Q 14.59375 74.21875 22.3125 74.21875 
z
" id="DejaVuSans-37"/>
      <path d="M 2.984375 54.6875 
L 12.5 54.6875 
L 29.59375 8.796875 
L 46.6875 54.6875 
L 56.203125 54.6875 
L 35.6875 0 
L 23.484375 0 
z
" id="DejaVuSans-118"/>
      <path d="M 9.421875 75.984375 
L 18.40625 75.984375 
L 18.40625 0 
L 9.421875 0 
z
" id="DejaVuSans-108"/>
     </defs>
     <g transform="translate(244.554375 40.740187)scale(0.1 -0.1)">
      <use xlink:href="#DejaVuSans-57"/>
      <use x="63.623047" xlink:href="#DejaVuSans-53"/>
      <use x="127.246094" xlink:href="#DejaVuSans-37"/>
      <use x="222.265625" xlink:href="#DejaVuSans-32"/>
      <use x="254.052734" xlink:href="#DejaVuSans-99"/>
      <use x="309.033203" xlink:href="#DejaVuSans-111"/>
      <use x="370.214844" xlink:href="#DejaVuSans-110"/>
      <use x="433.59375" xlink:href="#DejaVuSans-102"/>
      <use x="468.798828" xlink:href="#DejaVuSans-105"/>
      <use x="496.582031" xlink:href="#DejaVuSans-100"/>
      <use x="560.058594" xlink:href="#DejaVuSans-101"/>
      <use x="621.582031" xlink:href="#DejaVuSans-110"/>
      <use x="684.960938" xlink:href="#DejaVuSans-99"/>
      <use x="739.941406" xlink:href="#DejaVuSans-101"/>
      <use x="801.464844" xlink:href="#DejaVuSans-32"/>
      <use x="833.251953" xlink:href="#DejaVuSans-105"/>
      <use x="861.035156" xlink:href="#DejaVuSans-110"/>
      <use x="924.414062" xlink:href="#DejaVuSans-116"/>
      <use x="963.623047" xlink:href="#DejaVuSans-101"/>
      <use x="1025.146484" xlink:href="#DejaVuSans-114"/>
      <use x="1066.259766" xlink:href="#DejaVuSans-118"/>
      <use x="1125.439453" xlink:href="#DejaVuSans-97"/>
      <use x="1186.71875" xlink:href="#DejaVuSans-108"/>
     </g>
    </g>
   </g>
  </g>
 </g>
 <defs>
  <clipPath id="p28d4a88fbb">
   <rect height="143.4" width="796.275" x="42.53875" y="24.14175"/>
  </clipPath>
 </defs>
</svg>
