<?xml version="1.0" encoding="utf-8" standalone="no"?>
<!DOCTYPE svg PUBLIC "-//W3C//DTD SVG 1.1//EN"
  "http://www.w3.org/Graphics/SVG/1.1/DTD/svg11.dtd">
<!-- Created with matplotlib (https://matplotlib.org/) -->
<svg height="277.947425pt" version="1.1" viewBox="0 0 427.56733 277.947425" width="427.56733pt" xmlns="http://www.w3.org/2000/svg" xmlns:xlink="http://www.w3.org/1999/xlink">
 <defs>
  <style type="text/css">
*{stroke-linecap:butt;stroke-linejoin:round;}
  </style>
 </defs>
 <g id="figure_1">
  <g id="patch_1">
   <path d="M -0 277.947425 
L 427.56733 277.947425 
L 427.56733 0 
L -0 0 
z
" style="fill:#ffffff;"/>
  </g>
  <g id="axes_1">
   <g id="patch_2">
    <path d="M 36.465625 254.0693 
L 417.18608 254.0693 
L 417.18608 40.2693 
L 36.465625 40.2693 
z
" style="fill:#e5e5e5;"/>
   </g>
   <g id="matplotlib.axis_1">
    <g id="xtick_1">
     <g id="line2d_1">
      <path clip-path="url(#pbcca278240)" d="M 36.465625 254.0693 
L 36.465625 40.2693 
" style="fill:none;stroke:#ffffff;stroke-linecap:square;stroke-width:0.8;"/>
     </g>
     <g id="line2d_2">
      <defs>
       <path d="M 0 0 
L 0 3.5 
" id="mf8f68e5e3c" style="stroke:#555555;stroke-width:0.8;"/>
      </defs>
      <g>
       <use style="fill:#555555;stroke:#555555;stroke-width:0.8;" x="36.465625" xlink:href="#mf8f68e5e3c" y="254.0693"/>
      </g>
     </g>
     <g id="text_1">
      <!-- −3 -->
      <defs>
       <path d="M 10.59375 35.5 
L 73.1875 35.5 
L 73.1875 27.203125 
L 10.59375 27.203125 
z
" id="DejaVuSans-8722"/>
       <path d="M 40.578125 39.3125 
Q 47.65625 37.796875 51.625 33 
Q 55.609375 28.21875 55.609375 21.1875 
Q 55.609375 10.40625 48.1875 4.484375 
Q 40.765625 -1.421875 27.09375 -1.421875 
Q 22.515625 -1.421875 17.65625 -0.515625 
Q 12.796875 0.390625 7.625 2.203125 
L 7.625 11.71875 
Q 11.71875 9.328125 16.59375 8.109375 
Q 21.484375 6.890625 26.8125 6.890625 
Q 36.078125 6.890625 40.9375 10.546875 
Q 45.796875 14.203125 45.796875 21.1875 
Q 45.796875 27.640625 41.28125 31.265625 
Q 36.765625 34.90625 28.71875 34.90625 
L 20.21875 34.90625 
L 20.21875 43.015625 
L 29.109375 43.015625 
Q 36.375 43.015625 40.234375 45.921875 
Q 44.09375 48.828125 44.09375 54.296875 
Q 44.09375 59.90625 40.109375 62.90625 
Q 36.140625 65.921875 28.71875 65.921875 
Q 24.65625 65.921875 20.015625 65.03125 
Q 15.375 64.15625 9.8125 62.3125 
L 9.8125 71.09375 
Q 15.4375 72.65625 20.34375 73.4375 
Q 25.25 74.21875 29.59375 74.21875 
Q 40.828125 74.21875 47.359375 69.109375 
Q 53.90625 64.015625 53.90625 55.328125 
Q 53.90625 49.265625 50.4375 45.09375 
Q 46.96875 40.921875 40.578125 39.3125 
z
" id="DejaVuSans-51"/>
      </defs>
      <g style="fill:#555555;" transform="translate(29.094531 268.667737)scale(0.1 -0.1)">
       <use xlink:href="#DejaVuSans-8722"/>
       <use x="83.789062" xlink:href="#DejaVuSans-51"/>
      </g>
     </g>
    </g>
    <g id="xtick_2">
     <g id="line2d_3">
      <path clip-path="url(#pbcca278240)" d="M 99.919034 254.0693 
L 99.919034 40.2693 
" style="fill:none;stroke:#ffffff;stroke-linecap:square;stroke-width:0.8;"/>
     </g>
     <g id="line2d_4">
      <g>
       <use style="fill:#555555;stroke:#555555;stroke-width:0.8;" x="99.919034" xlink:href="#mf8f68e5e3c" y="254.0693"/>
      </g>
     </g>
     <g id="text_2">
      <!-- −2 -->
      <defs>
       <path d="M 19.1875 8.296875 
L 53.609375 8.296875 
L 53.609375 0 
L 7.328125 0 
L 7.328125 8.296875 
Q 12.9375 14.109375 22.625 23.890625 
Q 32.328125 33.6875 34.8125 36.53125 
Q 39.546875 41.84375 41.421875 45.53125 
Q 43.3125 49.21875 43.3125 52.78125 
Q 43.3125 58.59375 39.234375 62.25 
Q 35.15625 65.921875 28.609375 65.921875 
Q 23.96875 65.921875 18.8125 64.3125 
Q 13.671875 62.703125 7.8125 59.421875 
L 7.8125 69.390625 
Q 13.765625 71.78125 18.9375 73 
Q 24.125 74.21875 28.421875 74.21875 
Q 39.75 74.21875 46.484375 68.546875 
Q 53.21875 62.890625 53.21875 53.421875 
Q 53.21875 48.921875 51.53125 44.890625 
Q 49.859375 40.875 45.40625 35.40625 
Q 44.1875 33.984375 37.640625 27.21875 
Q 31.109375 20.453125 19.1875 8.296875 
z
" id="DejaVuSans-50"/>
      </defs>
      <g style="fill:#555555;" transform="translate(92.54794 268.667737)scale(0.1 -0.1)">
       <use xlink:href="#DejaVuSans-8722"/>
       <use x="83.789062" xlink:href="#DejaVuSans-50"/>
      </g>
     </g>
    </g>
    <g id="xtick_3">
     <g id="line2d_5">
      <path clip-path="url(#pbcca278240)" d="M 163.372443 254.0693 
L 163.372443 40.2693 
" style="fill:none;stroke:#ffffff;stroke-linecap:square;stroke-width:0.8;"/>
     </g>
     <g id="line2d_6">
      <g>
       <use style="fill:#555555;stroke:#555555;stroke-width:0.8;" x="163.372443" xlink:href="#mf8f68e5e3c" y="254.0693"/>
      </g>
     </g>
     <g id="text_3">
      <!-- −1 -->
      <defs>
       <path d="M 12.40625 8.296875 
L 28.515625 8.296875 
L 28.515625 63.921875 
L 10.984375 60.40625 
L 10.984375 69.390625 
L 28.421875 72.90625 
L 38.28125 72.90625 
L 38.28125 8.296875 
L 54.390625 8.296875 
L 54.390625 0 
L 12.40625 0 
z
" id="DejaVuSans-49"/>
      </defs>
      <g style="fill:#555555;" transform="translate(156.001349 268.667737)scale(0.1 -0.1)">
       <use xlink:href="#DejaVuSans-8722"/>
       <use x="83.789062" xlink:href="#DejaVuSans-49"/>
      </g>
     </g>
    </g>
    <g id="xtick_4">
     <g id="line2d_7">
      <path clip-path="url(#pbcca278240)" d="M 226.825852 254.0693 
L 226.825852 40.2693 
" style="fill:none;stroke:#ffffff;stroke-linecap:square;stroke-width:0.8;"/>
     </g>
     <g id="line2d_8">
      <g>
       <use style="fill:#555555;stroke:#555555;stroke-width:0.8;" x="226.825852" xlink:href="#mf8f68e5e3c" y="254.0693"/>
      </g>
     </g>
     <g id="text_4">
      <!-- 0 -->
      <defs>
       <path d="M 31.78125 66.40625 
Q 24.171875 66.40625 20.328125 58.90625 
Q 16.5 51.421875 16.5 36.375 
Q 16.5 21.390625 20.328125 13.890625 
Q 24.171875 6.390625 31.78125 6.390625 
Q 39.453125 6.390625 43.28125 13.890625 
Q 47.125 21.390625 47.125 36.375 
Q 47.125 51.421875 43.28125 58.90625 
Q 39.453125 66.40625 31.78125 66.40625 
z
M 31.78125 74.21875 
Q 44.046875 74.21875 50.515625 64.515625 
Q 56.984375 54.828125 56.984375 36.375 
Q 56.984375 17.96875 50.515625 8.265625 
Q 44.046875 -1.421875 31.78125 -1.421875 
Q 19.53125 -1.421875 13.0625 8.265625 
Q 6.59375 17.96875 6.59375 36.375 
Q 6.59375 54.828125 13.0625 64.515625 
Q 19.53125 74.21875 31.78125 74.21875 
z
" id="DejaVuSans-48"/>
      </defs>
      <g style="fill:#555555;" transform="translate(223.644602 268.667737)scale(0.1 -0.1)">
       <use xlink:href="#DejaVuSans-48"/>
      </g>
     </g>
    </g>
    <g id="xtick_5">
     <g id="line2d_9">
      <path clip-path="url(#pbcca278240)" d="M 290.279261 254.0693 
L 290.279261 40.2693 
" style="fill:none;stroke:#ffffff;stroke-linecap:square;stroke-width:0.8;"/>
     </g>
     <g id="line2d_10">
      <g>
       <use style="fill:#555555;stroke:#555555;stroke-width:0.8;" x="290.279261" xlink:href="#mf8f68e5e3c" y="254.0693"/>
      </g>
     </g>
     <g id="text_5">
      <!-- 1 -->
      <g style="fill:#555555;" transform="translate(287.098011 268.667737)scale(0.1 -0.1)">
       <use xlink:href="#DejaVuSans-49"/>
      </g>
     </g>
    </g>
    <g id="xtick_6">
     <g id="line2d_11">
      <path clip-path="url(#pbcca278240)" d="M 353.73267 254.0693 
L 353.73267 40.2693 
" style="fill:none;stroke:#ffffff;stroke-linecap:square;stroke-width:0.8;"/>
     </g>
     <g id="line2d_12">
      <g>
       <use style="fill:#555555;stroke:#555555;stroke-width:0.8;" x="353.73267" xlink:href="#mf8f68e5e3c" y="254.0693"/>
      </g>
     </g>
     <g id="text_6">
      <!-- 2 -->
      <g style="fill:#555555;" transform="translate(350.55142 268.667737)scale(0.1 -0.1)">
       <use xlink:href="#DejaVuSans-50"/>
      </g>
     </g>
    </g>
    <g id="xtick_7">
     <g id="line2d_13">
      <path clip-path="url(#pbcca278240)" d="M 417.18608 254.0693 
L 417.18608 40.2693 
" style="fill:none;stroke:#ffffff;stroke-linecap:square;stroke-width:0.8;"/>
     </g>
     <g id="line2d_14">
      <g>
       <use style="fill:#555555;stroke:#555555;stroke-width:0.8;" x="417.18608" xlink:href="#mf8f68e5e3c" y="254.0693"/>
      </g>
     </g>
     <g id="text_7">
      <!-- 3 -->
      <g style="fill:#555555;" transform="translate(414.00483 268.667737)scale(0.1 -0.1)">
       <use xlink:href="#DejaVuSans-51"/>
      </g>
     </g>
    </g>
   </g>
   <g id="matplotlib.axis_2">
    <g id="ytick_1">
     <g id="line2d_15">
      <path clip-path="url(#pbcca278240)" d="M 36.465625 244.351118 
L 417.18608 244.351118 
" style="fill:none;stroke:#ffffff;stroke-linecap:square;stroke-width:0.8;"/>
     </g>
     <g id="line2d_16">
      <defs>
       <path d="M 0 0 
L -3.5 0 
" id="m425deeb698" style="stroke:#555555;stroke-width:0.8;"/>
      </defs>
      <g>
       <use style="fill:#555555;stroke:#555555;stroke-width:0.8;" x="36.465625" xlink:href="#m425deeb698" y="244.351118"/>
      </g>
     </g>
     <g id="text_8">
      <!-- 0.00 -->
      <defs>
       <path d="M 10.6875 12.40625 
L 21 12.40625 
L 21 0 
L 10.6875 0 
z
" id="DejaVuSans-46"/>
      </defs>
      <g style="fill:#555555;" transform="translate(7.2 248.150337)scale(0.1 -0.1)">
       <use xlink:href="#DejaVuSans-48"/>
       <use x="63.623047" xlink:href="#DejaVuSans-46"/>
       <use x="95.410156" xlink:href="#DejaVuSans-48"/>
       <use x="159.033203" xlink:href="#DejaVuSans-48"/>
      </g>
     </g>
    </g>
    <g id="ytick_2">
     <g id="line2d_17">
      <path clip-path="url(#pbcca278240)" d="M 36.465625 219.989426 
L 417.18608 219.989426 
" style="fill:none;stroke:#ffffff;stroke-linecap:square;stroke-width:0.8;"/>
     </g>
     <g id="line2d_18">
      <g>
       <use style="fill:#555555;stroke:#555555;stroke-width:0.8;" x="36.465625" xlink:href="#m425deeb698" y="219.989426"/>
      </g>
     </g>
     <g id="text_9">
      <!-- 0.05 -->
      <defs>
       <path d="M 10.796875 72.90625 
L 49.515625 72.90625 
L 49.515625 64.59375 
L 19.828125 64.59375 
L 19.828125 46.734375 
Q 21.96875 47.46875 24.109375 47.828125 
Q 26.265625 48.1875 28.421875 48.1875 
Q 40.625 48.1875 47.75 41.5 
Q 54.890625 34.8125 54.890625 23.390625 
Q 54.890625 11.625 47.5625 5.09375 
Q 40.234375 -1.421875 26.90625 -1.421875 
Q 22.3125 -1.421875 17.546875 -0.640625 
Q 12.796875 0.140625 7.71875 1.703125 
L 7.71875 11.625 
Q 12.109375 9.234375 16.796875 8.0625 
Q 21.484375 6.890625 26.703125 6.890625 
Q 35.15625 6.890625 40.078125 11.328125 
Q 45.015625 15.765625 45.015625 23.390625 
Q 45.015625 31 40.078125 35.4375 
Q 35.15625 39.890625 26.703125 39.890625 
Q 22.75 39.890625 18.8125 39.015625 
Q 14.890625 38.140625 10.796875 36.28125 
z
" id="DejaVuSans-53"/>
      </defs>
      <g style="fill:#555555;" transform="translate(7.2 223.788644)scale(0.1 -0.1)">
       <use xlink:href="#DejaVuSans-48"/>
       <use x="63.623047" xlink:href="#DejaVuSans-46"/>
       <use x="95.410156" xlink:href="#DejaVuSans-48"/>
       <use x="159.033203" xlink:href="#DejaVuSans-53"/>
      </g>
     </g>
    </g>
    <g id="ytick_3">
     <g id="line2d_19">
      <path clip-path="url(#pbcca278240)" d="M 36.465625 195.627733 
L 417.18608 195.627733 
" style="fill:none;stroke:#ffffff;stroke-linecap:square;stroke-width:0.8;"/>
     </g>
     <g id="line2d_20">
      <g>
       <use style="fill:#555555;stroke:#555555;stroke-width:0.8;" x="36.465625" xlink:href="#m425deeb698" y="195.627733"/>
      </g>
     </g>
     <g id="text_10">
      <!-- 0.10 -->
      <g style="fill:#555555;" transform="translate(7.2 199.426952)scale(0.1 -0.1)">
       <use xlink:href="#DejaVuSans-48"/>
       <use x="63.623047" xlink:href="#DejaVuSans-46"/>
       <use x="95.410156" xlink:href="#DejaVuSans-49"/>
       <use x="159.033203" xlink:href="#DejaVuSans-48"/>
      </g>
     </g>
    </g>
    <g id="ytick_4">
     <g id="line2d_21">
      <path clip-path="url(#pbcca278240)" d="M 36.465625 171.26604 
L 417.18608 171.26604 
" style="fill:none;stroke:#ffffff;stroke-linecap:square;stroke-width:0.8;"/>
     </g>
     <g id="line2d_22">
      <g>
       <use style="fill:#555555;stroke:#555555;stroke-width:0.8;" x="36.465625" xlink:href="#m425deeb698" y="171.26604"/>
      </g>
     </g>
     <g id="text_11">
      <!-- 0.15 -->
      <g style="fill:#555555;" transform="translate(7.2 175.065259)scale(0.1 -0.1)">
       <use xlink:href="#DejaVuSans-48"/>
       <use x="63.623047" xlink:href="#DejaVuSans-46"/>
       <use x="95.410156" xlink:href="#DejaVuSans-49"/>
       <use x="159.033203" xlink:href="#DejaVuSans-53"/>
      </g>
     </g>
    </g>
    <g id="ytick_5">
     <g id="line2d_23">
      <path clip-path="url(#pbcca278240)" d="M 36.465625 146.904348 
L 417.18608 146.904348 
" style="fill:none;stroke:#ffffff;stroke-linecap:square;stroke-width:0.8;"/>
     </g>
     <g id="line2d_24">
      <g>
       <use style="fill:#555555;stroke:#555555;stroke-width:0.8;" x="36.465625" xlink:href="#m425deeb698" y="146.904348"/>
      </g>
     </g>
     <g id="text_12">
      <!-- 0.20 -->
      <g style="fill:#555555;" transform="translate(7.2 150.703567)scale(0.1 -0.1)">
       <use xlink:href="#DejaVuSans-48"/>
       <use x="63.623047" xlink:href="#DejaVuSans-46"/>
       <use x="95.410156" xlink:href="#DejaVuSans-50"/>
       <use x="159.033203" xlink:href="#DejaVuSans-48"/>
      </g>
     </g>
    </g>
    <g id="ytick_6">
     <g id="line2d_25">
      <path clip-path="url(#pbcca278240)" d="M 36.465625 122.542655 
L 417.18608 122.542655 
" style="fill:none;stroke:#ffffff;stroke-linecap:square;stroke-width:0.8;"/>
     </g>
     <g id="line2d_26">
      <g>
       <use style="fill:#555555;stroke:#555555;stroke-width:0.8;" x="36.465625" xlink:href="#m425deeb698" y="122.542655"/>
      </g>
     </g>
     <g id="text_13">
      <!-- 0.25 -->
      <g style="fill:#555555;" transform="translate(7.2 126.341874)scale(0.1 -0.1)">
       <use xlink:href="#DejaVuSans-48"/>
       <use x="63.623047" xlink:href="#DejaVuSans-46"/>
       <use x="95.410156" xlink:href="#DejaVuSans-50"/>
       <use x="159.033203" xlink:href="#DejaVuSans-53"/>
      </g>
     </g>
    </g>
    <g id="ytick_7">
     <g id="line2d_27">
      <path clip-path="url(#pbcca278240)" d="M 36.465625 98.180963 
L 417.18608 98.180963 
" style="fill:none;stroke:#ffffff;stroke-linecap:square;stroke-width:0.8;"/>
     </g>
     <g id="line2d_28">
      <g>
       <use style="fill:#555555;stroke:#555555;stroke-width:0.8;" x="36.465625" xlink:href="#m425deeb698" y="98.180963"/>
      </g>
     </g>
     <g id="text_14">
      <!-- 0.30 -->
      <g style="fill:#555555;" transform="translate(7.2 101.980181)scale(0.1 -0.1)">
       <use xlink:href="#DejaVuSans-48"/>
       <use x="63.623047" xlink:href="#DejaVuSans-46"/>
       <use x="95.410156" xlink:href="#DejaVuSans-51"/>
       <use x="159.033203" xlink:href="#DejaVuSans-48"/>
      </g>
     </g>
    </g>
    <g id="ytick_8">
     <g id="line2d_29">
      <path clip-path="url(#pbcca278240)" d="M 36.465625 73.81927 
L 417.18608 73.81927 
" style="fill:none;stroke:#ffffff;stroke-linecap:square;stroke-width:0.8;"/>
     </g>
     <g id="line2d_30">
      <g>
       <use style="fill:#555555;stroke:#555555;stroke-width:0.8;" x="36.465625" xlink:href="#m425deeb698" y="73.81927"/>
      </g>
     </g>
     <g id="text_15">
      <!-- 0.35 -->
      <g style="fill:#555555;" transform="translate(7.2 77.618489)scale(0.1 -0.1)">
       <use xlink:href="#DejaVuSans-48"/>
       <use x="63.623047" xlink:href="#DejaVuSans-46"/>
       <use x="95.410156" xlink:href="#DejaVuSans-51"/>
       <use x="159.033203" xlink:href="#DejaVuSans-53"/>
      </g>
     </g>
    </g>
    <g id="ytick_9">
     <g id="line2d_31">
      <path clip-path="url(#pbcca278240)" d="M 36.465625 49.457578 
L 417.18608 49.457578 
" style="fill:none;stroke:#ffffff;stroke-linecap:square;stroke-width:0.8;"/>
     </g>
     <g id="line2d_32">
      <g>
       <use style="fill:#555555;stroke:#555555;stroke-width:0.8;" x="36.465625" xlink:href="#m425deeb698" y="49.457578"/>
      </g>
     </g>
     <g id="text_16">
      <!-- 0.40 -->
      <defs>
       <path d="M 37.796875 64.3125 
L 12.890625 25.390625 
L 37.796875 25.390625 
z
M 35.203125 72.90625 
L 47.609375 72.90625 
L 47.609375 25.390625 
L 58.015625 25.390625 
L 58.015625 17.1875 
L 47.609375 17.1875 
L 47.609375 0 
L 37.796875 0 
L 37.796875 17.1875 
L 4.890625 17.1875 
L 4.890625 26.703125 
z
" id="DejaVuSans-52"/>
      </defs>
      <g style="fill:#555555;" transform="translate(7.2 53.256796)scale(0.1 -0.1)">
       <use xlink:href="#DejaVuSans-48"/>
       <use x="63.623047" xlink:href="#DejaVuSans-46"/>
       <use x="95.410156" xlink:href="#DejaVuSans-52"/>
       <use x="159.033203" xlink:href="#DejaVuSans-48"/>
      </g>
     </g>
    </g>
   </g>
   <g id="PolyCollection_1">
    <defs>
     <path d="M 328.504207 -33.596307 
L 328.504207 -87.432629 
L 330.033204 -85.378501 
L 331.562202 -83.373838 
L 333.0912 -81.41901 
L 334.620198 -79.514282 
L 336.149196 -77.659827 
L 337.678193 -75.855724 
L 339.207191 -74.101962 
L 340.736189 -72.398447 
L 342.265187 -70.745001 
L 343.794185 -69.141368 
L 345.323183 -67.587221 
L 346.85218 -66.08216 
L 348.381178 -64.62572 
L 349.910176 -63.217375 
L 351.439174 -61.856538 
L 352.968172 -60.542571 
L 354.497169 -59.274785 
L 356.026167 -58.052443 
L 357.555165 -56.874769 
L 359.084163 -55.740944 
L 360.613161 -54.650118 
L 362.142158 -53.601407 
L 363.671156 -52.593901 
L 365.200154 -51.626665 
L 366.729152 -50.698742 
L 368.25815 -49.809159 
L 369.787147 -48.956927 
L 371.316145 -48.141046 
L 372.845143 -47.360508 
L 374.374141 -46.614297 
L 375.903139 -45.901395 
L 377.432137 -45.220783 
L 378.961134 -44.571443 
L 380.490132 -43.952362 
L 382.01913 -43.362529 
L 383.548128 -42.800946 
L 385.077126 -42.26662 
L 386.606123 -41.758572 
L 388.135121 -41.275833 
L 389.664119 -40.817452 
L 391.193117 -40.382491 
L 392.722115 -39.970027 
L 394.251112 -39.579159 
L 395.78011 -39.209002 
L 397.309108 -38.85869 
L 398.838106 -38.527379 
L 400.367104 -38.214246 
L 401.896101 -37.918487 
L 403.425099 -37.639322 
L 404.954097 -37.375994 
L 406.483095 -37.127766 
L 408.012093 -36.893925 
L 409.54109 -36.673781 
L 411.070088 -36.466667 
L 412.599086 -36.271939 
L 414.128084 -36.088973 
L 415.657082 -35.917171 
L 417.18608 -35.755956 
L 417.18608 -33.596307 
L 417.18608 -33.596307 
L 415.657082 -33.596307 
L 414.128084 -33.596307 
L 412.599086 -33.596307 
L 411.070088 -33.596307 
L 409.54109 -33.596307 
L 408.012093 -33.596307 
L 406.483095 -33.596307 
L 404.954097 -33.596307 
L 403.425099 -33.596307 
L 401.896101 -33.596307 
L 400.367104 -33.596307 
L 398.838106 -33.596307 
L 397.309108 -33.596307 
L 395.78011 -33.596307 
L 394.251112 -33.596307 
L 392.722115 -33.596307 
L 391.193117 -33.596307 
L 389.664119 -33.596307 
L 388.135121 -33.596307 
L 386.606123 -33.596307 
L 385.077126 -33.596307 
L 383.548128 -33.596307 
L 382.01913 -33.596307 
L 380.490132 -33.596307 
L 378.961134 -33.596307 
L 377.432137 -33.596307 
L 375.903139 -33.596307 
L 374.374141 -33.596307 
L 372.845143 -33.596307 
L 371.316145 -33.596307 
L 369.787147 -33.596307 
L 368.25815 -33.596307 
L 366.729152 -33.596307 
L 365.200154 -33.596307 
L 363.671156 -33.596307 
L 362.142158 -33.596307 
L 360.613161 -33.596307 
L 359.084163 -33.596307 
L 357.555165 -33.596307 
L 356.026167 -33.596307 
L 354.497169 -33.596307 
L 352.968172 -33.596307 
L 351.439174 -33.596307 
L 349.910176 -33.596307 
L 348.381178 -33.596307 
L 346.85218 -33.596307 
L 345.323183 -33.596307 
L 343.794185 -33.596307 
L 342.265187 -33.596307 
L 340.736189 -33.596307 
L 339.207191 -33.596307 
L 337.678193 -33.596307 
L 336.149196 -33.596307 
L 334.620198 -33.596307 
L 333.0912 -33.596307 
L 331.562202 -33.596307 
L 330.033204 -33.596307 
L 328.504207 -33.596307 
z
" id="m5f4cb269c3" style="stroke:#ff0000;stroke-opacity:0.25;stroke-width:0.5;"/>
    </defs>
    <g clip-path="url(#pbcca278240)">
     <use style="fill:#ff0000;fill-opacity:0.25;stroke:#ff0000;stroke-opacity:0.25;stroke-width:0.5;" x="0" xlink:href="#m5f4cb269c3" y="277.947425"/>
    </g>
   </g>
   <g id="line2d_33">
    <path clip-path="url(#pbcca278240)" d="M 36.465625 242.191469 
L 42.581616 241.480758 
L 48.697607 240.571431 
L 54.813599 239.420046 
L 59.400592 238.368266 
L 63.987586 237.129973 
L 68.574579 235.680805 
L 73.161572 233.995063 
L 77.748566 232.04603 
L 82.335559 229.806379 
L 86.922553 227.248683 
L 91.509546 224.346018 
L 96.09654 221.072656 
L 100.683533 217.404854 
L 105.270526 213.321705 
L 109.85752 208.806057 
L 114.444513 203.845463 
L 119.031507 198.433143 
L 123.6185 192.568924 
L 128.205494 186.260125 
L 132.792487 179.522347 
L 137.37948 172.380143 
L 141.966474 164.867508 
L 148.082465 154.351435 
L 154.198456 143.386353 
L 164.901441 123.615014 
L 174.075428 106.76494 
L 180.191419 95.977522 
L 184.778413 88.289809 
L 189.365406 81.059319 
L 193.952399 74.384357 
L 197.010395 70.289541 
L 200.068391 66.5096 
L 203.126386 63.069099 
L 206.184382 59.990724 
L 209.242377 57.295027 
L 212.300373 55.000205 
L 215.358369 53.121887 
L 218.416364 51.672964 
L 221.47436 50.663437 
L 224.532356 50.100305 
L 226.061353 49.987482 
L 227.590351 49.987482 
L 229.119349 50.100305 
L 232.177345 50.663437 
L 235.23534 51.672964 
L 238.293336 53.121887 
L 241.351331 55.000205 
L 244.409327 57.295027 
L 247.467323 59.990724 
L 250.525318 63.069099 
L 253.583314 66.5096 
L 256.64131 70.289541 
L 259.699305 74.384357 
L 262.757301 78.767863 
L 267.344294 85.823919 
L 271.931288 93.370339 
L 276.518281 101.306987 
L 282.634272 112.321638 
L 307.098237 157.028174 
L 313.214229 167.410381 
L 317.801222 174.803914 
L 322.388215 181.814612 
L 326.975209 188.411671 
L 331.562202 194.573587 
L 336.149196 200.287598 
L 340.736189 205.548978 
L 345.323183 210.360204 
L 349.910176 214.73005 
L 354.497169 218.67264 
L 359.084163 222.206481 
L 363.671156 225.353524 
L 368.25815 228.138266 
L 372.845143 230.586917 
L 377.432137 232.726642 
L 382.01913 234.584896 
L 386.606123 236.188853 
L 391.193117 237.564934 
L 395.78011 238.738423 
L 401.896101 240.028938 
L 408.012093 241.0535 
L 414.128084 241.858452 
L 417.18608 242.191469 
L 417.18608 242.191469 
" style="fill:none;stroke:#e24a33;stroke-linecap:square;stroke-width:2;"/>
   </g>
   <g id="patch_3">
    <path d="M 36.465625 254.0693 
L 36.465625 40.2693 
" style="fill:none;stroke:#ffffff;stroke-linecap:square;stroke-linejoin:miter;"/>
   </g>
   <g id="patch_4">
    <path d="M 417.18608 254.0693 
L 417.18608 40.2693 
" style="fill:none;stroke:#ffffff;stroke-linecap:square;stroke-linejoin:miter;"/>
   </g>
   <g id="patch_5">
    <path d="M 36.465625 254.0693 
L 417.18608 254.0693 
" style="fill:none;stroke:#ffffff;stroke-linecap:square;stroke-linejoin:miter;"/>
   </g>
   <g id="patch_6">
    <path d="M 36.465625 40.2693 
L 417.18608 40.2693 
" style="fill:none;stroke:#ffffff;stroke-linecap:square;stroke-linejoin:miter;"/>
   </g>
   <g id="text_17">
    <!-- Area = 0.055 -->
    <defs>
     <path d="M 34.1875 63.1875 
L 20.796875 26.90625 
L 47.609375 26.90625 
z
M 28.609375 72.90625 
L 39.796875 72.90625 
L 67.578125 0 
L 57.328125 0 
L 50.6875 18.703125 
L 17.828125 18.703125 
L 11.1875 0 
L 0.78125 0 
z
" id="DejaVuSans-65"/>
     <path d="M 41.109375 46.296875 
Q 39.59375 47.171875 37.8125 47.578125 
Q 36.03125 48 33.890625 48 
Q 26.265625 48 22.1875 43.046875 
Q 18.109375 38.09375 18.109375 28.8125 
L 18.109375 0 
L 9.078125 0 
L 9.078125 54.6875 
L 18.109375 54.6875 
L 18.109375 46.1875 
Q 20.953125 51.171875 25.484375 53.578125 
Q 30.03125 56 36.53125 56 
Q 37.453125 56 38.578125 55.875 
Q 39.703125 55.765625 41.0625 55.515625 
z
" id="DejaVuSans-114"/>
     <path d="M 56.203125 29.59375 
L 56.203125 25.203125 
L 14.890625 25.203125 
Q 15.484375 15.921875 20.484375 11.0625 
Q 25.484375 6.203125 34.421875 6.203125 
Q 39.59375 6.203125 44.453125 7.46875 
Q 49.3125 8.734375 54.109375 11.28125 
L 54.109375 2.78125 
Q 49.265625 0.734375 44.1875 -0.34375 
Q 39.109375 -1.421875 33.890625 -1.421875 
Q 20.796875 -1.421875 13.15625 6.1875 
Q 5.515625 13.8125 5.515625 26.8125 
Q 5.515625 40.234375 12.765625 48.109375 
Q 20.015625 56 32.328125 56 
Q 43.359375 56 49.78125 48.890625 
Q 56.203125 41.796875 56.203125 29.59375 
z
M 47.21875 32.234375 
Q 47.125 39.59375 43.09375 43.984375 
Q 39.0625 48.390625 32.421875 48.390625 
Q 24.90625 48.390625 20.390625 44.140625 
Q 15.875 39.890625 15.1875 32.171875 
z
" id="DejaVuSans-101"/>
     <path d="M 34.28125 27.484375 
Q 23.390625 27.484375 19.1875 25 
Q 14.984375 22.515625 14.984375 16.5 
Q 14.984375 11.71875 18.140625 8.90625 
Q 21.296875 6.109375 26.703125 6.109375 
Q 34.1875 6.109375 38.703125 11.40625 
Q 43.21875 16.703125 43.21875 25.484375 
L 43.21875 27.484375 
z
M 52.203125 31.203125 
L 52.203125 0 
L 43.21875 0 
L 43.21875 8.296875 
Q 40.140625 3.328125 35.546875 0.953125 
Q 30.953125 -1.421875 24.3125 -1.421875 
Q 15.921875 -1.421875 10.953125 3.296875 
Q 6 8.015625 6 15.921875 
Q 6 25.140625 12.171875 29.828125 
Q 18.359375 34.515625 30.609375 34.515625 
L 43.21875 34.515625 
L 43.21875 35.40625 
Q 43.21875 41.609375 39.140625 45 
Q 35.0625 48.390625 27.6875 48.390625 
Q 23 48.390625 18.546875 47.265625 
Q 14.109375 46.140625 10.015625 43.890625 
L 10.015625 52.203125 
Q 14.9375 54.109375 19.578125 55.046875 
Q 24.21875 56 28.609375 56 
Q 40.484375 56 46.34375 49.84375 
Q 52.203125 43.703125 52.203125 31.203125 
z
" id="DejaVuSans-97"/>
     <path id="DejaVuSans-32"/>
     <path d="M 10.59375 45.40625 
L 73.1875 45.40625 
L 73.1875 37.203125 
L 10.59375 37.203125 
z
M 10.59375 25.484375 
L 73.1875 25.484375 
L 73.1875 17.1875 
L 10.59375 17.1875 
z
" id="DejaVuSans-61"/>
    </defs>
    <g transform="translate(353.73267 195.627733)scale(0.1 -0.1)">
     <use xlink:href="#DejaVuSans-65"/>
     <use x="68.408203" xlink:href="#DejaVuSans-114"/>
     <use x="109.490234" xlink:href="#DejaVuSans-101"/>
     <use x="171.013672" xlink:href="#DejaVuSans-97"/>
     <use x="232.292969" xlink:href="#DejaVuSans-32"/>
     <use x="264.080078" xlink:href="#DejaVuSans-61"/>
     <use x="347.869141" xlink:href="#DejaVuSans-32"/>
     <use x="379.65625" xlink:href="#DejaVuSans-48"/>
     <use x="443.279297" xlink:href="#DejaVuSans-46"/>
     <use x="475.066406" xlink:href="#DejaVuSans-48"/>
     <use x="538.689453" xlink:href="#DejaVuSans-53"/>
     <use x="602.3125" xlink:href="#DejaVuSans-53"/>
    </g>
   </g>
   <g id="text_18">
    <!-- P-value region under Welch's t-test  -->
    <defs>
     <path d="M 19.671875 64.796875 
L 19.671875 37.40625 
L 32.078125 37.40625 
Q 38.96875 37.40625 42.71875 40.96875 
Q 46.484375 44.53125 46.484375 51.125 
Q 46.484375 57.671875 42.71875 61.234375 
Q 38.96875 64.796875 32.078125 64.796875 
z
M 9.8125 72.90625 
L 32.078125 72.90625 
Q 44.34375 72.90625 50.609375 67.359375 
Q 56.890625 61.8125 56.890625 51.125 
Q 56.890625 40.328125 50.609375 34.8125 
Q 44.34375 29.296875 32.078125 29.296875 
L 19.671875 29.296875 
L 19.671875 0 
L 9.8125 0 
z
" id="DejaVuSans-80"/>
     <path d="M 4.890625 31.390625 
L 31.203125 31.390625 
L 31.203125 23.390625 
L 4.890625 23.390625 
z
" id="DejaVuSans-45"/>
     <path d="M 2.984375 54.6875 
L 12.5 54.6875 
L 29.59375 8.796875 
L 46.6875 54.6875 
L 56.203125 54.6875 
L 35.6875 0 
L 23.484375 0 
z
" id="DejaVuSans-118"/>
     <path d="M 9.421875 75.984375 
L 18.40625 75.984375 
L 18.40625 0 
L 9.421875 0 
z
" id="DejaVuSans-108"/>
     <path d="M 8.5 21.578125 
L 8.5 54.6875 
L 17.484375 54.6875 
L 17.484375 21.921875 
Q 17.484375 14.15625 20.5 10.265625 
Q 23.53125 6.390625 29.59375 6.390625 
Q 36.859375 6.390625 41.078125 11.03125 
Q 45.3125 15.671875 45.3125 23.6875 
L 45.3125 54.6875 
L 54.296875 54.6875 
L 54.296875 0 
L 45.3125 0 
L 45.3125 8.40625 
Q 42.046875 3.421875 37.71875 1 
Q 33.40625 -1.421875 27.6875 -1.421875 
Q 18.265625 -1.421875 13.375 4.4375 
Q 8.5 10.296875 8.5 21.578125 
z
M 31.109375 56 
z
" id="DejaVuSans-117"/>
     <path d="M 45.40625 27.984375 
Q 45.40625 37.75 41.375 43.109375 
Q 37.359375 48.484375 30.078125 48.484375 
Q 22.859375 48.484375 18.828125 43.109375 
Q 14.796875 37.75 14.796875 27.984375 
Q 14.796875 18.265625 18.828125 12.890625 
Q 22.859375 7.515625 30.078125 7.515625 
Q 37.359375 7.515625 41.375 12.890625 
Q 45.40625 18.265625 45.40625 27.984375 
z
M 54.390625 6.78125 
Q 54.390625 -7.171875 48.1875 -13.984375 
Q 42 -20.796875 29.203125 -20.796875 
Q 24.46875 -20.796875 20.265625 -20.09375 
Q 16.0625 -19.390625 12.109375 -17.921875 
L 12.109375 -9.1875 
Q 16.0625 -11.328125 19.921875 -12.34375 
Q 23.78125 -13.375 27.78125 -13.375 
Q 36.625 -13.375 41.015625 -8.765625 
Q 45.40625 -4.15625 45.40625 5.171875 
L 45.40625 9.625 
Q 42.625 4.78125 38.28125 2.390625 
Q 33.9375 0 27.875 0 
Q 17.828125 0 11.671875 7.65625 
Q 5.515625 15.328125 5.515625 27.984375 
Q 5.515625 40.671875 11.671875 48.328125 
Q 17.828125 56 27.875 56 
Q 33.9375 56 38.28125 53.609375 
Q 42.625 51.21875 45.40625 46.390625 
L 45.40625 54.6875 
L 54.390625 54.6875 
z
" id="DejaVuSans-103"/>
     <path d="M 9.421875 54.6875 
L 18.40625 54.6875 
L 18.40625 0 
L 9.421875 0 
z
M 9.421875 75.984375 
L 18.40625 75.984375 
L 18.40625 64.59375 
L 9.421875 64.59375 
z
" id="DejaVuSans-105"/>
     <path d="M 30.609375 48.390625 
Q 23.390625 48.390625 19.1875 42.75 
Q 14.984375 37.109375 14.984375 27.296875 
Q 14.984375 17.484375 19.15625 11.84375 
Q 23.34375 6.203125 30.609375 6.203125 
Q 37.796875 6.203125 41.984375 11.859375 
Q 46.1875 17.53125 46.1875 27.296875 
Q 46.1875 37.015625 41.984375 42.703125 
Q 37.796875 48.390625 30.609375 48.390625 
z
M 30.609375 56 
Q 42.328125 56 49.015625 48.375 
Q 55.71875 40.765625 55.71875 27.296875 
Q 55.71875 13.875 49.015625 6.21875 
Q 42.328125 -1.421875 30.609375 -1.421875 
Q 18.84375 -1.421875 12.171875 6.21875 
Q 5.515625 13.875 5.515625 27.296875 
Q 5.515625 40.765625 12.171875 48.375 
Q 18.84375 56 30.609375 56 
z
" id="DejaVuSans-111"/>
     <path d="M 54.890625 33.015625 
L 54.890625 0 
L 45.90625 0 
L 45.90625 32.71875 
Q 45.90625 40.484375 42.875 44.328125 
Q 39.84375 48.1875 33.796875 48.1875 
Q 26.515625 48.1875 22.3125 43.546875 
Q 18.109375 38.921875 18.109375 30.90625 
L 18.109375 0 
L 9.078125 0 
L 9.078125 54.6875 
L 18.109375 54.6875 
L 18.109375 46.1875 
Q 21.34375 51.125 25.703125 53.5625 
Q 30.078125 56 35.796875 56 
Q 45.21875 56 50.046875 50.171875 
Q 54.890625 44.34375 54.890625 33.015625 
z
" id="DejaVuSans-110"/>
     <path d="M 45.40625 46.390625 
L 45.40625 75.984375 
L 54.390625 75.984375 
L 54.390625 0 
L 45.40625 0 
L 45.40625 8.203125 
Q 42.578125 3.328125 38.25 0.953125 
Q 33.9375 -1.421875 27.875 -1.421875 
Q 17.96875 -1.421875 11.734375 6.484375 
Q 5.515625 14.40625 5.515625 27.296875 
Q 5.515625 40.1875 11.734375 48.09375 
Q 17.96875 56 27.875 56 
Q 33.9375 56 38.25 53.625 
Q 42.578125 51.265625 45.40625 46.390625 
z
M 14.796875 27.296875 
Q 14.796875 17.390625 18.875 11.75 
Q 22.953125 6.109375 30.078125 6.109375 
Q 37.203125 6.109375 41.296875 11.75 
Q 45.40625 17.390625 45.40625 27.296875 
Q 45.40625 37.203125 41.296875 42.84375 
Q 37.203125 48.484375 30.078125 48.484375 
Q 22.953125 48.484375 18.875 42.84375 
Q 14.796875 37.203125 14.796875 27.296875 
z
" id="DejaVuSans-100"/>
     <path d="M 3.328125 72.90625 
L 13.28125 72.90625 
L 28.609375 11.28125 
L 43.890625 72.90625 
L 54.984375 72.90625 
L 70.3125 11.28125 
L 85.59375 72.90625 
L 95.609375 72.90625 
L 77.296875 0 
L 64.890625 0 
L 49.515625 63.28125 
L 33.984375 0 
L 21.578125 0 
z
" id="DejaVuSans-87"/>
     <path d="M 48.78125 52.59375 
L 48.78125 44.1875 
Q 44.96875 46.296875 41.140625 47.34375 
Q 37.3125 48.390625 33.40625 48.390625 
Q 24.65625 48.390625 19.8125 42.84375 
Q 14.984375 37.3125 14.984375 27.296875 
Q 14.984375 17.28125 19.8125 11.734375 
Q 24.65625 6.203125 33.40625 6.203125 
Q 37.3125 6.203125 41.140625 7.25 
Q 44.96875 8.296875 48.78125 10.40625 
L 48.78125 2.09375 
Q 45.015625 0.34375 40.984375 -0.53125 
Q 36.96875 -1.421875 32.421875 -1.421875 
Q 20.0625 -1.421875 12.78125 6.34375 
Q 5.515625 14.109375 5.515625 27.296875 
Q 5.515625 40.671875 12.859375 48.328125 
Q 20.21875 56 33.015625 56 
Q 37.15625 56 41.109375 55.140625 
Q 45.0625 54.296875 48.78125 52.59375 
z
" id="DejaVuSans-99"/>
     <path d="M 54.890625 33.015625 
L 54.890625 0 
L 45.90625 0 
L 45.90625 32.71875 
Q 45.90625 40.484375 42.875 44.328125 
Q 39.84375 48.1875 33.796875 48.1875 
Q 26.515625 48.1875 22.3125 43.546875 
Q 18.109375 38.921875 18.109375 30.90625 
L 18.109375 0 
L 9.078125 0 
L 9.078125 75.984375 
L 18.109375 75.984375 
L 18.109375 46.1875 
Q 21.34375 51.125 25.703125 53.5625 
Q 30.078125 56 35.796875 56 
Q 45.21875 56 50.046875 50.171875 
Q 54.890625 44.34375 54.890625 33.015625 
z
" id="DejaVuSans-104"/>
     <path d="M 17.921875 72.90625 
L 17.921875 45.796875 
L 9.625 45.796875 
L 9.625 72.90625 
z
" id="DejaVuSans-39"/>
     <path d="M 44.28125 53.078125 
L 44.28125 44.578125 
Q 40.484375 46.53125 36.375 47.5 
Q 32.28125 48.484375 27.875 48.484375 
Q 21.1875 48.484375 17.84375 46.4375 
Q 14.5 44.390625 14.5 40.28125 
Q 14.5 37.15625 16.890625 35.375 
Q 19.28125 33.59375 26.515625 31.984375 
L 29.59375 31.296875 
Q 39.15625 29.25 43.1875 25.515625 
Q 47.21875 21.78125 47.21875 15.09375 
Q 47.21875 7.46875 41.1875 3.015625 
Q 35.15625 -1.421875 24.609375 -1.421875 
Q 20.21875 -1.421875 15.453125 -0.5625 
Q 10.6875 0.296875 5.421875 2 
L 5.421875 11.28125 
Q 10.40625 8.6875 15.234375 7.390625 
Q 20.0625 6.109375 24.8125 6.109375 
Q 31.15625 6.109375 34.5625 8.28125 
Q 37.984375 10.453125 37.984375 14.40625 
Q 37.984375 18.0625 35.515625 20.015625 
Q 33.0625 21.96875 24.703125 23.78125 
L 21.578125 24.515625 
Q 13.234375 26.265625 9.515625 29.90625 
Q 5.8125 33.546875 5.8125 39.890625 
Q 5.8125 47.609375 11.28125 51.796875 
Q 16.75 56 26.8125 56 
Q 31.78125 56 36.171875 55.265625 
Q 40.578125 54.546875 44.28125 53.078125 
z
" id="DejaVuSans-115"/>
     <path d="M 18.3125 70.21875 
L 18.3125 54.6875 
L 36.8125 54.6875 
L 36.8125 47.703125 
L 18.3125 47.703125 
L 18.3125 18.015625 
Q 18.3125 11.328125 20.140625 9.421875 
Q 21.96875 7.515625 27.59375 7.515625 
L 36.8125 7.515625 
L 36.8125 0 
L 27.59375 0 
Q 17.1875 0 13.234375 3.875 
Q 9.28125 7.765625 9.28125 18.015625 
L 9.28125 47.703125 
L 2.6875 47.703125 
L 2.6875 54.6875 
L 9.28125 54.6875 
L 9.28125 70.21875 
z
" id="DejaVuSans-116"/>
    </defs>
    <g transform="translate(97.726477 18.14175)scale(0.144 -0.144)">
     <use xlink:href="#DejaVuSans-80"/>
     <use x="60.271484" xlink:href="#DejaVuSans-45"/>
     <use x="96.324219" xlink:href="#DejaVuSans-118"/>
     <use x="155.503906" xlink:href="#DejaVuSans-97"/>
     <use x="216.783203" xlink:href="#DejaVuSans-108"/>
     <use x="244.566406" xlink:href="#DejaVuSans-117"/>
     <use x="307.945312" xlink:href="#DejaVuSans-101"/>
     <use x="369.46875" xlink:href="#DejaVuSans-32"/>
     <use x="401.255859" xlink:href="#DejaVuSans-114"/>
     <use x="442.337891" xlink:href="#DejaVuSans-101"/>
     <use x="503.861328" xlink:href="#DejaVuSans-103"/>
     <use x="567.337891" xlink:href="#DejaVuSans-105"/>
     <use x="595.121094" xlink:href="#DejaVuSans-111"/>
     <use x="656.302734" xlink:href="#DejaVuSans-110"/>
     <use x="719.681641" xlink:href="#DejaVuSans-32"/>
     <use x="751.46875" xlink:href="#DejaVuSans-117"/>
     <use x="814.847656" xlink:href="#DejaVuSans-110"/>
     <use x="878.226562" xlink:href="#DejaVuSans-100"/>
     <use x="941.703125" xlink:href="#DejaVuSans-101"/>
     <use x="1003.226562" xlink:href="#DejaVuSans-114"/>
     <use x="1044.339844" xlink:href="#DejaVuSans-32"/>
     <use x="1076.126953" xlink:href="#DejaVuSans-87"/>
     <use x="1174.925781" xlink:href="#DejaVuSans-101"/>
     <use x="1236.449219" xlink:href="#DejaVuSans-108"/>
     <use x="1264.232422" xlink:href="#DejaVuSans-99"/>
     <use x="1319.212891" xlink:href="#DejaVuSans-104"/>
     <use x="1382.591797" xlink:href="#DejaVuSans-39"/>
     <use x="1410.082031" xlink:href="#DejaVuSans-115"/>
     <use x="1462.181641" xlink:href="#DejaVuSans-32"/>
     <use x="1493.96875" xlink:href="#DejaVuSans-116"/>
     <use x="1533.177734" xlink:href="#DejaVuSans-45"/>
     <use x="1569.261719" xlink:href="#DejaVuSans-116"/>
     <use x="1608.470703" xlink:href="#DejaVuSans-101"/>
     <use x="1669.994141" xlink:href="#DejaVuSans-115"/>
     <use x="1722.09375" xlink:href="#DejaVuSans-116"/>
     <use x="1761.302734" xlink:href="#DejaVuSans-32"/>
    </g>
    <!-- H$_0$: S5 and S6 ratings distributions are equal -->
    <defs>
     <path d="M 9.8125 72.90625 
L 19.671875 72.90625 
L 19.671875 43.015625 
L 55.515625 43.015625 
L 55.515625 72.90625 
L 65.375 72.90625 
L 65.375 0 
L 55.515625 0 
L 55.515625 34.71875 
L 19.671875 34.71875 
L 19.671875 0 
L 9.8125 0 
z
" id="DejaVuSans-72"/>
     <path d="M 11.71875 12.40625 
L 22.015625 12.40625 
L 22.015625 0 
L 11.71875 0 
z
M 11.71875 51.703125 
L 22.015625 51.703125 
L 22.015625 39.3125 
L 11.71875 39.3125 
z
" id="DejaVuSans-58"/>
     <path d="M 53.515625 70.515625 
L 53.515625 60.890625 
Q 47.90625 63.578125 42.921875 64.890625 
Q 37.9375 66.21875 33.296875 66.21875 
Q 25.25 66.21875 20.875 63.09375 
Q 16.5 59.96875 16.5 54.203125 
Q 16.5 49.359375 19.40625 46.890625 
Q 22.3125 44.4375 30.421875 42.921875 
L 36.375 41.703125 
Q 47.40625 39.59375 52.65625 34.296875 
Q 57.90625 29 57.90625 20.125 
Q 57.90625 9.515625 50.796875 4.046875 
Q 43.703125 -1.421875 29.984375 -1.421875 
Q 24.8125 -1.421875 18.96875 -0.25 
Q 13.140625 0.921875 6.890625 3.21875 
L 6.890625 13.375 
Q 12.890625 10.015625 18.65625 8.296875 
Q 24.421875 6.59375 29.984375 6.59375 
Q 38.421875 6.59375 43.015625 9.90625 
Q 47.609375 13.234375 47.609375 19.390625 
Q 47.609375 24.75 44.3125 27.78125 
Q 41.015625 30.8125 33.5 32.328125 
L 27.484375 33.5 
Q 16.453125 35.6875 11.515625 40.375 
Q 6.59375 45.0625 6.59375 53.421875 
Q 6.59375 63.09375 13.40625 68.65625 
Q 20.21875 74.21875 32.171875 74.21875 
Q 37.3125 74.21875 42.625 73.28125 
Q 47.953125 72.359375 53.515625 70.515625 
z
" id="DejaVuSans-83"/>
     <path d="M 33.015625 40.375 
Q 26.375 40.375 22.484375 35.828125 
Q 18.609375 31.296875 18.609375 23.390625 
Q 18.609375 15.53125 22.484375 10.953125 
Q 26.375 6.390625 33.015625 6.390625 
Q 39.65625 6.390625 43.53125 10.953125 
Q 47.40625 15.53125 47.40625 23.390625 
Q 47.40625 31.296875 43.53125 35.828125 
Q 39.65625 40.375 33.015625 40.375 
z
M 52.59375 71.296875 
L 52.59375 62.3125 
Q 48.875 64.0625 45.09375 64.984375 
Q 41.3125 65.921875 37.59375 65.921875 
Q 27.828125 65.921875 22.671875 59.328125 
Q 17.53125 52.734375 16.796875 39.40625 
Q 19.671875 43.65625 24.015625 45.921875 
Q 28.375 48.1875 33.59375 48.1875 
Q 44.578125 48.1875 50.953125 41.515625 
Q 57.328125 34.859375 57.328125 23.390625 
Q 57.328125 12.15625 50.6875 5.359375 
Q 44.046875 -1.421875 33.015625 -1.421875 
Q 20.359375 -1.421875 13.671875 8.265625 
Q 6.984375 17.96875 6.984375 36.375 
Q 6.984375 53.65625 15.1875 63.9375 
Q 23.390625 74.21875 37.203125 74.21875 
Q 40.921875 74.21875 44.703125 73.484375 
Q 48.484375 72.75 52.59375 71.296875 
z
" id="DejaVuSans-54"/>
     <path d="M 48.6875 27.296875 
Q 48.6875 37.203125 44.609375 42.84375 
Q 40.53125 48.484375 33.40625 48.484375 
Q 26.265625 48.484375 22.1875 42.84375 
Q 18.109375 37.203125 18.109375 27.296875 
Q 18.109375 17.390625 22.1875 11.75 
Q 26.265625 6.109375 33.40625 6.109375 
Q 40.53125 6.109375 44.609375 11.75 
Q 48.6875 17.390625 48.6875 27.296875 
z
M 18.109375 46.390625 
Q 20.953125 51.265625 25.265625 53.625 
Q 29.59375 56 35.59375 56 
Q 45.5625 56 51.78125 48.09375 
Q 58.015625 40.1875 58.015625 27.296875 
Q 58.015625 14.40625 51.78125 6.484375 
Q 45.5625 -1.421875 35.59375 -1.421875 
Q 29.59375 -1.421875 25.265625 0.953125 
Q 20.953125 3.328125 18.109375 8.203125 
L 18.109375 0 
L 9.078125 0 
L 9.078125 75.984375 
L 18.109375 75.984375 
z
" id="DejaVuSans-98"/>
     <path d="M 14.796875 27.296875 
Q 14.796875 17.390625 18.875 11.75 
Q 22.953125 6.109375 30.078125 6.109375 
Q 37.203125 6.109375 41.296875 11.75 
Q 45.40625 17.390625 45.40625 27.296875 
Q 45.40625 37.203125 41.296875 42.84375 
Q 37.203125 48.484375 30.078125 48.484375 
Q 22.953125 48.484375 18.875 42.84375 
Q 14.796875 37.203125 14.796875 27.296875 
z
M 45.40625 8.203125 
Q 42.578125 3.328125 38.25 0.953125 
Q 33.9375 -1.421875 27.875 -1.421875 
Q 17.96875 -1.421875 11.734375 6.484375 
Q 5.515625 14.40625 5.515625 27.296875 
Q 5.515625 40.1875 11.734375 48.09375 
Q 17.96875 56 27.875 56 
Q 33.9375 56 38.25 53.625 
Q 42.578125 51.265625 45.40625 46.390625 
L 45.40625 54.6875 
L 54.390625 54.6875 
L 54.390625 -20.796875 
L 45.40625 -20.796875 
z
" id="DejaVuSans-113"/>
    </defs>
    <g transform="translate(65.977852 34.2693)scale(0.144 -0.144)">
     <use transform="translate(0 0.015625)" xlink:href="#DejaVuSans-72"/>
     <use transform="translate(76.152344 -16.390625)scale(0.7)" xlink:href="#DejaVuSans-48"/>
     <use transform="translate(123.422852 0.015625)" xlink:href="#DejaVuSans-58"/>
     <use transform="translate(157.114258 0.015625)" xlink:href="#DejaVuSans-32"/>
     <use transform="translate(188.901367 0.015625)" xlink:href="#DejaVuSans-83"/>
     <use transform="translate(252.37793 0.015625)" xlink:href="#DejaVuSans-53"/>
     <use transform="translate(316.000977 0.015625)" xlink:href="#DejaVuSans-32"/>
     <use transform="translate(347.788086 0.015625)" xlink:href="#DejaVuSans-97"/>
     <use transform="translate(409.067383 0.015625)" xlink:href="#DejaVuSans-110"/>
     <use transform="translate(472.446289 0.015625)" xlink:href="#DejaVuSans-100"/>
     <use transform="translate(535.922852 0.015625)" xlink:href="#DejaVuSans-32"/>
     <use transform="translate(567.709961 0.015625)" xlink:href="#DejaVuSans-83"/>
     <use transform="translate(631.186523 0.015625)" xlink:href="#DejaVuSans-54"/>
     <use transform="translate(694.80957 0.015625)" xlink:href="#DejaVuSans-32"/>
     <use transform="translate(726.59668 0.015625)" xlink:href="#DejaVuSans-114"/>
     <use transform="translate(767.709961 0.015625)" xlink:href="#DejaVuSans-97"/>
     <use transform="translate(828.989258 0.015625)" xlink:href="#DejaVuSans-116"/>
     <use transform="translate(868.198242 0.015625)" xlink:href="#DejaVuSans-105"/>
     <use transform="translate(895.981445 0.015625)" xlink:href="#DejaVuSans-110"/>
     <use transform="translate(959.360352 0.015625)" xlink:href="#DejaVuSans-103"/>
     <use transform="translate(1022.836914 0.015625)" xlink:href="#DejaVuSans-115"/>
     <use transform="translate(1074.936523 0.015625)" xlink:href="#DejaVuSans-32"/>
     <use transform="translate(1106.723633 0.015625)" xlink:href="#DejaVuSans-100"/>
     <use transform="translate(1170.200195 0.015625)" xlink:href="#DejaVuSans-105"/>
     <use transform="translate(1197.983398 0.015625)" xlink:href="#DejaVuSans-115"/>
     <use transform="translate(1250.083008 0.015625)" xlink:href="#DejaVuSans-116"/>
     <use transform="translate(1289.291992 0.015625)" xlink:href="#DejaVuSans-114"/>
     <use transform="translate(1330.405273 0.015625)" xlink:href="#DejaVuSans-105"/>
     <use transform="translate(1358.188477 0.015625)" xlink:href="#DejaVuSans-98"/>
     <use transform="translate(1421.665039 0.015625)" xlink:href="#DejaVuSans-117"/>
     <use transform="translate(1485.043945 0.015625)" xlink:href="#DejaVuSans-116"/>
     <use transform="translate(1524.25293 0.015625)" xlink:href="#DejaVuSans-105"/>
     <use transform="translate(1552.036133 0.015625)" xlink:href="#DejaVuSans-111"/>
     <use transform="translate(1613.217773 0.015625)" xlink:href="#DejaVuSans-110"/>
     <use transform="translate(1676.59668 0.015625)" xlink:href="#DejaVuSans-115"/>
     <use transform="translate(1728.696289 0.015625)" xlink:href="#DejaVuSans-32"/>
     <use transform="translate(1760.483398 0.015625)" xlink:href="#DejaVuSans-97"/>
     <use transform="translate(1821.762695 0.015625)" xlink:href="#DejaVuSans-114"/>
     <use transform="translate(1862.875977 0.015625)" xlink:href="#DejaVuSans-101"/>
     <use transform="translate(1924.399414 0.015625)" xlink:href="#DejaVuSans-32"/>
     <use transform="translate(1956.186523 0.015625)" xlink:href="#DejaVuSans-101"/>
     <use transform="translate(2017.709961 0.015625)" xlink:href="#DejaVuSans-113"/>
     <use transform="translate(2081.186523 0.015625)" xlink:href="#DejaVuSans-117"/>
     <use transform="translate(2144.56543 0.015625)" xlink:href="#DejaVuSans-97"/>
     <use transform="translate(2205.844727 0.015625)" xlink:href="#DejaVuSans-108"/>
    </g>
   </g>
   <g id="legend_1">
    <g id="patch_7">
     <path d="M 406.18608 53.2693 
L 410.18608 53.2693 
Q 412.18608 53.2693 412.18608 51.2693 
L 412.18608 47.2693 
Q 412.18608 45.2693 410.18608 45.2693 
L 406.18608 45.2693 
Q 404.18608 45.2693 404.18608 47.2693 
L 404.18608 51.2693 
Q 404.18608 53.2693 406.18608 53.2693 
z
" style="fill:#e5e5e5;opacity:0.8;stroke:#cccccc;stroke-linejoin:miter;stroke-width:0.5;"/>
    </g>
   </g>
  </g>
 </g>
 <defs>
  <clipPath id="pbcca278240">
   <rect height="213.8" width="380.720455" x="36.465625" y="40.2693"/>
  </clipPath>
 </defs>
</svg>
