<?xml version="1.0" encoding="utf-8" standalone="no"?>
<!DOCTYPE svg PUBLIC "-//W3C//DTD SVG 1.1//EN"
  "http://www.w3.org/Graphics/SVG/1.1/DTD/svg11.dtd">
<!-- Created with matplotlib (https://matplotlib.org/) -->
<svg height="207.033625pt" version="1.1" viewBox="0 0 853.38875 207.033625" width="853.38875pt" xmlns="http://www.w3.org/2000/svg" xmlns:xlink="http://www.w3.org/1999/xlink">
 <defs>
  <style type="text/css">
*{stroke-linecap:butt;stroke-linejoin:round;}
  </style>
 </defs>
 <g id="figure_1">
  <g id="patch_1">
   <path d="M 0 207.033625 
L 853.38875 207.033625 
L 853.38875 0 
L 0 0 
z
" style="fill:#ffffff;"/>
  </g>
  <g id="axes_1">
   <g id="patch_2">
    <path d="M 42.53875 167.54175 
L 846.18875 167.54175 
L 846.18875 24.14175 
L 42.53875 24.14175 
z
" style="fill:#e5e5e5;"/>
   </g>
   <g id="matplotlib.axis_1">
    <g id="xtick_1">
     <g id="line2d_1">
      <path clip-path="url(#pbcf0641ac6)" d="M 45.740543 167.54175 
L 45.740543 24.14175 
" style="fill:none;stroke:#ffffff;stroke-linecap:square;stroke-width:0.8;"/>
     </g>
     <g id="line2d_2">
      <defs>
       <path d="M 0 0 
L 0 3.5 
" id="mef05acc32c" style="stroke:#555555;stroke-width:0.8;"/>
      </defs>
      <g>
       <use style="fill:#555555;stroke:#555555;stroke-width:0.8;" x="45.740543" xlink:href="#mef05acc32c" y="167.54175"/>
      </g>
     </g>
     <g id="text_1">
      <!-- 1 -->
      <defs>
       <path d="M 12.40625 8.296875 
L 28.515625 8.296875 
L 28.515625 63.921875 
L 10.984375 60.40625 
L 10.984375 69.390625 
L 28.421875 72.90625 
L 38.28125 72.90625 
L 38.28125 8.296875 
L 54.390625 8.296875 
L 54.390625 0 
L 12.40625 0 
z
" id="DejaVuSans-49"/>
      </defs>
      <g style="fill:#555555;" transform="translate(42.559293 182.140187)scale(0.1 -0.1)">
       <use xlink:href="#DejaVuSans-49"/>
      </g>
     </g>
    </g>
    <g id="xtick_2">
     <g id="line2d_3">
      <path clip-path="url(#pbcf0641ac6)" d="M 122.583571 167.54175 
L 122.583571 24.14175 
" style="fill:none;stroke:#ffffff;stroke-linecap:square;stroke-width:0.8;"/>
     </g>
     <g id="line2d_4">
      <g>
       <use style="fill:#555555;stroke:#555555;stroke-width:0.8;" x="122.583571" xlink:href="#mef05acc32c" y="167.54175"/>
      </g>
     </g>
     <g id="text_2">
      <!-- 2 -->
      <defs>
       <path d="M 19.1875 8.296875 
L 53.609375 8.296875 
L 53.609375 0 
L 7.328125 0 
L 7.328125 8.296875 
Q 12.9375 14.109375 22.625 23.890625 
Q 32.328125 33.6875 34.8125 36.53125 
Q 39.546875 41.84375 41.421875 45.53125 
Q 43.3125 49.21875 43.3125 52.78125 
Q 43.3125 58.59375 39.234375 62.25 
Q 35.15625 65.921875 28.609375 65.921875 
Q 23.96875 65.921875 18.8125 64.3125 
Q 13.671875 62.703125 7.8125 59.421875 
L 7.8125 69.390625 
Q 13.765625 71.78125 18.9375 73 
Q 24.125 74.21875 28.421875 74.21875 
Q 39.75 74.21875 46.484375 68.546875 
Q 53.21875 62.890625 53.21875 53.421875 
Q 53.21875 48.921875 51.53125 44.890625 
Q 49.859375 40.875 45.40625 35.40625 
Q 44.1875 33.984375 37.640625 27.21875 
Q 31.109375 20.453125 19.1875 8.296875 
z
" id="DejaVuSans-50"/>
      </defs>
      <g style="fill:#555555;" transform="translate(119.402321 182.140187)scale(0.1 -0.1)">
       <use xlink:href="#DejaVuSans-50"/>
      </g>
     </g>
    </g>
    <g id="xtick_3">
     <g id="line2d_5">
      <path clip-path="url(#pbcf0641ac6)" d="M 202.628391 167.54175 
L 202.628391 24.14175 
" style="fill:none;stroke:#ffffff;stroke-linecap:square;stroke-width:0.8;"/>
     </g>
     <g id="line2d_6">
      <g>
       <use style="fill:#555555;stroke:#555555;stroke-width:0.8;" x="202.628391" xlink:href="#mef05acc32c" y="167.54175"/>
      </g>
     </g>
     <g id="text_3">
      <!-- 3 -->
      <defs>
       <path d="M 40.578125 39.3125 
Q 47.65625 37.796875 51.625 33 
Q 55.609375 28.21875 55.609375 21.1875 
Q 55.609375 10.40625 48.1875 4.484375 
Q 40.765625 -1.421875 27.09375 -1.421875 
Q 22.515625 -1.421875 17.65625 -0.515625 
Q 12.796875 0.390625 7.625 2.203125 
L 7.625 11.71875 
Q 11.71875 9.328125 16.59375 8.109375 
Q 21.484375 6.890625 26.8125 6.890625 
Q 36.078125 6.890625 40.9375 10.546875 
Q 45.796875 14.203125 45.796875 21.1875 
Q 45.796875 27.640625 41.28125 31.265625 
Q 36.765625 34.90625 28.71875 34.90625 
L 20.21875 34.90625 
L 20.21875 43.015625 
L 29.109375 43.015625 
Q 36.375 43.015625 40.234375 45.921875 
Q 44.09375 48.828125 44.09375 54.296875 
Q 44.09375 59.90625 40.109375 62.90625 
Q 36.140625 65.921875 28.71875 65.921875 
Q 24.65625 65.921875 20.015625 65.03125 
Q 15.375 64.15625 9.8125 62.3125 
L 9.8125 71.09375 
Q 15.4375 72.65625 20.34375 73.4375 
Q 25.25 74.21875 29.59375 74.21875 
Q 40.828125 74.21875 47.359375 69.109375 
Q 53.90625 64.015625 53.90625 55.328125 
Q 53.90625 49.265625 50.4375 45.09375 
Q 46.96875 40.921875 40.578125 39.3125 
z
" id="DejaVuSans-51"/>
      </defs>
      <g style="fill:#555555;" transform="translate(199.447141 182.140187)scale(0.1 -0.1)">
       <use xlink:href="#DejaVuSans-51"/>
      </g>
     </g>
    </g>
    <g id="xtick_4">
     <g id="line2d_7">
      <path clip-path="url(#pbcf0641ac6)" d="M 279.471419 167.54175 
L 279.471419 24.14175 
" style="fill:none;stroke:#ffffff;stroke-linecap:square;stroke-width:0.8;"/>
     </g>
     <g id="line2d_8">
      <g>
       <use style="fill:#555555;stroke:#555555;stroke-width:0.8;" x="279.471419" xlink:href="#mef05acc32c" y="167.54175"/>
      </g>
     </g>
     <g id="text_4">
      <!-- 4 -->
      <defs>
       <path d="M 37.796875 64.3125 
L 12.890625 25.390625 
L 37.796875 25.390625 
z
M 35.203125 72.90625 
L 47.609375 72.90625 
L 47.609375 25.390625 
L 58.015625 25.390625 
L 58.015625 17.1875 
L 47.609375 17.1875 
L 47.609375 0 
L 37.796875 0 
L 37.796875 17.1875 
L 4.890625 17.1875 
L 4.890625 26.703125 
z
" id="DejaVuSans-52"/>
      </defs>
      <g style="fill:#555555;" transform="translate(276.290169 182.140187)scale(0.1 -0.1)">
       <use xlink:href="#DejaVuSans-52"/>
      </g>
     </g>
    </g>
    <g id="xtick_5">
     <g id="line2d_9">
      <path clip-path="url(#pbcf0641ac6)" d="M 356.314447 167.54175 
L 356.314447 24.14175 
" style="fill:none;stroke:#ffffff;stroke-linecap:square;stroke-width:0.8;"/>
     </g>
     <g id="line2d_10">
      <g>
       <use style="fill:#555555;stroke:#555555;stroke-width:0.8;" x="356.314447" xlink:href="#mef05acc32c" y="167.54175"/>
      </g>
     </g>
     <g id="text_5">
      <!-- 5 -->
      <defs>
       <path d="M 10.796875 72.90625 
L 49.515625 72.90625 
L 49.515625 64.59375 
L 19.828125 64.59375 
L 19.828125 46.734375 
Q 21.96875 47.46875 24.109375 47.828125 
Q 26.265625 48.1875 28.421875 48.1875 
Q 40.625 48.1875 47.75 41.5 
Q 54.890625 34.8125 54.890625 23.390625 
Q 54.890625 11.625 47.5625 5.09375 
Q 40.234375 -1.421875 26.90625 -1.421875 
Q 22.3125 -1.421875 17.546875 -0.640625 
Q 12.796875 0.140625 7.71875 1.703125 
L 7.71875 11.625 
Q 12.109375 9.234375 16.796875 8.0625 
Q 21.484375 6.890625 26.703125 6.890625 
Q 35.15625 6.890625 40.078125 11.328125 
Q 45.015625 15.765625 45.015625 23.390625 
Q 45.015625 31 40.078125 35.4375 
Q 35.15625 39.890625 26.703125 39.890625 
Q 22.75 39.890625 18.8125 39.015625 
Q 14.890625 38.140625 10.796875 36.28125 
z
" id="DejaVuSans-53"/>
      </defs>
      <g style="fill:#555555;" transform="translate(353.133197 182.140187)scale(0.1 -0.1)">
       <use xlink:href="#DejaVuSans-53"/>
      </g>
     </g>
    </g>
    <g id="xtick_6">
     <g id="line2d_11">
      <path clip-path="url(#pbcf0641ac6)" d="M 420.350304 167.54175 
L 420.350304 24.14175 
" style="fill:none;stroke:#ffffff;stroke-linecap:square;stroke-width:0.8;"/>
     </g>
     <g id="line2d_12">
      <g>
       <use style="fill:#555555;stroke:#555555;stroke-width:0.8;" x="420.350304" xlink:href="#mef05acc32c" y="167.54175"/>
      </g>
     </g>
     <g id="text_6">
      <!-- 6 -->
      <defs>
       <path d="M 33.015625 40.375 
Q 26.375 40.375 22.484375 35.828125 
Q 18.609375 31.296875 18.609375 23.390625 
Q 18.609375 15.53125 22.484375 10.953125 
Q 26.375 6.390625 33.015625 6.390625 
Q 39.65625 6.390625 43.53125 10.953125 
Q 47.40625 15.53125 47.40625 23.390625 
Q 47.40625 31.296875 43.53125 35.828125 
Q 39.65625 40.375 33.015625 40.375 
z
M 52.59375 71.296875 
L 52.59375 62.3125 
Q 48.875 64.0625 45.09375 64.984375 
Q 41.3125 65.921875 37.59375 65.921875 
Q 27.828125 65.921875 22.671875 59.328125 
Q 17.53125 52.734375 16.796875 39.40625 
Q 19.671875 43.65625 24.015625 45.921875 
Q 28.375 48.1875 33.59375 48.1875 
Q 44.578125 48.1875 50.953125 41.515625 
Q 57.328125 34.859375 57.328125 23.390625 
Q 57.328125 12.15625 50.6875 5.359375 
Q 44.046875 -1.421875 33.015625 -1.421875 
Q 20.359375 -1.421875 13.671875 8.265625 
Q 6.984375 17.96875 6.984375 36.375 
Q 6.984375 53.65625 15.1875 63.9375 
Q 23.390625 74.21875 37.203125 74.21875 
Q 40.921875 74.21875 44.703125 73.484375 
Q 48.484375 72.75 52.59375 71.296875 
z
" id="DejaVuSans-54"/>
      </defs>
      <g style="fill:#555555;" transform="translate(417.169054 182.140187)scale(0.1 -0.1)">
       <use xlink:href="#DejaVuSans-54"/>
      </g>
     </g>
    </g>
    <g id="xtick_7">
     <g id="line2d_13">
      <path clip-path="url(#pbcf0641ac6)" d="M 490.789746 167.54175 
L 490.789746 24.14175 
" style="fill:none;stroke:#ffffff;stroke-linecap:square;stroke-width:0.8;"/>
     </g>
     <g id="line2d_14">
      <g>
       <use style="fill:#555555;stroke:#555555;stroke-width:0.8;" x="490.789746" xlink:href="#mef05acc32c" y="167.54175"/>
      </g>
     </g>
     <g id="text_7">
      <!-- 7 -->
      <defs>
       <path d="M 8.203125 72.90625 
L 55.078125 72.90625 
L 55.078125 68.703125 
L 28.609375 0 
L 18.3125 0 
L 43.21875 64.59375 
L 8.203125 64.59375 
z
" id="DejaVuSans-55"/>
      </defs>
      <g style="fill:#555555;" transform="translate(487.608496 182.140187)scale(0.1 -0.1)">
       <use xlink:href="#DejaVuSans-55"/>
      </g>
     </g>
    </g>
    <g id="xtick_8">
     <g id="line2d_15">
      <path clip-path="url(#pbcf0641ac6)" d="M 561.229188 167.54175 
L 561.229188 24.14175 
" style="fill:none;stroke:#ffffff;stroke-linecap:square;stroke-width:0.8;"/>
     </g>
     <g id="line2d_16">
      <g>
       <use style="fill:#555555;stroke:#555555;stroke-width:0.8;" x="561.229188" xlink:href="#mef05acc32c" y="167.54175"/>
      </g>
     </g>
     <g id="text_8">
      <!-- 8 -->
      <defs>
       <path d="M 31.78125 34.625 
Q 24.75 34.625 20.71875 30.859375 
Q 16.703125 27.09375 16.703125 20.515625 
Q 16.703125 13.921875 20.71875 10.15625 
Q 24.75 6.390625 31.78125 6.390625 
Q 38.8125 6.390625 42.859375 10.171875 
Q 46.921875 13.96875 46.921875 20.515625 
Q 46.921875 27.09375 42.890625 30.859375 
Q 38.875 34.625 31.78125 34.625 
z
M 21.921875 38.8125 
Q 15.578125 40.375 12.03125 44.71875 
Q 8.5 49.078125 8.5 55.328125 
Q 8.5 64.0625 14.71875 69.140625 
Q 20.953125 74.21875 31.78125 74.21875 
Q 42.671875 74.21875 48.875 69.140625 
Q 55.078125 64.0625 55.078125 55.328125 
Q 55.078125 49.078125 51.53125 44.71875 
Q 48 40.375 41.703125 38.8125 
Q 48.828125 37.15625 52.796875 32.3125 
Q 56.78125 27.484375 56.78125 20.515625 
Q 56.78125 9.90625 50.3125 4.234375 
Q 43.84375 -1.421875 31.78125 -1.421875 
Q 19.734375 -1.421875 13.25 4.234375 
Q 6.78125 9.90625 6.78125 20.515625 
Q 6.78125 27.484375 10.78125 32.3125 
Q 14.796875 37.15625 21.921875 38.8125 
z
M 18.3125 54.390625 
Q 18.3125 48.734375 21.84375 45.5625 
Q 25.390625 42.390625 31.78125 42.390625 
Q 38.140625 42.390625 41.71875 45.5625 
Q 45.3125 48.734375 45.3125 54.390625 
Q 45.3125 60.0625 41.71875 63.234375 
Q 38.140625 66.40625 31.78125 66.40625 
Q 25.390625 66.40625 21.84375 63.234375 
Q 18.3125 60.0625 18.3125 54.390625 
z
" id="DejaVuSans-56"/>
      </defs>
      <g style="fill:#555555;" transform="translate(558.047938 182.140187)scale(0.1 -0.1)">
       <use xlink:href="#DejaVuSans-56"/>
      </g>
     </g>
    </g>
    <g id="xtick_9">
     <g id="line2d_17">
      <path clip-path="url(#pbcf0641ac6)" d="M 628.466838 167.54175 
L 628.466838 24.14175 
" style="fill:none;stroke:#ffffff;stroke-linecap:square;stroke-width:0.8;"/>
     </g>
     <g id="line2d_18">
      <g>
       <use style="fill:#555555;stroke:#555555;stroke-width:0.8;" x="628.466838" xlink:href="#mef05acc32c" y="167.54175"/>
      </g>
     </g>
     <g id="text_9">
      <!-- 9 -->
      <defs>
       <path d="M 10.984375 1.515625 
L 10.984375 10.5 
Q 14.703125 8.734375 18.5 7.8125 
Q 22.3125 6.890625 25.984375 6.890625 
Q 35.75 6.890625 40.890625 13.453125 
Q 46.046875 20.015625 46.78125 33.40625 
Q 43.953125 29.203125 39.59375 26.953125 
Q 35.25 24.703125 29.984375 24.703125 
Q 19.046875 24.703125 12.671875 31.3125 
Q 6.296875 37.9375 6.296875 49.421875 
Q 6.296875 60.640625 12.9375 67.421875 
Q 19.578125 74.21875 30.609375 74.21875 
Q 43.265625 74.21875 49.921875 64.515625 
Q 56.59375 54.828125 56.59375 36.375 
Q 56.59375 19.140625 48.40625 8.859375 
Q 40.234375 -1.421875 26.421875 -1.421875 
Q 22.703125 -1.421875 18.890625 -0.6875 
Q 15.09375 0.046875 10.984375 1.515625 
z
M 30.609375 32.421875 
Q 37.25 32.421875 41.125 36.953125 
Q 45.015625 41.5 45.015625 49.421875 
Q 45.015625 57.28125 41.125 61.84375 
Q 37.25 66.40625 30.609375 66.40625 
Q 23.96875 66.40625 20.09375 61.84375 
Q 16.21875 57.28125 16.21875 49.421875 
Q 16.21875 41.5 20.09375 36.953125 
Q 23.96875 32.421875 30.609375 32.421875 
z
" id="DejaVuSans-57"/>
      </defs>
      <g style="fill:#555555;" transform="translate(625.285588 182.140187)scale(0.1 -0.1)">
       <use xlink:href="#DejaVuSans-57"/>
      </g>
     </g>
    </g>
    <g id="xtick_10">
     <g id="line2d_19">
      <path clip-path="url(#pbcf0641ac6)" d="M 692.502694 167.54175 
L 692.502694 24.14175 
" style="fill:none;stroke:#ffffff;stroke-linecap:square;stroke-width:0.8;"/>
     </g>
     <g id="line2d_20">
      <g>
       <use style="fill:#555555;stroke:#555555;stroke-width:0.8;" x="692.502694" xlink:href="#mef05acc32c" y="167.54175"/>
      </g>
     </g>
     <g id="text_10">
      <!-- 10 -->
      <defs>
       <path d="M 31.78125 66.40625 
Q 24.171875 66.40625 20.328125 58.90625 
Q 16.5 51.421875 16.5 36.375 
Q 16.5 21.390625 20.328125 13.890625 
Q 24.171875 6.390625 31.78125 6.390625 
Q 39.453125 6.390625 43.28125 13.890625 
Q 47.125 21.390625 47.125 36.375 
Q 47.125 51.421875 43.28125 58.90625 
Q 39.453125 66.40625 31.78125 66.40625 
z
M 31.78125 74.21875 
Q 44.046875 74.21875 50.515625 64.515625 
Q 56.984375 54.828125 56.984375 36.375 
Q 56.984375 17.96875 50.515625 8.265625 
Q 44.046875 -1.421875 31.78125 -1.421875 
Q 19.53125 -1.421875 13.0625 8.265625 
Q 6.59375 17.96875 6.59375 36.375 
Q 6.59375 54.828125 13.0625 64.515625 
Q 19.53125 74.21875 31.78125 74.21875 
z
" id="DejaVuSans-48"/>
      </defs>
      <g style="fill:#555555;" transform="translate(686.140194 182.140187)scale(0.1 -0.1)">
       <use xlink:href="#DejaVuSans-49"/>
       <use x="63.623047" xlink:href="#DejaVuSans-48"/>
      </g>
     </g>
    </g>
    <g id="xtick_11">
     <g id="line2d_21">
      <path clip-path="url(#pbcf0641ac6)" d="M 711.713451 167.54175 
L 711.713451 24.14175 
" style="fill:none;stroke:#ffffff;stroke-linecap:square;stroke-width:0.8;"/>
     </g>
     <g id="line2d_22">
      <g>
       <use style="fill:#555555;stroke:#555555;stroke-width:0.8;" x="711.713451" xlink:href="#mef05acc32c" y="167.54175"/>
      </g>
     </g>
     <g id="text_11">
      <!-- 11 -->
      <g style="fill:#555555;" transform="translate(705.350951 182.140187)scale(0.1 -0.1)">
       <use xlink:href="#DejaVuSans-49"/>
       <use x="63.623047" xlink:href="#DejaVuSans-49"/>
      </g>
     </g>
    </g>
    <g id="xtick_12">
     <g id="line2d_23">
      <path clip-path="url(#pbcf0641ac6)" d="M 740.529587 167.54175 
L 740.529587 24.14175 
" style="fill:none;stroke:#ffffff;stroke-linecap:square;stroke-width:0.8;"/>
     </g>
     <g id="line2d_24">
      <g>
       <use style="fill:#555555;stroke:#555555;stroke-width:0.8;" x="740.529587" xlink:href="#mef05acc32c" y="167.54175"/>
      </g>
     </g>
     <g id="text_12">
      <!-- 12? -->
      <defs>
       <path d="M 19.09375 12.40625 
L 29 12.40625 
L 29 0 
L 19.09375 0 
z
M 28.71875 19.578125 
L 19.390625 19.578125 
L 19.390625 27.09375 
Q 19.390625 32.03125 20.75 35.203125 
Q 22.125 38.375 26.515625 42.578125 
L 30.90625 46.921875 
Q 33.6875 49.515625 34.9375 51.8125 
Q 36.1875 54.109375 36.1875 56.5 
Q 36.1875 60.84375 32.984375 63.53125 
Q 29.78125 66.21875 24.515625 66.21875 
Q 20.65625 66.21875 16.28125 64.5 
Q 11.921875 62.796875 7.171875 59.515625 
L 7.171875 68.703125 
Q 11.765625 71.484375 16.46875 72.84375 
Q 21.1875 74.21875 26.21875 74.21875 
Q 35.203125 74.21875 40.640625 69.484375 
Q 46.09375 64.75 46.09375 56.984375 
Q 46.09375 53.265625 44.328125 49.921875 
Q 42.578125 46.578125 38.1875 42.390625 
L 33.890625 38.1875 
Q 31.59375 35.890625 30.640625 34.59375 
Q 29.6875 33.296875 29.296875 32.078125 
Q 29 31.0625 28.859375 29.59375 
Q 28.71875 28.125 28.71875 25.59375 
z
" id="DejaVuSans-63"/>
      </defs>
      <g style="fill:#555555;" transform="translate(731.51318 182.140187)scale(0.1 -0.1)">
       <use xlink:href="#DejaVuSans-49"/>
       <use x="63.623047" xlink:href="#DejaVuSans-50"/>
       <use x="127.246094" xlink:href="#DejaVuSans-63"/>
      </g>
     </g>
    </g>
    <g id="text_13">
     <!-- Season -->
     <defs>
      <path d="M 53.515625 70.515625 
L 53.515625 60.890625 
Q 47.90625 63.578125 42.921875 64.890625 
Q 37.9375 66.21875 33.296875 66.21875 
Q 25.25 66.21875 20.875 63.09375 
Q 16.5 59.96875 16.5 54.203125 
Q 16.5 49.359375 19.40625 46.890625 
Q 22.3125 44.4375 30.421875 42.921875 
L 36.375 41.703125 
Q 47.40625 39.59375 52.65625 34.296875 
Q 57.90625 29 57.90625 20.125 
Q 57.90625 9.515625 50.796875 4.046875 
Q 43.703125 -1.421875 29.984375 -1.421875 
Q 24.8125 -1.421875 18.96875 -0.25 
Q 13.140625 0.921875 6.890625 3.21875 
L 6.890625 13.375 
Q 12.890625 10.015625 18.65625 8.296875 
Q 24.421875 6.59375 29.984375 6.59375 
Q 38.421875 6.59375 43.015625 9.90625 
Q 47.609375 13.234375 47.609375 19.390625 
Q 47.609375 24.75 44.3125 27.78125 
Q 41.015625 30.8125 33.5 32.328125 
L 27.484375 33.5 
Q 16.453125 35.6875 11.515625 40.375 
Q 6.59375 45.0625 6.59375 53.421875 
Q 6.59375 63.09375 13.40625 68.65625 
Q 20.21875 74.21875 32.171875 74.21875 
Q 37.3125 74.21875 42.625 73.28125 
Q 47.953125 72.359375 53.515625 70.515625 
z
" id="DejaVuSans-83"/>
      <path d="M 56.203125 29.59375 
L 56.203125 25.203125 
L 14.890625 25.203125 
Q 15.484375 15.921875 20.484375 11.0625 
Q 25.484375 6.203125 34.421875 6.203125 
Q 39.59375 6.203125 44.453125 7.46875 
Q 49.3125 8.734375 54.109375 11.28125 
L 54.109375 2.78125 
Q 49.265625 0.734375 44.1875 -0.34375 
Q 39.109375 -1.421875 33.890625 -1.421875 
Q 20.796875 -1.421875 13.15625 6.1875 
Q 5.515625 13.8125 5.515625 26.8125 
Q 5.515625 40.234375 12.765625 48.109375 
Q 20.015625 56 32.328125 56 
Q 43.359375 56 49.78125 48.890625 
Q 56.203125 41.796875 56.203125 29.59375 
z
M 47.21875 32.234375 
Q 47.125 39.59375 43.09375 43.984375 
Q 39.0625 48.390625 32.421875 48.390625 
Q 24.90625 48.390625 20.390625 44.140625 
Q 15.875 39.890625 15.1875 32.171875 
z
" id="DejaVuSans-101"/>
      <path d="M 34.28125 27.484375 
Q 23.390625 27.484375 19.1875 25 
Q 14.984375 22.515625 14.984375 16.5 
Q 14.984375 11.71875 18.140625 8.90625 
Q 21.296875 6.109375 26.703125 6.109375 
Q 34.1875 6.109375 38.703125 11.40625 
Q 43.21875 16.703125 43.21875 25.484375 
L 43.21875 27.484375 
z
M 52.203125 31.203125 
L 52.203125 0 
L 43.21875 0 
L 43.21875 8.296875 
Q 40.140625 3.328125 35.546875 0.953125 
Q 30.953125 -1.421875 24.3125 -1.421875 
Q 15.921875 -1.421875 10.953125 3.296875 
Q 6 8.015625 6 15.921875 
Q 6 25.140625 12.171875 29.828125 
Q 18.359375 34.515625 30.609375 34.515625 
L 43.21875 34.515625 
L 43.21875 35.40625 
Q 43.21875 41.609375 39.140625 45 
Q 35.0625 48.390625 27.6875 48.390625 
Q 23 48.390625 18.546875 47.265625 
Q 14.109375 46.140625 10.015625 43.890625 
L 10.015625 52.203125 
Q 14.9375 54.109375 19.578125 55.046875 
Q 24.21875 56 28.609375 56 
Q 40.484375 56 46.34375 49.84375 
Q 52.203125 43.703125 52.203125 31.203125 
z
" id="DejaVuSans-97"/>
      <path d="M 44.28125 53.078125 
L 44.28125 44.578125 
Q 40.484375 46.53125 36.375 47.5 
Q 32.28125 48.484375 27.875 48.484375 
Q 21.1875 48.484375 17.84375 46.4375 
Q 14.5 44.390625 14.5 40.28125 
Q 14.5 37.15625 16.890625 35.375 
Q 19.28125 33.59375 26.515625 31.984375 
L 29.59375 31.296875 
Q 39.15625 29.25 43.1875 25.515625 
Q 47.21875 21.78125 47.21875 15.09375 
Q 47.21875 7.46875 41.1875 3.015625 
Q 35.15625 -1.421875 24.609375 -1.421875 
Q 20.21875 -1.421875 15.453125 -0.5625 
Q 10.6875 0.296875 5.421875 2 
L 5.421875 11.28125 
Q 10.40625 8.6875 15.234375 7.390625 
Q 20.0625 6.109375 24.8125 6.109375 
Q 31.15625 6.109375 34.5625 8.28125 
Q 37.984375 10.453125 37.984375 14.40625 
Q 37.984375 18.0625 35.515625 20.015625 
Q 33.0625 21.96875 24.703125 23.78125 
L 21.578125 24.515625 
Q 13.234375 26.265625 9.515625 29.90625 
Q 5.8125 33.546875 5.8125 39.890625 
Q 5.8125 47.609375 11.28125 51.796875 
Q 16.75 56 26.8125 56 
Q 31.78125 56 36.171875 55.265625 
Q 40.578125 54.546875 44.28125 53.078125 
z
" id="DejaVuSans-115"/>
      <path d="M 30.609375 48.390625 
Q 23.390625 48.390625 19.1875 42.75 
Q 14.984375 37.109375 14.984375 27.296875 
Q 14.984375 17.484375 19.15625 11.84375 
Q 23.34375 6.203125 30.609375 6.203125 
Q 37.796875 6.203125 41.984375 11.859375 
Q 46.1875 17.53125 46.1875 27.296875 
Q 46.1875 37.015625 41.984375 42.703125 
Q 37.796875 48.390625 30.609375 48.390625 
z
M 30.609375 56 
Q 42.328125 56 49.015625 48.375 
Q 55.71875 40.765625 55.71875 27.296875 
Q 55.71875 13.875 49.015625 6.21875 
Q 42.328125 -1.421875 30.609375 -1.421875 
Q 18.84375 -1.421875 12.171875 6.21875 
Q 5.515625 13.875 5.515625 27.296875 
Q 5.515625 40.765625 12.171875 48.375 
Q 18.84375 56 30.609375 56 
z
" id="DejaVuSans-111"/>
      <path d="M 54.890625 33.015625 
L 54.890625 0 
L 45.90625 0 
L 45.90625 32.71875 
Q 45.90625 40.484375 42.875 44.328125 
Q 39.84375 48.1875 33.796875 48.1875 
Q 26.515625 48.1875 22.3125 43.546875 
Q 18.109375 38.921875 18.109375 30.90625 
L 18.109375 0 
L 9.078125 0 
L 9.078125 54.6875 
L 18.109375 54.6875 
L 18.109375 46.1875 
Q 21.34375 51.125 25.703125 53.5625 
Q 30.078125 56 35.796875 56 
Q 45.21875 56 50.046875 50.171875 
Q 54.890625 44.34375 54.890625 33.015625 
z
" id="DejaVuSans-110"/>
     </defs>
     <g style="fill:#555555;" transform="translate(422.586562 197.338)scale(0.12 -0.12)">
      <use xlink:href="#DejaVuSans-83"/>
      <use x="63.476562" xlink:href="#DejaVuSans-101"/>
      <use x="125" xlink:href="#DejaVuSans-97"/>
      <use x="186.279297" xlink:href="#DejaVuSans-115"/>
      <use x="238.378906" xlink:href="#DejaVuSans-111"/>
      <use x="299.560547" xlink:href="#DejaVuSans-110"/>
     </g>
    </g>
   </g>
   <g id="matplotlib.axis_2">
    <g id="ytick_1">
     <g id="line2d_25">
      <path clip-path="url(#pbcf0641ac6)" d="M 42.53875 138.446398 
L 846.18875 138.446398 
" style="fill:none;stroke:#ffffff;stroke-linecap:square;stroke-width:0.8;"/>
     </g>
     <g id="line2d_26">
      <defs>
       <path d="M 0 0 
L -3.5 0 
" id="mba0a4aaef4" style="stroke:#555555;stroke-width:0.8;"/>
      </defs>
      <g>
       <use style="fill:#555555;stroke:#555555;stroke-width:0.8;" x="42.53875" xlink:href="#mba0a4aaef4" y="138.446398"/>
      </g>
     </g>
     <g id="text_14">
      <!-- 0 -->
      <g style="fill:#555555;" transform="translate(29.17625 142.245617)scale(0.1 -0.1)">
       <use xlink:href="#DejaVuSans-48"/>
      </g>
     </g>
    </g>
    <g id="ytick_2">
     <g id="line2d_27">
      <path clip-path="url(#pbcf0641ac6)" d="M 42.53875 101.469909 
L 846.18875 101.469909 
" style="fill:none;stroke:#ffffff;stroke-linecap:square;stroke-width:0.8;"/>
     </g>
     <g id="line2d_28">
      <g>
       <use style="fill:#555555;stroke:#555555;stroke-width:0.8;" x="42.53875" xlink:href="#mba0a4aaef4" y="101.469909"/>
      </g>
     </g>
     <g id="text_15">
      <!-- 10 -->
      <g style="fill:#555555;" transform="translate(22.81375 105.269128)scale(0.1 -0.1)">
       <use xlink:href="#DejaVuSans-49"/>
       <use x="63.623047" xlink:href="#DejaVuSans-48"/>
      </g>
     </g>
    </g>
    <g id="ytick_3">
     <g id="line2d_29">
      <path clip-path="url(#pbcf0641ac6)" d="M 42.53875 64.49342 
L 846.18875 64.49342 
" style="fill:none;stroke:#ffffff;stroke-linecap:square;stroke-width:0.8;"/>
     </g>
     <g id="line2d_30">
      <g>
       <use style="fill:#555555;stroke:#555555;stroke-width:0.8;" x="42.53875" xlink:href="#mba0a4aaef4" y="64.49342"/>
      </g>
     </g>
     <g id="text_16">
      <!-- 20 -->
      <g style="fill:#555555;" transform="translate(22.81375 68.292638)scale(0.1 -0.1)">
       <use xlink:href="#DejaVuSans-50"/>
       <use x="63.623047" xlink:href="#DejaVuSans-48"/>
      </g>
     </g>
    </g>
    <g id="ytick_4">
     <g id="line2d_31">
      <path clip-path="url(#pbcf0641ac6)" d="M 42.53875 27.51693 
L 846.18875 27.51693 
" style="fill:none;stroke:#ffffff;stroke-linecap:square;stroke-width:0.8;"/>
     </g>
     <g id="line2d_32">
      <g>
       <use style="fill:#555555;stroke:#555555;stroke-width:0.8;" x="42.53875" xlink:href="#mba0a4aaef4" y="27.51693"/>
      </g>
     </g>
     <g id="text_17">
      <!-- 30 -->
      <g style="fill:#555555;" transform="translate(22.81375 31.316149)scale(0.1 -0.1)">
       <use xlink:href="#DejaVuSans-51"/>
       <use x="63.623047" xlink:href="#DejaVuSans-48"/>
      </g>
     </g>
    </g>
    <g id="text_18">
     <!-- Viewers (millions) -->
     <defs>
      <path d="M 28.609375 0 
L 0.78125 72.90625 
L 11.078125 72.90625 
L 34.1875 11.53125 
L 57.328125 72.90625 
L 67.578125 72.90625 
L 39.796875 0 
z
" id="DejaVuSans-86"/>
      <path d="M 9.421875 54.6875 
L 18.40625 54.6875 
L 18.40625 0 
L 9.421875 0 
z
M 9.421875 75.984375 
L 18.40625 75.984375 
L 18.40625 64.59375 
L 9.421875 64.59375 
z
" id="DejaVuSans-105"/>
      <path d="M 4.203125 54.6875 
L 13.1875 54.6875 
L 24.421875 12.015625 
L 35.59375 54.6875 
L 46.1875 54.6875 
L 57.421875 12.015625 
L 68.609375 54.6875 
L 77.59375 54.6875 
L 63.28125 0 
L 52.6875 0 
L 40.921875 44.828125 
L 29.109375 0 
L 18.5 0 
z
" id="DejaVuSans-119"/>
      <path d="M 41.109375 46.296875 
Q 39.59375 47.171875 37.8125 47.578125 
Q 36.03125 48 33.890625 48 
Q 26.265625 48 22.1875 43.046875 
Q 18.109375 38.09375 18.109375 28.8125 
L 18.109375 0 
L 9.078125 0 
L 9.078125 54.6875 
L 18.109375 54.6875 
L 18.109375 46.1875 
Q 20.953125 51.171875 25.484375 53.578125 
Q 30.03125 56 36.53125 56 
Q 37.453125 56 38.578125 55.875 
Q 39.703125 55.765625 41.0625 55.515625 
z
" id="DejaVuSans-114"/>
      <path id="DejaVuSans-32"/>
      <path d="M 31 75.875 
Q 24.46875 64.65625 21.28125 53.65625 
Q 18.109375 42.671875 18.109375 31.390625 
Q 18.109375 20.125 21.3125 9.0625 
Q 24.515625 -2 31 -13.1875 
L 23.1875 -13.1875 
Q 15.875 -1.703125 12.234375 9.375 
Q 8.59375 20.453125 8.59375 31.390625 
Q 8.59375 42.28125 12.203125 53.3125 
Q 15.828125 64.359375 23.1875 75.875 
z
" id="DejaVuSans-40"/>
      <path d="M 52 44.1875 
Q 55.375 50.25 60.0625 53.125 
Q 64.75 56 71.09375 56 
Q 79.640625 56 84.28125 50.015625 
Q 88.921875 44.046875 88.921875 33.015625 
L 88.921875 0 
L 79.890625 0 
L 79.890625 32.71875 
Q 79.890625 40.578125 77.09375 44.375 
Q 74.3125 48.1875 68.609375 48.1875 
Q 61.625 48.1875 57.5625 43.546875 
Q 53.515625 38.921875 53.515625 30.90625 
L 53.515625 0 
L 44.484375 0 
L 44.484375 32.71875 
Q 44.484375 40.625 41.703125 44.40625 
Q 38.921875 48.1875 33.109375 48.1875 
Q 26.21875 48.1875 22.15625 43.53125 
Q 18.109375 38.875 18.109375 30.90625 
L 18.109375 0 
L 9.078125 0 
L 9.078125 54.6875 
L 18.109375 54.6875 
L 18.109375 46.1875 
Q 21.1875 51.21875 25.484375 53.609375 
Q 29.78125 56 35.6875 56 
Q 41.65625 56 45.828125 52.96875 
Q 50 49.953125 52 44.1875 
z
" id="DejaVuSans-109"/>
      <path d="M 9.421875 75.984375 
L 18.40625 75.984375 
L 18.40625 0 
L 9.421875 0 
z
" id="DejaVuSans-108"/>
      <path d="M 8.015625 75.875 
L 15.828125 75.875 
Q 23.140625 64.359375 26.78125 53.3125 
Q 30.421875 42.28125 30.421875 31.390625 
Q 30.421875 20.453125 26.78125 9.375 
Q 23.140625 -1.703125 15.828125 -13.1875 
L 8.015625 -13.1875 
Q 14.5 -2 17.703125 9.0625 
Q 20.90625 20.125 20.90625 31.390625 
Q 20.90625 42.671875 17.703125 53.65625 
Q 14.5 64.65625 8.015625 75.875 
z
" id="DejaVuSans-41"/>
     </defs>
     <g style="fill:#555555;" transform="translate(16.318125 149.193938)rotate(-90)scale(0.12 -0.12)">
      <use xlink:href="#DejaVuSans-86"/>
      <use x="68.376953" xlink:href="#DejaVuSans-105"/>
      <use x="96.160156" xlink:href="#DejaVuSans-101"/>
      <use x="157.683594" xlink:href="#DejaVuSans-119"/>
      <use x="239.470703" xlink:href="#DejaVuSans-101"/>
      <use x="300.994141" xlink:href="#DejaVuSans-114"/>
      <use x="342.107422" xlink:href="#DejaVuSans-115"/>
      <use x="394.207031" xlink:href="#DejaVuSans-32"/>
      <use x="425.994141" xlink:href="#DejaVuSans-40"/>
      <use x="465.007812" xlink:href="#DejaVuSans-109"/>
      <use x="562.419922" xlink:href="#DejaVuSans-105"/>
      <use x="590.203125" xlink:href="#DejaVuSans-108"/>
      <use x="617.986328" xlink:href="#DejaVuSans-108"/>
      <use x="645.769531" xlink:href="#DejaVuSans-105"/>
      <use x="673.552734" xlink:href="#DejaVuSans-111"/>
      <use x="734.734375" xlink:href="#DejaVuSans-110"/>
      <use x="798.113281" xlink:href="#DejaVuSans-115"/>
      <use x="850.212891" xlink:href="#DejaVuSans-41"/>
     </g>
    </g>
   </g>
   <g id="PolyCollection_1">
    <defs>
     <path d="M 743.731379 -95.253064 
L 743.731379 -68.355137 
L 746.933172 -66.062719 
L 750.134965 -64.576309 
L 753.336758 -63.76056 
L 756.538551 -62.970256 
L 759.740344 -62.202778 
L 762.942136 -61.455929 
L 766.143929 -60.727841 
L 769.345722 -60.016914 
L 772.547515 -59.321763 
L 775.749308 -58.64118 
L 778.951101 -57.974101 
L 782.152893 -57.31959 
L 785.354686 -56.676811 
L 788.556479 -56.045018 
L 791.758272 -55.423541 
L 794.960065 -54.811775 
L 798.161858 -54.209172 
L 801.36365 -53.615234 
L 804.565443 -53.029506 
L 807.767236 -52.451573 
L 810.969029 -51.881051 
L 814.170822 -51.317589 
L 817.372615 -50.760861 
L 820.574407 -50.210568 
L 823.7762 -49.66643 
L 826.977993 -49.128188 
L 830.179786 -48.5956 
L 833.381579 -48.06844 
L 836.583372 -47.546497 
L 839.785164 -47.029574 
L 842.986957 -46.517486 
L 846.18875 -46.010057 
L 846.18875 -110.499464 
L 846.18875 -110.499464 
L 842.986957 -110.240929 
L 839.785164 -109.977735 
L 836.583372 -109.709705 
L 833.381579 -109.436657 
L 830.179786 -109.15839 
L 826.977993 -108.874696 
L 823.7762 -108.585347 
L 820.574407 -108.290103 
L 817.372615 -107.988704 
L 814.170822 -107.68087 
L 810.969029 -107.366302 
L 807.767236 -107.044674 
L 804.565443 -106.715634 
L 801.36365 -106.3788 
L 798.161858 -106.033756 
L 794.960065 -105.680047 
L 791.758272 -105.317174 
L 788.556479 -104.944591 
L 785.354686 -104.561692 
L 782.152893 -104.167807 
L 778.951101 -103.762189 
L 775.749308 -103.344005 
L 772.547515 -102.912315 
L 769.345722 -102.466057 
L 766.143929 -102.004024 
L 762.942136 -101.524831 
L 759.740344 -101.026875 
L 756.538551 -100.508291 
L 753.336758 -99.966881 
L 750.134965 -99.400025 
L 746.933172 -98.13318 
L 743.731379 -95.253064 
z
" id="m0c9416a2b9" style="stroke:#808080;stroke-opacity:0.5;stroke-width:0.5;"/>
    </defs>
    <g clip-path="url(#pbcf0641ac6)">
     <use style="fill:#808080;fill-opacity:0.5;stroke:#808080;stroke-opacity:0.5;stroke-width:0.5;" x="0" xlink:href="#m0c9416a2b9" y="207.033625"/>
    </g>
   </g>
   <g id="line2d_33">
    <path clip-path="url(#pbcf0641ac6)" d="M 48.942336 94.199058 
L 52.144128 96.754694 
L 55.345921 97.07996 
L 58.547714 101.85122 
L 61.749507 99.718782 
L 64.9513 103.263387 
L 68.153093 102.80913 
L 71.354885 101.222371 
L 74.556678 100.004008 
L 77.758471 104.488423 
L 80.960264 101.155289 
L 84.162057 98.688294 
L 87.36385 99.851796 
L 90.565642 98.921378 
L 93.767435 96.036471 
L 96.969228 97.175659 
L 100.171021 89.964984 
L 103.372814 95.530519 
L 106.574607 96.790952 
L 109.776399 93.133655 
L 112.978192 91.115143 
L 116.179985 90.314189 
L 119.381778 92.737903 
L 122.583571 89.104617 
L 125.785364 83.229288 
L 128.987156 83.331921 
L 132.188949 85.613762 
L 135.390742 88.300926 
L 138.592535 87.084181 
L 141.794328 83.078629 
L 144.996121 84.171983 
L 148.197913 83.627415 
L 151.399706 83.198478 
L 154.601499 81.054733 
L 157.803292 85.159732 
L 161.005085 80.864963 
L 164.206877 83.376668 
L 167.40867 77.195776 
L 170.610463 75.417766 
L 173.812256 80.366507 
L 177.014049 76.195342 
L 180.215842 77.507781 
L 183.417634 76.867418 
L 186.619427 79.4441 
L 189.82122 86.70878 
L 193.023013 84.698083 
L 196.224806 87.215675 
L 199.426599 84.919889 
L 202.628391 79.466406 
L 205.830184 71.474625 
L 209.031977 76.993014 
L 212.23377 81.157113 
L 215.435563 80.533107 
L 218.637356 77.528917 
L 221.839148 82.111045 
L 225.040941 80.268112 
L 228.242734 79.526949 
L 231.444527 79.057782 
L 234.64632 75.607138 
L 237.848113 81.000334 
L 241.049905 79.123209 
L 244.251698 78.797781 
L 247.453491 74.060738 
L 250.655284 77.689877 
L 253.857077 77.725702 
L 257.05887 78.04153 
L 260.260662 75.681363 
L 263.462455 81.329316 
L 266.664248 79.327469 
L 269.866041 82.011621 
L 273.067834 79.951366 
L 276.269626 82.997994 
L 279.471419 75.899663 
L 282.673212 66.812084 
L 285.875005 71.878921 
L 289.076798 73.817081 
L 292.278591 69.789231 
L 295.480383 67.706862 
L 298.682176 70.008251 
L 301.883969 74.033442 
L 305.085762 69.823914 
L 308.287555 72.925033 
L 311.489348 75.829431 
L 314.69114 61.685478 
L 317.892933 44.006 
L 321.094726 61.394541 
L 324.296519 67.677289 
L 327.498312 70.958981 
L 330.700105 72.889198 
L 333.901897 68.119955 
L 340.305483 71.203145 
L 343.507276 64.284677 
L 349.910862 73.753553 
L 353.112654 68.404071 
L 356.314447 66.372128 
L 359.51624 48.947641 
L 362.718033 52.20313 
L 365.919826 60.468441 
L 369.121619 55.753353 
L 372.323411 64.873486 
L 375.525204 61.496378 
L 378.726997 59.998019 
L 381.92879 64.220574 
L 385.130583 60.513627 
L 388.332375 59.985042 
L 391.534168 68.530646 
L 394.735961 66.260407 
L 397.937754 63.316182 
L 401.139547 64.793247 
L 404.34134 76.748401 
L 407.543132 74.475747 
L 410.744925 81.339493 
L 413.946718 72.606774 
L 417.148511 72.706823 
L 420.350304 71.788524 
L 423.552097 66.796718 
L 426.753889 70.758783 
L 429.955682 71.831374 
L 433.157475 72.743542 
L 436.359268 74.350046 
L 439.561061 73.857282 
L 442.762854 70.651992 
L 445.964646 64.442644 
L 449.166439 77.214237 
L 452.368232 78.217468 
L 455.570025 69.701068 
L 458.771818 75.661537 
L 461.973611 76.140323 
L 465.175403 75.474511 
L 468.377196 73.392753 
L 471.578989 73.748343 
L 474.780782 73.989518 
L 477.982575 79.592834 
L 481.184368 76.286387 
L 484.38616 85.096229 
L 487.587953 81.348565 
L 490.789746 79.029947 
L 493.991539 75.652782 
L 497.193332 78.922763 
L 500.395125 79.309725 
L 503.596917 81.222192 
L 506.79871 87.540084 
L 510.000503 83.994305 
L 513.202296 80.943491 
L 516.404089 80.405864 
L 519.605881 85.731235 
L 522.807674 85.924759 
L 526.009467 82.20958 
L 529.21126 79.549124 
L 532.413053 82.458016 
L 535.614846 90.690276 
L 538.816638 90.995268 
L 542.018431 88.860593 
L 545.220224 91.503249 
L 548.422017 95.524703 
L 551.62381 90.966581 
L 554.825603 93.561288 
L 558.027395 92.152179 
L 561.229188 85.472514 
L 564.430981 83.685267 
L 567.632774 85.31812 
L 570.834567 88.939291 
L 574.03636 88.131089 
L 577.238152 87.128431 
L 580.439945 89.144881 
L 583.641738 91.365956 
L 586.843531 89.270927 
L 590.045324 93.053583 
L 593.247117 93.750849 
L 596.448909 86.783559 
L 599.650702 88.425616 
L 602.852495 83.787046 
L 606.054288 80.063707 
L 609.256081 90.702891 
L 612.457874 86.221084 
L 615.659666 89.494725 
L 618.861459 92.991259 
L 622.063252 90.531045 
L 625.265045 90.52941 
L 628.466838 88.274118 
L 631.66863 96.003633 
L 634.870423 100.05292 
L 638.072216 101.611957 
L 641.274009 102.33816 
L 644.475802 100.723555 
L 647.677595 104.711842 
L 650.879387 104.955872 
L 654.08118 106.965377 
L 657.282973 103.355944 
L 660.484766 106.099303 
L 663.686559 108.033291 
L 666.888352 109.429555 
L 670.090144 105.675042 
L 673.291937 107.595576 
L 676.49373 107.379595 
L 679.695523 105.151307 
L 682.897316 108.777285 
L 686.099109 103.004184 
L 689.300901 94.995283 
L 692.502694 94.678466 
L 695.704487 86.998127 
L 698.90628 100.395857 
L 702.108073 105.050718 
L 705.309866 103.743765 
L 708.511658 108.073522 
L 711.713451 108.07005 
L 714.915244 114.05937 
L 718.117037 118.585154 
L 721.31883 119.163455 
L 724.520623 120.424726 
L 727.722415 122.076184 
L 730.924208 122.513189 
L 734.126001 124.239385 
L 737.327794 124.357977 
L 740.529587 125.655728 
L 743.731379 125.229525 
L 746.933172 124.935675 
L 772.547515 125.916586 
L 846.18875 128.778864 
L 846.18875 128.778864 
" style="fill:none;stroke:#e24a33;stroke-linecap:square;stroke-width:1.5;"/>
   </g>
   <g id="line2d_34">
    <path clip-path="url(#pbcf0641ac6)" d="M 48.942336 97.402495 
L 52.144128 97.402495 
L 55.345921 104.428028 
L 58.547714 99.990849 
L 61.749507 105.907088 
L 64.9513 103.318734 
L 68.153093 101.469909 
L 71.354885 98.881555 
L 74.556678 105.907088 
L 77.758471 99.990849 
L 80.960264 97.402495 
L 84.162057 98.51179 
L 87.36385 97.402495 
L 90.565642 93.704846 
L 93.767435 95.923436 
L 96.969228 84.760816 
L 100.171021 95.553671 
L 103.372814 95.923436 
L 106.574607 92.225787 
L 109.776399 88.897903 
L 112.978192 87.788608 
L 116.179985 92.225787 
L 119.381778 86.679313 
L 122.583571 78.914251 
L 125.785364 79.65378 
L 128.987156 83.721194 
L 132.188949 88.897903 
L 135.390742 87.049078 
L 138.592535 81.13284 
L 141.794328 82.981664 
L 144.996121 81.87237 
L 148.197913 82.242135 
L 151.399706 78.914251 
L 154.601499 85.939784 
L 157.803292 78.544486 
L 161.005085 84.090959 
L 164.206877 72.998012 
L 167.40867 72.628247 
L 170.610463 79.65378 
L 173.812256 73.737542 
L 177.014049 77.435191 
L 180.215842 75.216602 
L 183.417634 80.39331 
L 186.619427 90.746727 
L 189.82122 86.679313 
L 193.023013 90.746727 
L 196.224806 84.830489 
L 199.426599 77.065426 
L 202.628391 64.715279 
L 205.830184 74.846837 
L 209.031977 80.874004 
L 212.23377 81.576558 
L 215.435563 76.621708 
L 218.637356 83.610265 
L 221.839148 79.616804 
L 225.040941 79.65378 
L 228.242734 77.952862 
L 231.444527 73.071965 
L 234.64632 82.057252 
L 237.848113 78.100768 
L 241.049905 79.136109 
L 244.251698 70.70547 
L 247.453491 77.65705 
L 250.655284 76.658685 
L 253.857077 78.544486 
L 257.05887 74.18126 
L 260.260662 83.499335 
L 263.462455 78.988204 
L 266.664248 84.386771 
L 269.866041 79.284015 
L 273.067834 84.904442 
L 276.269626 72.406388 
L 279.471419 60.389029 
L 282.673212 68.745716 
L 285.875005 71.851741 
L 289.076798 67.821304 
L 292.278591 65.048067 
L 295.480383 68.745716 
L 298.682176 75.253578 
L 301.883969 68.745716 
L 305.085762 74.329166 
L 308.287555 77.102403 
L 311.489348 55.729992 
L 314.69114 30.659932 
L 317.892933 59.464617 
L 321.094726 67.821304 
L 324.296519 77.213332 
L 327.498312 77.213332 
L 330.700105 68.745716 
L 333.901897 70.631517 
L 337.10369 71.555929 
L 340.305483 61.313442 
L 343.507276 69.670128 
L 346.709069 75.216602 
L 349.910862 67.821304 
L 353.112654 65.048067 
L 356.314447 37.352676 
L 359.51624 46.596799 
L 362.718033 58.133463 
L 365.919826 53.844191 
L 369.121619 69.374316 
L 372.323411 61.128559 
L 375.525204 61.01763 
L 378.726997 65.417832 
L 381.92879 59.427641 
L 385.130583 59.575547 
L 388.332375 71.740812 
L 391.534168 67.266656 
L 394.735961 63.716913 
L 397.937754 64.567373 
L 401.139547 82.759805 
L 404.34134 77.324261 
L 407.543132 88.749997 
L 410.744925 71.001282 
L 413.946718 73.256848 
L 417.148511 69.078504 
L 420.350304 63.236219 
L 423.552097 70.039893 
L 426.753889 71.149188 
L 429.955682 73.811495 
L 433.157475 75.54939 
L 436.359268 74.440095 
L 439.561061 69.33734 
L 442.762854 59.908335 
L 445.964646 80.578193 
L 449.166439 79.912616 
L 452.368232 68.893622 
L 455.570025 77.176356 
L 458.771818 75.919155 
L 461.973611 76.547755 
L 465.175403 72.221506 
L 468.377196 73.108942 
L 471.578989 73.182895 
L 474.780782 82.242135 
L 477.982575 76.030084 
L 481.184368 90.598821 
L 484.38616 81.576558 
L 487.587953 79.801686 
L 490.789746 72.554294 
L 493.991539 78.729368 
L 497.193332 78.655415 
L 500.395125 82.648876 
L 503.596917 91.44928 
L 506.79871 84.867465 
L 510.000503 80.652146 
L 513.202296 78.618439 
L 516.404089 87.196984 
L 519.605881 86.864196 
L 522.807674 81.687487 
L 526.009467 77.213332 
L 529.21126 81.835393 
L 532.413053 94.4074 
L 535.614846 94.111588 
L 538.816638 90.783704 
L 542.018431 93.409034 
L 545.220224 98.474813 
L 548.422017 90.82068 
L 551.62381 95.183906 
L 554.825603 91.153469 
L 558.027395 82.020276 
L 561.229188 79.76471 
L 564.430981 82.611899 
L 567.632774 89.267668 
L 574.03636 87.049078 
L 577.238152 89.637432 
L 580.439945 92.706481 
L 583.641738 89.267668 
L 586.843531 95.183906 
L 590.045324 94.814141 
L 593.247117 84.460724 
L 596.448909 87.418843 
L 599.650702 79.284015 
L 602.852495 75.956131 
L 606.054288 92.595552 
L 609.256081 84.760816 
L 612.457874 92.373693 
L 615.659666 94.814141 
L 618.861459 91.486257 
L 622.063252 91.116492 
L 625.265045 86.679313 
L 628.466838 99.25132 
L 631.66863 103.688498 
L 634.870423 106.276853 
L 638.072216 105.537323 
L 641.274009 101.839674 
L 644.475802 107.386147 
L 647.677595 106.276853 
L 650.879387 109.604737 
L 654.08118 102.579204 
L 657.282973 107.386147 
L 660.484766 108.865207 
L 663.686559 111.453561 
L 666.888352 104.797793 
L 670.090144 108.125677 
L 673.291937 106.646618 
L 676.49373 104.058263 
L 679.695523 109.604737 
L 682.897316 99.990849 
L 686.099109 89.45255 
L 689.300901 89.45255 
L 692.502694 78.581462 
L 695.704487 102.690133 
L 698.90628 107.497077 
L 702.108073 107.718936 
L 705.309866 112.30402 
L 708.511658 110.344267 
L 711.713451 119.403506 
L 714.915244 123.840685 
L 718.117037 123.840685 
L 721.31883 124.136497 
L 724.520623 124.986956 
L 727.722415 124.617191 
L 730.924208 126.502992 
L 734.126001 125.652533 
L 737.327794 127.316475 
L 740.529587 125.763463 
L 740.529587 125.763463 
" style="fill:none;stroke:#348abd;stroke-linecap:square;stroke-width:1.5;"/>
   </g>
   <g id="patch_3">
    <path d="M 42.53875 167.54175 
L 42.53875 24.14175 
" style="fill:none;stroke:#ffffff;stroke-linecap:square;stroke-linejoin:miter;"/>
   </g>
   <g id="patch_4">
    <path d="M 846.18875 167.54175 
L 846.18875 24.14175 
" style="fill:none;stroke:#ffffff;stroke-linecap:square;stroke-linejoin:miter;"/>
   </g>
   <g id="patch_5">
    <path d="M 42.53875 167.54175 
L 846.18875 167.54175 
" style="fill:none;stroke:#ffffff;stroke-linecap:square;stroke-linejoin:miter;"/>
   </g>
   <g id="patch_6">
    <path d="M 42.53875 24.14175 
L 846.18875 24.14175 
" style="fill:none;stroke:#ffffff;stroke-linecap:square;stroke-linejoin:miter;"/>
   </g>
   <g id="text_19">
    <!-- Forecasted viewers -->
    <defs>
     <path d="M 9.8125 72.90625 
L 51.703125 72.90625 
L 51.703125 64.59375 
L 19.671875 64.59375 
L 19.671875 43.109375 
L 48.578125 43.109375 
L 48.578125 34.8125 
L 19.671875 34.8125 
L 19.671875 0 
L 9.8125 0 
z
" id="DejaVuSans-70"/>
     <path d="M 48.78125 52.59375 
L 48.78125 44.1875 
Q 44.96875 46.296875 41.140625 47.34375 
Q 37.3125 48.390625 33.40625 48.390625 
Q 24.65625 48.390625 19.8125 42.84375 
Q 14.984375 37.3125 14.984375 27.296875 
Q 14.984375 17.28125 19.8125 11.734375 
Q 24.65625 6.203125 33.40625 6.203125 
Q 37.3125 6.203125 41.140625 7.25 
Q 44.96875 8.296875 48.78125 10.40625 
L 48.78125 2.09375 
Q 45.015625 0.34375 40.984375 -0.53125 
Q 36.96875 -1.421875 32.421875 -1.421875 
Q 20.0625 -1.421875 12.78125 6.34375 
Q 5.515625 14.109375 5.515625 27.296875 
Q 5.515625 40.671875 12.859375 48.328125 
Q 20.21875 56 33.015625 56 
Q 37.15625 56 41.109375 55.140625 
Q 45.0625 54.296875 48.78125 52.59375 
z
" id="DejaVuSans-99"/>
     <path d="M 18.3125 70.21875 
L 18.3125 54.6875 
L 36.8125 54.6875 
L 36.8125 47.703125 
L 18.3125 47.703125 
L 18.3125 18.015625 
Q 18.3125 11.328125 20.140625 9.421875 
Q 21.96875 7.515625 27.59375 7.515625 
L 36.8125 7.515625 
L 36.8125 0 
L 27.59375 0 
Q 17.1875 0 13.234375 3.875 
Q 9.28125 7.765625 9.28125 18.015625 
L 9.28125 47.703125 
L 2.6875 47.703125 
L 2.6875 54.6875 
L 9.28125 54.6875 
L 9.28125 70.21875 
z
" id="DejaVuSans-116"/>
     <path d="M 45.40625 46.390625 
L 45.40625 75.984375 
L 54.390625 75.984375 
L 54.390625 0 
L 45.40625 0 
L 45.40625 8.203125 
Q 42.578125 3.328125 38.25 0.953125 
Q 33.9375 -1.421875 27.875 -1.421875 
Q 17.96875 -1.421875 11.734375 6.484375 
Q 5.515625 14.40625 5.515625 27.296875 
Q 5.515625 40.1875 11.734375 48.09375 
Q 17.96875 56 27.875 56 
Q 33.9375 56 38.25 53.625 
Q 42.578125 51.265625 45.40625 46.390625 
z
M 14.796875 27.296875 
Q 14.796875 17.390625 18.875 11.75 
Q 22.953125 6.109375 30.078125 6.109375 
Q 37.203125 6.109375 41.296875 11.75 
Q 45.40625 17.390625 45.40625 27.296875 
Q 45.40625 37.203125 41.296875 42.84375 
Q 37.203125 48.484375 30.078125 48.484375 
Q 22.953125 48.484375 18.875 42.84375 
Q 14.796875 37.203125 14.796875 27.296875 
z
" id="DejaVuSans-100"/>
     <path d="M 2.984375 54.6875 
L 12.5 54.6875 
L 29.59375 8.796875 
L 46.6875 54.6875 
L 56.203125 54.6875 
L 35.6875 0 
L 23.484375 0 
z
" id="DejaVuSans-118"/>
    </defs>
    <g transform="translate(374.477625 18.14175)scale(0.144 -0.144)">
     <use xlink:href="#DejaVuSans-70"/>
     <use x="57.472656" xlink:href="#DejaVuSans-111"/>
     <use x="118.654297" xlink:href="#DejaVuSans-114"/>
     <use x="159.736328" xlink:href="#DejaVuSans-101"/>
     <use x="221.259766" xlink:href="#DejaVuSans-99"/>
     <use x="276.240234" xlink:href="#DejaVuSans-97"/>
     <use x="337.519531" xlink:href="#DejaVuSans-115"/>
     <use x="389.619141" xlink:href="#DejaVuSans-116"/>
     <use x="428.828125" xlink:href="#DejaVuSans-101"/>
     <use x="490.351562" xlink:href="#DejaVuSans-100"/>
     <use x="553.828125" xlink:href="#DejaVuSans-32"/>
     <use x="585.615234" xlink:href="#DejaVuSans-118"/>
     <use x="644.794922" xlink:href="#DejaVuSans-105"/>
     <use x="672.578125" xlink:href="#DejaVuSans-101"/>
     <use x="734.101562" xlink:href="#DejaVuSans-119"/>
     <use x="815.888672" xlink:href="#DejaVuSans-101"/>
     <use x="877.412109" xlink:href="#DejaVuSans-114"/>
     <use x="918.525391" xlink:href="#DejaVuSans-115"/>
    </g>
   </g>
   <g id="legend_1">
    <g id="patch_7">
     <path d="M 254.849687 162.54175 
L 633.877812 162.54175 
Q 635.877812 162.54175 635.877812 160.54175 
L 635.877812 146.863625 
Q 635.877812 144.863625 633.877812 144.863625 
L 254.849687 144.863625 
Q 252.849687 144.863625 252.849687 146.863625 
L 252.849687 160.54175 
Q 252.849687 162.54175 254.849687 162.54175 
z
" style="fill:#e5e5e5;opacity:0.8;stroke:#cccccc;stroke-linejoin:miter;stroke-width:0.5;"/>
    </g>
    <g id="line2d_35">
     <path d="M 256.849687 152.962062 
L 276.849687 152.962062 
" style="fill:none;stroke:#e24a33;stroke-linecap:square;stroke-width:1.5;"/>
    </g>
    <g id="line2d_36"/>
    <g id="text_20">
     <!-- forecast -->
     <defs>
      <path d="M 37.109375 75.984375 
L 37.109375 68.5 
L 28.515625 68.5 
Q 23.6875 68.5 21.796875 66.546875 
Q 19.921875 64.59375 19.921875 59.515625 
L 19.921875 54.6875 
L 34.71875 54.6875 
L 34.71875 47.703125 
L 19.921875 47.703125 
L 19.921875 0 
L 10.890625 0 
L 10.890625 47.703125 
L 2.296875 47.703125 
L 2.296875 54.6875 
L 10.890625 54.6875 
L 10.890625 58.5 
Q 10.890625 67.625 15.140625 71.796875 
Q 19.390625 75.984375 28.609375 75.984375 
z
" id="DejaVuSans-102"/>
     </defs>
     <g transform="translate(284.849687 156.462062)scale(0.1 -0.1)">
      <use xlink:href="#DejaVuSans-102"/>
      <use x="35.205078" xlink:href="#DejaVuSans-111"/>
      <use x="96.386719" xlink:href="#DejaVuSans-114"/>
      <use x="137.46875" xlink:href="#DejaVuSans-101"/>
      <use x="198.992188" xlink:href="#DejaVuSans-99"/>
      <use x="253.972656" xlink:href="#DejaVuSans-97"/>
      <use x="315.251953" xlink:href="#DejaVuSans-115"/>
      <use x="367.351562" xlink:href="#DejaVuSans-116"/>
     </g>
    </g>
    <g id="line2d_37">
     <path d="M 345.505937 152.962062 
L 365.505937 152.962062 
" style="fill:none;stroke:#348abd;stroke-linecap:square;stroke-width:1.5;"/>
    </g>
    <g id="line2d_38"/>
    <g id="text_21">
     <!-- Viewers (millions) -->
     <g transform="translate(373.505937 156.462062)scale(0.1 -0.1)">
      <use xlink:href="#DejaVuSans-86"/>
      <use x="68.376953" xlink:href="#DejaVuSans-105"/>
      <use x="96.160156" xlink:href="#DejaVuSans-101"/>
      <use x="157.683594" xlink:href="#DejaVuSans-119"/>
      <use x="239.470703" xlink:href="#DejaVuSans-101"/>
      <use x="300.994141" xlink:href="#DejaVuSans-114"/>
      <use x="342.107422" xlink:href="#DejaVuSans-115"/>
      <use x="394.207031" xlink:href="#DejaVuSans-32"/>
      <use x="425.994141" xlink:href="#DejaVuSans-40"/>
      <use x="465.007812" xlink:href="#DejaVuSans-109"/>
      <use x="562.419922" xlink:href="#DejaVuSans-105"/>
      <use x="590.203125" xlink:href="#DejaVuSans-108"/>
      <use x="617.986328" xlink:href="#DejaVuSans-108"/>
      <use x="645.769531" xlink:href="#DejaVuSans-105"/>
      <use x="673.552734" xlink:href="#DejaVuSans-111"/>
      <use x="734.734375" xlink:href="#DejaVuSans-110"/>
      <use x="798.113281" xlink:href="#DejaVuSans-115"/>
      <use x="850.212891" xlink:href="#DejaVuSans-41"/>
     </g>
    </g>
    <g id="patch_8">
     <path d="M 482.42625 156.462062 
L 502.42625 156.462062 
L 502.42625 149.462062 
L 482.42625 149.462062 
z
" style="fill:#808080;opacity:0.5;stroke:#808080;stroke-linejoin:miter;stroke-width:0.5;"/>
    </g>
    <g id="text_22">
     <!-- 95% confidence interval -->
     <defs>
      <path d="M 72.703125 32.078125 
Q 68.453125 32.078125 66.03125 28.46875 
Q 63.625 24.859375 63.625 18.40625 
Q 63.625 12.0625 66.03125 8.421875 
Q 68.453125 4.78125 72.703125 4.78125 
Q 76.859375 4.78125 79.265625 8.421875 
Q 81.6875 12.0625 81.6875 18.40625 
Q 81.6875 24.8125 79.265625 28.4375 
Q 76.859375 32.078125 72.703125 32.078125 
z
M 72.703125 38.28125 
Q 80.421875 38.28125 84.953125 32.90625 
Q 89.5 27.546875 89.5 18.40625 
Q 89.5 9.28125 84.9375 3.921875 
Q 80.375 -1.421875 72.703125 -1.421875 
Q 64.890625 -1.421875 60.34375 3.921875 
Q 55.8125 9.28125 55.8125 18.40625 
Q 55.8125 27.59375 60.375 32.9375 
Q 64.9375 38.28125 72.703125 38.28125 
z
M 22.3125 68.015625 
Q 18.109375 68.015625 15.6875 64.375 
Q 13.28125 60.75 13.28125 54.390625 
Q 13.28125 47.953125 15.671875 44.328125 
Q 18.0625 40.71875 22.3125 40.71875 
Q 26.5625 40.71875 28.96875 44.328125 
Q 31.390625 47.953125 31.390625 54.390625 
Q 31.390625 60.6875 28.953125 64.34375 
Q 26.515625 68.015625 22.3125 68.015625 
z
M 66.40625 74.21875 
L 74.21875 74.21875 
L 28.609375 -1.421875 
L 20.796875 -1.421875 
z
M 22.3125 74.21875 
Q 30.03125 74.21875 34.609375 68.875 
Q 39.203125 63.53125 39.203125 54.390625 
Q 39.203125 45.171875 34.640625 39.84375 
Q 30.078125 34.515625 22.3125 34.515625 
Q 14.546875 34.515625 10.03125 39.859375 
Q 5.515625 45.21875 5.515625 54.390625 
Q 5.515625 63.484375 10.046875 68.84375 
Q 14.59375 74.21875 22.3125 74.21875 
z
" id="DejaVuSans-37"/>
     </defs>
     <g transform="translate(510.42625 156.462062)scale(0.1 -0.1)">
      <use xlink:href="#DejaVuSans-57"/>
      <use x="63.623047" xlink:href="#DejaVuSans-53"/>
      <use x="127.246094" xlink:href="#DejaVuSans-37"/>
      <use x="222.265625" xlink:href="#DejaVuSans-32"/>
      <use x="254.052734" xlink:href="#DejaVuSans-99"/>
      <use x="309.033203" xlink:href="#DejaVuSans-111"/>
      <use x="370.214844" xlink:href="#DejaVuSans-110"/>
      <use x="433.59375" xlink:href="#DejaVuSans-102"/>
      <use x="468.798828" xlink:href="#DejaVuSans-105"/>
      <use x="496.582031" xlink:href="#DejaVuSans-100"/>
      <use x="560.058594" xlink:href="#DejaVuSans-101"/>
      <use x="621.582031" xlink:href="#DejaVuSans-110"/>
      <use x="684.960938" xlink:href="#DejaVuSans-99"/>
      <use x="739.941406" xlink:href="#DejaVuSans-101"/>
      <use x="801.464844" xlink:href="#DejaVuSans-32"/>
      <use x="833.251953" xlink:href="#DejaVuSans-105"/>
      <use x="861.035156" xlink:href="#DejaVuSans-110"/>
      <use x="924.414062" xlink:href="#DejaVuSans-116"/>
      <use x="963.623047" xlink:href="#DejaVuSans-101"/>
      <use x="1025.146484" xlink:href="#DejaVuSans-114"/>
      <use x="1066.259766" xlink:href="#DejaVuSans-118"/>
      <use x="1125.439453" xlink:href="#DejaVuSans-97"/>
      <use x="1186.71875" xlink:href="#DejaVuSans-108"/>
     </g>
    </g>
   </g>
  </g>
 </g>
 <defs>
  <clipPath id="pbcf0641ac6">
   <rect height="143.4" width="803.65" x="42.53875" y="24.14175"/>
  </clipPath>
 </defs>
</svg>
