<?xml version="1.0" encoding="utf-8" standalone="no"?>
<!DOCTYPE svg PUBLIC "-//W3C//DTD SVG 1.1//EN"
  "http://www.w3.org/Graphics/SVG/1.1/DTD/svg11.dtd">
<!-- Created with matplotlib (https://matplotlib.org/) -->
<svg height="279.033625pt" version="1.1" viewBox="0 0 711.48875 279.033625" width="711.48875pt" xmlns="http://www.w3.org/2000/svg" xmlns:xlink="http://www.w3.org/1999/xlink">
 <defs>
  <style type="text/css">
*{stroke-linecap:butt;stroke-linejoin:round;}
  </style>
 </defs>
 <g id="figure_1">
  <g id="patch_1">
   <path d="M 0 279.033625 
L 711.48875 279.033625 
L 711.48875 0 
L 0 0 
z
" style="fill:#ffffff;"/>
  </g>
  <g id="axes_1">
   <g id="patch_2">
    <path d="M 55.26375 239.54175 
L 704.28875 239.54175 
L 704.28875 24.14175 
L 55.26375 24.14175 
z
" style="fill:#e5e5e5;"/>
   </g>
   <g id="matplotlib.axis_1">
    <g id="xtick_1">
     <g id="line2d_1">
      <path clip-path="url(#pb2a60cb264)" d="M 55.26375 239.54175 
L 55.26375 24.14175 
" style="fill:none;stroke:#ffffff;stroke-linecap:square;stroke-width:0.8;"/>
     </g>
     <g id="line2d_2">
      <defs>
       <path d="M 0 0 
L 0 3.5 
" id="m62b9adab04" style="stroke:#555555;stroke-width:0.8;"/>
      </defs>
      <g>
       <use style="fill:#555555;stroke:#555555;stroke-width:0.8;" x="55.26375" xlink:href="#m62b9adab04" y="239.54175"/>
      </g>
     </g>
     <g id="text_1">
      <!-- 1 -->
      <defs>
       <path d="M 12.40625 8.296875 
L 28.515625 8.296875 
L 28.515625 63.921875 
L 10.984375 60.40625 
L 10.984375 69.390625 
L 28.421875 72.90625 
L 38.28125 72.90625 
L 38.28125 8.296875 
L 54.390625 8.296875 
L 54.390625 0 
L 12.40625 0 
z
" id="DejaVuSans-49"/>
      </defs>
      <g style="fill:#555555;" transform="translate(52.0825 254.140188)scale(0.1 -0.1)">
       <use xlink:href="#DejaVuSans-49"/>
      </g>
     </g>
    </g>
    <g id="xtick_2">
     <g id="line2d_3">
      <path clip-path="url(#pb2a60cb264)" d="M 132.759272 239.54175 
L 132.759272 24.14175 
" style="fill:none;stroke:#ffffff;stroke-linecap:square;stroke-width:0.8;"/>
     </g>
     <g id="line2d_4">
      <g>
       <use style="fill:#555555;stroke:#555555;stroke-width:0.8;" x="132.759272" xlink:href="#m62b9adab04" y="239.54175"/>
      </g>
     </g>
     <g id="text_2">
      <!-- 2 -->
      <defs>
       <path d="M 19.1875 8.296875 
L 53.609375 8.296875 
L 53.609375 0 
L 7.328125 0 
L 7.328125 8.296875 
Q 12.9375 14.109375 22.625 23.890625 
Q 32.328125 33.6875 34.8125 36.53125 
Q 39.546875 41.84375 41.421875 45.53125 
Q 43.3125 49.21875 43.3125 52.78125 
Q 43.3125 58.59375 39.234375 62.25 
Q 35.15625 65.921875 28.609375 65.921875 
Q 23.96875 65.921875 18.8125 64.3125 
Q 13.671875 62.703125 7.8125 59.421875 
L 7.8125 69.390625 
Q 13.765625 71.78125 18.9375 73 
Q 24.125 74.21875 28.421875 74.21875 
Q 39.75 74.21875 46.484375 68.546875 
Q 53.21875 62.890625 53.21875 53.421875 
Q 53.21875 48.921875 51.53125 44.890625 
Q 49.859375 40.875 45.40625 35.40625 
Q 44.1875 33.984375 37.640625 27.21875 
Q 31.109375 20.453125 19.1875 8.296875 
z
" id="DejaVuSans-50"/>
      </defs>
      <g style="fill:#555555;" transform="translate(129.578022 254.140188)scale(0.1 -0.1)">
       <use xlink:href="#DejaVuSans-50"/>
      </g>
     </g>
    </g>
    <g id="xtick_3">
     <g id="line2d_5">
      <path clip-path="url(#pb2a60cb264)" d="M 213.483775 239.54175 
L 213.483775 24.14175 
" style="fill:none;stroke:#ffffff;stroke-linecap:square;stroke-width:0.8;"/>
     </g>
     <g id="line2d_6">
      <g>
       <use style="fill:#555555;stroke:#555555;stroke-width:0.8;" x="213.483775" xlink:href="#m62b9adab04" y="239.54175"/>
      </g>
     </g>
     <g id="text_3">
      <!-- 3 -->
      <defs>
       <path d="M 40.578125 39.3125 
Q 47.65625 37.796875 51.625 33 
Q 55.609375 28.21875 55.609375 21.1875 
Q 55.609375 10.40625 48.1875 4.484375 
Q 40.765625 -1.421875 27.09375 -1.421875 
Q 22.515625 -1.421875 17.65625 -0.515625 
Q 12.796875 0.390625 7.625 2.203125 
L 7.625 11.71875 
Q 11.71875 9.328125 16.59375 8.109375 
Q 21.484375 6.890625 26.8125 6.890625 
Q 36.078125 6.890625 40.9375 10.546875 
Q 45.796875 14.203125 45.796875 21.1875 
Q 45.796875 27.640625 41.28125 31.265625 
Q 36.765625 34.90625 28.71875 34.90625 
L 20.21875 34.90625 
L 20.21875 43.015625 
L 29.109375 43.015625 
Q 36.375 43.015625 40.234375 45.921875 
Q 44.09375 48.828125 44.09375 54.296875 
Q 44.09375 59.90625 40.109375 62.90625 
Q 36.140625 65.921875 28.71875 65.921875 
Q 24.65625 65.921875 20.015625 65.03125 
Q 15.375 64.15625 9.8125 62.3125 
L 9.8125 71.09375 
Q 15.4375 72.65625 20.34375 73.4375 
Q 25.25 74.21875 29.59375 74.21875 
Q 40.828125 74.21875 47.359375 69.109375 
Q 53.90625 64.015625 53.90625 55.328125 
Q 53.90625 49.265625 50.4375 45.09375 
Q 46.96875 40.921875 40.578125 39.3125 
z
" id="DejaVuSans-51"/>
      </defs>
      <g style="fill:#555555;" transform="translate(210.302525 254.140188)scale(0.1 -0.1)">
       <use xlink:href="#DejaVuSans-51"/>
      </g>
     </g>
    </g>
    <g id="xtick_4">
     <g id="line2d_7">
      <path clip-path="url(#pb2a60cb264)" d="M 290.979297 239.54175 
L 290.979297 24.14175 
" style="fill:none;stroke:#ffffff;stroke-linecap:square;stroke-width:0.8;"/>
     </g>
     <g id="line2d_8">
      <g>
       <use style="fill:#555555;stroke:#555555;stroke-width:0.8;" x="290.979297" xlink:href="#m62b9adab04" y="239.54175"/>
      </g>
     </g>
     <g id="text_4">
      <!-- 4 -->
      <defs>
       <path d="M 37.796875 64.3125 
L 12.890625 25.390625 
L 37.796875 25.390625 
z
M 35.203125 72.90625 
L 47.609375 72.90625 
L 47.609375 25.390625 
L 58.015625 25.390625 
L 58.015625 17.1875 
L 47.609375 17.1875 
L 47.609375 0 
L 37.796875 0 
L 37.796875 17.1875 
L 4.890625 17.1875 
L 4.890625 26.703125 
z
" id="DejaVuSans-52"/>
      </defs>
      <g style="fill:#555555;" transform="translate(287.798047 254.140188)scale(0.1 -0.1)">
       <use xlink:href="#DejaVuSans-52"/>
      </g>
     </g>
    </g>
    <g id="xtick_5">
     <g id="line2d_9">
      <path clip-path="url(#pb2a60cb264)" d="M 368.47482 239.54175 
L 368.47482 24.14175 
" style="fill:none;stroke:#ffffff;stroke-linecap:square;stroke-width:0.8;"/>
     </g>
     <g id="line2d_10">
      <g>
       <use style="fill:#555555;stroke:#555555;stroke-width:0.8;" x="368.47482" xlink:href="#m62b9adab04" y="239.54175"/>
      </g>
     </g>
     <g id="text_5">
      <!-- 5 -->
      <defs>
       <path d="M 10.796875 72.90625 
L 49.515625 72.90625 
L 49.515625 64.59375 
L 19.828125 64.59375 
L 19.828125 46.734375 
Q 21.96875 47.46875 24.109375 47.828125 
Q 26.265625 48.1875 28.421875 48.1875 
Q 40.625 48.1875 47.75 41.5 
Q 54.890625 34.8125 54.890625 23.390625 
Q 54.890625 11.625 47.5625 5.09375 
Q 40.234375 -1.421875 26.90625 -1.421875 
Q 22.3125 -1.421875 17.546875 -0.640625 
Q 12.796875 0.140625 7.71875 1.703125 
L 7.71875 11.625 
Q 12.109375 9.234375 16.796875 8.0625 
Q 21.484375 6.890625 26.703125 6.890625 
Q 35.15625 6.890625 40.078125 11.328125 
Q 45.015625 15.765625 45.015625 23.390625 
Q 45.015625 31 40.078125 35.4375 
Q 35.15625 39.890625 26.703125 39.890625 
Q 22.75 39.890625 18.8125 39.015625 
Q 14.890625 38.140625 10.796875 36.28125 
z
" id="DejaVuSans-53"/>
      </defs>
      <g style="fill:#555555;" transform="translate(365.29357 254.140188)scale(0.1 -0.1)">
       <use xlink:href="#DejaVuSans-53"/>
      </g>
     </g>
    </g>
    <g id="xtick_6">
     <g id="line2d_11">
      <path clip-path="url(#pb2a60cb264)" d="M 433.054422 239.54175 
L 433.054422 24.14175 
" style="fill:none;stroke:#ffffff;stroke-linecap:square;stroke-width:0.8;"/>
     </g>
     <g id="line2d_12">
      <g>
       <use style="fill:#555555;stroke:#555555;stroke-width:0.8;" x="433.054422" xlink:href="#m62b9adab04" y="239.54175"/>
      </g>
     </g>
     <g id="text_6">
      <!-- 6 -->
      <defs>
       <path d="M 33.015625 40.375 
Q 26.375 40.375 22.484375 35.828125 
Q 18.609375 31.296875 18.609375 23.390625 
Q 18.609375 15.53125 22.484375 10.953125 
Q 26.375 6.390625 33.015625 6.390625 
Q 39.65625 6.390625 43.53125 10.953125 
Q 47.40625 15.53125 47.40625 23.390625 
Q 47.40625 31.296875 43.53125 35.828125 
Q 39.65625 40.375 33.015625 40.375 
z
M 52.59375 71.296875 
L 52.59375 62.3125 
Q 48.875 64.0625 45.09375 64.984375 
Q 41.3125 65.921875 37.59375 65.921875 
Q 27.828125 65.921875 22.671875 59.328125 
Q 17.53125 52.734375 16.796875 39.40625 
Q 19.671875 43.65625 24.015625 45.921875 
Q 28.375 48.1875 33.59375 48.1875 
Q 44.578125 48.1875 50.953125 41.515625 
Q 57.328125 34.859375 57.328125 23.390625 
Q 57.328125 12.15625 50.6875 5.359375 
Q 44.046875 -1.421875 33.015625 -1.421875 
Q 20.359375 -1.421875 13.671875 8.265625 
Q 6.984375 17.96875 6.984375 36.375 
Q 6.984375 53.65625 15.1875 63.9375 
Q 23.390625 74.21875 37.203125 74.21875 
Q 40.921875 74.21875 44.703125 73.484375 
Q 48.484375 72.75 52.59375 71.296875 
z
" id="DejaVuSans-54"/>
      </defs>
      <g style="fill:#555555;" transform="translate(429.873172 254.140188)scale(0.1 -0.1)">
       <use xlink:href="#DejaVuSans-54"/>
      </g>
     </g>
    </g>
    <g id="xtick_7">
     <g id="line2d_13">
      <path clip-path="url(#pb2a60cb264)" d="M 504.091984 239.54175 
L 504.091984 24.14175 
" style="fill:none;stroke:#ffffff;stroke-linecap:square;stroke-width:0.8;"/>
     </g>
     <g id="line2d_14">
      <g>
       <use style="fill:#555555;stroke:#555555;stroke-width:0.8;" x="504.091984" xlink:href="#m62b9adab04" y="239.54175"/>
      </g>
     </g>
     <g id="text_7">
      <!-- 7 -->
      <defs>
       <path d="M 8.203125 72.90625 
L 55.078125 72.90625 
L 55.078125 68.703125 
L 28.609375 0 
L 18.3125 0 
L 43.21875 64.59375 
L 8.203125 64.59375 
z
" id="DejaVuSans-55"/>
      </defs>
      <g style="fill:#555555;" transform="translate(500.910734 254.140188)scale(0.1 -0.1)">
       <use xlink:href="#DejaVuSans-55"/>
      </g>
     </g>
    </g>
    <g id="xtick_8">
     <g id="line2d_15">
      <path clip-path="url(#pb2a60cb264)" d="M 575.129546 239.54175 
L 575.129546 24.14175 
" style="fill:none;stroke:#ffffff;stroke-linecap:square;stroke-width:0.8;"/>
     </g>
     <g id="line2d_16">
      <g>
       <use style="fill:#555555;stroke:#555555;stroke-width:0.8;" x="575.129546" xlink:href="#m62b9adab04" y="239.54175"/>
      </g>
     </g>
     <g id="text_8">
      <!-- 8 -->
      <defs>
       <path d="M 31.78125 34.625 
Q 24.75 34.625 20.71875 30.859375 
Q 16.703125 27.09375 16.703125 20.515625 
Q 16.703125 13.921875 20.71875 10.15625 
Q 24.75 6.390625 31.78125 6.390625 
Q 38.8125 6.390625 42.859375 10.171875 
Q 46.921875 13.96875 46.921875 20.515625 
Q 46.921875 27.09375 42.890625 30.859375 
Q 38.875 34.625 31.78125 34.625 
z
M 21.921875 38.8125 
Q 15.578125 40.375 12.03125 44.71875 
Q 8.5 49.078125 8.5 55.328125 
Q 8.5 64.0625 14.71875 69.140625 
Q 20.953125 74.21875 31.78125 74.21875 
Q 42.671875 74.21875 48.875 69.140625 
Q 55.078125 64.0625 55.078125 55.328125 
Q 55.078125 49.078125 51.53125 44.71875 
Q 48 40.375 41.703125 38.8125 
Q 48.828125 37.15625 52.796875 32.3125 
Q 56.78125 27.484375 56.78125 20.515625 
Q 56.78125 9.90625 50.3125 4.234375 
Q 43.84375 -1.421875 31.78125 -1.421875 
Q 19.734375 -1.421875 13.25 4.234375 
Q 6.78125 9.90625 6.78125 20.515625 
Q 6.78125 27.484375 10.78125 32.3125 
Q 14.796875 37.15625 21.921875 38.8125 
z
M 18.3125 54.390625 
Q 18.3125 48.734375 21.84375 45.5625 
Q 25.390625 42.390625 31.78125 42.390625 
Q 38.140625 42.390625 41.71875 45.5625 
Q 45.3125 48.734375 45.3125 54.390625 
Q 45.3125 60.0625 41.71875 63.234375 
Q 38.140625 66.40625 31.78125 66.40625 
Q 25.390625 66.40625 21.84375 63.234375 
Q 18.3125 60.0625 18.3125 54.390625 
z
" id="DejaVuSans-56"/>
      </defs>
      <g style="fill:#555555;" transform="translate(571.948296 254.140188)scale(0.1 -0.1)">
       <use xlink:href="#DejaVuSans-56"/>
      </g>
     </g>
    </g>
    <g id="xtick_9">
     <g id="line2d_17">
      <path clip-path="url(#pb2a60cb264)" d="M 642.938128 239.54175 
L 642.938128 24.14175 
" style="fill:none;stroke:#ffffff;stroke-linecap:square;stroke-width:0.8;"/>
     </g>
     <g id="line2d_18">
      <g>
       <use style="fill:#555555;stroke:#555555;stroke-width:0.8;" x="642.938128" xlink:href="#m62b9adab04" y="239.54175"/>
      </g>
     </g>
     <g id="text_9">
      <!-- 9 -->
      <defs>
       <path d="M 10.984375 1.515625 
L 10.984375 10.5 
Q 14.703125 8.734375 18.5 7.8125 
Q 22.3125 6.890625 25.984375 6.890625 
Q 35.75 6.890625 40.890625 13.453125 
Q 46.046875 20.015625 46.78125 33.40625 
Q 43.953125 29.203125 39.59375 26.953125 
Q 35.25 24.703125 29.984375 24.703125 
Q 19.046875 24.703125 12.671875 31.3125 
Q 6.296875 37.9375 6.296875 49.421875 
Q 6.296875 60.640625 12.9375 67.421875 
Q 19.578125 74.21875 30.609375 74.21875 
Q 43.265625 74.21875 49.921875 64.515625 
Q 56.59375 54.828125 56.59375 36.375 
Q 56.59375 19.140625 48.40625 8.859375 
Q 40.234375 -1.421875 26.421875 -1.421875 
Q 22.703125 -1.421875 18.890625 -0.6875 
Q 15.09375 0.046875 10.984375 1.515625 
z
M 30.609375 32.421875 
Q 37.25 32.421875 41.125 36.953125 
Q 45.015625 41.5 45.015625 49.421875 
Q 45.015625 57.28125 41.125 61.84375 
Q 37.25 66.40625 30.609375 66.40625 
Q 23.96875 66.40625 20.09375 61.84375 
Q 16.21875 57.28125 16.21875 49.421875 
Q 16.21875 41.5 20.09375 36.953125 
Q 23.96875 32.421875 30.609375 32.421875 
z
" id="DejaVuSans-57"/>
      </defs>
      <g style="fill:#555555;" transform="translate(639.756878 254.140188)scale(0.1 -0.1)">
       <use xlink:href="#DejaVuSans-57"/>
      </g>
     </g>
    </g>
    <g id="text_10">
     <!-- Season -->
     <defs>
      <path d="M 53.515625 70.515625 
L 53.515625 60.890625 
Q 47.90625 63.578125 42.921875 64.890625 
Q 37.9375 66.21875 33.296875 66.21875 
Q 25.25 66.21875 20.875 63.09375 
Q 16.5 59.96875 16.5 54.203125 
Q 16.5 49.359375 19.40625 46.890625 
Q 22.3125 44.4375 30.421875 42.921875 
L 36.375 41.703125 
Q 47.40625 39.59375 52.65625 34.296875 
Q 57.90625 29 57.90625 20.125 
Q 57.90625 9.515625 50.796875 4.046875 
Q 43.703125 -1.421875 29.984375 -1.421875 
Q 24.8125 -1.421875 18.96875 -0.25 
Q 13.140625 0.921875 6.890625 3.21875 
L 6.890625 13.375 
Q 12.890625 10.015625 18.65625 8.296875 
Q 24.421875 6.59375 29.984375 6.59375 
Q 38.421875 6.59375 43.015625 9.90625 
Q 47.609375 13.234375 47.609375 19.390625 
Q 47.609375 24.75 44.3125 27.78125 
Q 41.015625 30.8125 33.5 32.328125 
L 27.484375 33.5 
Q 16.453125 35.6875 11.515625 40.375 
Q 6.59375 45.0625 6.59375 53.421875 
Q 6.59375 63.09375 13.40625 68.65625 
Q 20.21875 74.21875 32.171875 74.21875 
Q 37.3125 74.21875 42.625 73.28125 
Q 47.953125 72.359375 53.515625 70.515625 
z
" id="DejaVuSans-83"/>
      <path d="M 56.203125 29.59375 
L 56.203125 25.203125 
L 14.890625 25.203125 
Q 15.484375 15.921875 20.484375 11.0625 
Q 25.484375 6.203125 34.421875 6.203125 
Q 39.59375 6.203125 44.453125 7.46875 
Q 49.3125 8.734375 54.109375 11.28125 
L 54.109375 2.78125 
Q 49.265625 0.734375 44.1875 -0.34375 
Q 39.109375 -1.421875 33.890625 -1.421875 
Q 20.796875 -1.421875 13.15625 6.1875 
Q 5.515625 13.8125 5.515625 26.8125 
Q 5.515625 40.234375 12.765625 48.109375 
Q 20.015625 56 32.328125 56 
Q 43.359375 56 49.78125 48.890625 
Q 56.203125 41.796875 56.203125 29.59375 
z
M 47.21875 32.234375 
Q 47.125 39.59375 43.09375 43.984375 
Q 39.0625 48.390625 32.421875 48.390625 
Q 24.90625 48.390625 20.390625 44.140625 
Q 15.875 39.890625 15.1875 32.171875 
z
" id="DejaVuSans-101"/>
      <path d="M 34.28125 27.484375 
Q 23.390625 27.484375 19.1875 25 
Q 14.984375 22.515625 14.984375 16.5 
Q 14.984375 11.71875 18.140625 8.90625 
Q 21.296875 6.109375 26.703125 6.109375 
Q 34.1875 6.109375 38.703125 11.40625 
Q 43.21875 16.703125 43.21875 25.484375 
L 43.21875 27.484375 
z
M 52.203125 31.203125 
L 52.203125 0 
L 43.21875 0 
L 43.21875 8.296875 
Q 40.140625 3.328125 35.546875 0.953125 
Q 30.953125 -1.421875 24.3125 -1.421875 
Q 15.921875 -1.421875 10.953125 3.296875 
Q 6 8.015625 6 15.921875 
Q 6 25.140625 12.171875 29.828125 
Q 18.359375 34.515625 30.609375 34.515625 
L 43.21875 34.515625 
L 43.21875 35.40625 
Q 43.21875 41.609375 39.140625 45 
Q 35.0625 48.390625 27.6875 48.390625 
Q 23 48.390625 18.546875 47.265625 
Q 14.109375 46.140625 10.015625 43.890625 
L 10.015625 52.203125 
Q 14.9375 54.109375 19.578125 55.046875 
Q 24.21875 56 28.609375 56 
Q 40.484375 56 46.34375 49.84375 
Q 52.203125 43.703125 52.203125 31.203125 
z
" id="DejaVuSans-97"/>
      <path d="M 44.28125 53.078125 
L 44.28125 44.578125 
Q 40.484375 46.53125 36.375 47.5 
Q 32.28125 48.484375 27.875 48.484375 
Q 21.1875 48.484375 17.84375 46.4375 
Q 14.5 44.390625 14.5 40.28125 
Q 14.5 37.15625 16.890625 35.375 
Q 19.28125 33.59375 26.515625 31.984375 
L 29.59375 31.296875 
Q 39.15625 29.25 43.1875 25.515625 
Q 47.21875 21.78125 47.21875 15.09375 
Q 47.21875 7.46875 41.1875 3.015625 
Q 35.15625 -1.421875 24.609375 -1.421875 
Q 20.21875 -1.421875 15.453125 -0.5625 
Q 10.6875 0.296875 5.421875 2 
L 5.421875 11.28125 
Q 10.40625 8.6875 15.234375 7.390625 
Q 20.0625 6.109375 24.8125 6.109375 
Q 31.15625 6.109375 34.5625 8.28125 
Q 37.984375 10.453125 37.984375 14.40625 
Q 37.984375 18.0625 35.515625 20.015625 
Q 33.0625 21.96875 24.703125 23.78125 
L 21.578125 24.515625 
Q 13.234375 26.265625 9.515625 29.90625 
Q 5.8125 33.546875 5.8125 39.890625 
Q 5.8125 47.609375 11.28125 51.796875 
Q 16.75 56 26.8125 56 
Q 31.78125 56 36.171875 55.265625 
Q 40.578125 54.546875 44.28125 53.078125 
z
" id="DejaVuSans-115"/>
      <path d="M 30.609375 48.390625 
Q 23.390625 48.390625 19.1875 42.75 
Q 14.984375 37.109375 14.984375 27.296875 
Q 14.984375 17.484375 19.15625 11.84375 
Q 23.34375 6.203125 30.609375 6.203125 
Q 37.796875 6.203125 41.984375 11.859375 
Q 46.1875 17.53125 46.1875 27.296875 
Q 46.1875 37.015625 41.984375 42.703125 
Q 37.796875 48.390625 30.609375 48.390625 
z
M 30.609375 56 
Q 42.328125 56 49.015625 48.375 
Q 55.71875 40.765625 55.71875 27.296875 
Q 55.71875 13.875 49.015625 6.21875 
Q 42.328125 -1.421875 30.609375 -1.421875 
Q 18.84375 -1.421875 12.171875 6.21875 
Q 5.515625 13.875 5.515625 27.296875 
Q 5.515625 40.765625 12.171875 48.375 
Q 18.84375 56 30.609375 56 
z
" id="DejaVuSans-111"/>
      <path d="M 54.890625 33.015625 
L 54.890625 0 
L 45.90625 0 
L 45.90625 32.71875 
Q 45.90625 40.484375 42.875 44.328125 
Q 39.84375 48.1875 33.796875 48.1875 
Q 26.515625 48.1875 22.3125 43.546875 
Q 18.109375 38.921875 18.109375 30.90625 
L 18.109375 0 
L 9.078125 0 
L 9.078125 54.6875 
L 18.109375 54.6875 
L 18.109375 46.1875 
Q 21.34375 51.125 25.703125 53.5625 
Q 30.078125 56 35.796875 56 
Q 45.21875 56 50.046875 50.171875 
Q 54.890625 44.34375 54.890625 33.015625 
z
" id="DejaVuSans-110"/>
     </defs>
     <g style="fill:#555555;" transform="translate(357.999063 269.338)scale(0.12 -0.12)">
      <use xlink:href="#DejaVuSans-83"/>
      <use x="63.476562" xlink:href="#DejaVuSans-101"/>
      <use x="125" xlink:href="#DejaVuSans-97"/>
      <use x="186.279297" xlink:href="#DejaVuSans-115"/>
      <use x="238.378906" xlink:href="#DejaVuSans-111"/>
      <use x="299.560547" xlink:href="#DejaVuSans-110"/>
     </g>
    </g>
   </g>
   <g id="matplotlib.axis_2">
    <g id="ytick_1">
     <g id="line2d_19">
      <path clip-path="url(#pb2a60cb264)" d="M 55.26375 229.750841 
L 704.28875 229.750841 
" style="fill:none;stroke:#ffffff;stroke-linecap:square;stroke-width:0.8;"/>
     </g>
     <g id="line2d_20">
      <defs>
       <path d="M 0 0 
L -3.5 0 
" id="m529d21bf73" style="stroke:#555555;stroke-width:0.8;"/>
      </defs>
      <g>
       <use style="fill:#555555;stroke:#555555;stroke-width:0.8;" x="55.26375" xlink:href="#m529d21bf73" y="229.750841"/>
      </g>
     </g>
     <g id="text_11">
      <!-- 0 -->
      <defs>
       <path d="M 31.78125 66.40625 
Q 24.171875 66.40625 20.328125 58.90625 
Q 16.5 51.421875 16.5 36.375 
Q 16.5 21.390625 20.328125 13.890625 
Q 24.171875 6.390625 31.78125 6.390625 
Q 39.453125 6.390625 43.28125 13.890625 
Q 47.125 21.390625 47.125 36.375 
Q 47.125 51.421875 43.28125 58.90625 
Q 39.453125 66.40625 31.78125 66.40625 
z
M 31.78125 74.21875 
Q 44.046875 74.21875 50.515625 64.515625 
Q 56.984375 54.828125 56.984375 36.375 
Q 56.984375 17.96875 50.515625 8.265625 
Q 44.046875 -1.421875 31.78125 -1.421875 
Q 19.53125 -1.421875 13.0625 8.265625 
Q 6.59375 17.96875 6.59375 36.375 
Q 6.59375 54.828125 13.0625 64.515625 
Q 19.53125 74.21875 31.78125 74.21875 
z
" id="DejaVuSans-48"/>
      </defs>
      <g style="fill:#555555;" transform="translate(41.90125 233.55006)scale(0.1 -0.1)">
       <use xlink:href="#DejaVuSans-48"/>
      </g>
     </g>
    </g>
    <g id="ytick_2">
     <g id="line2d_21">
      <path clip-path="url(#pb2a60cb264)" d="M 55.26375 203.64175 
L 704.28875 203.64175 
" style="fill:none;stroke:#ffffff;stroke-linecap:square;stroke-width:0.8;"/>
     </g>
     <g id="line2d_22">
      <g>
       <use style="fill:#555555;stroke:#555555;stroke-width:0.8;" x="55.26375" xlink:href="#m529d21bf73" y="203.64175"/>
      </g>
     </g>
     <g id="text_12">
      <!-- 250 -->
      <g style="fill:#555555;" transform="translate(29.17625 207.440969)scale(0.1 -0.1)">
       <use xlink:href="#DejaVuSans-50"/>
       <use x="63.623047" xlink:href="#DejaVuSans-53"/>
       <use x="127.246094" xlink:href="#DejaVuSans-48"/>
      </g>
     </g>
    </g>
    <g id="ytick_3">
     <g id="line2d_23">
      <path clip-path="url(#pb2a60cb264)" d="M 55.26375 177.532659 
L 704.28875 177.532659 
" style="fill:none;stroke:#ffffff;stroke-linecap:square;stroke-width:0.8;"/>
     </g>
     <g id="line2d_24">
      <g>
       <use style="fill:#555555;stroke:#555555;stroke-width:0.8;" x="55.26375" xlink:href="#m529d21bf73" y="177.532659"/>
      </g>
     </g>
     <g id="text_13">
      <!-- 500 -->
      <g style="fill:#555555;" transform="translate(29.17625 181.331878)scale(0.1 -0.1)">
       <use xlink:href="#DejaVuSans-53"/>
       <use x="63.623047" xlink:href="#DejaVuSans-48"/>
       <use x="127.246094" xlink:href="#DejaVuSans-48"/>
      </g>
     </g>
    </g>
    <g id="ytick_4">
     <g id="line2d_25">
      <path clip-path="url(#pb2a60cb264)" d="M 55.26375 151.423568 
L 704.28875 151.423568 
" style="fill:none;stroke:#ffffff;stroke-linecap:square;stroke-width:0.8;"/>
     </g>
     <g id="line2d_26">
      <g>
       <use style="fill:#555555;stroke:#555555;stroke-width:0.8;" x="55.26375" xlink:href="#m529d21bf73" y="151.423568"/>
      </g>
     </g>
     <g id="text_14">
      <!-- 750 -->
      <g style="fill:#555555;" transform="translate(29.17625 155.222787)scale(0.1 -0.1)">
       <use xlink:href="#DejaVuSans-55"/>
       <use x="63.623047" xlink:href="#DejaVuSans-53"/>
       <use x="127.246094" xlink:href="#DejaVuSans-48"/>
      </g>
     </g>
    </g>
    <g id="ytick_5">
     <g id="line2d_27">
      <path clip-path="url(#pb2a60cb264)" d="M 55.26375 125.314477 
L 704.28875 125.314477 
" style="fill:none;stroke:#ffffff;stroke-linecap:square;stroke-width:0.8;"/>
     </g>
     <g id="line2d_28">
      <g>
       <use style="fill:#555555;stroke:#555555;stroke-width:0.8;" x="55.26375" xlink:href="#m529d21bf73" y="125.314477"/>
      </g>
     </g>
     <g id="text_15">
      <!-- 1000 -->
      <g style="fill:#555555;" transform="translate(22.81375 129.113696)scale(0.1 -0.1)">
       <use xlink:href="#DejaVuSans-49"/>
       <use x="63.623047" xlink:href="#DejaVuSans-48"/>
       <use x="127.246094" xlink:href="#DejaVuSans-48"/>
       <use x="190.869141" xlink:href="#DejaVuSans-48"/>
      </g>
     </g>
    </g>
    <g id="ytick_6">
     <g id="line2d_29">
      <path clip-path="url(#pb2a60cb264)" d="M 55.26375 99.205386 
L 704.28875 99.205386 
" style="fill:none;stroke:#ffffff;stroke-linecap:square;stroke-width:0.8;"/>
     </g>
     <g id="line2d_30">
      <g>
       <use style="fill:#555555;stroke:#555555;stroke-width:0.8;" x="55.26375" xlink:href="#m529d21bf73" y="99.205386"/>
      </g>
     </g>
     <g id="text_16">
      <!-- 1250 -->
      <g style="fill:#555555;" transform="translate(22.81375 103.004605)scale(0.1 -0.1)">
       <use xlink:href="#DejaVuSans-49"/>
       <use x="63.623047" xlink:href="#DejaVuSans-50"/>
       <use x="127.246094" xlink:href="#DejaVuSans-53"/>
       <use x="190.869141" xlink:href="#DejaVuSans-48"/>
      </g>
     </g>
    </g>
    <g id="ytick_7">
     <g id="line2d_31">
      <path clip-path="url(#pb2a60cb264)" d="M 55.26375 73.096295 
L 704.28875 73.096295 
" style="fill:none;stroke:#ffffff;stroke-linecap:square;stroke-width:0.8;"/>
     </g>
     <g id="line2d_32">
      <g>
       <use style="fill:#555555;stroke:#555555;stroke-width:0.8;" x="55.26375" xlink:href="#m529d21bf73" y="73.096295"/>
      </g>
     </g>
     <g id="text_17">
      <!-- 1500 -->
      <g style="fill:#555555;" transform="translate(22.81375 76.895514)scale(0.1 -0.1)">
       <use xlink:href="#DejaVuSans-49"/>
       <use x="63.623047" xlink:href="#DejaVuSans-53"/>
       <use x="127.246094" xlink:href="#DejaVuSans-48"/>
       <use x="190.869141" xlink:href="#DejaVuSans-48"/>
      </g>
     </g>
    </g>
    <g id="ytick_8">
     <g id="line2d_33">
      <path clip-path="url(#pb2a60cb264)" d="M 55.26375 46.987205 
L 704.28875 46.987205 
" style="fill:none;stroke:#ffffff;stroke-linecap:square;stroke-width:0.8;"/>
     </g>
     <g id="line2d_34">
      <g>
       <use style="fill:#555555;stroke:#555555;stroke-width:0.8;" x="55.26375" xlink:href="#m529d21bf73" y="46.987205"/>
      </g>
     </g>
     <g id="text_18">
      <!-- 1750 -->
      <g style="fill:#555555;" transform="translate(22.81375 50.786423)scale(0.1 -0.1)">
       <use xlink:href="#DejaVuSans-49"/>
       <use x="63.623047" xlink:href="#DejaVuSans-55"/>
       <use x="127.246094" xlink:href="#DejaVuSans-53"/>
       <use x="190.869141" xlink:href="#DejaVuSans-48"/>
      </g>
     </g>
    </g>
    <g id="text_19">
     <!-- Words -->
     <defs>
      <path d="M 3.328125 72.90625 
L 13.28125 72.90625 
L 28.609375 11.28125 
L 43.890625 72.90625 
L 54.984375 72.90625 
L 70.3125 11.28125 
L 85.59375 72.90625 
L 95.609375 72.90625 
L 77.296875 0 
L 64.890625 0 
L 49.515625 63.28125 
L 33.984375 0 
L 21.578125 0 
z
" id="DejaVuSans-87"/>
      <path d="M 41.109375 46.296875 
Q 39.59375 47.171875 37.8125 47.578125 
Q 36.03125 48 33.890625 48 
Q 26.265625 48 22.1875 43.046875 
Q 18.109375 38.09375 18.109375 28.8125 
L 18.109375 0 
L 9.078125 0 
L 9.078125 54.6875 
L 18.109375 54.6875 
L 18.109375 46.1875 
Q 20.953125 51.171875 25.484375 53.578125 
Q 30.03125 56 36.53125 56 
Q 37.453125 56 38.578125 55.875 
Q 39.703125 55.765625 41.0625 55.515625 
z
" id="DejaVuSans-114"/>
      <path d="M 45.40625 46.390625 
L 45.40625 75.984375 
L 54.390625 75.984375 
L 54.390625 0 
L 45.40625 0 
L 45.40625 8.203125 
Q 42.578125 3.328125 38.25 0.953125 
Q 33.9375 -1.421875 27.875 -1.421875 
Q 17.96875 -1.421875 11.734375 6.484375 
Q 5.515625 14.40625 5.515625 27.296875 
Q 5.515625 40.1875 11.734375 48.09375 
Q 17.96875 56 27.875 56 
Q 33.9375 56 38.25 53.625 
Q 42.578125 51.265625 45.40625 46.390625 
z
M 14.796875 27.296875 
Q 14.796875 17.390625 18.875 11.75 
Q 22.953125 6.109375 30.078125 6.109375 
Q 37.203125 6.109375 41.296875 11.75 
Q 45.40625 17.390625 45.40625 27.296875 
Q 45.40625 37.203125 41.296875 42.84375 
Q 37.203125 48.484375 30.078125 48.484375 
Q 22.953125 48.484375 18.875 42.84375 
Q 14.796875 37.203125 14.796875 27.296875 
z
" id="DejaVuSans-100"/>
     </defs>
     <g style="fill:#555555;" transform="translate(16.318125 150.841125)rotate(-90)scale(0.12 -0.12)">
      <use xlink:href="#DejaVuSans-87"/>
      <use x="98.798828" xlink:href="#DejaVuSans-111"/>
      <use x="159.980469" xlink:href="#DejaVuSans-114"/>
      <use x="201.078125" xlink:href="#DejaVuSans-100"/>
      <use x="264.554688" xlink:href="#DejaVuSans-115"/>
     </g>
    </g>
   </g>
   <g id="line2d_35">
    <path clip-path="url(#pb2a60cb264)" d="M 55.26375 48.449314 
L 58.49273 86.150841 
L 61.72171 136.175859 
L 64.95069 96.80335 
L 68.17967 100.563059 
L 71.40865 149.857023 
L 74.637631 140.771059 
L 77.866611 132.833895 
L 81.095591 117.272877 
L 84.324571 128.656441 
L 87.553551 129.805241 
L 90.782531 136.384732 
L 94.011511 130.11855 
L 97.240491 141.60655 
L 100.469471 135.966986 
L 103.698451 63.801459 
L 106.927432 73.931786 
L 110.156412 129.178623 
L 113.385392 155.287714 
L 116.614372 116.750695 
L 119.843352 147.872732 
L 123.072332 126.463277 
L 126.301312 127.716514 
L 129.530292 121.868077 
L 132.759272 103.069532 
L 135.988252 129.805241 
L 139.217233 147.559423 
L 142.446213 93.670259 
L 145.675193 116.228514 
L 148.904173 133.356077 
L 152.133153 133.356077 
L 155.362133 160.613968 
L 158.591113 118.943859 
L 161.820093 112.88655 
L 165.049073 153.825605 
L 168.278053 90.537168 
L 171.507034 139.30895 
L 174.736014 132.625023 
L 177.964994 116.437386 
L 181.193974 96.072295 
L 184.422954 133.56495 
L 187.651934 90.432732 
L 190.880914 119.77935 
L 194.109894 146.932805 
L 197.338874 127.716514 
L 200.567854 110.58895 
L 203.796835 101.502986 
L 207.025815 119.883786 
L 210.254795 148.603786 
L 213.483775 205.626041 
L 216.712755 136.384732 
L 219.941735 141.293241 
L 223.170715 106.933677 
L 226.399695 123.434623 
L 229.628675 130.849605 
L 232.857655 130.536295 
L 236.086636 95.550114 
L 239.315616 115.497459 
L 242.544596 105.262695 
L 245.773576 113.722041 
L 249.002556 50.746914 
L 252.231536 137.637968 
L 255.460516 104.531641 
L 258.689496 134.504877 
L 261.918476 140.666623 
L 265.147456 95.027932 
L 268.376437 143.277532 
L 271.605417 143.695277 
L 274.834397 141.397677 
L 278.063377 102.54735 
L 281.292357 94.296877 
L 284.521337 50.955786 
L 287.750317 151.423568 
L 290.979297 163.955932 
L 297.437257 111.111132 
L 300.666238 109.649023 
L 303.895218 137.324659 
L 307.124198 121.972514 
L 310.353178 220.560441 
L 313.582158 148.394914 
L 316.811138 170.32655 
L 320.040118 88.344005 
L 323.269098 131.476223 
L 326.498078 73.096295 
L 329.727058 145.992877 
L 332.956039 110.484514 
L 336.185019 153.825605 
L 339.413999 93.252514 
L 342.642979 112.782114 
L 345.871959 72.782986 
L 349.100939 96.594477 
L 352.329919 131.371786 
L 355.558899 142.546477 
L 358.787879 76.12495 
L 362.016859 133.56495 
L 365.24584 166.357968 
L 368.47482 160.613968 
L 371.7038 79.675786 
L 374.93278 188.602914 
L 378.16176 87.61295 
L 381.39074 170.013241 
L 384.61972 229.437532 
L 387.8487 131.998405 
L 391.07768 119.257168 
L 394.30666 87.404077 
L 397.535641 176.801605 
L 400.764621 147.141677 
L 403.993601 63.070405 
L 407.222581 131.893968 
L 410.451561 161.240586 
L 413.680541 196.540077 
L 416.909521 88.657314 
L 420.138501 133.460514 
L 423.367481 157.480877 
L 426.596461 123.434623 
L 429.825442 118.003932 
L 433.054422 115.915205 
L 436.283402 128.447568 
L 439.512382 128.238695 
L 442.741362 213.354332 
L 445.970342 225.364514 
L 449.199322 124.792295 
L 452.428302 128.029823 
L 455.657282 143.486405 
L 458.886262 151.005823 
L 462.115243 161.031714 
L 465.344223 177.428223 
L 468.573203 133.669386 
L 471.802183 110.58895 
L 475.031163 110.484514 
L 478.260143 132.207277 
L 481.489123 106.620368 
L 484.718103 157.167568 
L 487.947083 146.932805 
L 491.176063 131.162914 
L 494.405044 229.750841 
L 497.634024 120.405968 
L 500.863004 161.867205 
L 504.091984 211.370041 
L 507.320964 176.383859 
L 510.549944 131.685095 
L 513.778924 128.134259 
L 517.007904 112.782114 
L 520.236884 106.307059 
L 523.465864 121.554768 
L 526.694845 97.534405 
L 529.923825 119.048295 
L 533.152805 33.932659 
L 536.381785 94.192441 
L 539.610765 52.00015 
L 542.839745 175.652805 
L 546.068725 152.781241 
L 549.297705 176.174986 
L 552.526685 81.555641 
L 555.755665 168.342259 
L 558.984646 178.054841 
L 562.213626 86.46415 
L 565.442606 168.02895 
L 568.671586 81.555641 
L 571.900566 160.822841 
L 575.129546 229.124223 
L 578.358526 229.541968 
L 581.587506 229.750841 
L 604.190367 229.750841 
L 607.419347 223.902405 
L 610.648327 229.750841 
L 613.877307 203.328441 
L 617.106287 229.750841 
L 620.335267 228.393168 
L 623.564248 127.194332 
L 626.793228 138.369023 
L 630.022208 107.351423 
L 633.251188 165.940223 
L 636.480168 123.539059 
L 639.709148 162.702695 
L 642.938128 228.393168 
L 646.167108 229.750841 
L 697.83079 229.750841 
L 701.05977 114.661968 
L 704.28875 114.661968 
L 704.28875 114.661968 
" style="fill:none;stroke:#d62728;stroke-linecap:square;stroke-opacity:0.25;stroke-width:1.5;"/>
   </g>
   <g id="line2d_36">
    <path clip-path="url(#pb2a60cb264)" d="M 55.26375 105.367132 
L 58.49273 128.656441 
L 61.72171 150.065895 
L 64.95069 137.115786 
L 68.17967 137.429095 
L 71.40865 145.784005 
L 74.637631 178.994768 
L 77.866611 153.198986 
L 81.095591 170.639859 
L 84.324571 178.472586 
L 87.553551 129.596368 
L 90.782531 125.732223 
L 94.011511 163.43375 
L 97.240491 161.449459 
L 100.469471 119.466041 
L 103.698451 143.173095 
L 106.927432 137.637968 
L 110.156412 122.390259 
L 113.385392 164.791423 
L 116.614372 159.360732 
L 119.843352 165.313605 
L 123.072332 144.008586 
L 126.301312 147.872732 
L 129.530292 135.549241 
L 132.759272 185.365386 
L 135.988252 142.128732 
L 139.217233 196.017895 
L 142.446213 170.222114 
L 145.675193 171.47535 
L 148.904173 229.124223 
L 152.133153 229.750841 
L 155.362133 223.275786 
L 158.591113 145.366259 
L 161.820093 125.732223 
L 165.049073 131.580659 
L 168.278053 96.594477 
L 171.507034 189.438405 
L 174.736014 93.35695 
L 177.964994 152.154623 
L 181.193974 148.290477 
L 184.422954 132.41615 
L 187.651934 138.577895 
L 190.880914 92.521459 
L 194.109894 146.932805 
L 197.338874 160.927277 
L 200.567854 146.410623 
L 203.796835 129.700805 
L 207.025815 126.67215 
L 210.254795 122.599132 
L 213.483775 137.846841 
L 216.712755 159.256295 
L 219.941735 120.405968 
L 223.170715 151.841314 
L 226.399695 162.493823 
L 229.628675 145.366259 
L 232.857655 154.452223 
L 236.086636 145.157386 
L 239.315616 147.977168 
L 242.544596 122.07695 
L 245.773576 107.769168 
L 249.002556 136.802477 
L 252.231536 150.065895 
L 255.460516 133.042768 
L 258.689496 137.533532 
L 261.918476 135.340368 
L 265.147456 138.055714 
L 268.376437 99.10095 
L 271.605417 140.771059 
L 274.834397 135.653677 
L 278.063377 98.265459 
L 281.292357 106.933677 
L 284.521337 160.300659 
L 287.750317 187.036368 
L 290.979297 151.005823 
L 294.208277 130.431859 
L 297.437257 100.145314 
L 300.666238 131.371786 
L 303.895218 155.39215 
L 307.124198 130.327423 
L 310.353178 220.247132 
L 313.582158 171.684223 
L 316.811138 125.105605 
L 320.040118 139.935568 
L 323.269098 130.11855 
L 326.498078 94.819059 
L 329.727058 130.222986 
L 332.956039 107.246986 
L 336.185019 124.270114 
L 339.413999 149.334841 
L 342.642979 131.685095 
L 345.871959 105.053823 
L 349.100939 124.896732 
L 352.329919 104.949386 
L 355.558899 229.750841 
L 358.787879 120.510405 
L 362.016859 41.869823 
L 365.24584 123.330186 
L 368.47482 107.351423 
L 371.7038 184.634332 
L 374.93278 229.750841 
L 378.16176 137.951277 
L 381.39074 127.298768 
L 384.61972 80.197968 
L 387.8487 146.515059 
L 391.07768 161.345023 
L 394.30666 144.321895 
L 397.535641 140.979932 
L 400.764621 160.091786 
L 403.993601 95.967859 
L 407.222581 174.712877 
L 410.451561 170.535423 
L 413.680541 229.750841 
L 416.909521 152.050186 
L 420.138501 97.638841 
L 423.367481 138.577895 
L 426.596461 156.749823 
L 429.825442 160.613968 
L 433.054422 136.802477 
L 436.283402 130.431859 
L 439.512382 155.078841 
L 442.741362 153.616732 
L 445.970342 171.788659 
L 449.199322 111.215568 
L 452.428302 154.452223 
L 458.886262 164.164805 
L 462.115243 114.348659 
L 465.344223 172.206405 
L 468.573203 169.699932 
L 471.802183 101.920732 
L 475.031163 164.373677 
L 478.260143 133.878259 
L 481.489123 145.575132 
L 484.718103 139.935568 
L 487.947083 126.985459 
L 491.176063 201.135277 
L 494.405044 201.761895 
L 497.634024 99.309823 
L 500.863004 78.944732 
L 504.091984 141.502114 
L 507.320964 153.198986 
L 510.549944 203.64175 
L 513.778924 147.977168 
L 517.007904 142.024295 
L 520.236884 126.149968 
L 523.465864 153.721168 
L 526.694845 127.82095 
L 529.923825 166.149095 
L 533.152805 182.336732 
L 536.381785 134.400441 
L 539.610765 131.998405 
L 542.839745 135.758114 
L 546.068725 172.415277 
L 549.297705 150.588077 
L 552.526685 188.080732 
L 555.755665 102.025168 
L 558.984646 153.512295 
L 562.213626 126.567714 
L 565.442606 114.766405 
L 568.671586 152.467932 
L 571.900566 183.067786 
L 575.129546 126.254405 
L 578.358526 137.533532 
L 581.587506 93.35695 
L 584.816486 81.555641 
L 588.045466 148.603786 
L 591.274447 203.119568 
L 594.503427 206.983714 
L 597.732407 161.867205 
L 600.961387 155.601023 
L 604.190367 107.246986 
L 607.419347 229.750841 
L 610.648327 80.197968 
L 613.877307 128.447568 
L 617.106287 137.637968 
L 620.335267 145.470695 
L 623.564248 165.000295 
L 626.793228 198.211059 
L 630.022208 164.791423 
L 633.251188 159.674041 
L 636.480168 196.540077 
L 639.709148 189.85615 
L 642.938128 190.169459 
L 646.167108 199.150986 
L 649.396088 164.58255 
L 652.625068 208.028077 
L 655.854049 185.365386 
L 659.083029 121.137023 
L 662.312009 218.262841 
L 665.540989 184.634332 
L 668.769969 152.781241 
L 671.998949 157.480877 
L 675.227929 205.417168 
L 678.456909 180.874623 
L 681.685889 149.543714 
L 684.914869 173.250768 
L 688.14385 224.737895 
L 691.37283 130.11855 
L 694.60181 191.318259 
L 697.83079 160.822841 
L 701.05977 137.220223 
L 704.28875 137.220223 
L 704.28875 137.220223 
" style="fill:none;stroke:#1f77b4;stroke-linecap:square;stroke-opacity:0.25;stroke-width:1.5;"/>
   </g>
   <g id="line2d_37">
    <path clip-path="url(#pb2a60cb264)" d="M 55.26375 94.192311 
L 58.49273 98.503555 
L 64.95069 106.565474 
L 71.40865 114.038649 
L 77.866611 121.053536 
L 81.095591 124.279726 
L 84.324571 126.89663 
L 87.553551 127.146297 
L 94.011511 126.921742 
L 100.469471 126.912351 
L 103.698451 126.970071 
L 106.927432 126.75181 
L 119.843352 124.72149 
L 123.072332 124.725873 
L 126.301312 125.087944 
L 129.530292 125.69754 
L 132.759272 126.171616 
L 135.988252 126.255524 
L 145.675193 126.114053 
L 155.362133 126.510288 
L 158.591113 126.382572 
L 161.820093 125.871476 
L 181.193974 120.847825 
L 184.422954 120.354224 
L 187.651934 120.377322 
L 190.880914 120.912108 
L 194.109894 121.989348 
L 200.567854 124.571308 
L 203.796835 125.683528 
L 207.025815 126.565592 
L 210.254795 126.984419 
L 213.483775 126.934614 
L 216.712755 126.526197 
L 219.941735 125.781739 
L 223.170715 124.780656 
L 226.399695 123.550042 
L 229.628675 121.910601 
L 232.857655 120.043205 
L 236.086636 118.398538 
L 239.315616 117.24054 
L 242.544596 116.772186 
L 245.773576 116.980954 
L 249.002556 117.717571 
L 252.231536 118.621569 
L 261.918476 120.938138 
L 265.147456 122.117413 
L 271.605417 124.928737 
L 274.834397 125.971761 
L 278.063377 126.561182 
L 281.292357 126.713238 
L 284.521337 126.692999 
L 287.750317 126.818658 
L 290.979297 127.465725 
L 297.437257 129.337949 
L 300.666238 130.020698 
L 303.895218 130.325823 
L 307.124198 130.042396 
L 310.353178 129.245679 
L 316.811138 126.952751 
L 320.040118 125.770043 
L 323.269098 124.384309 
L 326.498078 122.660676 
L 332.956039 118.389644 
L 336.185019 116.64696 
L 339.413999 115.927453 
L 342.642979 116.394759 
L 345.871959 117.701976 
L 352.329919 121.325885 
L 355.558899 123.447447 
L 358.787879 126.039029 
L 362.016859 128.943158 
L 365.24584 131.542727 
L 368.47482 133.494645 
L 371.7038 134.978851 
L 374.93278 136.118702 
L 378.16176 136.74315 
L 387.8487 137.191089 
L 397.535641 136.679229 
L 400.764621 136.595244 
L 403.993601 136.24196 
L 413.680541 134.715846 
L 420.138501 134.233017 
L 423.367481 133.834594 
L 426.596461 133.559545 
L 429.825442 133.562504 
L 433.054422 133.739062 
L 436.283402 134.208147 
L 439.512382 135.315898 
L 445.970342 138.454361 
L 449.199322 139.480858 
L 452.428302 140.124575 
L 455.657282 140.418446 
L 458.886262 140.268864 
L 462.115243 139.674124 
L 468.573203 138.021121 
L 471.802183 137.455255 
L 475.031163 137.206673 
L 478.260143 137.264953 
L 481.489123 137.735576 
L 491.176063 140.2232 
L 494.405044 140.520161 
L 497.634024 140.405093 
L 500.863004 139.674603 
L 504.091984 138.314059 
L 507.320964 136.321816 
L 510.549944 133.584359 
L 513.778924 130.02392 
L 517.007904 126.189329 
L 520.236884 123.043566 
L 523.465864 121.420477 
L 526.694845 121.17034 
L 529.923825 122.225914 
L 533.152805 124.509269 
L 536.381785 127.539707 
L 539.610765 131.129297 
L 542.839745 135.196919 
L 546.068725 139.771142 
L 549.297705 145.182333 
L 552.526685 151.693494 
L 555.755665 159.151195 
L 562.213626 174.842801 
L 565.442606 182.000225 
L 568.671586 188.421085 
L 581.587506 212.665698 
L 584.816486 217.889399 
L 588.045466 222.070632 
L 591.274447 224.897642 
L 594.503427 226.364354 
L 597.732407 226.417594 
L 600.961387 225.004074 
L 604.190367 222.046024 
L 607.419347 217.649489 
L 610.648327 211.966299 
L 613.877307 205.683753 
L 617.106287 200.304269 
L 620.335267 196.895588 
L 623.564248 195.399787 
L 626.793228 195.082657 
L 633.251188 195.49701 
L 636.480168 195.854043 
L 639.709148 196.765343 
L 642.938128 199.072244 
L 646.167108 203.442919 
L 652.625068 215.818114 
L 655.854049 221.027732 
L 659.083029 224.904834 
L 662.312009 227.545389 
L 665.540989 229.028801 
L 668.769969 229.636971 
L 671.998949 229.716706 
L 675.227929 229.50453 
L 678.456909 228.385097 
L 681.685889 226.694543 
L 688.14385 222.734227 
L 697.83079 216.448633 
L 701.05977 214.205303 
L 704.28875 211.800264 
L 704.28875 211.800264 
" style="fill:none;stroke:#e24a33;stroke-linecap:square;stroke-width:1.5;"/>
   </g>
   <g id="line2d_38">
    <path clip-path="url(#pb2a60cb264)" d="M 55.26375 133.313586 
L 58.49273 135.748605 
L 61.72171 138.002251 
L 64.95069 140.088917 
L 68.17967 142.018938 
L 74.637631 145.479109 
L 81.095591 148.588584 
L 84.324571 149.916919 
L 87.553551 149.633917 
L 94.011511 148.671443 
L 103.698451 147.051862 
L 106.927432 146.999469 
L 110.156412 147.429634 
L 113.385392 148.499117 
L 116.614372 150.158868 
L 119.843352 152.244148 
L 123.072332 154.84158 
L 126.301312 158.033772 
L 129.530292 161.536742 
L 132.759272 164.559976 
L 135.988252 166.238416 
L 139.217233 166.168823 
L 142.446213 164.881318 
L 145.675193 163.240025 
L 152.133153 159.404717 
L 155.362133 157.413397 
L 158.591113 155.258742 
L 161.820093 152.649146 
L 165.049073 149.357022 
L 168.278053 145.534264 
L 171.507034 141.970843 
L 174.736014 139.386853 
L 177.964994 138.021832 
L 181.193974 137.539589 
L 184.422954 137.497685 
L 190.880914 137.698379 
L 197.338874 137.370849 
L 200.567854 137.536015 
L 203.796835 138.135097 
L 207.025815 138.986245 
L 213.483775 141.072968 
L 216.712755 141.765435 
L 219.941735 141.939454 
L 226.399695 141.554063 
L 232.857655 141.480748 
L 236.086636 141.229867 
L 239.315616 140.655557 
L 242.544596 139.637073 
L 245.773576 138.28959 
L 249.002556 136.738388 
L 255.460516 133.249694 
L 258.689496 131.924449 
L 261.918476 131.307144 
L 265.147456 131.508808 
L 268.376437 132.18015 
L 271.605417 132.716623 
L 274.834397 132.86401 
L 281.292357 132.839987 
L 284.521337 133.15673 
L 287.750317 133.982463 
L 294.208277 136.535808 
L 297.437257 137.516553 
L 300.666238 137.77301 
L 303.895218 137.31923 
L 307.124198 136.104837 
L 310.353178 134.349923 
L 313.582158 132.726198 
L 316.811138 131.706897 
L 323.269098 130.337859 
L 326.498078 129.060898 
L 329.727058 127.206899 
L 332.956039 125.185956 
L 336.185019 123.325756 
L 339.413999 121.836865 
L 342.642979 120.855747 
L 345.871959 120.497987 
L 349.100939 120.630087 
L 352.329919 121.234436 
L 355.558899 122.003321 
L 362.016859 123.11278 
L 365.24584 124.007014 
L 368.47482 125.40727 
L 371.7038 127.360825 
L 374.93278 129.75008 
L 381.39074 134.908285 
L 391.07768 142.726672 
L 394.30666 144.929318 
L 397.535641 146.472161 
L 400.764621 147.439915 
L 403.993601 148.214932 
L 407.222581 148.783442 
L 410.451561 149.036645 
L 420.138501 148.95516 
L 423.367481 148.854019 
L 433.054422 147.696096 
L 436.283402 147.626519 
L 439.512382 148.054769 
L 445.970342 149.657557 
L 449.199322 150.223504 
L 452.428302 150.416233 
L 455.657282 150.36124 
L 458.886262 150.130422 
L 462.115243 149.65488 
L 465.344223 149.043205 
L 475.031163 147.545677 
L 481.489123 145.53639 
L 484.718103 144.893719 
L 487.947083 144.767552 
L 507.320964 145.53485 
L 520.236884 146.713805 
L 526.694845 147.805115 
L 529.923825 148.038446 
L 533.152805 148.088866 
L 536.381785 147.984712 
L 539.610765 147.594341 
L 546.068725 146.441636 
L 549.297705 145.776229 
L 552.526685 144.982846 
L 555.755665 143.964664 
L 565.442606 140.070556 
L 568.671586 139.334667 
L 571.900566 139.585191 
L 575.129546 140.841357 
L 581.587506 143.941556 
L 584.816486 145.035973 
L 588.045466 145.321671 
L 594.503427 144.543283 
L 597.732407 144.802236 
L 600.961387 146.241865 
L 604.190367 148.413916 
L 607.419347 150.392596 
L 610.648327 151.901087 
L 617.106287 154.24478 
L 620.335267 156.220749 
L 623.564248 159.218418 
L 626.793228 163.292508 
L 633.251188 172.832193 
L 636.480168 176.844648 
L 639.709148 180.093068 
L 642.938128 182.299138 
L 646.167108 183.361515 
L 649.396088 183.652904 
L 652.625068 183.478102 
L 655.854049 182.926345 
L 659.083029 182.056598 
L 662.312009 180.832821 
L 668.769969 177.66141 
L 671.998949 175.973387 
L 675.227929 174.044249 
L 678.456909 171.42469 
L 688.14385 162.826309 
L 697.83079 154.075983 
L 704.28875 148.028589 
L 704.28875 148.028589 
" style="fill:none;stroke:#348abd;stroke-linecap:square;stroke-width:1.5;"/>
   </g>
   <g id="patch_3">
    <path d="M 55.26375 239.54175 
L 55.26375 24.14175 
" style="fill:none;stroke:#ffffff;stroke-linecap:square;stroke-linejoin:miter;"/>
   </g>
   <g id="patch_4">
    <path d="M 704.28875 239.54175 
L 704.28875 24.14175 
" style="fill:none;stroke:#ffffff;stroke-linecap:square;stroke-linejoin:miter;"/>
   </g>
   <g id="patch_5">
    <path d="M 55.26375 239.54175 
L 704.28875 239.54175 
" style="fill:none;stroke:#ffffff;stroke-linecap:square;stroke-linejoin:miter;"/>
   </g>
   <g id="patch_6">
    <path d="M 55.26375 24.14175 
L 704.28875 24.14175 
" style="fill:none;stroke:#ffffff;stroke-linecap:square;stroke-linejoin:miter;"/>
   </g>
   <g id="text_20">
    <!-- Words spoken by Mulder and Scully per episode -->
    <defs>
     <path id="DejaVuSans-32"/>
     <path d="M 18.109375 8.203125 
L 18.109375 -20.796875 
L 9.078125 -20.796875 
L 9.078125 54.6875 
L 18.109375 54.6875 
L 18.109375 46.390625 
Q 20.953125 51.265625 25.265625 53.625 
Q 29.59375 56 35.59375 56 
Q 45.5625 56 51.78125 48.09375 
Q 58.015625 40.1875 58.015625 27.296875 
Q 58.015625 14.40625 51.78125 6.484375 
Q 45.5625 -1.421875 35.59375 -1.421875 
Q 29.59375 -1.421875 25.265625 0.953125 
Q 20.953125 3.328125 18.109375 8.203125 
z
M 48.6875 27.296875 
Q 48.6875 37.203125 44.609375 42.84375 
Q 40.53125 48.484375 33.40625 48.484375 
Q 26.265625 48.484375 22.1875 42.84375 
Q 18.109375 37.203125 18.109375 27.296875 
Q 18.109375 17.390625 22.1875 11.75 
Q 26.265625 6.109375 33.40625 6.109375 
Q 40.53125 6.109375 44.609375 11.75 
Q 48.6875 17.390625 48.6875 27.296875 
z
" id="DejaVuSans-112"/>
     <path d="M 9.078125 75.984375 
L 18.109375 75.984375 
L 18.109375 31.109375 
L 44.921875 54.6875 
L 56.390625 54.6875 
L 27.390625 29.109375 
L 57.625 0 
L 45.90625 0 
L 18.109375 26.703125 
L 18.109375 0 
L 9.078125 0 
z
" id="DejaVuSans-107"/>
     <path d="M 48.6875 27.296875 
Q 48.6875 37.203125 44.609375 42.84375 
Q 40.53125 48.484375 33.40625 48.484375 
Q 26.265625 48.484375 22.1875 42.84375 
Q 18.109375 37.203125 18.109375 27.296875 
Q 18.109375 17.390625 22.1875 11.75 
Q 26.265625 6.109375 33.40625 6.109375 
Q 40.53125 6.109375 44.609375 11.75 
Q 48.6875 17.390625 48.6875 27.296875 
z
M 18.109375 46.390625 
Q 20.953125 51.265625 25.265625 53.625 
Q 29.59375 56 35.59375 56 
Q 45.5625 56 51.78125 48.09375 
Q 58.015625 40.1875 58.015625 27.296875 
Q 58.015625 14.40625 51.78125 6.484375 
Q 45.5625 -1.421875 35.59375 -1.421875 
Q 29.59375 -1.421875 25.265625 0.953125 
Q 20.953125 3.328125 18.109375 8.203125 
L 18.109375 0 
L 9.078125 0 
L 9.078125 75.984375 
L 18.109375 75.984375 
z
" id="DejaVuSans-98"/>
     <path d="M 32.171875 -5.078125 
Q 28.375 -14.84375 24.75 -17.8125 
Q 21.140625 -20.796875 15.09375 -20.796875 
L 7.90625 -20.796875 
L 7.90625 -13.28125 
L 13.1875 -13.28125 
Q 16.890625 -13.28125 18.9375 -11.515625 
Q 21 -9.765625 23.484375 -3.21875 
L 25.09375 0.875 
L 2.984375 54.6875 
L 12.5 54.6875 
L 29.59375 11.921875 
L 46.6875 54.6875 
L 56.203125 54.6875 
z
" id="DejaVuSans-121"/>
     <path d="M 9.8125 72.90625 
L 24.515625 72.90625 
L 43.109375 23.296875 
L 61.8125 72.90625 
L 76.515625 72.90625 
L 76.515625 0 
L 66.890625 0 
L 66.890625 64.015625 
L 48.09375 14.015625 
L 38.1875 14.015625 
L 19.390625 64.015625 
L 19.390625 0 
L 9.8125 0 
z
" id="DejaVuSans-77"/>
     <path d="M 8.5 21.578125 
L 8.5 54.6875 
L 17.484375 54.6875 
L 17.484375 21.921875 
Q 17.484375 14.15625 20.5 10.265625 
Q 23.53125 6.390625 29.59375 6.390625 
Q 36.859375 6.390625 41.078125 11.03125 
Q 45.3125 15.671875 45.3125 23.6875 
L 45.3125 54.6875 
L 54.296875 54.6875 
L 54.296875 0 
L 45.3125 0 
L 45.3125 8.40625 
Q 42.046875 3.421875 37.71875 1 
Q 33.40625 -1.421875 27.6875 -1.421875 
Q 18.265625 -1.421875 13.375 4.4375 
Q 8.5 10.296875 8.5 21.578125 
z
M 31.109375 56 
z
" id="DejaVuSans-117"/>
     <path d="M 9.421875 75.984375 
L 18.40625 75.984375 
L 18.40625 0 
L 9.421875 0 
z
" id="DejaVuSans-108"/>
     <path d="M 48.78125 52.59375 
L 48.78125 44.1875 
Q 44.96875 46.296875 41.140625 47.34375 
Q 37.3125 48.390625 33.40625 48.390625 
Q 24.65625 48.390625 19.8125 42.84375 
Q 14.984375 37.3125 14.984375 27.296875 
Q 14.984375 17.28125 19.8125 11.734375 
Q 24.65625 6.203125 33.40625 6.203125 
Q 37.3125 6.203125 41.140625 7.25 
Q 44.96875 8.296875 48.78125 10.40625 
L 48.78125 2.09375 
Q 45.015625 0.34375 40.984375 -0.53125 
Q 36.96875 -1.421875 32.421875 -1.421875 
Q 20.0625 -1.421875 12.78125 6.34375 
Q 5.515625 14.109375 5.515625 27.296875 
Q 5.515625 40.671875 12.859375 48.328125 
Q 20.21875 56 33.015625 56 
Q 37.15625 56 41.109375 55.140625 
Q 45.0625 54.296875 48.78125 52.59375 
z
" id="DejaVuSans-99"/>
     <path d="M 9.421875 54.6875 
L 18.40625 54.6875 
L 18.40625 0 
L 9.421875 0 
z
M 9.421875 75.984375 
L 18.40625 75.984375 
L 18.40625 64.59375 
L 9.421875 64.59375 
z
" id="DejaVuSans-105"/>
    </defs>
    <g transform="translate(206.4835 18.14175)scale(0.144 -0.144)">
     <use xlink:href="#DejaVuSans-87"/>
     <use x="98.798828" xlink:href="#DejaVuSans-111"/>
     <use x="159.980469" xlink:href="#DejaVuSans-114"/>
     <use x="201.078125" xlink:href="#DejaVuSans-100"/>
     <use x="264.554688" xlink:href="#DejaVuSans-115"/>
     <use x="316.654297" xlink:href="#DejaVuSans-32"/>
     <use x="348.441406" xlink:href="#DejaVuSans-115"/>
     <use x="400.541016" xlink:href="#DejaVuSans-112"/>
     <use x="464.017578" xlink:href="#DejaVuSans-111"/>
     <use x="525.199219" xlink:href="#DejaVuSans-107"/>
     <use x="583.0625" xlink:href="#DejaVuSans-101"/>
     <use x="644.585938" xlink:href="#DejaVuSans-110"/>
     <use x="707.964844" xlink:href="#DejaVuSans-32"/>
     <use x="739.751953" xlink:href="#DejaVuSans-98"/>
     <use x="803.228516" xlink:href="#DejaVuSans-121"/>
     <use x="862.408203" xlink:href="#DejaVuSans-32"/>
     <use x="894.195312" xlink:href="#DejaVuSans-77"/>
     <use x="980.474609" xlink:href="#DejaVuSans-117"/>
     <use x="1043.853516" xlink:href="#DejaVuSans-108"/>
     <use x="1071.636719" xlink:href="#DejaVuSans-100"/>
     <use x="1135.113281" xlink:href="#DejaVuSans-101"/>
     <use x="1196.636719" xlink:href="#DejaVuSans-114"/>
     <use x="1237.75" xlink:href="#DejaVuSans-32"/>
     <use x="1269.537109" xlink:href="#DejaVuSans-97"/>
     <use x="1330.816406" xlink:href="#DejaVuSans-110"/>
     <use x="1394.195312" xlink:href="#DejaVuSans-100"/>
     <use x="1457.671875" xlink:href="#DejaVuSans-32"/>
     <use x="1489.458984" xlink:href="#DejaVuSans-83"/>
     <use x="1552.935547" xlink:href="#DejaVuSans-99"/>
     <use x="1607.916016" xlink:href="#DejaVuSans-117"/>
     <use x="1671.294922" xlink:href="#DejaVuSans-108"/>
     <use x="1699.078125" xlink:href="#DejaVuSans-108"/>
     <use x="1726.861328" xlink:href="#DejaVuSans-121"/>
     <use x="1786.041016" xlink:href="#DejaVuSans-32"/>
     <use x="1817.828125" xlink:href="#DejaVuSans-112"/>
     <use x="1881.304688" xlink:href="#DejaVuSans-101"/>
     <use x="1942.828125" xlink:href="#DejaVuSans-114"/>
     <use x="1983.941406" xlink:href="#DejaVuSans-32"/>
     <use x="2015.728516" xlink:href="#DejaVuSans-101"/>
     <use x="2077.251953" xlink:href="#DejaVuSans-112"/>
     <use x="2140.728516" xlink:href="#DejaVuSans-105"/>
     <use x="2168.511719" xlink:href="#DejaVuSans-115"/>
     <use x="2220.611328" xlink:href="#DejaVuSans-111"/>
     <use x="2281.792969" xlink:href="#DejaVuSans-100"/>
     <use x="2345.269531" xlink:href="#DejaVuSans-101"/>
    </g>
   </g>
   <g id="legend_1">
    <g id="patch_7">
     <path d="M 630.9325 61.498 
L 697.28875 61.498 
Q 699.28875 61.498 699.28875 59.498 
L 699.28875 31.14175 
Q 699.28875 29.14175 697.28875 29.14175 
L 630.9325 29.14175 
Q 628.9325 29.14175 628.9325 31.14175 
L 628.9325 59.498 
Q 628.9325 61.498 630.9325 61.498 
z
" style="fill:#e5e5e5;opacity:0.8;stroke:#cccccc;stroke-linejoin:miter;stroke-width:0.5;"/>
    </g>
    <g id="line2d_39">
     <path d="M 632.9325 37.240187 
L 652.9325 37.240187 
" style="fill:none;stroke:#e24a33;stroke-linecap:square;stroke-width:1.5;"/>
    </g>
    <g id="line2d_40"/>
    <g id="text_21">
     <!-- Mulder -->
     <g transform="translate(660.9325 40.740187)scale(0.1 -0.1)">
      <use xlink:href="#DejaVuSans-77"/>
      <use x="86.279297" xlink:href="#DejaVuSans-117"/>
      <use x="149.658203" xlink:href="#DejaVuSans-108"/>
      <use x="177.441406" xlink:href="#DejaVuSans-100"/>
      <use x="240.917969" xlink:href="#DejaVuSans-101"/>
      <use x="302.441406" xlink:href="#DejaVuSans-114"/>
     </g>
    </g>
    <g id="line2d_41">
     <path d="M 632.9325 51.918312 
L 652.9325 51.918312 
" style="fill:none;stroke:#348abd;stroke-linecap:square;stroke-width:1.5;"/>
    </g>
    <g id="line2d_42"/>
    <g id="text_22">
     <!-- Scully -->
     <g transform="translate(660.9325 55.418312)scale(0.1 -0.1)">
      <use xlink:href="#DejaVuSans-83"/>
      <use x="63.476562" xlink:href="#DejaVuSans-99"/>
      <use x="118.457031" xlink:href="#DejaVuSans-117"/>
      <use x="181.835938" xlink:href="#DejaVuSans-108"/>
      <use x="209.619141" xlink:href="#DejaVuSans-108"/>
      <use x="237.402344" xlink:href="#DejaVuSans-121"/>
     </g>
    </g>
   </g>
  </g>
 </g>
 <defs>
  <clipPath id="pb2a60cb264">
   <rect height="215.4" width="649.025" x="55.26375" y="24.14175"/>
  </clipPath>
 </defs>
</svg>
